%TF.GenerationSoftware,KiCad,Pcbnew,(6.0.6)*%
%TF.CreationDate,2022-12-20T11:11:53-08:00*%
%TF.ProjectId,AS-MULTI-UNO-01,41532d4d-554c-4544-992d-554e4f2d3031,rev?*%
%TF.SameCoordinates,Original*%
%TF.FileFunction,Copper,L1,Top*%
%TF.FilePolarity,Positive*%
%FSLAX46Y46*%
G04 Gerber Fmt 4.6, Leading zero omitted, Abs format (unit mm)*
G04 Created by KiCad (PCBNEW (6.0.6)) date 2022-12-20 11:11:53*
%MOMM*%
%LPD*%
G01*
G04 APERTURE LIST*
%TA.AperFunction,ComponentPad*%
%ADD10C,1.500000*%
%TD*%
%TA.AperFunction,ComponentPad*%
%ADD11C,1.600000*%
%TD*%
%TA.AperFunction,ComponentPad*%
%ADD12R,1.600000X1.600000*%
%TD*%
%TA.AperFunction,ComponentPad*%
%ADD13O,1.600000X1.600000*%
%TD*%
%TA.AperFunction,ComponentPad*%
%ADD14R,1.700000X1.700000*%
%TD*%
%TA.AperFunction,ComponentPad*%
%ADD15O,1.700000X1.700000*%
%TD*%
%TA.AperFunction,ViaPad*%
%ADD16C,0.800000*%
%TD*%
%TA.AperFunction,Conductor*%
%ADD17C,0.250000*%
%TD*%
%TA.AperFunction,Conductor*%
%ADD18C,0.750000*%
%TD*%
G04 APERTURE END LIST*
D10*
%TO.P,Y1,1,1*%
%TO.N,/XTAL1*%
X101244400Y-98425000D03*
%TO.P,Y1,2,2*%
%TO.N,/XTAL2*%
X106124400Y-98425000D03*
%TD*%
D11*
%TO.P,C4,1*%
%TO.N,VCC*%
X97149600Y-94259400D03*
%TO.P,C4,2*%
%TO.N,GND*%
X99649600Y-94259400D03*
%TD*%
%TO.P,C2,1*%
%TO.N,/XTAL2*%
X105054400Y-102616000D03*
%TO.P,C2,2*%
%TO.N,GND*%
X107554400Y-102616000D03*
%TD*%
%TO.P,C3,1*%
%TO.N,VCC*%
X102265800Y-80619600D03*
%TO.P,C3,2*%
%TO.N,GND*%
X99765800Y-80619600D03*
%TD*%
%TO.P,C5,1*%
%TO.N,/AREF*%
X121889200Y-109321600D03*
%TO.P,C5,2*%
%TO.N,GND*%
X124389200Y-109321600D03*
%TD*%
D12*
%TO.P,U1,1,~{RESET}/PC6*%
%TO.N,/RESET*%
X81940400Y-91313000D03*
D13*
%TO.P,U1,2,PD0*%
%TO.N,/D0{slash}RX*%
X84480400Y-91313000D03*
%TO.P,U1,3,PD1*%
%TO.N,/D1{slash}TX*%
X87020400Y-91313000D03*
%TO.P,U1,4,PD2*%
%TO.N,/D2*%
X89560400Y-91313000D03*
%TO.P,U1,5,PD3*%
%TO.N,/D3*%
X92100400Y-91313000D03*
%TO.P,U1,6,PD4*%
%TO.N,/D4*%
X94640400Y-91313000D03*
%TO.P,U1,7,VCC*%
%TO.N,VCC*%
X97180400Y-91313000D03*
%TO.P,U1,8,GND*%
%TO.N,GND*%
X99720400Y-91313000D03*
%TO.P,U1,9,XTAL1/PB6*%
%TO.N,/XTAL1*%
X102260400Y-91313000D03*
%TO.P,U1,10,XTAL2/PB7*%
%TO.N,/XTAL2*%
X104800400Y-91313000D03*
%TO.P,U1,11,PD5*%
%TO.N,/D5*%
X107340400Y-91313000D03*
%TO.P,U1,12,PD6*%
%TO.N,/D6*%
X109880400Y-91313000D03*
%TO.P,U1,13,PD7*%
%TO.N,/D7*%
X112420400Y-91313000D03*
%TO.P,U1,14,PB0*%
%TO.N,/D8*%
X114960400Y-91313000D03*
%TO.P,U1,15,PB1*%
%TO.N,/D9*%
X114960400Y-83693000D03*
%TO.P,U1,16,PB2*%
%TO.N,/D10*%
X112420400Y-83693000D03*
%TO.P,U1,17,PB3*%
%TO.N,/D11*%
X109880400Y-83693000D03*
%TO.P,U1,18,PB4*%
%TO.N,/D12*%
X107340400Y-83693000D03*
%TO.P,U1,19,PB5*%
%TO.N,/D13*%
X104800400Y-83693000D03*
%TO.P,U1,20,AVCC*%
%TO.N,VCC*%
X102260400Y-83693000D03*
%TO.P,U1,21,AREF*%
%TO.N,/AREF*%
X99720400Y-83693000D03*
%TO.P,U1,22,GND*%
%TO.N,GND*%
X97180400Y-83693000D03*
%TO.P,U1,23,PC0*%
%TO.N,/A0*%
X94640400Y-83693000D03*
%TO.P,U1,24,PC1*%
%TO.N,/A1*%
X92100400Y-83693000D03*
%TO.P,U1,25,PC2*%
%TO.N,/A2*%
X89560400Y-83693000D03*
%TO.P,U1,26,PC3*%
%TO.N,/A3*%
X87020400Y-83693000D03*
%TO.P,U1,27,PC4*%
%TO.N,/A4*%
X84480400Y-83693000D03*
%TO.P,U1,28,PC5*%
%TO.N,/A5*%
X81940400Y-83693000D03*
%TD*%
D14*
%TO.P,J1,1,Pin_1*%
%TO.N,/D12*%
X131531600Y-84856400D03*
D15*
%TO.P,J1,2,Pin_2*%
%TO.N,VCC*%
X131531600Y-87396400D03*
%TO.P,J1,3,Pin_3*%
%TO.N,/D13*%
X128991600Y-84856400D03*
%TO.P,J1,4,Pin_4*%
%TO.N,/D11*%
X128991600Y-87396400D03*
%TO.P,J1,5,Pin_5*%
%TO.N,/RESET*%
X126451600Y-84856400D03*
%TO.P,J1,6,Pin_6*%
%TO.N,GND*%
X126451600Y-87396400D03*
%TD*%
D11*
%TO.P,R1,1*%
%TO.N,VCC*%
X120243600Y-74218800D03*
D13*
%TO.P,R1,2*%
%TO.N,/RESET*%
X112623600Y-74218800D03*
%TD*%
D11*
%TO.P,C1,1*%
%TO.N,/XTAL1*%
X101376800Y-102590600D03*
%TO.P,C1,2*%
%TO.N,GND*%
X98876800Y-102590600D03*
%TD*%
D12*
%TO.P,A1,1,NC*%
%TO.N,unconnected-(A1-Pad1)*%
X117805200Y-66852800D03*
D13*
%TO.P,A1,2,IOREF*%
%TO.N,VCC*%
X115265200Y-66852800D03*
%TO.P,A1,3,~{RESET}*%
%TO.N,/RESET*%
X112725200Y-66852800D03*
%TO.P,A1,4,3V3*%
%TO.N,VCC*%
X110185200Y-66852800D03*
%TO.P,A1,5,+5V*%
X107645200Y-66852800D03*
%TO.P,A1,6,GND*%
%TO.N,GND*%
X105105200Y-66852800D03*
%TO.P,A1,7,GND*%
X102565200Y-66852800D03*
%TO.P,A1,8,VIN*%
%TO.N,VCC*%
X100025200Y-66852800D03*
%TO.P,A1,9,A0*%
%TO.N,/A0*%
X94945200Y-66852800D03*
%TO.P,A1,10,A1*%
%TO.N,/A1*%
X92405200Y-66852800D03*
%TO.P,A1,11,A2*%
%TO.N,/A2*%
X89865200Y-66852800D03*
%TO.P,A1,12,A3*%
%TO.N,/A3*%
X87325200Y-66852800D03*
%TO.P,A1,13,SDA/A4*%
%TO.N,/A4*%
X84785200Y-66852800D03*
%TO.P,A1,14,SCL/A5*%
%TO.N,/A5*%
X82245200Y-66852800D03*
%TO.P,A1,15,D0/RX*%
%TO.N,/D0{slash}RX*%
X82245200Y-115112800D03*
%TO.P,A1,16,D1/TX*%
%TO.N,/D1{slash}TX*%
X84785200Y-115112800D03*
%TO.P,A1,17,D2*%
%TO.N,/D2*%
X87325200Y-115112800D03*
%TO.P,A1,18,D3*%
%TO.N,/D3*%
X89865200Y-115112800D03*
%TO.P,A1,19,D4*%
%TO.N,/D4*%
X92405200Y-115112800D03*
%TO.P,A1,20,D5*%
%TO.N,/D5*%
X94945200Y-115112800D03*
%TO.P,A1,21,D6*%
%TO.N,/D6*%
X97485200Y-115112800D03*
%TO.P,A1,22,D7*%
%TO.N,/D7*%
X100025200Y-115112800D03*
%TO.P,A1,23,D8*%
%TO.N,/D8*%
X104085200Y-115112800D03*
%TO.P,A1,24,D9*%
%TO.N,/D9*%
X106625200Y-115112800D03*
%TO.P,A1,25,D10*%
%TO.N,/D10*%
X109165200Y-115112800D03*
%TO.P,A1,26,D11*%
%TO.N,/D11*%
X111705200Y-115112800D03*
%TO.P,A1,27,D12*%
%TO.N,/D12*%
X114245200Y-115112800D03*
%TO.P,A1,28,D13*%
%TO.N,/D13*%
X116785200Y-115112800D03*
%TO.P,A1,29,GND*%
%TO.N,GND*%
X119325200Y-115112800D03*
%TO.P,A1,30,AREF*%
%TO.N,/AREF*%
X121865200Y-115112800D03*
%TO.P,A1,31,SDA/A4*%
%TO.N,/A4*%
X124405200Y-115112800D03*
%TO.P,A1,32,SCL/A5*%
%TO.N,/A5*%
X126945200Y-115112800D03*
%TD*%
D16*
%TO.N,/D5*%
X90754200Y-89458800D03*
X97104200Y-89458800D03*
%TO.N,/D6*%
X93345000Y-88519000D03*
X98374200Y-88519000D03*
%TO.N,/D9*%
X106781600Y-105892600D03*
%TO.N,/D10*%
X111125000Y-94386400D03*
%TO.N,/D11*%
X110769400Y-96062800D03*
%TO.N,/D12*%
X123901200Y-81127600D03*
X111556800Y-98679000D03*
%TO.N,/D13*%
X104800400Y-86674100D03*
%TD*%
D17*
%TO.N,/RESET*%
X112623600Y-74218800D02*
X115814000Y-74218800D01*
X115814000Y-74218800D02*
X126451600Y-84856400D01*
X112725200Y-74117200D02*
X112623600Y-74218800D01*
X81940400Y-91313000D02*
X79070200Y-88442800D01*
X85674200Y-74218800D02*
X112623600Y-74218800D01*
X79070200Y-80822800D02*
X85674200Y-74218800D01*
X79070200Y-88442800D02*
X79070200Y-80822800D01*
X112725200Y-66852800D02*
X112725200Y-74117200D01*
%TO.N,/A4*%
X115189000Y-78359000D02*
X123240800Y-86410800D01*
X89814400Y-78359000D02*
X115189000Y-78359000D01*
X124405200Y-111324200D02*
X123240800Y-110159800D01*
X84480400Y-83693000D02*
X89814400Y-78359000D01*
X123240800Y-86410800D02*
X123240800Y-105613200D01*
X124405200Y-115112800D02*
X124405200Y-111324200D01*
X123240800Y-110159800D02*
X123240800Y-105486200D01*
%TO.N,/A5*%
X88214200Y-77419200D02*
X115239800Y-77419200D01*
X124282200Y-86461600D02*
X124282200Y-100533200D01*
X124282200Y-100533200D02*
X126945200Y-103196200D01*
X126945200Y-103196200D02*
X126945200Y-115112800D01*
X81940400Y-83693000D02*
X88214200Y-77419200D01*
X115239800Y-77419200D02*
X124282200Y-86461600D01*
%TO.N,/D5*%
X105486200Y-89458800D02*
X97104200Y-89458800D01*
X107340400Y-91313000D02*
X105486200Y-89458800D01*
X90754200Y-110921800D02*
X94945200Y-115112800D01*
X90754200Y-89458800D02*
X90754200Y-110921800D01*
%TO.N,/D6*%
X93345000Y-88519000D02*
X93345000Y-110972600D01*
X93345000Y-110972600D02*
X97485200Y-115112800D01*
X107086400Y-88519000D02*
X98374200Y-88519000D01*
X109880400Y-91313000D02*
X107086400Y-88519000D01*
%TO.N,/D7*%
X108610400Y-87503000D02*
X95935800Y-87503000D01*
X112420400Y-91313000D02*
X108610400Y-87503000D01*
X95935800Y-87503000D02*
X95935800Y-102260400D01*
X100025200Y-106349800D02*
X100025200Y-115112800D01*
X95935800Y-102260400D02*
X100025200Y-106349800D01*
%TO.N,/D9*%
X106781600Y-105892600D02*
X106625200Y-106049000D01*
X106625200Y-106049000D02*
X106625200Y-115112800D01*
%TO.N,/D10*%
X111125000Y-94386400D02*
X109165200Y-96346200D01*
X109165200Y-96346200D02*
X109165200Y-115112800D01*
%TO.N,/D11*%
X110769400Y-96062800D02*
X110769400Y-114177000D01*
X110769400Y-114177000D02*
X111705200Y-115112800D01*
%TO.N,/D12*%
X123901200Y-81127600D02*
X127802800Y-81127600D01*
X127802800Y-81127600D02*
X131531600Y-84856400D01*
X111556800Y-98679000D02*
X114245200Y-101367400D01*
X114245200Y-101367400D02*
X114245200Y-115112800D01*
%TO.N,/D13*%
X104816500Y-86690200D02*
X115112800Y-86690200D01*
X104800400Y-86674100D02*
X104816500Y-86690200D01*
X116785200Y-115112800D02*
X116785200Y-88362600D01*
X116785200Y-88362600D02*
X115112800Y-86690200D01*
D18*
%TO.N,/AREF*%
X121889200Y-109321600D02*
X121889200Y-115088800D01*
D17*
X121889200Y-115088800D02*
X121865200Y-115112800D01*
D18*
X121889200Y-90063000D02*
X121889200Y-109321600D01*
X117525800Y-85699600D02*
X121889200Y-90063000D01*
X99720400Y-83693000D02*
X101727000Y-85699600D01*
X101727000Y-85699600D02*
X117525800Y-85699600D01*
%TD*%
%TA.AperFunction,Conductor*%
%TO.N,GND*%
G36*
X130753900Y-64739339D02*
G01*
X130822013Y-64759367D01*
X130868486Y-64813041D01*
X130878563Y-64883319D01*
X130849045Y-64947888D01*
X130811642Y-64977305D01*
X130680388Y-65045050D01*
X130676887Y-65047511D01*
X130676883Y-65047513D01*
X130666794Y-65054604D01*
X130445177Y-65210359D01*
X130234578Y-65406060D01*
X130052487Y-65628532D01*
X129902273Y-65873658D01*
X129900547Y-65877591D01*
X129900546Y-65877592D01*
X129841101Y-66013011D01*
X129786717Y-66136902D01*
X129785542Y-66141029D01*
X129785541Y-66141030D01*
X129747336Y-66275148D01*
X129707956Y-66413394D01*
X129667449Y-66698016D01*
X129667427Y-66702305D01*
X129667426Y-66702312D01*
X129665965Y-66981217D01*
X129665943Y-66985503D01*
X129666502Y-66989747D01*
X129666502Y-66989751D01*
X129678917Y-67084049D01*
X129703468Y-67270534D01*
X129779329Y-67547836D01*
X129781013Y-67551784D01*
X129859274Y-67735262D01*
X129892123Y-67812276D01*
X129944329Y-67899505D01*
X130009789Y-68008881D01*
X130039761Y-68058961D01*
X130219513Y-68283328D01*
X130428051Y-68481223D01*
X130661517Y-68648986D01*
X130665312Y-68650995D01*
X130665313Y-68650996D01*
X130687069Y-68662515D01*
X130915592Y-68783512D01*
X131185573Y-68882311D01*
X131466464Y-68943555D01*
X131495041Y-68945804D01*
X131689482Y-68961107D01*
X131689491Y-68961107D01*
X131691939Y-68961300D01*
X131847471Y-68961300D01*
X131849607Y-68961154D01*
X131849618Y-68961154D01*
X132057748Y-68946965D01*
X132057754Y-68946964D01*
X132062025Y-68946673D01*
X132066220Y-68945804D01*
X132066222Y-68945804D01*
X132202784Y-68917523D01*
X132343542Y-68888374D01*
X132614543Y-68792407D01*
X132870012Y-68660550D01*
X132873513Y-68658089D01*
X132873517Y-68658087D01*
X132987617Y-68577896D01*
X133105223Y-68495241D01*
X133315822Y-68299540D01*
X133497913Y-68077068D01*
X133648127Y-67831942D01*
X133678340Y-67763116D01*
X133761957Y-67572630D01*
X133763683Y-67568698D01*
X133792038Y-67469159D01*
X133807216Y-67415874D01*
X133842444Y-67292206D01*
X133876705Y-67051470D01*
X133882346Y-67011836D01*
X133882346Y-67011834D01*
X133882951Y-67007584D01*
X133883045Y-66989751D01*
X133884435Y-66724383D01*
X133884435Y-66724376D01*
X133884457Y-66720097D01*
X133871900Y-66624713D01*
X133847492Y-66439322D01*
X133846932Y-66435066D01*
X133771071Y-66157764D01*
X133730105Y-66061722D01*
X133659963Y-65897276D01*
X133659961Y-65897272D01*
X133658277Y-65893324D01*
X133553868Y-65718869D01*
X133512843Y-65650321D01*
X133512840Y-65650317D01*
X133510639Y-65646639D01*
X133330887Y-65422272D01*
X133122349Y-65224377D01*
X132888883Y-65056614D01*
X132867043Y-65045050D01*
X132739423Y-64977479D01*
X132688580Y-64927927D01*
X132672598Y-64858752D01*
X132696552Y-64791919D01*
X132752836Y-64748645D01*
X132798430Y-64740125D01*
X145110748Y-64744857D01*
X145178861Y-64764885D01*
X145225334Y-64818559D01*
X145236700Y-64870857D01*
X145236700Y-117018300D01*
X145216698Y-117086421D01*
X145163042Y-117132914D01*
X145110700Y-117144300D01*
X131680057Y-117144300D01*
X131611936Y-117124298D01*
X131565443Y-117070642D01*
X131555339Y-117000368D01*
X131584833Y-116935788D01*
X131607606Y-116915213D01*
X131674465Y-116868223D01*
X131835223Y-116755241D01*
X132045822Y-116559540D01*
X132227913Y-116337068D01*
X132378127Y-116091942D01*
X132437319Y-115957100D01*
X132491957Y-115832630D01*
X132493683Y-115828698D01*
X132572444Y-115552206D01*
X132612951Y-115267584D01*
X132613734Y-115118275D01*
X132614435Y-114984383D01*
X132614435Y-114984376D01*
X132614457Y-114980097D01*
X132601900Y-114884713D01*
X132589399Y-114789762D01*
X132576932Y-114695066D01*
X132574608Y-114686569D01*
X132554785Y-114614111D01*
X132501071Y-114417764D01*
X132422900Y-114234496D01*
X132389963Y-114157276D01*
X132389961Y-114157272D01*
X132388277Y-114153324D01*
X132283868Y-113978869D01*
X132242843Y-113910321D01*
X132242840Y-113910317D01*
X132240639Y-113906639D01*
X132060887Y-113682272D01*
X131852349Y-113484377D01*
X131618883Y-113316614D01*
X131597043Y-113305050D01*
X131573854Y-113292772D01*
X131364808Y-113182088D01*
X131094827Y-113083289D01*
X130813936Y-113022045D01*
X130782885Y-113019601D01*
X130590918Y-113004493D01*
X130590909Y-113004493D01*
X130588461Y-113004300D01*
X130432929Y-113004300D01*
X130430793Y-113004446D01*
X130430782Y-113004446D01*
X130222652Y-113018635D01*
X130222646Y-113018636D01*
X130218375Y-113018927D01*
X130214180Y-113019796D01*
X130214178Y-113019796D01*
X130077617Y-113048076D01*
X129936858Y-113077226D01*
X129665857Y-113173193D01*
X129410388Y-113305050D01*
X129406887Y-113307511D01*
X129406883Y-113307513D01*
X129396794Y-113314604D01*
X129175177Y-113470359D01*
X129160092Y-113484377D01*
X129050506Y-113586211D01*
X128964578Y-113666060D01*
X128782487Y-113888532D01*
X128632273Y-114133658D01*
X128630547Y-114137591D01*
X128630546Y-114137592D01*
X128571101Y-114273011D01*
X128516717Y-114396902D01*
X128437956Y-114673394D01*
X128437352Y-114677640D01*
X128436081Y-114686569D01*
X128406680Y-114751192D01*
X128347008Y-114789660D01*
X128276012Y-114789762D01*
X128216231Y-114751463D01*
X128189631Y-114701426D01*
X128180907Y-114668867D01*
X128180906Y-114668865D01*
X128179484Y-114663557D01*
X128085166Y-114461289D01*
X128085049Y-114461038D01*
X128085046Y-114461033D01*
X128082723Y-114456051D01*
X127951398Y-114268500D01*
X127789500Y-114106602D01*
X127784992Y-114103445D01*
X127784989Y-114103443D01*
X127632429Y-113996619D01*
X127588101Y-113941162D01*
X127578700Y-113893406D01*
X127578700Y-103274968D01*
X127579227Y-103263785D01*
X127580902Y-103256292D01*
X127578762Y-103188201D01*
X127578700Y-103184244D01*
X127578700Y-103156344D01*
X127578196Y-103152353D01*
X127577263Y-103140511D01*
X127576123Y-103104236D01*
X127575874Y-103096311D01*
X127573662Y-103088697D01*
X127573661Y-103088692D01*
X127570223Y-103076859D01*
X127566212Y-103057495D01*
X127564667Y-103045264D01*
X127563674Y-103037403D01*
X127560757Y-103030036D01*
X127560756Y-103030031D01*
X127547398Y-102996292D01*
X127543554Y-102985065D01*
X127533430Y-102950222D01*
X127531218Y-102942607D01*
X127520907Y-102925172D01*
X127512212Y-102907424D01*
X127504752Y-102888583D01*
X127478764Y-102852813D01*
X127472248Y-102842893D01*
X127453780Y-102811665D01*
X127453778Y-102811662D01*
X127449742Y-102804838D01*
X127435421Y-102790517D01*
X127422580Y-102775483D01*
X127415331Y-102765506D01*
X127410672Y-102759093D01*
X127376595Y-102730902D01*
X127367816Y-102722912D01*
X124952605Y-100307700D01*
X124918579Y-100245388D01*
X124915700Y-100218605D01*
X124915700Y-87868882D01*
X124935702Y-87800761D01*
X124989358Y-87754268D01*
X125059632Y-87744164D01*
X125124212Y-87773658D01*
X125158443Y-87821478D01*
X125233370Y-88006003D01*
X125238013Y-88015194D01*
X125349294Y-88196788D01*
X125355377Y-88205099D01*
X125494813Y-88366067D01*
X125502180Y-88373283D01*
X125666034Y-88509316D01*
X125674481Y-88515231D01*
X125858356Y-88622679D01*
X125867642Y-88627129D01*
X126066601Y-88703103D01*
X126076499Y-88705979D01*
X126179850Y-88727006D01*
X126193899Y-88725810D01*
X126197600Y-88715465D01*
X126197600Y-87268400D01*
X126217602Y-87200279D01*
X126271258Y-87153786D01*
X126323600Y-87142400D01*
X126579600Y-87142400D01*
X126647721Y-87162402D01*
X126694214Y-87216058D01*
X126705600Y-87268400D01*
X126705600Y-88714917D01*
X126709664Y-88728759D01*
X126723078Y-88730793D01*
X126729784Y-88729934D01*
X126739862Y-88727792D01*
X126943855Y-88666591D01*
X126953442Y-88662833D01*
X127144695Y-88569139D01*
X127153545Y-88563864D01*
X127326928Y-88440192D01*
X127334800Y-88433539D01*
X127485652Y-88283212D01*
X127492330Y-88275365D01*
X127619622Y-88098219D01*
X127620879Y-88099122D01*
X127667973Y-88055762D01*
X127737911Y-88043545D01*
X127803351Y-88071078D01*
X127831179Y-88102911D01*
X127891587Y-88201488D01*
X128037850Y-88370338D01*
X128113976Y-88433539D01*
X128204211Y-88508453D01*
X128209726Y-88513032D01*
X128402600Y-88625738D01*
X128407425Y-88627580D01*
X128407426Y-88627581D01*
X128447050Y-88642712D01*
X128611292Y-88705430D01*
X128616360Y-88706461D01*
X128616363Y-88706462D01*
X128704827Y-88724460D01*
X128830197Y-88749967D01*
X128835372Y-88750157D01*
X128835374Y-88750157D01*
X129048273Y-88757964D01*
X129048277Y-88757964D01*
X129053437Y-88758153D01*
X129058557Y-88757497D01*
X129058559Y-88757497D01*
X129269888Y-88730425D01*
X129269889Y-88730425D01*
X129275016Y-88729768D01*
X129279966Y-88728283D01*
X129484029Y-88667061D01*
X129484034Y-88667059D01*
X129488984Y-88665574D01*
X129689594Y-88567296D01*
X129871460Y-88437573D01*
X130029696Y-88279889D01*
X130121978Y-88151465D01*
X130160053Y-88098477D01*
X130161376Y-88099428D01*
X130208245Y-88056257D01*
X130278180Y-88044025D01*
X130343626Y-88071544D01*
X130371475Y-88103394D01*
X130431587Y-88201488D01*
X130577850Y-88370338D01*
X130653976Y-88433539D01*
X130744211Y-88508453D01*
X130749726Y-88513032D01*
X130942600Y-88625738D01*
X130947425Y-88627580D01*
X130947426Y-88627581D01*
X130987050Y-88642712D01*
X131151292Y-88705430D01*
X131156360Y-88706461D01*
X131156363Y-88706462D01*
X131244827Y-88724460D01*
X131370197Y-88749967D01*
X131375372Y-88750157D01*
X131375374Y-88750157D01*
X131588273Y-88757964D01*
X131588277Y-88757964D01*
X131593437Y-88758153D01*
X131598557Y-88757497D01*
X131598559Y-88757497D01*
X131809888Y-88730425D01*
X131809889Y-88730425D01*
X131815016Y-88729768D01*
X131819966Y-88728283D01*
X132024029Y-88667061D01*
X132024034Y-88667059D01*
X132028984Y-88665574D01*
X132229594Y-88567296D01*
X132411460Y-88437573D01*
X132569696Y-88279889D01*
X132661978Y-88151465D01*
X132697035Y-88102677D01*
X132700053Y-88098477D01*
X132713595Y-88071078D01*
X132796736Y-87902853D01*
X132796737Y-87902851D01*
X132799030Y-87898211D01*
X132863970Y-87684469D01*
X132893129Y-87462990D01*
X132894107Y-87422970D01*
X132894674Y-87399765D01*
X132894674Y-87399761D01*
X132894756Y-87396400D01*
X132876452Y-87173761D01*
X132822031Y-86957102D01*
X132732954Y-86752240D01*
X132625894Y-86586750D01*
X132614422Y-86569017D01*
X132614420Y-86569014D01*
X132611614Y-86564677D01*
X132596465Y-86548028D01*
X132464398Y-86402888D01*
X132433346Y-86339042D01*
X132441741Y-86268543D01*
X132486917Y-86213775D01*
X132513361Y-86200106D01*
X132619897Y-86160167D01*
X132628305Y-86157015D01*
X132744861Y-86069661D01*
X132832215Y-85953105D01*
X132883345Y-85816716D01*
X132890100Y-85754534D01*
X132890100Y-83958266D01*
X132883345Y-83896084D01*
X132832215Y-83759695D01*
X132744861Y-83643139D01*
X132628305Y-83555785D01*
X132491916Y-83504655D01*
X132429734Y-83497900D01*
X131121194Y-83497900D01*
X131053073Y-83477898D01*
X131032099Y-83460995D01*
X128306452Y-80735347D01*
X128298912Y-80727061D01*
X128294800Y-80720582D01*
X128245148Y-80673956D01*
X128242307Y-80671202D01*
X128222570Y-80651465D01*
X128219373Y-80648985D01*
X128210351Y-80641280D01*
X128206198Y-80637380D01*
X128178121Y-80611014D01*
X128171175Y-80607195D01*
X128171172Y-80607193D01*
X128160366Y-80601252D01*
X128143847Y-80590401D01*
X128140416Y-80587740D01*
X128127841Y-80577986D01*
X128120572Y-80574841D01*
X128120568Y-80574838D01*
X128087263Y-80560426D01*
X128076613Y-80555209D01*
X128037860Y-80533905D01*
X128018237Y-80528867D01*
X127999534Y-80522463D01*
X127988220Y-80517567D01*
X127988219Y-80517567D01*
X127980945Y-80514419D01*
X127973122Y-80513180D01*
X127973112Y-80513177D01*
X127937276Y-80507501D01*
X127925656Y-80505095D01*
X127890511Y-80496072D01*
X127890510Y-80496072D01*
X127882830Y-80494100D01*
X127862576Y-80494100D01*
X127842865Y-80492549D01*
X127830686Y-80490620D01*
X127822857Y-80489380D01*
X127800441Y-80491499D01*
X127778839Y-80493541D01*
X127766981Y-80494100D01*
X124609400Y-80494100D01*
X124541279Y-80474098D01*
X124522053Y-80457757D01*
X124521780Y-80458060D01*
X124516868Y-80453637D01*
X124512453Y-80448734D01*
X124422382Y-80383293D01*
X124363294Y-80340363D01*
X124363293Y-80340362D01*
X124357952Y-80336482D01*
X124351924Y-80333798D01*
X124351922Y-80333797D01*
X124189519Y-80261491D01*
X124189518Y-80261491D01*
X124183488Y-80258806D01*
X124090087Y-80238953D01*
X124003144Y-80220472D01*
X124003139Y-80220472D01*
X123996687Y-80219100D01*
X123805713Y-80219100D01*
X123799261Y-80220472D01*
X123799256Y-80220472D01*
X123712313Y-80238953D01*
X123618912Y-80258806D01*
X123612882Y-80261491D01*
X123612881Y-80261491D01*
X123450478Y-80333797D01*
X123450476Y-80333798D01*
X123444448Y-80336482D01*
X123289947Y-80448734D01*
X123212909Y-80534293D01*
X123152467Y-80571531D01*
X123081483Y-80570180D01*
X123030181Y-80539076D01*
X116709905Y-74218800D01*
X118930102Y-74218800D01*
X118950057Y-74446887D01*
X119009316Y-74668043D01*
X119011639Y-74673024D01*
X119011639Y-74673025D01*
X119103751Y-74870562D01*
X119103754Y-74870567D01*
X119106077Y-74875549D01*
X119237402Y-75063100D01*
X119399300Y-75224998D01*
X119403808Y-75228155D01*
X119403811Y-75228157D01*
X119481989Y-75282898D01*
X119586851Y-75356323D01*
X119591833Y-75358646D01*
X119591838Y-75358649D01*
X119789375Y-75450761D01*
X119794357Y-75453084D01*
X119799665Y-75454506D01*
X119799667Y-75454507D01*
X120010198Y-75510919D01*
X120010200Y-75510919D01*
X120015513Y-75512343D01*
X120243600Y-75532298D01*
X120471687Y-75512343D01*
X120477000Y-75510919D01*
X120477002Y-75510919D01*
X120687533Y-75454507D01*
X120687535Y-75454506D01*
X120692843Y-75453084D01*
X120697825Y-75450761D01*
X120895362Y-75358649D01*
X120895367Y-75358646D01*
X120900349Y-75356323D01*
X121005211Y-75282898D01*
X121083389Y-75228157D01*
X121083392Y-75228155D01*
X121087900Y-75224998D01*
X121249798Y-75063100D01*
X121381123Y-74875549D01*
X121383446Y-74870567D01*
X121383449Y-74870562D01*
X121475561Y-74673025D01*
X121475561Y-74673024D01*
X121477884Y-74668043D01*
X121537143Y-74446887D01*
X121557098Y-74218800D01*
X121537143Y-73990713D01*
X121529533Y-73962311D01*
X121479307Y-73774867D01*
X121479306Y-73774865D01*
X121477884Y-73769557D01*
X121465274Y-73742515D01*
X121383449Y-73567038D01*
X121383446Y-73567033D01*
X121381123Y-73562051D01*
X121307698Y-73457189D01*
X121252957Y-73379011D01*
X121252955Y-73379008D01*
X121249798Y-73374500D01*
X121087900Y-73212602D01*
X121083392Y-73209445D01*
X121083389Y-73209443D01*
X120978700Y-73136139D01*
X120900349Y-73081277D01*
X120895367Y-73078954D01*
X120895362Y-73078951D01*
X120697825Y-72986839D01*
X120697824Y-72986839D01*
X120692843Y-72984516D01*
X120687535Y-72983094D01*
X120687533Y-72983093D01*
X120477002Y-72926681D01*
X120477000Y-72926681D01*
X120471687Y-72925257D01*
X120243600Y-72905302D01*
X120015513Y-72925257D01*
X120010200Y-72926681D01*
X120010198Y-72926681D01*
X119799667Y-72983093D01*
X119799665Y-72983094D01*
X119794357Y-72984516D01*
X119789376Y-72986839D01*
X119789375Y-72986839D01*
X119591838Y-73078951D01*
X119591833Y-73078954D01*
X119586851Y-73081277D01*
X119508500Y-73136139D01*
X119403811Y-73209443D01*
X119403808Y-73209445D01*
X119399300Y-73212602D01*
X119237402Y-73374500D01*
X119234245Y-73379008D01*
X119234243Y-73379011D01*
X119179502Y-73457189D01*
X119106077Y-73562051D01*
X119103754Y-73567033D01*
X119103751Y-73567038D01*
X119021926Y-73742515D01*
X119009316Y-73769557D01*
X119007894Y-73774865D01*
X119007893Y-73774867D01*
X118957667Y-73962311D01*
X118950057Y-73990713D01*
X118930102Y-74218800D01*
X116709905Y-74218800D01*
X116317652Y-73826547D01*
X116310112Y-73818261D01*
X116306000Y-73811782D01*
X116256348Y-73765156D01*
X116253507Y-73762402D01*
X116233770Y-73742665D01*
X116230573Y-73740185D01*
X116221551Y-73732480D01*
X116208116Y-73719864D01*
X116189321Y-73702214D01*
X116182375Y-73698395D01*
X116182372Y-73698393D01*
X116171566Y-73692452D01*
X116155047Y-73681601D01*
X116154583Y-73681241D01*
X116139041Y-73669186D01*
X116131772Y-73666041D01*
X116131768Y-73666038D01*
X116098463Y-73651626D01*
X116087813Y-73646409D01*
X116049060Y-73625105D01*
X116029437Y-73620067D01*
X116010734Y-73613663D01*
X115999420Y-73608767D01*
X115999419Y-73608767D01*
X115992145Y-73605619D01*
X115984322Y-73604380D01*
X115984312Y-73604377D01*
X115948476Y-73598701D01*
X115936856Y-73596295D01*
X115901711Y-73587272D01*
X115901710Y-73587272D01*
X115894030Y-73585300D01*
X115873776Y-73585300D01*
X115854065Y-73583749D01*
X115851534Y-73583348D01*
X115834057Y-73580580D01*
X115826165Y-73581326D01*
X115790039Y-73584741D01*
X115778181Y-73585300D01*
X113842994Y-73585300D01*
X113774873Y-73565298D01*
X113739781Y-73531571D01*
X113632957Y-73379011D01*
X113632955Y-73379008D01*
X113629798Y-73374500D01*
X113467900Y-73212602D01*
X113463389Y-73209443D01*
X113463384Y-73209439D01*
X113412430Y-73173761D01*
X113368101Y-73118304D01*
X113358700Y-73070548D01*
X113358700Y-68072194D01*
X113378702Y-68004073D01*
X113412429Y-67968981D01*
X113564989Y-67862157D01*
X113564992Y-67862155D01*
X113569500Y-67858998D01*
X113731398Y-67697100D01*
X113862723Y-67509549D01*
X113865046Y-67504567D01*
X113865049Y-67504562D01*
X113881005Y-67470343D01*
X113927922Y-67417058D01*
X113996199Y-67397597D01*
X114064159Y-67418139D01*
X114109395Y-67470343D01*
X114125351Y-67504562D01*
X114125354Y-67504567D01*
X114127677Y-67509549D01*
X114259002Y-67697100D01*
X114420900Y-67858998D01*
X114425408Y-67862155D01*
X114425411Y-67862157D01*
X114466742Y-67891097D01*
X114608451Y-67990323D01*
X114613433Y-67992646D01*
X114613438Y-67992649D01*
X114762824Y-68062308D01*
X114815957Y-68087084D01*
X114821265Y-68088506D01*
X114821267Y-68088507D01*
X115031798Y-68144919D01*
X115031800Y-68144919D01*
X115037113Y-68146343D01*
X115265200Y-68166298D01*
X115493287Y-68146343D01*
X115498600Y-68144919D01*
X115498602Y-68144919D01*
X115709133Y-68088507D01*
X115709135Y-68088506D01*
X115714443Y-68087084D01*
X115767576Y-68062308D01*
X115916962Y-67992649D01*
X115916967Y-67992646D01*
X115921949Y-67990323D01*
X116063658Y-67891097D01*
X116104989Y-67862157D01*
X116104992Y-67862155D01*
X116109500Y-67858998D01*
X116271398Y-67697100D01*
X116274557Y-67692589D01*
X116278092Y-67688376D01*
X116279226Y-67689327D01*
X116329271Y-67649329D01*
X116399890Y-67642024D01*
X116463249Y-67674058D01*
X116499230Y-67735262D01*
X116502282Y-67752317D01*
X116503455Y-67763116D01*
X116554585Y-67899505D01*
X116641939Y-68016061D01*
X116758495Y-68103415D01*
X116894884Y-68154545D01*
X116957066Y-68161300D01*
X118653334Y-68161300D01*
X118715516Y-68154545D01*
X118851905Y-68103415D01*
X118968461Y-68016061D01*
X119055815Y-67899505D01*
X119106945Y-67763116D01*
X119113700Y-67700934D01*
X119113700Y-66004666D01*
X119106945Y-65942484D01*
X119055815Y-65806095D01*
X118968461Y-65689539D01*
X118851905Y-65602185D01*
X118715516Y-65551055D01*
X118653334Y-65544300D01*
X116957066Y-65544300D01*
X116894884Y-65551055D01*
X116758495Y-65602185D01*
X116641939Y-65689539D01*
X116554585Y-65806095D01*
X116503455Y-65942484D01*
X116502283Y-65953274D01*
X116501397Y-65955406D01*
X116500775Y-65958022D01*
X116500352Y-65957921D01*
X116475045Y-66018835D01*
X116416683Y-66059263D01*
X116345729Y-66061722D01*
X116284710Y-66025429D01*
X116277711Y-66016769D01*
X116274554Y-66013007D01*
X116271398Y-66008500D01*
X116109500Y-65846602D01*
X116104992Y-65843445D01*
X116104989Y-65843443D01*
X116026811Y-65788702D01*
X115921949Y-65715277D01*
X115916967Y-65712954D01*
X115916962Y-65712951D01*
X115719425Y-65620839D01*
X115719424Y-65620839D01*
X115714443Y-65618516D01*
X115709135Y-65617094D01*
X115709133Y-65617093D01*
X115498602Y-65560681D01*
X115498600Y-65560681D01*
X115493287Y-65559257D01*
X115265200Y-65539302D01*
X115037113Y-65559257D01*
X115031800Y-65560681D01*
X115031798Y-65560681D01*
X114821267Y-65617093D01*
X114821265Y-65617094D01*
X114815957Y-65618516D01*
X114810976Y-65620839D01*
X114810975Y-65620839D01*
X114613438Y-65712951D01*
X114613433Y-65712954D01*
X114608451Y-65715277D01*
X114503589Y-65788702D01*
X114425411Y-65843443D01*
X114425408Y-65843445D01*
X114420900Y-65846602D01*
X114259002Y-66008500D01*
X114127677Y-66196051D01*
X114125354Y-66201033D01*
X114125351Y-66201038D01*
X114109395Y-66235257D01*
X114062478Y-66288542D01*
X113994201Y-66308003D01*
X113926241Y-66287461D01*
X113881005Y-66235257D01*
X113865049Y-66201038D01*
X113865046Y-66201033D01*
X113862723Y-66196051D01*
X113731398Y-66008500D01*
X113569500Y-65846602D01*
X113564992Y-65843445D01*
X113564989Y-65843443D01*
X113486811Y-65788702D01*
X113381949Y-65715277D01*
X113376967Y-65712954D01*
X113376962Y-65712951D01*
X113179425Y-65620839D01*
X113179424Y-65620839D01*
X113174443Y-65618516D01*
X113169135Y-65617094D01*
X113169133Y-65617093D01*
X112958602Y-65560681D01*
X112958600Y-65560681D01*
X112953287Y-65559257D01*
X112725200Y-65539302D01*
X112497113Y-65559257D01*
X112491800Y-65560681D01*
X112491798Y-65560681D01*
X112281267Y-65617093D01*
X112281265Y-65617094D01*
X112275957Y-65618516D01*
X112270976Y-65620839D01*
X112270975Y-65620839D01*
X112073438Y-65712951D01*
X112073433Y-65712954D01*
X112068451Y-65715277D01*
X111963589Y-65788702D01*
X111885411Y-65843443D01*
X111885408Y-65843445D01*
X111880900Y-65846602D01*
X111719002Y-66008500D01*
X111587677Y-66196051D01*
X111585354Y-66201033D01*
X111585351Y-66201038D01*
X111569395Y-66235257D01*
X111522478Y-66288542D01*
X111454201Y-66308003D01*
X111386241Y-66287461D01*
X111341005Y-66235257D01*
X111325049Y-66201038D01*
X111325046Y-66201033D01*
X111322723Y-66196051D01*
X111191398Y-66008500D01*
X111029500Y-65846602D01*
X111024992Y-65843445D01*
X111024989Y-65843443D01*
X110946811Y-65788702D01*
X110841949Y-65715277D01*
X110836967Y-65712954D01*
X110836962Y-65712951D01*
X110639425Y-65620839D01*
X110639424Y-65620839D01*
X110634443Y-65618516D01*
X110629135Y-65617094D01*
X110629133Y-65617093D01*
X110418602Y-65560681D01*
X110418600Y-65560681D01*
X110413287Y-65559257D01*
X110185200Y-65539302D01*
X109957113Y-65559257D01*
X109951800Y-65560681D01*
X109951798Y-65560681D01*
X109741267Y-65617093D01*
X109741265Y-65617094D01*
X109735957Y-65618516D01*
X109730976Y-65620839D01*
X109730975Y-65620839D01*
X109533438Y-65712951D01*
X109533433Y-65712954D01*
X109528451Y-65715277D01*
X109423589Y-65788702D01*
X109345411Y-65843443D01*
X109345408Y-65843445D01*
X109340900Y-65846602D01*
X109179002Y-66008500D01*
X109047677Y-66196051D01*
X109045354Y-66201033D01*
X109045351Y-66201038D01*
X109029395Y-66235257D01*
X108982478Y-66288542D01*
X108914201Y-66308003D01*
X108846241Y-66287461D01*
X108801005Y-66235257D01*
X108785049Y-66201038D01*
X108785046Y-66201033D01*
X108782723Y-66196051D01*
X108651398Y-66008500D01*
X108489500Y-65846602D01*
X108484992Y-65843445D01*
X108484989Y-65843443D01*
X108406811Y-65788702D01*
X108301949Y-65715277D01*
X108296967Y-65712954D01*
X108296962Y-65712951D01*
X108099425Y-65620839D01*
X108099424Y-65620839D01*
X108094443Y-65618516D01*
X108089135Y-65617094D01*
X108089133Y-65617093D01*
X107878602Y-65560681D01*
X107878600Y-65560681D01*
X107873287Y-65559257D01*
X107645200Y-65539302D01*
X107417113Y-65559257D01*
X107411800Y-65560681D01*
X107411798Y-65560681D01*
X107201267Y-65617093D01*
X107201265Y-65617094D01*
X107195957Y-65618516D01*
X107190976Y-65620839D01*
X107190975Y-65620839D01*
X106993438Y-65712951D01*
X106993433Y-65712954D01*
X106988451Y-65715277D01*
X106883589Y-65788702D01*
X106805411Y-65843443D01*
X106805408Y-65843445D01*
X106800900Y-65846602D01*
X106639002Y-66008500D01*
X106507677Y-66196051D01*
X106505354Y-66201033D01*
X106505351Y-66201038D01*
X106489119Y-66235849D01*
X106442202Y-66289134D01*
X106373925Y-66308595D01*
X106305965Y-66288053D01*
X106260729Y-66235849D01*
X106244614Y-66201289D01*
X106239131Y-66191793D01*
X106114172Y-66013333D01*
X106107116Y-66004925D01*
X105953075Y-65850884D01*
X105944667Y-65843828D01*
X105766207Y-65718869D01*
X105756711Y-65713386D01*
X105559253Y-65621310D01*
X105548961Y-65617564D01*
X105376697Y-65571406D01*
X105362601Y-65571742D01*
X105359200Y-65579684D01*
X105359200Y-68120767D01*
X105363173Y-68134298D01*
X105371722Y-68135527D01*
X105548961Y-68088036D01*
X105559253Y-68084290D01*
X105756711Y-67992214D01*
X105766207Y-67986731D01*
X105944667Y-67861772D01*
X105953075Y-67854716D01*
X106107116Y-67700675D01*
X106114172Y-67692267D01*
X106239131Y-67513807D01*
X106244614Y-67504311D01*
X106260729Y-67469751D01*
X106307646Y-67416466D01*
X106375923Y-67397005D01*
X106443883Y-67417547D01*
X106489119Y-67469751D01*
X106505351Y-67504562D01*
X106505354Y-67504567D01*
X106507677Y-67509549D01*
X106639002Y-67697100D01*
X106800900Y-67858998D01*
X106805408Y-67862155D01*
X106805411Y-67862157D01*
X106846742Y-67891097D01*
X106988451Y-67990323D01*
X106993433Y-67992646D01*
X106993438Y-67992649D01*
X107142824Y-68062308D01*
X107195957Y-68087084D01*
X107201265Y-68088506D01*
X107201267Y-68088507D01*
X107411798Y-68144919D01*
X107411800Y-68144919D01*
X107417113Y-68146343D01*
X107645200Y-68166298D01*
X107873287Y-68146343D01*
X107878600Y-68144919D01*
X107878602Y-68144919D01*
X108089133Y-68088507D01*
X108089135Y-68088506D01*
X108094443Y-68087084D01*
X108147576Y-68062308D01*
X108296962Y-67992649D01*
X108296967Y-67992646D01*
X108301949Y-67990323D01*
X108443658Y-67891097D01*
X108484989Y-67862157D01*
X108484992Y-67862155D01*
X108489500Y-67858998D01*
X108651398Y-67697100D01*
X108782723Y-67509549D01*
X108785046Y-67504567D01*
X108785049Y-67504562D01*
X108801005Y-67470343D01*
X108847922Y-67417058D01*
X108916199Y-67397597D01*
X108984159Y-67418139D01*
X109029395Y-67470343D01*
X109045351Y-67504562D01*
X109045354Y-67504567D01*
X109047677Y-67509549D01*
X109179002Y-67697100D01*
X109340900Y-67858998D01*
X109345408Y-67862155D01*
X109345411Y-67862157D01*
X109386742Y-67891097D01*
X109528451Y-67990323D01*
X109533433Y-67992646D01*
X109533438Y-67992649D01*
X109682824Y-68062308D01*
X109735957Y-68087084D01*
X109741265Y-68088506D01*
X109741267Y-68088507D01*
X109951798Y-68144919D01*
X109951800Y-68144919D01*
X109957113Y-68146343D01*
X110185200Y-68166298D01*
X110413287Y-68146343D01*
X110418600Y-68144919D01*
X110418602Y-68144919D01*
X110629133Y-68088507D01*
X110629135Y-68088506D01*
X110634443Y-68087084D01*
X110687576Y-68062308D01*
X110836962Y-67992649D01*
X110836967Y-67992646D01*
X110841949Y-67990323D01*
X110983658Y-67891097D01*
X111024989Y-67862157D01*
X111024992Y-67862155D01*
X111029500Y-67858998D01*
X111191398Y-67697100D01*
X111322723Y-67509549D01*
X111325046Y-67504567D01*
X111325049Y-67504562D01*
X111341005Y-67470343D01*
X111387922Y-67417058D01*
X111456199Y-67397597D01*
X111524159Y-67418139D01*
X111569395Y-67470343D01*
X111585351Y-67504562D01*
X111585354Y-67504567D01*
X111587677Y-67509549D01*
X111719002Y-67697100D01*
X111880900Y-67858998D01*
X111885408Y-67862155D01*
X111885411Y-67862157D01*
X112037971Y-67968981D01*
X112082299Y-68024438D01*
X112091700Y-68072194D01*
X112091700Y-72942788D01*
X112071698Y-73010909D01*
X112018950Y-73056983D01*
X111971838Y-73078951D01*
X111971833Y-73078954D01*
X111966851Y-73081277D01*
X111888500Y-73136139D01*
X111783811Y-73209443D01*
X111783808Y-73209445D01*
X111779300Y-73212602D01*
X111617402Y-73374500D01*
X111614245Y-73379008D01*
X111614243Y-73379011D01*
X111507419Y-73531571D01*
X111451962Y-73575899D01*
X111404206Y-73585300D01*
X85752963Y-73585300D01*
X85741779Y-73584773D01*
X85734291Y-73583099D01*
X85726368Y-73583348D01*
X85666233Y-73585238D01*
X85662275Y-73585300D01*
X85634344Y-73585300D01*
X85630429Y-73585795D01*
X85630425Y-73585795D01*
X85630367Y-73585803D01*
X85630338Y-73585806D01*
X85618496Y-73586739D01*
X85574310Y-73588127D01*
X85556944Y-73593172D01*
X85554858Y-73593778D01*
X85535506Y-73597786D01*
X85528435Y-73598680D01*
X85515403Y-73600326D01*
X85508034Y-73603243D01*
X85508032Y-73603244D01*
X85474297Y-73616600D01*
X85463069Y-73620445D01*
X85420607Y-73632782D01*
X85413785Y-73636816D01*
X85413779Y-73636819D01*
X85403168Y-73643094D01*
X85385418Y-73651790D01*
X85373956Y-73656328D01*
X85373951Y-73656331D01*
X85366583Y-73659248D01*
X85349170Y-73671899D01*
X85330825Y-73685227D01*
X85320907Y-73691743D01*
X85309663Y-73698393D01*
X85282837Y-73714258D01*
X85268513Y-73728582D01*
X85253481Y-73741421D01*
X85237093Y-73753328D01*
X85208912Y-73787393D01*
X85200922Y-73796173D01*
X78677947Y-80319148D01*
X78669661Y-80326688D01*
X78663182Y-80330800D01*
X78657757Y-80336577D01*
X78616557Y-80380451D01*
X78613802Y-80383293D01*
X78594065Y-80403030D01*
X78591585Y-80406227D01*
X78583882Y-80415247D01*
X78553614Y-80447479D01*
X78549795Y-80454425D01*
X78549793Y-80454428D01*
X78543852Y-80465234D01*
X78533001Y-80481753D01*
X78520586Y-80497759D01*
X78517441Y-80505028D01*
X78517438Y-80505032D01*
X78503026Y-80538337D01*
X78497809Y-80548987D01*
X78476505Y-80587740D01*
X78474534Y-80595415D01*
X78474534Y-80595416D01*
X78471467Y-80607362D01*
X78465063Y-80626066D01*
X78463716Y-80629180D01*
X78457019Y-80644655D01*
X78455780Y-80652478D01*
X78455777Y-80652488D01*
X78450101Y-80688324D01*
X78447695Y-80699944D01*
X78440860Y-80726568D01*
X78436700Y-80742770D01*
X78436700Y-80763024D01*
X78435149Y-80782734D01*
X78431980Y-80802743D01*
X78435711Y-80842207D01*
X78436141Y-80846761D01*
X78436700Y-80858619D01*
X78436700Y-88364033D01*
X78436173Y-88375216D01*
X78434498Y-88382709D01*
X78434747Y-88390635D01*
X78434747Y-88390636D01*
X78436638Y-88450786D01*
X78436700Y-88454745D01*
X78436700Y-88482656D01*
X78437197Y-88486590D01*
X78437197Y-88486591D01*
X78437205Y-88486656D01*
X78438138Y-88498493D01*
X78439527Y-88542689D01*
X78442137Y-88551672D01*
X78445178Y-88562139D01*
X78449187Y-88581500D01*
X78451726Y-88601597D01*
X78454645Y-88608968D01*
X78454645Y-88608970D01*
X78468004Y-88642712D01*
X78471849Y-88653942D01*
X78481971Y-88688783D01*
X78484182Y-88696393D01*
X78488215Y-88703212D01*
X78488217Y-88703217D01*
X78494493Y-88713828D01*
X78503188Y-88731576D01*
X78510648Y-88750417D01*
X78515310Y-88756833D01*
X78515310Y-88756834D01*
X78536636Y-88786187D01*
X78543152Y-88796107D01*
X78565658Y-88834162D01*
X78579979Y-88848483D01*
X78592819Y-88863516D01*
X78604728Y-88879907D01*
X78638805Y-88908098D01*
X78647584Y-88916088D01*
X80594995Y-90863500D01*
X80629021Y-90925812D01*
X80631900Y-90952595D01*
X80631900Y-92161134D01*
X80638655Y-92223316D01*
X80689785Y-92359705D01*
X80777139Y-92476261D01*
X80893695Y-92563615D01*
X81030084Y-92614745D01*
X81092266Y-92621500D01*
X82788534Y-92621500D01*
X82850716Y-92614745D01*
X82987105Y-92563615D01*
X83103661Y-92476261D01*
X83191015Y-92359705D01*
X83242145Y-92223316D01*
X83243317Y-92212526D01*
X83244203Y-92210394D01*
X83244825Y-92207778D01*
X83245248Y-92207879D01*
X83270555Y-92146965D01*
X83328917Y-92106537D01*
X83399871Y-92104078D01*
X83460890Y-92140371D01*
X83467889Y-92149031D01*
X83471043Y-92152789D01*
X83474202Y-92157300D01*
X83636100Y-92319198D01*
X83640608Y-92322355D01*
X83640611Y-92322357D01*
X83681942Y-92351297D01*
X83823651Y-92450523D01*
X83828633Y-92452846D01*
X83828638Y-92452849D01*
X84026171Y-92544959D01*
X84031157Y-92547284D01*
X84036465Y-92548706D01*
X84036467Y-92548707D01*
X84246998Y-92605119D01*
X84247000Y-92605119D01*
X84252313Y-92606543D01*
X84480400Y-92626498D01*
X84708487Y-92606543D01*
X84713800Y-92605119D01*
X84713802Y-92605119D01*
X84924333Y-92548707D01*
X84924335Y-92548706D01*
X84929643Y-92547284D01*
X84934629Y-92544959D01*
X85132162Y-92452849D01*
X85132167Y-92452846D01*
X85137149Y-92450523D01*
X85278858Y-92351297D01*
X85320189Y-92322357D01*
X85320192Y-92322355D01*
X85324700Y-92319198D01*
X85486598Y-92157300D01*
X85617923Y-91969749D01*
X85620246Y-91964767D01*
X85620249Y-91964762D01*
X85636205Y-91930543D01*
X85683122Y-91877258D01*
X85751399Y-91857797D01*
X85819359Y-91878339D01*
X85864595Y-91930543D01*
X85880551Y-91964762D01*
X85880554Y-91964767D01*
X85882877Y-91969749D01*
X86014202Y-92157300D01*
X86176100Y-92319198D01*
X86180608Y-92322355D01*
X86180611Y-92322357D01*
X86221942Y-92351297D01*
X86363651Y-92450523D01*
X86368633Y-92452846D01*
X86368638Y-92452849D01*
X86566171Y-92544959D01*
X86571157Y-92547284D01*
X86576465Y-92548706D01*
X86576467Y-92548707D01*
X86786998Y-92605119D01*
X86787000Y-92605119D01*
X86792313Y-92606543D01*
X87020400Y-92626498D01*
X87248487Y-92606543D01*
X87253800Y-92605119D01*
X87253802Y-92605119D01*
X87464333Y-92548707D01*
X87464335Y-92548706D01*
X87469643Y-92547284D01*
X87474629Y-92544959D01*
X87672162Y-92452849D01*
X87672167Y-92452846D01*
X87677149Y-92450523D01*
X87818858Y-92351297D01*
X87860189Y-92322357D01*
X87860192Y-92322355D01*
X87864700Y-92319198D01*
X88026598Y-92157300D01*
X88157923Y-91969749D01*
X88160246Y-91964767D01*
X88160249Y-91964762D01*
X88176205Y-91930543D01*
X88223122Y-91877258D01*
X88291399Y-91857797D01*
X88359359Y-91878339D01*
X88404595Y-91930543D01*
X88420551Y-91964762D01*
X88420554Y-91964767D01*
X88422877Y-91969749D01*
X88554202Y-92157300D01*
X88716100Y-92319198D01*
X88720608Y-92322355D01*
X88720611Y-92322357D01*
X88761942Y-92351297D01*
X88903651Y-92450523D01*
X88908633Y-92452846D01*
X88908638Y-92452849D01*
X89106171Y-92544959D01*
X89111157Y-92547284D01*
X89116465Y-92548706D01*
X89116467Y-92548707D01*
X89326998Y-92605119D01*
X89327000Y-92605119D01*
X89332313Y-92606543D01*
X89560400Y-92626498D01*
X89788487Y-92606543D01*
X89962089Y-92560026D01*
X90033065Y-92561716D01*
X90091861Y-92601510D01*
X90119809Y-92666774D01*
X90120700Y-92681733D01*
X90120700Y-110843033D01*
X90120173Y-110854216D01*
X90118498Y-110861709D01*
X90118747Y-110869635D01*
X90118747Y-110869636D01*
X90120638Y-110929786D01*
X90120700Y-110933745D01*
X90120700Y-110961656D01*
X90121197Y-110965590D01*
X90121197Y-110965591D01*
X90121205Y-110965656D01*
X90122138Y-110977493D01*
X90123527Y-111021689D01*
X90127516Y-111035418D01*
X90129178Y-111041139D01*
X90133187Y-111060500D01*
X90135726Y-111080597D01*
X90138645Y-111087968D01*
X90138645Y-111087970D01*
X90152004Y-111121712D01*
X90155849Y-111132942D01*
X90168182Y-111175393D01*
X90172215Y-111182212D01*
X90172217Y-111182217D01*
X90178493Y-111192828D01*
X90187188Y-111210576D01*
X90194648Y-111229417D01*
X90199310Y-111235833D01*
X90199310Y-111235834D01*
X90220636Y-111265187D01*
X90227152Y-111275107D01*
X90249658Y-111313162D01*
X90263979Y-111327483D01*
X90276819Y-111342516D01*
X90288728Y-111358907D01*
X90301621Y-111369573D01*
X90322805Y-111387098D01*
X90331584Y-111395088D01*
X92522706Y-113586211D01*
X92556732Y-113648523D01*
X92551667Y-113719339D01*
X92509120Y-113776174D01*
X92442600Y-113800985D01*
X92422628Y-113800826D01*
X92410685Y-113799781D01*
X92410675Y-113799781D01*
X92405200Y-113799302D01*
X92177113Y-113819257D01*
X92171800Y-113820681D01*
X92171798Y-113820681D01*
X91961267Y-113877093D01*
X91961265Y-113877094D01*
X91955957Y-113878516D01*
X91950976Y-113880839D01*
X91950975Y-113880839D01*
X91753438Y-113972951D01*
X91753433Y-113972954D01*
X91748451Y-113975277D01*
X91717972Y-113996619D01*
X91565411Y-114103443D01*
X91565408Y-114103445D01*
X91560900Y-114106602D01*
X91399002Y-114268500D01*
X91267677Y-114456051D01*
X91265354Y-114461033D01*
X91265351Y-114461038D01*
X91249395Y-114495257D01*
X91202478Y-114548542D01*
X91134201Y-114568003D01*
X91066241Y-114547461D01*
X91021005Y-114495257D01*
X91005049Y-114461038D01*
X91005046Y-114461033D01*
X91002723Y-114456051D01*
X90871398Y-114268500D01*
X90709500Y-114106602D01*
X90704992Y-114103445D01*
X90704989Y-114103443D01*
X90552428Y-113996619D01*
X90521949Y-113975277D01*
X90516967Y-113972954D01*
X90516962Y-113972951D01*
X90319425Y-113880839D01*
X90319424Y-113880839D01*
X90314443Y-113878516D01*
X90309135Y-113877094D01*
X90309133Y-113877093D01*
X90098602Y-113820681D01*
X90098600Y-113820681D01*
X90093287Y-113819257D01*
X89865200Y-113799302D01*
X89637113Y-113819257D01*
X89631800Y-113820681D01*
X89631798Y-113820681D01*
X89421267Y-113877093D01*
X89421265Y-113877094D01*
X89415957Y-113878516D01*
X89410976Y-113880839D01*
X89410975Y-113880839D01*
X89213438Y-113972951D01*
X89213433Y-113972954D01*
X89208451Y-113975277D01*
X89177972Y-113996619D01*
X89025411Y-114103443D01*
X89025408Y-114103445D01*
X89020900Y-114106602D01*
X88859002Y-114268500D01*
X88727677Y-114456051D01*
X88725354Y-114461033D01*
X88725351Y-114461038D01*
X88709395Y-114495257D01*
X88662478Y-114548542D01*
X88594201Y-114568003D01*
X88526241Y-114547461D01*
X88481005Y-114495257D01*
X88465049Y-114461038D01*
X88465046Y-114461033D01*
X88462723Y-114456051D01*
X88331398Y-114268500D01*
X88169500Y-114106602D01*
X88164992Y-114103445D01*
X88164989Y-114103443D01*
X88012428Y-113996619D01*
X87981949Y-113975277D01*
X87976967Y-113972954D01*
X87976962Y-113972951D01*
X87779425Y-113880839D01*
X87779424Y-113880839D01*
X87774443Y-113878516D01*
X87769135Y-113877094D01*
X87769133Y-113877093D01*
X87558602Y-113820681D01*
X87558600Y-113820681D01*
X87553287Y-113819257D01*
X87325200Y-113799302D01*
X87097113Y-113819257D01*
X87091800Y-113820681D01*
X87091798Y-113820681D01*
X86881267Y-113877093D01*
X86881265Y-113877094D01*
X86875957Y-113878516D01*
X86870976Y-113880839D01*
X86870975Y-113880839D01*
X86673438Y-113972951D01*
X86673433Y-113972954D01*
X86668451Y-113975277D01*
X86637972Y-113996619D01*
X86485411Y-114103443D01*
X86485408Y-114103445D01*
X86480900Y-114106602D01*
X86319002Y-114268500D01*
X86187677Y-114456051D01*
X86185354Y-114461033D01*
X86185351Y-114461038D01*
X86169395Y-114495257D01*
X86122478Y-114548542D01*
X86054201Y-114568003D01*
X85986241Y-114547461D01*
X85941005Y-114495257D01*
X85925049Y-114461038D01*
X85925046Y-114461033D01*
X85922723Y-114456051D01*
X85791398Y-114268500D01*
X85629500Y-114106602D01*
X85624992Y-114103445D01*
X85624989Y-114103443D01*
X85472428Y-113996619D01*
X85441949Y-113975277D01*
X85436967Y-113972954D01*
X85436962Y-113972951D01*
X85239425Y-113880839D01*
X85239424Y-113880839D01*
X85234443Y-113878516D01*
X85229135Y-113877094D01*
X85229133Y-113877093D01*
X85018602Y-113820681D01*
X85018600Y-113820681D01*
X85013287Y-113819257D01*
X84785200Y-113799302D01*
X84557113Y-113819257D01*
X84551800Y-113820681D01*
X84551798Y-113820681D01*
X84341267Y-113877093D01*
X84341265Y-113877094D01*
X84335957Y-113878516D01*
X84330976Y-113880839D01*
X84330975Y-113880839D01*
X84133438Y-113972951D01*
X84133433Y-113972954D01*
X84128451Y-113975277D01*
X84097972Y-113996619D01*
X83945411Y-114103443D01*
X83945408Y-114103445D01*
X83940900Y-114106602D01*
X83779002Y-114268500D01*
X83647677Y-114456051D01*
X83645354Y-114461033D01*
X83645351Y-114461038D01*
X83629395Y-114495257D01*
X83582478Y-114548542D01*
X83514201Y-114568003D01*
X83446241Y-114547461D01*
X83401005Y-114495257D01*
X83385049Y-114461038D01*
X83385046Y-114461033D01*
X83382723Y-114456051D01*
X83251398Y-114268500D01*
X83089500Y-114106602D01*
X83084992Y-114103445D01*
X83084989Y-114103443D01*
X82932428Y-113996619D01*
X82901949Y-113975277D01*
X82896967Y-113972954D01*
X82896962Y-113972951D01*
X82699425Y-113880839D01*
X82699424Y-113880839D01*
X82694443Y-113878516D01*
X82689135Y-113877094D01*
X82689133Y-113877093D01*
X82478602Y-113820681D01*
X82478600Y-113820681D01*
X82473287Y-113819257D01*
X82245200Y-113799302D01*
X82017113Y-113819257D01*
X82011800Y-113820681D01*
X82011798Y-113820681D01*
X81801267Y-113877093D01*
X81801265Y-113877094D01*
X81795957Y-113878516D01*
X81790976Y-113880839D01*
X81790975Y-113880839D01*
X81593438Y-113972951D01*
X81593433Y-113972954D01*
X81588451Y-113975277D01*
X81557972Y-113996619D01*
X81405411Y-114103443D01*
X81405408Y-114103445D01*
X81400900Y-114106602D01*
X81239002Y-114268500D01*
X81107677Y-114456051D01*
X81105354Y-114461033D01*
X81105351Y-114461038D01*
X81105234Y-114461289D01*
X81010916Y-114663557D01*
X81009494Y-114668865D01*
X81009493Y-114668867D01*
X80977099Y-114789762D01*
X80951657Y-114884713D01*
X80931702Y-115112800D01*
X80951657Y-115340887D01*
X80953081Y-115346200D01*
X80953081Y-115346202D01*
X81003159Y-115533092D01*
X81010916Y-115562043D01*
X81013239Y-115567024D01*
X81013239Y-115567025D01*
X81105351Y-115764562D01*
X81105354Y-115764567D01*
X81107677Y-115769549D01*
X81239002Y-115957100D01*
X81400900Y-116118998D01*
X81405408Y-116122155D01*
X81405411Y-116122157D01*
X81438333Y-116145209D01*
X81588451Y-116250323D01*
X81593433Y-116252646D01*
X81593438Y-116252649D01*
X81742824Y-116322308D01*
X81795957Y-116347084D01*
X81801265Y-116348506D01*
X81801267Y-116348507D01*
X82011798Y-116404919D01*
X82011800Y-116404919D01*
X82017113Y-116406343D01*
X82245200Y-116426298D01*
X82473287Y-116406343D01*
X82478600Y-116404919D01*
X82478602Y-116404919D01*
X82689133Y-116348507D01*
X82689135Y-116348506D01*
X82694443Y-116347084D01*
X82747576Y-116322308D01*
X82896962Y-116252649D01*
X82896967Y-116252646D01*
X82901949Y-116250323D01*
X83052067Y-116145209D01*
X83084989Y-116122157D01*
X83084992Y-116122155D01*
X83089500Y-116118998D01*
X83251398Y-115957100D01*
X83382723Y-115769549D01*
X83385046Y-115764567D01*
X83385049Y-115764562D01*
X83401005Y-115730343D01*
X83447922Y-115677058D01*
X83516199Y-115657597D01*
X83584159Y-115678139D01*
X83629395Y-115730343D01*
X83645351Y-115764562D01*
X83645354Y-115764567D01*
X83647677Y-115769549D01*
X83779002Y-115957100D01*
X83940900Y-116118998D01*
X83945408Y-116122155D01*
X83945411Y-116122157D01*
X83978333Y-116145209D01*
X84128451Y-116250323D01*
X84133433Y-116252646D01*
X84133438Y-116252649D01*
X84282824Y-116322308D01*
X84335957Y-116347084D01*
X84341265Y-116348506D01*
X84341267Y-116348507D01*
X84551798Y-116404919D01*
X84551800Y-116404919D01*
X84557113Y-116406343D01*
X84785200Y-116426298D01*
X85013287Y-116406343D01*
X85018600Y-116404919D01*
X85018602Y-116404919D01*
X85229133Y-116348507D01*
X85229135Y-116348506D01*
X85234443Y-116347084D01*
X85287576Y-116322308D01*
X85436962Y-116252649D01*
X85436967Y-116252646D01*
X85441949Y-116250323D01*
X85592067Y-116145209D01*
X85624989Y-116122157D01*
X85624992Y-116122155D01*
X85629500Y-116118998D01*
X85791398Y-115957100D01*
X85922723Y-115769549D01*
X85925046Y-115764567D01*
X85925049Y-115764562D01*
X85941005Y-115730343D01*
X85987922Y-115677058D01*
X86056199Y-115657597D01*
X86124159Y-115678139D01*
X86169395Y-115730343D01*
X86185351Y-115764562D01*
X86185354Y-115764567D01*
X86187677Y-115769549D01*
X86319002Y-115957100D01*
X86480900Y-116118998D01*
X86485408Y-116122155D01*
X86485411Y-116122157D01*
X86518333Y-116145209D01*
X86668451Y-116250323D01*
X86673433Y-116252646D01*
X86673438Y-116252649D01*
X86822824Y-116322308D01*
X86875957Y-116347084D01*
X86881265Y-116348506D01*
X86881267Y-116348507D01*
X87091798Y-116404919D01*
X87091800Y-116404919D01*
X87097113Y-116406343D01*
X87325200Y-116426298D01*
X87553287Y-116406343D01*
X87558600Y-116404919D01*
X87558602Y-116404919D01*
X87769133Y-116348507D01*
X87769135Y-116348506D01*
X87774443Y-116347084D01*
X87827576Y-116322308D01*
X87976962Y-116252649D01*
X87976967Y-116252646D01*
X87981949Y-116250323D01*
X88132067Y-116145209D01*
X88164989Y-116122157D01*
X88164992Y-116122155D01*
X88169500Y-116118998D01*
X88331398Y-115957100D01*
X88462723Y-115769549D01*
X88465046Y-115764567D01*
X88465049Y-115764562D01*
X88481005Y-115730343D01*
X88527922Y-115677058D01*
X88596199Y-115657597D01*
X88664159Y-115678139D01*
X88709395Y-115730343D01*
X88725351Y-115764562D01*
X88725354Y-115764567D01*
X88727677Y-115769549D01*
X88859002Y-115957100D01*
X89020900Y-116118998D01*
X89025408Y-116122155D01*
X89025411Y-116122157D01*
X89058333Y-116145209D01*
X89208451Y-116250323D01*
X89213433Y-116252646D01*
X89213438Y-116252649D01*
X89362824Y-116322308D01*
X89415957Y-116347084D01*
X89421265Y-116348506D01*
X89421267Y-116348507D01*
X89631798Y-116404919D01*
X89631800Y-116404919D01*
X89637113Y-116406343D01*
X89865200Y-116426298D01*
X90093287Y-116406343D01*
X90098600Y-116404919D01*
X90098602Y-116404919D01*
X90309133Y-116348507D01*
X90309135Y-116348506D01*
X90314443Y-116347084D01*
X90367576Y-116322308D01*
X90516962Y-116252649D01*
X90516967Y-116252646D01*
X90521949Y-116250323D01*
X90672067Y-116145209D01*
X90704989Y-116122157D01*
X90704992Y-116122155D01*
X90709500Y-116118998D01*
X90871398Y-115957100D01*
X91002723Y-115769549D01*
X91005046Y-115764567D01*
X91005049Y-115764562D01*
X91021005Y-115730343D01*
X91067922Y-115677058D01*
X91136199Y-115657597D01*
X91204159Y-115678139D01*
X91249395Y-115730343D01*
X91265351Y-115764562D01*
X91265354Y-115764567D01*
X91267677Y-115769549D01*
X91399002Y-115957100D01*
X91560900Y-116118998D01*
X91565408Y-116122155D01*
X91565411Y-116122157D01*
X91598333Y-116145209D01*
X91748451Y-116250323D01*
X91753433Y-116252646D01*
X91753438Y-116252649D01*
X91902824Y-116322308D01*
X91955957Y-116347084D01*
X91961265Y-116348506D01*
X91961267Y-116348507D01*
X92171798Y-116404919D01*
X92171800Y-116404919D01*
X92177113Y-116406343D01*
X92405200Y-116426298D01*
X92633287Y-116406343D01*
X92638600Y-116404919D01*
X92638602Y-116404919D01*
X92849133Y-116348507D01*
X92849135Y-116348506D01*
X92854443Y-116347084D01*
X92907576Y-116322308D01*
X93056962Y-116252649D01*
X93056967Y-116252646D01*
X93061949Y-116250323D01*
X93212067Y-116145209D01*
X93244989Y-116122157D01*
X93244992Y-116122155D01*
X93249500Y-116118998D01*
X93411398Y-115957100D01*
X93542723Y-115769549D01*
X93545046Y-115764567D01*
X93545049Y-115764562D01*
X93561005Y-115730343D01*
X93607922Y-115677058D01*
X93676199Y-115657597D01*
X93744159Y-115678139D01*
X93789395Y-115730343D01*
X93805351Y-115764562D01*
X93805354Y-115764567D01*
X93807677Y-115769549D01*
X93939002Y-115957100D01*
X94100900Y-116118998D01*
X94105408Y-116122155D01*
X94105411Y-116122157D01*
X94138333Y-116145209D01*
X94288451Y-116250323D01*
X94293433Y-116252646D01*
X94293438Y-116252649D01*
X94442824Y-116322308D01*
X94495957Y-116347084D01*
X94501265Y-116348506D01*
X94501267Y-116348507D01*
X94711798Y-116404919D01*
X94711800Y-116404919D01*
X94717113Y-116406343D01*
X94945200Y-116426298D01*
X95173287Y-116406343D01*
X95178600Y-116404919D01*
X95178602Y-116404919D01*
X95389133Y-116348507D01*
X95389135Y-116348506D01*
X95394443Y-116347084D01*
X95447576Y-116322308D01*
X95596962Y-116252649D01*
X95596967Y-116252646D01*
X95601949Y-116250323D01*
X95752067Y-116145209D01*
X95784989Y-116122157D01*
X95784992Y-116122155D01*
X95789500Y-116118998D01*
X95951398Y-115957100D01*
X96082723Y-115769549D01*
X96085046Y-115764567D01*
X96085049Y-115764562D01*
X96101005Y-115730343D01*
X96147922Y-115677058D01*
X96216199Y-115657597D01*
X96284159Y-115678139D01*
X96329395Y-115730343D01*
X96345351Y-115764562D01*
X96345354Y-115764567D01*
X96347677Y-115769549D01*
X96479002Y-115957100D01*
X96640900Y-116118998D01*
X96645408Y-116122155D01*
X96645411Y-116122157D01*
X96678333Y-116145209D01*
X96828451Y-116250323D01*
X96833433Y-116252646D01*
X96833438Y-116252649D01*
X96982824Y-116322308D01*
X97035957Y-116347084D01*
X97041265Y-116348506D01*
X97041267Y-116348507D01*
X97251798Y-116404919D01*
X97251800Y-116404919D01*
X97257113Y-116406343D01*
X97485200Y-116426298D01*
X97713287Y-116406343D01*
X97718600Y-116404919D01*
X97718602Y-116404919D01*
X97929133Y-116348507D01*
X97929135Y-116348506D01*
X97934443Y-116347084D01*
X97987576Y-116322308D01*
X98136962Y-116252649D01*
X98136967Y-116252646D01*
X98141949Y-116250323D01*
X98292067Y-116145209D01*
X98324989Y-116122157D01*
X98324992Y-116122155D01*
X98329500Y-116118998D01*
X98491398Y-115957100D01*
X98622723Y-115769549D01*
X98625046Y-115764567D01*
X98625049Y-115764562D01*
X98641005Y-115730343D01*
X98687922Y-115677058D01*
X98756199Y-115657597D01*
X98824159Y-115678139D01*
X98869395Y-115730343D01*
X98885351Y-115764562D01*
X98885354Y-115764567D01*
X98887677Y-115769549D01*
X99019002Y-115957100D01*
X99180900Y-116118998D01*
X99185408Y-116122155D01*
X99185411Y-116122157D01*
X99218333Y-116145209D01*
X99368451Y-116250323D01*
X99373433Y-116252646D01*
X99373438Y-116252649D01*
X99522824Y-116322308D01*
X99575957Y-116347084D01*
X99581265Y-116348506D01*
X99581267Y-116348507D01*
X99791798Y-116404919D01*
X99791800Y-116404919D01*
X99797113Y-116406343D01*
X100025200Y-116426298D01*
X100253287Y-116406343D01*
X100258600Y-116404919D01*
X100258602Y-116404919D01*
X100469133Y-116348507D01*
X100469135Y-116348506D01*
X100474443Y-116347084D01*
X100527576Y-116322308D01*
X100676962Y-116252649D01*
X100676967Y-116252646D01*
X100681949Y-116250323D01*
X100832067Y-116145209D01*
X100864989Y-116122157D01*
X100864992Y-116122155D01*
X100869500Y-116118998D01*
X101031398Y-115957100D01*
X101162723Y-115769549D01*
X101165046Y-115764567D01*
X101165049Y-115764562D01*
X101257161Y-115567025D01*
X101257161Y-115567024D01*
X101259484Y-115562043D01*
X101267242Y-115533092D01*
X101317319Y-115346202D01*
X101317319Y-115346200D01*
X101318743Y-115340887D01*
X101338698Y-115112800D01*
X101318743Y-114884713D01*
X101293301Y-114789762D01*
X101260907Y-114668867D01*
X101260906Y-114668865D01*
X101259484Y-114663557D01*
X101165166Y-114461289D01*
X101165049Y-114461038D01*
X101165046Y-114461033D01*
X101162723Y-114456051D01*
X101031398Y-114268500D01*
X100869500Y-114106602D01*
X100864992Y-114103445D01*
X100864989Y-114103443D01*
X100712429Y-113996619D01*
X100668101Y-113941162D01*
X100658700Y-113893406D01*
X100658700Y-106428567D01*
X100659227Y-106417384D01*
X100660902Y-106409891D01*
X100658762Y-106341800D01*
X100658700Y-106337843D01*
X100658700Y-106309944D01*
X100658196Y-106305953D01*
X100657263Y-106294111D01*
X100656502Y-106269879D01*
X100655874Y-106249911D01*
X100653662Y-106242297D01*
X100653661Y-106242292D01*
X100650223Y-106230459D01*
X100646212Y-106211095D01*
X100644667Y-106198864D01*
X100643674Y-106191003D01*
X100640757Y-106183636D01*
X100640756Y-106183631D01*
X100627398Y-106149892D01*
X100623554Y-106138665D01*
X100613430Y-106103822D01*
X100611218Y-106096207D01*
X100600907Y-106078772D01*
X100592212Y-106061024D01*
X100584752Y-106042183D01*
X100558764Y-106006413D01*
X100552248Y-105996493D01*
X100533780Y-105965265D01*
X100533778Y-105965262D01*
X100529742Y-105958438D01*
X100515421Y-105944117D01*
X100502580Y-105929083D01*
X100495331Y-105919106D01*
X100490672Y-105912693D01*
X100456595Y-105884502D01*
X100447816Y-105876512D01*
X98681156Y-104109851D01*
X98647130Y-104047539D01*
X98652195Y-103976723D01*
X98694742Y-103919888D01*
X98761262Y-103895077D01*
X98781232Y-103895235D01*
X98871325Y-103903117D01*
X98882275Y-103903117D01*
X99099319Y-103884128D01*
X99110112Y-103882225D01*
X99320561Y-103825836D01*
X99330853Y-103822090D01*
X99528311Y-103730014D01*
X99537806Y-103724531D01*
X99589848Y-103688091D01*
X99598224Y-103677612D01*
X99591156Y-103664166D01*
X98518722Y-102591732D01*
X99241208Y-102591732D01*
X99241339Y-102593565D01*
X99245590Y-102600180D01*
X99951087Y-103305677D01*
X99962862Y-103312107D01*
X99974877Y-103302811D01*
X100010734Y-103251602D01*
X100017391Y-103240072D01*
X100068773Y-103191079D01*
X100138487Y-103177642D01*
X100204398Y-103204029D01*
X100235629Y-103240072D01*
X100236953Y-103242365D01*
X100239277Y-103247349D01*
X100258616Y-103274968D01*
X100361359Y-103421699D01*
X100370602Y-103434900D01*
X100532500Y-103596798D01*
X100537008Y-103599955D01*
X100537011Y-103599957D01*
X100563209Y-103618301D01*
X100720051Y-103728123D01*
X100725033Y-103730446D01*
X100725038Y-103730449D01*
X100921565Y-103822090D01*
X100927557Y-103824884D01*
X100932865Y-103826306D01*
X100932867Y-103826307D01*
X101143398Y-103882719D01*
X101143400Y-103882719D01*
X101148713Y-103884143D01*
X101376800Y-103904098D01*
X101604887Y-103884143D01*
X101610200Y-103882719D01*
X101610202Y-103882719D01*
X101820733Y-103826307D01*
X101820735Y-103826306D01*
X101826043Y-103824884D01*
X101832035Y-103822090D01*
X102028562Y-103730449D01*
X102028567Y-103730446D01*
X102033549Y-103728123D01*
X102190391Y-103618301D01*
X102216589Y-103599957D01*
X102216592Y-103599955D01*
X102221100Y-103596798D01*
X102382998Y-103434900D01*
X102392242Y-103421699D01*
X102456201Y-103330356D01*
X102514323Y-103247349D01*
X102516646Y-103242367D01*
X102516649Y-103242362D01*
X102608761Y-103044825D01*
X102608761Y-103044824D01*
X102611084Y-103039843D01*
X102637139Y-102942607D01*
X102668919Y-102824002D01*
X102668919Y-102824000D01*
X102670343Y-102818687D01*
X102688076Y-102616000D01*
X103740902Y-102616000D01*
X103760857Y-102844087D01*
X103762281Y-102849400D01*
X103762281Y-102849402D01*
X103814763Y-103045264D01*
X103820116Y-103065243D01*
X103822439Y-103070224D01*
X103822439Y-103070225D01*
X103914551Y-103267762D01*
X103914554Y-103267767D01*
X103916877Y-103272749D01*
X103944436Y-103312107D01*
X104030417Y-103434900D01*
X104048202Y-103460300D01*
X104210100Y-103622198D01*
X104214608Y-103625355D01*
X104214611Y-103625357D01*
X104266783Y-103661888D01*
X104397651Y-103753523D01*
X104402633Y-103755846D01*
X104402638Y-103755849D01*
X104599165Y-103847490D01*
X104605157Y-103850284D01*
X104610465Y-103851706D01*
X104610467Y-103851707D01*
X104820998Y-103908119D01*
X104821000Y-103908119D01*
X104826313Y-103909543D01*
X105054400Y-103929498D01*
X105282487Y-103909543D01*
X105287800Y-103908119D01*
X105287802Y-103908119D01*
X105498333Y-103851707D01*
X105498335Y-103851706D01*
X105503643Y-103850284D01*
X105509635Y-103847490D01*
X105706162Y-103755849D01*
X105706167Y-103755846D01*
X105711149Y-103753523D01*
X105842017Y-103661888D01*
X105894189Y-103625357D01*
X105894192Y-103625355D01*
X105898700Y-103622198D01*
X106060598Y-103460300D01*
X106078384Y-103434900D01*
X106164364Y-103312107D01*
X106191923Y-103272749D01*
X106194247Y-103267765D01*
X106195571Y-103265472D01*
X106246953Y-103216479D01*
X106316667Y-103203043D01*
X106382578Y-103229429D01*
X106413809Y-103265472D01*
X106420466Y-103277002D01*
X106456909Y-103329048D01*
X106467388Y-103337424D01*
X106480834Y-103330356D01*
X107182378Y-102628812D01*
X107189992Y-102614868D01*
X107189861Y-102613035D01*
X107185610Y-102606420D01*
X106480113Y-101900923D01*
X106468338Y-101894493D01*
X106456323Y-101903789D01*
X106420466Y-101954998D01*
X106413809Y-101966528D01*
X106362427Y-102015521D01*
X106292713Y-102028958D01*
X106226802Y-102002571D01*
X106195571Y-101966528D01*
X106194247Y-101964235D01*
X106191923Y-101959251D01*
X106128794Y-101869093D01*
X106063757Y-101776211D01*
X106063755Y-101776208D01*
X106060598Y-101771700D01*
X105898700Y-101609802D01*
X105894192Y-101606645D01*
X105894189Y-101606643D01*
X105768320Y-101518509D01*
X105711149Y-101478477D01*
X105706167Y-101476154D01*
X105706162Y-101476151D01*
X105508625Y-101384039D01*
X105508624Y-101384039D01*
X105503643Y-101381716D01*
X105498335Y-101380294D01*
X105498333Y-101380293D01*
X105287802Y-101323881D01*
X105287800Y-101323881D01*
X105282487Y-101322457D01*
X105054400Y-101302502D01*
X104826313Y-101322457D01*
X104821000Y-101323881D01*
X104820998Y-101323881D01*
X104610467Y-101380293D01*
X104610465Y-101380294D01*
X104605157Y-101381716D01*
X104600176Y-101384039D01*
X104600175Y-101384039D01*
X104402638Y-101476151D01*
X104402633Y-101476154D01*
X104397651Y-101478477D01*
X104340480Y-101518509D01*
X104214611Y-101606643D01*
X104214608Y-101606645D01*
X104210100Y-101609802D01*
X104048202Y-101771700D01*
X104045045Y-101776208D01*
X104045043Y-101776211D01*
X103990302Y-101854389D01*
X103916877Y-101959251D01*
X103914554Y-101964233D01*
X103914551Y-101964238D01*
X103822439Y-102161775D01*
X103820116Y-102166757D01*
X103818694Y-102172065D01*
X103818693Y-102172067D01*
X103766171Y-102368081D01*
X103760857Y-102387913D01*
X103740902Y-102616000D01*
X102688076Y-102616000D01*
X102690298Y-102590600D01*
X102670343Y-102362513D01*
X102647587Y-102277587D01*
X102612507Y-102146667D01*
X102612506Y-102146665D01*
X102611084Y-102141357D01*
X102552406Y-102015521D01*
X102516649Y-101938838D01*
X102516646Y-101938833D01*
X102514323Y-101933851D01*
X102424091Y-101804987D01*
X102386157Y-101750811D01*
X102386155Y-101750808D01*
X102382998Y-101746300D01*
X102221100Y-101584402D01*
X102216592Y-101581245D01*
X102216589Y-101581243D01*
X102090720Y-101493109D01*
X102033549Y-101453077D01*
X102028567Y-101450754D01*
X102028562Y-101450751D01*
X101831025Y-101358639D01*
X101831024Y-101358639D01*
X101826043Y-101356316D01*
X101820735Y-101354894D01*
X101820733Y-101354893D01*
X101610202Y-101298481D01*
X101610200Y-101298481D01*
X101604887Y-101297057D01*
X101376800Y-101277102D01*
X101148713Y-101297057D01*
X101143400Y-101298481D01*
X101143398Y-101298481D01*
X100932867Y-101354893D01*
X100932865Y-101354894D01*
X100927557Y-101356316D01*
X100922576Y-101358639D01*
X100922575Y-101358639D01*
X100725038Y-101450751D01*
X100725033Y-101450754D01*
X100720051Y-101453077D01*
X100662880Y-101493109D01*
X100537011Y-101581243D01*
X100537008Y-101581245D01*
X100532500Y-101584402D01*
X100370602Y-101746300D01*
X100367445Y-101750808D01*
X100367443Y-101750811D01*
X100329509Y-101804987D01*
X100239277Y-101933851D01*
X100236953Y-101938835D01*
X100235629Y-101941128D01*
X100184247Y-101990121D01*
X100114533Y-102003557D01*
X100048622Y-101977171D01*
X100017391Y-101941128D01*
X100010734Y-101929598D01*
X99974291Y-101877552D01*
X99963812Y-101869176D01*
X99950366Y-101876244D01*
X99248822Y-102577788D01*
X99241208Y-102591732D01*
X98518722Y-102591732D01*
X97802513Y-101875523D01*
X97790738Y-101869093D01*
X97778723Y-101878389D01*
X97742869Y-101929594D01*
X97737386Y-101939089D01*
X97645310Y-102136547D01*
X97641564Y-102146839D01*
X97585175Y-102357288D01*
X97583272Y-102368081D01*
X97564283Y-102585125D01*
X97564283Y-102596075D01*
X97572165Y-102686168D01*
X97558176Y-102755772D01*
X97508776Y-102806765D01*
X97439650Y-102822955D01*
X97372745Y-102799202D01*
X97357549Y-102786244D01*
X96606205Y-102034900D01*
X96572179Y-101972588D01*
X96569300Y-101945805D01*
X96569300Y-101503588D01*
X98155376Y-101503588D01*
X98162444Y-101517034D01*
X98863988Y-102218578D01*
X98877932Y-102226192D01*
X98879765Y-102226061D01*
X98886380Y-102221810D01*
X99591877Y-101516313D01*
X99598307Y-101504538D01*
X99589011Y-101492523D01*
X99537806Y-101456669D01*
X99528311Y-101451186D01*
X99330853Y-101359110D01*
X99320561Y-101355364D01*
X99110112Y-101298975D01*
X99099319Y-101297072D01*
X98882275Y-101278083D01*
X98871325Y-101278083D01*
X98654281Y-101297072D01*
X98643488Y-101298975D01*
X98433039Y-101355364D01*
X98422747Y-101359110D01*
X98225289Y-101451186D01*
X98215794Y-101456669D01*
X98163752Y-101493109D01*
X98155376Y-101503588D01*
X96569300Y-101503588D01*
X96569300Y-98425000D01*
X99981093Y-98425000D01*
X100000285Y-98644371D01*
X100057280Y-98857076D01*
X100085352Y-98917276D01*
X100148018Y-99051666D01*
X100148021Y-99051671D01*
X100150344Y-99056653D01*
X100276651Y-99237038D01*
X100432362Y-99392749D01*
X100612746Y-99519056D01*
X100812324Y-99612120D01*
X101025029Y-99669115D01*
X101244400Y-99688307D01*
X101463771Y-99669115D01*
X101676476Y-99612120D01*
X101876054Y-99519056D01*
X102056438Y-99392749D01*
X102212149Y-99237038D01*
X102338456Y-99056653D01*
X102340779Y-99051671D01*
X102340782Y-99051666D01*
X102403448Y-98917276D01*
X102431520Y-98857076D01*
X102488515Y-98644371D01*
X102507707Y-98425000D01*
X104861093Y-98425000D01*
X104880285Y-98644371D01*
X104937280Y-98857076D01*
X104965352Y-98917276D01*
X105028018Y-99051666D01*
X105028021Y-99051671D01*
X105030344Y-99056653D01*
X105156651Y-99237038D01*
X105312362Y-99392749D01*
X105492746Y-99519056D01*
X105692324Y-99612120D01*
X105905029Y-99669115D01*
X106124400Y-99688307D01*
X106343771Y-99669115D01*
X106556476Y-99612120D01*
X106756054Y-99519056D01*
X106936438Y-99392749D01*
X107092149Y-99237038D01*
X107218456Y-99056653D01*
X107220779Y-99051671D01*
X107220782Y-99051666D01*
X107283448Y-98917276D01*
X107311520Y-98857076D01*
X107368515Y-98644371D01*
X107387707Y-98425000D01*
X107368515Y-98205629D01*
X107311520Y-97992924D01*
X107242432Y-97844764D01*
X107220782Y-97798334D01*
X107220779Y-97798329D01*
X107218456Y-97793347D01*
X107210307Y-97781709D01*
X107095308Y-97617473D01*
X107095306Y-97617470D01*
X107092149Y-97612962D01*
X106936438Y-97457251D01*
X106756054Y-97330944D01*
X106556476Y-97237880D01*
X106343771Y-97180885D01*
X106124400Y-97161693D01*
X105905029Y-97180885D01*
X105692324Y-97237880D01*
X105598962Y-97281415D01*
X105497734Y-97328618D01*
X105497729Y-97328621D01*
X105492747Y-97330944D01*
X105488240Y-97334100D01*
X105488238Y-97334101D01*
X105316873Y-97454092D01*
X105316870Y-97454094D01*
X105312362Y-97457251D01*
X105156651Y-97612962D01*
X105153494Y-97617470D01*
X105153492Y-97617473D01*
X105038493Y-97781709D01*
X105030344Y-97793347D01*
X105028021Y-97798329D01*
X105028018Y-97798334D01*
X105006368Y-97844764D01*
X104937280Y-97992924D01*
X104880285Y-98205629D01*
X104861093Y-98425000D01*
X102507707Y-98425000D01*
X102488515Y-98205629D01*
X102431520Y-97992924D01*
X102362432Y-97844764D01*
X102340782Y-97798334D01*
X102340779Y-97798329D01*
X102338456Y-97793347D01*
X102330307Y-97781709D01*
X102215308Y-97617473D01*
X102215306Y-97617470D01*
X102212149Y-97612962D01*
X102056438Y-97457251D01*
X101876054Y-97330944D01*
X101676476Y-97237880D01*
X101463771Y-97180885D01*
X101244400Y-97161693D01*
X101025029Y-97180885D01*
X100812324Y-97237880D01*
X100718962Y-97281415D01*
X100617734Y-97328618D01*
X100617729Y-97328621D01*
X100612747Y-97330944D01*
X100608240Y-97334100D01*
X100608238Y-97334101D01*
X100436873Y-97454092D01*
X100436870Y-97454094D01*
X100432362Y-97457251D01*
X100276651Y-97612962D01*
X100273494Y-97617470D01*
X100273492Y-97617473D01*
X100158493Y-97781709D01*
X100150344Y-97793347D01*
X100148021Y-97798329D01*
X100148018Y-97798334D01*
X100126368Y-97844764D01*
X100057280Y-97992924D01*
X100000285Y-98205629D01*
X99981093Y-98425000D01*
X96569300Y-98425000D01*
X96569300Y-95622774D01*
X96589302Y-95554653D01*
X96642958Y-95508160D01*
X96713232Y-95498056D01*
X96727911Y-95501067D01*
X96916198Y-95551519D01*
X96916200Y-95551519D01*
X96921513Y-95552943D01*
X97149600Y-95572898D01*
X97377687Y-95552943D01*
X97383000Y-95551519D01*
X97383002Y-95551519D01*
X97593533Y-95495107D01*
X97593535Y-95495106D01*
X97598843Y-95493684D01*
X97604835Y-95490890D01*
X97801362Y-95399249D01*
X97801367Y-95399246D01*
X97806349Y-95396923D01*
X97879843Y-95345462D01*
X98928093Y-95345462D01*
X98937389Y-95357477D01*
X98988594Y-95393331D01*
X98998089Y-95398814D01*
X99195547Y-95490890D01*
X99205839Y-95494636D01*
X99416288Y-95551025D01*
X99427081Y-95552928D01*
X99644125Y-95571917D01*
X99655075Y-95571917D01*
X99872119Y-95552928D01*
X99882912Y-95551025D01*
X100093361Y-95494636D01*
X100103653Y-95490890D01*
X100301111Y-95398814D01*
X100310606Y-95393331D01*
X100362648Y-95356891D01*
X100371024Y-95346412D01*
X100363956Y-95332966D01*
X99662412Y-94631422D01*
X99648468Y-94623808D01*
X99646635Y-94623939D01*
X99640020Y-94628190D01*
X98934523Y-95333687D01*
X98928093Y-95345462D01*
X97879843Y-95345462D01*
X97952027Y-95294918D01*
X97989389Y-95268757D01*
X97989392Y-95268755D01*
X97993900Y-95265598D01*
X98155798Y-95103700D01*
X98287123Y-94916149D01*
X98289447Y-94911165D01*
X98290771Y-94908872D01*
X98342153Y-94859879D01*
X98411867Y-94846443D01*
X98477778Y-94872829D01*
X98509009Y-94908872D01*
X98515666Y-94920402D01*
X98552109Y-94972448D01*
X98562588Y-94980824D01*
X98576034Y-94973756D01*
X99277578Y-94272212D01*
X99283956Y-94260532D01*
X100014008Y-94260532D01*
X100014139Y-94262365D01*
X100018390Y-94268980D01*
X100723887Y-94974477D01*
X100735662Y-94980907D01*
X100747677Y-94971611D01*
X100783531Y-94920406D01*
X100789014Y-94910911D01*
X100881090Y-94713453D01*
X100884836Y-94703161D01*
X100941225Y-94492712D01*
X100943128Y-94481919D01*
X100962117Y-94264875D01*
X100962117Y-94253925D01*
X100943128Y-94036881D01*
X100941225Y-94026088D01*
X100884836Y-93815639D01*
X100881090Y-93805347D01*
X100789014Y-93607889D01*
X100783531Y-93598394D01*
X100747091Y-93546352D01*
X100736612Y-93537976D01*
X100723166Y-93545044D01*
X100021622Y-94246588D01*
X100014008Y-94260532D01*
X99283956Y-94260532D01*
X99285192Y-94258268D01*
X99285061Y-94256435D01*
X99280810Y-94249820D01*
X98575313Y-93544323D01*
X98563538Y-93537893D01*
X98551523Y-93547189D01*
X98515666Y-93598398D01*
X98509009Y-93609928D01*
X98457627Y-93658921D01*
X98387913Y-93672358D01*
X98322002Y-93645971D01*
X98290771Y-93609928D01*
X98289447Y-93607635D01*
X98287123Y-93602651D01*
X98155798Y-93415100D01*
X97993900Y-93253202D01*
X97989392Y-93250045D01*
X97989389Y-93250043D01*
X97878486Y-93172388D01*
X98928176Y-93172388D01*
X98935244Y-93185834D01*
X99636788Y-93887378D01*
X99650732Y-93894992D01*
X99652565Y-93894861D01*
X99659180Y-93890610D01*
X100364677Y-93185113D01*
X100371107Y-93173338D01*
X100361811Y-93161323D01*
X100310606Y-93125469D01*
X100301111Y-93119986D01*
X100103653Y-93027910D01*
X100093361Y-93024164D01*
X99882912Y-92967775D01*
X99872119Y-92965872D01*
X99655075Y-92946883D01*
X99644125Y-92946883D01*
X99427081Y-92965872D01*
X99416288Y-92967775D01*
X99205839Y-93024164D01*
X99195547Y-93027910D01*
X98998089Y-93119986D01*
X98988594Y-93125469D01*
X98936552Y-93161909D01*
X98928176Y-93172388D01*
X97878486Y-93172388D01*
X97863520Y-93161909D01*
X97806349Y-93121877D01*
X97801367Y-93119554D01*
X97801362Y-93119551D01*
X97603825Y-93027439D01*
X97603824Y-93027439D01*
X97598843Y-93025116D01*
X97593535Y-93023694D01*
X97593533Y-93023693D01*
X97383002Y-92967281D01*
X97383000Y-92967281D01*
X97377687Y-92965857D01*
X97149600Y-92945902D01*
X96921513Y-92965857D01*
X96916200Y-92967281D01*
X96916198Y-92967281D01*
X96727911Y-93017733D01*
X96656935Y-93016043D01*
X96598139Y-92976249D01*
X96570191Y-92910985D01*
X96569300Y-92896026D01*
X96569300Y-92667810D01*
X96589302Y-92599689D01*
X96642958Y-92553196D01*
X96713232Y-92543092D01*
X96731080Y-92547571D01*
X96731157Y-92547284D01*
X96946998Y-92605119D01*
X96947000Y-92605119D01*
X96952313Y-92606543D01*
X97180400Y-92626498D01*
X97408487Y-92606543D01*
X97413800Y-92605119D01*
X97413802Y-92605119D01*
X97624333Y-92548707D01*
X97624335Y-92548706D01*
X97629643Y-92547284D01*
X97634629Y-92544959D01*
X97832162Y-92452849D01*
X97832167Y-92452846D01*
X97837149Y-92450523D01*
X97978858Y-92351297D01*
X98020189Y-92322357D01*
X98020192Y-92322355D01*
X98024700Y-92319198D01*
X98186598Y-92157300D01*
X98317923Y-91969749D01*
X98320246Y-91964767D01*
X98320249Y-91964762D01*
X98336481Y-91929951D01*
X98383398Y-91876666D01*
X98451675Y-91857205D01*
X98519635Y-91877747D01*
X98564871Y-91929951D01*
X98580986Y-91964511D01*
X98586469Y-91974007D01*
X98711428Y-92152467D01*
X98718484Y-92160875D01*
X98872525Y-92314916D01*
X98880933Y-92321972D01*
X99059393Y-92446931D01*
X99068889Y-92452414D01*
X99266347Y-92544490D01*
X99276639Y-92548236D01*
X99448903Y-92594394D01*
X99462999Y-92594058D01*
X99466400Y-92586116D01*
X99466400Y-91185000D01*
X99486402Y-91116879D01*
X99540058Y-91070386D01*
X99592400Y-91059000D01*
X99848400Y-91059000D01*
X99916521Y-91079002D01*
X99963014Y-91132658D01*
X99974400Y-91185000D01*
X99974400Y-92580967D01*
X99978373Y-92594498D01*
X99986922Y-92595727D01*
X100164161Y-92548236D01*
X100174453Y-92544490D01*
X100371911Y-92452414D01*
X100381407Y-92446931D01*
X100559867Y-92321972D01*
X100568275Y-92314916D01*
X100722316Y-92160875D01*
X100729372Y-92152467D01*
X100854331Y-91974007D01*
X100859814Y-91964511D01*
X100875929Y-91929951D01*
X100922846Y-91876666D01*
X100991123Y-91857205D01*
X101059083Y-91877747D01*
X101104319Y-91929951D01*
X101120551Y-91964762D01*
X101120554Y-91964767D01*
X101122877Y-91969749D01*
X101254202Y-92157300D01*
X101416100Y-92319198D01*
X101420608Y-92322355D01*
X101420611Y-92322357D01*
X101461942Y-92351297D01*
X101603651Y-92450523D01*
X101608633Y-92452846D01*
X101608638Y-92452849D01*
X101806171Y-92544959D01*
X101811157Y-92547284D01*
X101816465Y-92548706D01*
X101816467Y-92548707D01*
X102026998Y-92605119D01*
X102027000Y-92605119D01*
X102032313Y-92606543D01*
X102260400Y-92626498D01*
X102488487Y-92606543D01*
X102493800Y-92605119D01*
X102493802Y-92605119D01*
X102704333Y-92548707D01*
X102704335Y-92548706D01*
X102709643Y-92547284D01*
X102714629Y-92544959D01*
X102912162Y-92452849D01*
X102912167Y-92452846D01*
X102917149Y-92450523D01*
X103058858Y-92351297D01*
X103100189Y-92322357D01*
X103100192Y-92322355D01*
X103104700Y-92319198D01*
X103266598Y-92157300D01*
X103397923Y-91969749D01*
X103400246Y-91964767D01*
X103400249Y-91964762D01*
X103416205Y-91930543D01*
X103463122Y-91877258D01*
X103531399Y-91857797D01*
X103599359Y-91878339D01*
X103644595Y-91930543D01*
X103660551Y-91964762D01*
X103660554Y-91964767D01*
X103662877Y-91969749D01*
X103794202Y-92157300D01*
X103956100Y-92319198D01*
X103960608Y-92322355D01*
X103960611Y-92322357D01*
X104001942Y-92351297D01*
X104143651Y-92450523D01*
X104148633Y-92452846D01*
X104148638Y-92452849D01*
X104346171Y-92544959D01*
X104351157Y-92547284D01*
X104356465Y-92548706D01*
X104356467Y-92548707D01*
X104566998Y-92605119D01*
X104567000Y-92605119D01*
X104572313Y-92606543D01*
X104800400Y-92626498D01*
X105028487Y-92606543D01*
X105033800Y-92605119D01*
X105033802Y-92605119D01*
X105244333Y-92548707D01*
X105244335Y-92548706D01*
X105249643Y-92547284D01*
X105254629Y-92544959D01*
X105452162Y-92452849D01*
X105452167Y-92452846D01*
X105457149Y-92450523D01*
X105598858Y-92351297D01*
X105640189Y-92322357D01*
X105640192Y-92322355D01*
X105644700Y-92319198D01*
X105806598Y-92157300D01*
X105937923Y-91969749D01*
X105940246Y-91964767D01*
X105940249Y-91964762D01*
X105956205Y-91930543D01*
X106003122Y-91877258D01*
X106071399Y-91857797D01*
X106139359Y-91878339D01*
X106184595Y-91930543D01*
X106200551Y-91964762D01*
X106200554Y-91964767D01*
X106202877Y-91969749D01*
X106334202Y-92157300D01*
X106496100Y-92319198D01*
X106500608Y-92322355D01*
X106500611Y-92322357D01*
X106541942Y-92351297D01*
X106683651Y-92450523D01*
X106688633Y-92452846D01*
X106688638Y-92452849D01*
X106886171Y-92544959D01*
X106891157Y-92547284D01*
X106896465Y-92548706D01*
X106896467Y-92548707D01*
X107106998Y-92605119D01*
X107107000Y-92605119D01*
X107112313Y-92606543D01*
X107340400Y-92626498D01*
X107568487Y-92606543D01*
X107573800Y-92605119D01*
X107573802Y-92605119D01*
X107784333Y-92548707D01*
X107784335Y-92548706D01*
X107789643Y-92547284D01*
X107794629Y-92544959D01*
X107992162Y-92452849D01*
X107992167Y-92452846D01*
X107997149Y-92450523D01*
X108138858Y-92351297D01*
X108180189Y-92322357D01*
X108180192Y-92322355D01*
X108184700Y-92319198D01*
X108346598Y-92157300D01*
X108477923Y-91969749D01*
X108480246Y-91964767D01*
X108480249Y-91964762D01*
X108496205Y-91930543D01*
X108543122Y-91877258D01*
X108611399Y-91857797D01*
X108679359Y-91878339D01*
X108724595Y-91930543D01*
X108740551Y-91964762D01*
X108740554Y-91964767D01*
X108742877Y-91969749D01*
X108874202Y-92157300D01*
X109036100Y-92319198D01*
X109040608Y-92322355D01*
X109040611Y-92322357D01*
X109081942Y-92351297D01*
X109223651Y-92450523D01*
X109228633Y-92452846D01*
X109228638Y-92452849D01*
X109426171Y-92544959D01*
X109431157Y-92547284D01*
X109436465Y-92548706D01*
X109436467Y-92548707D01*
X109646998Y-92605119D01*
X109647000Y-92605119D01*
X109652313Y-92606543D01*
X109880400Y-92626498D01*
X110108487Y-92606543D01*
X110113800Y-92605119D01*
X110113802Y-92605119D01*
X110324333Y-92548707D01*
X110324335Y-92548706D01*
X110329643Y-92547284D01*
X110334629Y-92544959D01*
X110532162Y-92452849D01*
X110532167Y-92452846D01*
X110537149Y-92450523D01*
X110678858Y-92351297D01*
X110720189Y-92322357D01*
X110720192Y-92322355D01*
X110724700Y-92319198D01*
X110886598Y-92157300D01*
X111017923Y-91969749D01*
X111020246Y-91964767D01*
X111020249Y-91964762D01*
X111036205Y-91930543D01*
X111083122Y-91877258D01*
X111151399Y-91857797D01*
X111219359Y-91878339D01*
X111264595Y-91930543D01*
X111280551Y-91964762D01*
X111280554Y-91964767D01*
X111282877Y-91969749D01*
X111414202Y-92157300D01*
X111576100Y-92319198D01*
X111580608Y-92322355D01*
X111580611Y-92322357D01*
X111621942Y-92351297D01*
X111763651Y-92450523D01*
X111768633Y-92452846D01*
X111768638Y-92452849D01*
X111966171Y-92544959D01*
X111971157Y-92547284D01*
X111976465Y-92548706D01*
X111976467Y-92548707D01*
X112186998Y-92605119D01*
X112187000Y-92605119D01*
X112192313Y-92606543D01*
X112420400Y-92626498D01*
X112648487Y-92606543D01*
X112653800Y-92605119D01*
X112653802Y-92605119D01*
X112864333Y-92548707D01*
X112864335Y-92548706D01*
X112869643Y-92547284D01*
X112874629Y-92544959D01*
X113072162Y-92452849D01*
X113072167Y-92452846D01*
X113077149Y-92450523D01*
X113218858Y-92351297D01*
X113260189Y-92322357D01*
X113260192Y-92322355D01*
X113264700Y-92319198D01*
X113426598Y-92157300D01*
X113557923Y-91969749D01*
X113560246Y-91964767D01*
X113560249Y-91964762D01*
X113576205Y-91930543D01*
X113623122Y-91877258D01*
X113691399Y-91857797D01*
X113759359Y-91878339D01*
X113804595Y-91930543D01*
X113820551Y-91964762D01*
X113820554Y-91964767D01*
X113822877Y-91969749D01*
X113954202Y-92157300D01*
X114116100Y-92319198D01*
X114120608Y-92322355D01*
X114120611Y-92322357D01*
X114161942Y-92351297D01*
X114303651Y-92450523D01*
X114308633Y-92452846D01*
X114308638Y-92452849D01*
X114506171Y-92544959D01*
X114511157Y-92547284D01*
X114516465Y-92548706D01*
X114516467Y-92548707D01*
X114726998Y-92605119D01*
X114727000Y-92605119D01*
X114732313Y-92606543D01*
X114960400Y-92626498D01*
X115188487Y-92606543D01*
X115193800Y-92605119D01*
X115193802Y-92605119D01*
X115404333Y-92548707D01*
X115404335Y-92548706D01*
X115409643Y-92547284D01*
X115414629Y-92544959D01*
X115612162Y-92452849D01*
X115612167Y-92452846D01*
X115617149Y-92450523D01*
X115758858Y-92351297D01*
X115800189Y-92322357D01*
X115800192Y-92322355D01*
X115804700Y-92319198D01*
X115936605Y-92187293D01*
X115998917Y-92153267D01*
X116069732Y-92158332D01*
X116126568Y-92200879D01*
X116151379Y-92267399D01*
X116151700Y-92276388D01*
X116151700Y-113893406D01*
X116131698Y-113961527D01*
X116097971Y-113996619D01*
X115945411Y-114103443D01*
X115945408Y-114103445D01*
X115940900Y-114106602D01*
X115779002Y-114268500D01*
X115647677Y-114456051D01*
X115645354Y-114461033D01*
X115645351Y-114461038D01*
X115629395Y-114495257D01*
X115582478Y-114548542D01*
X115514201Y-114568003D01*
X115446241Y-114547461D01*
X115401005Y-114495257D01*
X115385049Y-114461038D01*
X115385046Y-114461033D01*
X115382723Y-114456051D01*
X115251398Y-114268500D01*
X115089500Y-114106602D01*
X115084992Y-114103445D01*
X115084989Y-114103443D01*
X114932429Y-113996619D01*
X114888101Y-113941162D01*
X114878700Y-113893406D01*
X114878700Y-101446168D01*
X114879227Y-101434985D01*
X114880902Y-101427492D01*
X114878762Y-101359401D01*
X114878700Y-101355444D01*
X114878700Y-101327544D01*
X114878196Y-101323553D01*
X114877263Y-101311711D01*
X114877093Y-101306275D01*
X114875874Y-101267511D01*
X114873662Y-101259897D01*
X114873661Y-101259892D01*
X114870223Y-101248059D01*
X114866212Y-101228695D01*
X114864667Y-101216464D01*
X114863674Y-101208603D01*
X114860757Y-101201236D01*
X114860756Y-101201231D01*
X114847398Y-101167492D01*
X114843554Y-101156265D01*
X114833430Y-101121422D01*
X114831218Y-101113807D01*
X114823281Y-101100386D01*
X114820907Y-101096372D01*
X114812212Y-101078624D01*
X114804752Y-101059783D01*
X114778764Y-101024013D01*
X114772248Y-101014093D01*
X114753780Y-100982865D01*
X114753778Y-100982862D01*
X114749742Y-100976038D01*
X114735421Y-100961717D01*
X114722580Y-100946683D01*
X114715331Y-100936706D01*
X114710672Y-100930293D01*
X114676595Y-100902102D01*
X114667816Y-100894112D01*
X112503922Y-98730217D01*
X112469896Y-98667905D01*
X112467707Y-98654292D01*
X112451032Y-98495635D01*
X112451032Y-98495633D01*
X112450342Y-98489072D01*
X112391327Y-98307444D01*
X112295840Y-98142056D01*
X112168053Y-98000134D01*
X112013552Y-97887882D01*
X112007524Y-97885198D01*
X112007522Y-97885197D01*
X111845119Y-97812891D01*
X111845118Y-97812891D01*
X111839088Y-97810206D01*
X111738560Y-97788838D01*
X111658744Y-97771872D01*
X111658739Y-97771872D01*
X111652287Y-97770500D01*
X111528900Y-97770500D01*
X111460779Y-97750498D01*
X111414286Y-97696842D01*
X111402900Y-97644500D01*
X111402900Y-96765324D01*
X111422902Y-96697203D01*
X111435258Y-96681021D01*
X111508440Y-96599744D01*
X111603927Y-96434356D01*
X111662942Y-96252728D01*
X111666031Y-96223344D01*
X111682214Y-96069365D01*
X111682904Y-96062800D01*
X111678527Y-96021159D01*
X111663632Y-95879435D01*
X111663632Y-95879433D01*
X111662942Y-95872872D01*
X111603927Y-95691244D01*
X111508440Y-95525856D01*
X111504021Y-95520948D01*
X111421572Y-95429379D01*
X111390854Y-95365372D01*
X111399619Y-95294918D01*
X111445082Y-95240387D01*
X111463960Y-95229962D01*
X111575719Y-95180205D01*
X111575726Y-95180201D01*
X111581752Y-95177518D01*
X111736253Y-95065266D01*
X111864040Y-94923344D01*
X111959527Y-94757956D01*
X112018542Y-94576328D01*
X112027880Y-94487487D01*
X112037814Y-94392965D01*
X112038504Y-94386400D01*
X112024844Y-94256435D01*
X112019232Y-94203035D01*
X112019232Y-94203033D01*
X112018542Y-94196472D01*
X111959527Y-94014844D01*
X111864040Y-93849456D01*
X111736253Y-93707534D01*
X111637157Y-93635536D01*
X111587094Y-93599163D01*
X111587093Y-93599162D01*
X111581752Y-93595282D01*
X111575724Y-93592598D01*
X111575722Y-93592597D01*
X111413319Y-93520291D01*
X111413318Y-93520291D01*
X111407288Y-93517606D01*
X111313887Y-93497753D01*
X111226944Y-93479272D01*
X111226939Y-93479272D01*
X111220487Y-93477900D01*
X111029513Y-93477900D01*
X111023061Y-93479272D01*
X111023056Y-93479272D01*
X110936113Y-93497753D01*
X110842712Y-93517606D01*
X110836682Y-93520291D01*
X110836681Y-93520291D01*
X110674278Y-93592597D01*
X110674276Y-93592598D01*
X110668248Y-93595282D01*
X110662907Y-93599162D01*
X110662906Y-93599163D01*
X110612843Y-93635536D01*
X110513747Y-93707534D01*
X110385960Y-93849456D01*
X110290473Y-94014844D01*
X110231458Y-94196472D01*
X110230768Y-94203033D01*
X110230768Y-94203035D01*
X110214093Y-94361693D01*
X110187080Y-94427350D01*
X110177878Y-94437618D01*
X108772947Y-95842548D01*
X108764661Y-95850088D01*
X108758182Y-95854200D01*
X108752757Y-95859977D01*
X108711557Y-95903851D01*
X108708802Y-95906693D01*
X108689065Y-95926430D01*
X108686585Y-95929627D01*
X108678882Y-95938647D01*
X108648614Y-95970879D01*
X108644795Y-95977825D01*
X108644793Y-95977828D01*
X108638852Y-95988634D01*
X108628001Y-96005153D01*
X108615586Y-96021159D01*
X108612441Y-96028428D01*
X108612438Y-96028432D01*
X108598026Y-96061737D01*
X108592809Y-96072387D01*
X108571505Y-96111140D01*
X108569534Y-96118815D01*
X108569534Y-96118816D01*
X108566467Y-96130762D01*
X108560063Y-96149466D01*
X108552019Y-96168055D01*
X108550780Y-96175878D01*
X108550777Y-96175888D01*
X108545101Y-96211724D01*
X108542695Y-96223344D01*
X108531700Y-96266170D01*
X108531700Y-96286424D01*
X108530149Y-96306134D01*
X108526980Y-96326143D01*
X108527726Y-96334035D01*
X108531141Y-96370161D01*
X108531700Y-96382019D01*
X108531700Y-101461496D01*
X108511698Y-101529617D01*
X108458042Y-101576110D01*
X108387768Y-101586214D01*
X108333429Y-101564709D01*
X108215407Y-101482069D01*
X108205911Y-101476586D01*
X108008453Y-101384510D01*
X107998161Y-101380764D01*
X107787712Y-101324375D01*
X107776919Y-101322472D01*
X107559875Y-101303483D01*
X107548925Y-101303483D01*
X107331881Y-101322472D01*
X107321088Y-101324375D01*
X107110639Y-101380764D01*
X107100347Y-101384510D01*
X106902889Y-101476586D01*
X106893394Y-101482069D01*
X106841352Y-101518509D01*
X106832976Y-101528988D01*
X106840044Y-101542434D01*
X107824515Y-102526905D01*
X107858541Y-102589217D01*
X107853476Y-102660032D01*
X107824515Y-102705095D01*
X106839323Y-103690287D01*
X106832893Y-103702062D01*
X106842189Y-103714077D01*
X106893394Y-103749931D01*
X106902889Y-103755414D01*
X107100347Y-103847490D01*
X107110639Y-103851236D01*
X107321088Y-103907625D01*
X107331881Y-103909528D01*
X107548925Y-103928517D01*
X107559875Y-103928517D01*
X107776919Y-103909528D01*
X107787712Y-103907625D01*
X107998161Y-103851236D01*
X108008453Y-103847490D01*
X108205911Y-103755414D01*
X108215407Y-103749931D01*
X108333429Y-103667291D01*
X108400703Y-103644603D01*
X108469564Y-103661888D01*
X108518148Y-103713658D01*
X108531700Y-103770504D01*
X108531700Y-113893406D01*
X108511698Y-113961527D01*
X108477971Y-113996619D01*
X108325411Y-114103443D01*
X108325408Y-114103445D01*
X108320900Y-114106602D01*
X108159002Y-114268500D01*
X108027677Y-114456051D01*
X108025354Y-114461033D01*
X108025351Y-114461038D01*
X108009395Y-114495257D01*
X107962478Y-114548542D01*
X107894201Y-114568003D01*
X107826241Y-114547461D01*
X107781005Y-114495257D01*
X107765049Y-114461038D01*
X107765046Y-114461033D01*
X107762723Y-114456051D01*
X107631398Y-114268500D01*
X107469500Y-114106602D01*
X107464992Y-114103445D01*
X107464989Y-114103443D01*
X107312429Y-113996619D01*
X107268101Y-113941162D01*
X107258700Y-113893406D01*
X107258700Y-106733134D01*
X107278702Y-106665013D01*
X107310639Y-106631198D01*
X107387509Y-106575349D01*
X107387511Y-106575347D01*
X107392853Y-106571466D01*
X107520640Y-106429544D01*
X107578914Y-106328610D01*
X107612823Y-106269879D01*
X107612824Y-106269878D01*
X107616127Y-106264156D01*
X107675142Y-106082528D01*
X107679383Y-106042183D01*
X107694414Y-105899165D01*
X107695104Y-105892600D01*
X107675142Y-105702672D01*
X107616127Y-105521044D01*
X107520640Y-105355656D01*
X107392853Y-105213734D01*
X107238352Y-105101482D01*
X107232324Y-105098798D01*
X107232322Y-105098797D01*
X107069919Y-105026491D01*
X107069918Y-105026491D01*
X107063888Y-105023806D01*
X106970488Y-105003953D01*
X106883544Y-104985472D01*
X106883539Y-104985472D01*
X106877087Y-104984100D01*
X106686113Y-104984100D01*
X106679661Y-104985472D01*
X106679656Y-104985472D01*
X106592713Y-105003953D01*
X106499312Y-105023806D01*
X106493282Y-105026491D01*
X106493281Y-105026491D01*
X106330878Y-105098797D01*
X106330876Y-105098798D01*
X106324848Y-105101482D01*
X106170347Y-105213734D01*
X106042560Y-105355656D01*
X105947073Y-105521044D01*
X105888058Y-105702672D01*
X105868096Y-105892600D01*
X105868786Y-105899165D01*
X105883818Y-106042183D01*
X105888058Y-106082528D01*
X105947073Y-106264156D01*
X105950376Y-106269878D01*
X105950377Y-106269879D01*
X105974819Y-106312213D01*
X105991700Y-106375213D01*
X105991700Y-113893406D01*
X105971698Y-113961527D01*
X105937971Y-113996619D01*
X105785411Y-114103443D01*
X105785408Y-114103445D01*
X105780900Y-114106602D01*
X105619002Y-114268500D01*
X105487677Y-114456051D01*
X105485354Y-114461033D01*
X105485351Y-114461038D01*
X105469395Y-114495257D01*
X105422478Y-114548542D01*
X105354201Y-114568003D01*
X105286241Y-114547461D01*
X105241005Y-114495257D01*
X105225049Y-114461038D01*
X105225046Y-114461033D01*
X105222723Y-114456051D01*
X105091398Y-114268500D01*
X104929500Y-114106602D01*
X104924992Y-114103445D01*
X104924989Y-114103443D01*
X104772428Y-113996619D01*
X104741949Y-113975277D01*
X104736967Y-113972954D01*
X104736962Y-113972951D01*
X104539425Y-113880839D01*
X104539424Y-113880839D01*
X104534443Y-113878516D01*
X104529135Y-113877094D01*
X104529133Y-113877093D01*
X104318602Y-113820681D01*
X104318600Y-113820681D01*
X104313287Y-113819257D01*
X104085200Y-113799302D01*
X103857113Y-113819257D01*
X103851800Y-113820681D01*
X103851798Y-113820681D01*
X103641267Y-113877093D01*
X103641265Y-113877094D01*
X103635957Y-113878516D01*
X103630976Y-113880839D01*
X103630975Y-113880839D01*
X103433438Y-113972951D01*
X103433433Y-113972954D01*
X103428451Y-113975277D01*
X103397972Y-113996619D01*
X103245411Y-114103443D01*
X103245408Y-114103445D01*
X103240900Y-114106602D01*
X103079002Y-114268500D01*
X102947677Y-114456051D01*
X102945354Y-114461033D01*
X102945351Y-114461038D01*
X102945234Y-114461289D01*
X102850916Y-114663557D01*
X102849494Y-114668865D01*
X102849493Y-114668867D01*
X102817099Y-114789762D01*
X102791657Y-114884713D01*
X102771702Y-115112800D01*
X102791657Y-115340887D01*
X102793081Y-115346200D01*
X102793081Y-115346202D01*
X102843159Y-115533092D01*
X102850916Y-115562043D01*
X102853239Y-115567024D01*
X102853239Y-115567025D01*
X102945351Y-115764562D01*
X102945354Y-115764567D01*
X102947677Y-115769549D01*
X103079002Y-115957100D01*
X103240900Y-116118998D01*
X103245408Y-116122155D01*
X103245411Y-116122157D01*
X103278333Y-116145209D01*
X103428451Y-116250323D01*
X103433433Y-116252646D01*
X103433438Y-116252649D01*
X103582824Y-116322308D01*
X103635957Y-116347084D01*
X103641265Y-116348506D01*
X103641267Y-116348507D01*
X103851798Y-116404919D01*
X103851800Y-116404919D01*
X103857113Y-116406343D01*
X104085200Y-116426298D01*
X104313287Y-116406343D01*
X104318600Y-116404919D01*
X104318602Y-116404919D01*
X104529133Y-116348507D01*
X104529135Y-116348506D01*
X104534443Y-116347084D01*
X104587576Y-116322308D01*
X104736962Y-116252649D01*
X104736967Y-116252646D01*
X104741949Y-116250323D01*
X104892067Y-116145209D01*
X104924989Y-116122157D01*
X104924992Y-116122155D01*
X104929500Y-116118998D01*
X105091398Y-115957100D01*
X105222723Y-115769549D01*
X105225046Y-115764567D01*
X105225049Y-115764562D01*
X105241005Y-115730343D01*
X105287922Y-115677058D01*
X105356199Y-115657597D01*
X105424159Y-115678139D01*
X105469395Y-115730343D01*
X105485351Y-115764562D01*
X105485354Y-115764567D01*
X105487677Y-115769549D01*
X105619002Y-115957100D01*
X105780900Y-116118998D01*
X105785408Y-116122155D01*
X105785411Y-116122157D01*
X105818333Y-116145209D01*
X105968451Y-116250323D01*
X105973433Y-116252646D01*
X105973438Y-116252649D01*
X106122824Y-116322308D01*
X106175957Y-116347084D01*
X106181265Y-116348506D01*
X106181267Y-116348507D01*
X106391798Y-116404919D01*
X106391800Y-116404919D01*
X106397113Y-116406343D01*
X106625200Y-116426298D01*
X106853287Y-116406343D01*
X106858600Y-116404919D01*
X106858602Y-116404919D01*
X107069133Y-116348507D01*
X107069135Y-116348506D01*
X107074443Y-116347084D01*
X107127576Y-116322308D01*
X107276962Y-116252649D01*
X107276967Y-116252646D01*
X107281949Y-116250323D01*
X107432067Y-116145209D01*
X107464989Y-116122157D01*
X107464992Y-116122155D01*
X107469500Y-116118998D01*
X107631398Y-115957100D01*
X107762723Y-115769549D01*
X107765046Y-115764567D01*
X107765049Y-115764562D01*
X107781005Y-115730343D01*
X107827922Y-115677058D01*
X107896199Y-115657597D01*
X107964159Y-115678139D01*
X108009395Y-115730343D01*
X108025351Y-115764562D01*
X108025354Y-115764567D01*
X108027677Y-115769549D01*
X108159002Y-115957100D01*
X108320900Y-116118998D01*
X108325408Y-116122155D01*
X108325411Y-116122157D01*
X108358333Y-116145209D01*
X108508451Y-116250323D01*
X108513433Y-116252646D01*
X108513438Y-116252649D01*
X108662824Y-116322308D01*
X108715957Y-116347084D01*
X108721265Y-116348506D01*
X108721267Y-116348507D01*
X108931798Y-116404919D01*
X108931800Y-116404919D01*
X108937113Y-116406343D01*
X109165200Y-116426298D01*
X109393287Y-116406343D01*
X109398600Y-116404919D01*
X109398602Y-116404919D01*
X109609133Y-116348507D01*
X109609135Y-116348506D01*
X109614443Y-116347084D01*
X109667576Y-116322308D01*
X109816962Y-116252649D01*
X109816967Y-116252646D01*
X109821949Y-116250323D01*
X109972067Y-116145209D01*
X110004989Y-116122157D01*
X110004992Y-116122155D01*
X110009500Y-116118998D01*
X110171398Y-115957100D01*
X110302723Y-115769549D01*
X110305046Y-115764567D01*
X110305049Y-115764562D01*
X110321005Y-115730343D01*
X110367922Y-115677058D01*
X110436199Y-115657597D01*
X110504159Y-115678139D01*
X110549395Y-115730343D01*
X110565351Y-115764562D01*
X110565354Y-115764567D01*
X110567677Y-115769549D01*
X110699002Y-115957100D01*
X110860900Y-116118998D01*
X110865408Y-116122155D01*
X110865411Y-116122157D01*
X110898333Y-116145209D01*
X111048451Y-116250323D01*
X111053433Y-116252646D01*
X111053438Y-116252649D01*
X111202824Y-116322308D01*
X111255957Y-116347084D01*
X111261265Y-116348506D01*
X111261267Y-116348507D01*
X111471798Y-116404919D01*
X111471800Y-116404919D01*
X111477113Y-116406343D01*
X111705200Y-116426298D01*
X111933287Y-116406343D01*
X111938600Y-116404919D01*
X111938602Y-116404919D01*
X112149133Y-116348507D01*
X112149135Y-116348506D01*
X112154443Y-116347084D01*
X112207576Y-116322308D01*
X112356962Y-116252649D01*
X112356967Y-116252646D01*
X112361949Y-116250323D01*
X112512067Y-116145209D01*
X112544989Y-116122157D01*
X112544992Y-116122155D01*
X112549500Y-116118998D01*
X112711398Y-115957100D01*
X112842723Y-115769549D01*
X112845046Y-115764567D01*
X112845049Y-115764562D01*
X112861005Y-115730343D01*
X112907922Y-115677058D01*
X112976199Y-115657597D01*
X113044159Y-115678139D01*
X113089395Y-115730343D01*
X113105351Y-115764562D01*
X113105354Y-115764567D01*
X113107677Y-115769549D01*
X113239002Y-115957100D01*
X113400900Y-116118998D01*
X113405408Y-116122155D01*
X113405411Y-116122157D01*
X113438333Y-116145209D01*
X113588451Y-116250323D01*
X113593433Y-116252646D01*
X113593438Y-116252649D01*
X113742824Y-116322308D01*
X113795957Y-116347084D01*
X113801265Y-116348506D01*
X113801267Y-116348507D01*
X114011798Y-116404919D01*
X114011800Y-116404919D01*
X114017113Y-116406343D01*
X114245200Y-116426298D01*
X114473287Y-116406343D01*
X114478600Y-116404919D01*
X114478602Y-116404919D01*
X114689133Y-116348507D01*
X114689135Y-116348506D01*
X114694443Y-116347084D01*
X114747576Y-116322308D01*
X114896962Y-116252649D01*
X114896967Y-116252646D01*
X114901949Y-116250323D01*
X115052067Y-116145209D01*
X115084989Y-116122157D01*
X115084992Y-116122155D01*
X115089500Y-116118998D01*
X115251398Y-115957100D01*
X115382723Y-115769549D01*
X115385046Y-115764567D01*
X115385049Y-115764562D01*
X115401005Y-115730343D01*
X115447922Y-115677058D01*
X115516199Y-115657597D01*
X115584159Y-115678139D01*
X115629395Y-115730343D01*
X115645351Y-115764562D01*
X115645354Y-115764567D01*
X115647677Y-115769549D01*
X115779002Y-115957100D01*
X115940900Y-116118998D01*
X115945408Y-116122155D01*
X115945411Y-116122157D01*
X115978333Y-116145209D01*
X116128451Y-116250323D01*
X116133433Y-116252646D01*
X116133438Y-116252649D01*
X116282824Y-116322308D01*
X116335957Y-116347084D01*
X116341265Y-116348506D01*
X116341267Y-116348507D01*
X116551798Y-116404919D01*
X116551800Y-116404919D01*
X116557113Y-116406343D01*
X116785200Y-116426298D01*
X117013287Y-116406343D01*
X117018600Y-116404919D01*
X117018602Y-116404919D01*
X117229133Y-116348507D01*
X117229135Y-116348506D01*
X117234443Y-116347084D01*
X117287576Y-116322308D01*
X117436962Y-116252649D01*
X117436967Y-116252646D01*
X117441949Y-116250323D01*
X117592067Y-116145209D01*
X117624989Y-116122157D01*
X117624992Y-116122155D01*
X117629500Y-116118998D01*
X117791398Y-115957100D01*
X117922723Y-115769549D01*
X117925046Y-115764567D01*
X117925049Y-115764562D01*
X117941281Y-115729751D01*
X117988198Y-115676466D01*
X118056475Y-115657005D01*
X118124435Y-115677547D01*
X118169671Y-115729751D01*
X118185786Y-115764311D01*
X118191269Y-115773807D01*
X118316228Y-115952267D01*
X118323284Y-115960675D01*
X118477325Y-116114716D01*
X118485733Y-116121772D01*
X118664193Y-116246731D01*
X118673689Y-116252214D01*
X118871147Y-116344290D01*
X118881439Y-116348036D01*
X119053703Y-116394194D01*
X119067799Y-116393858D01*
X119071200Y-116385916D01*
X119071200Y-113844833D01*
X119067227Y-113831302D01*
X119058678Y-113830073D01*
X118881439Y-113877564D01*
X118871147Y-113881310D01*
X118673689Y-113973386D01*
X118664193Y-113978869D01*
X118485733Y-114103828D01*
X118477325Y-114110884D01*
X118323284Y-114264925D01*
X118316228Y-114273333D01*
X118191269Y-114451793D01*
X118185786Y-114461289D01*
X118169671Y-114495849D01*
X118122754Y-114549134D01*
X118054477Y-114568595D01*
X117986517Y-114548053D01*
X117941281Y-114495849D01*
X117925049Y-114461038D01*
X117925046Y-114461033D01*
X117922723Y-114456051D01*
X117791398Y-114268500D01*
X117629500Y-114106602D01*
X117624992Y-114103445D01*
X117624989Y-114103443D01*
X117472429Y-113996619D01*
X117428101Y-113941162D01*
X117418700Y-113893406D01*
X117418700Y-88441368D01*
X117419227Y-88430185D01*
X117420902Y-88422692D01*
X117418762Y-88354601D01*
X117418700Y-88350644D01*
X117418700Y-88322744D01*
X117418196Y-88318753D01*
X117417263Y-88306911D01*
X117416529Y-88283537D01*
X117415874Y-88262711D01*
X117413662Y-88255097D01*
X117413661Y-88255092D01*
X117410223Y-88243259D01*
X117406212Y-88223895D01*
X117404667Y-88211664D01*
X117403674Y-88203803D01*
X117400757Y-88196436D01*
X117400756Y-88196431D01*
X117387398Y-88162692D01*
X117383554Y-88151465D01*
X117373430Y-88116622D01*
X117371218Y-88109007D01*
X117365372Y-88099122D01*
X117360907Y-88091572D01*
X117352212Y-88073824D01*
X117344752Y-88054983D01*
X117318764Y-88019213D01*
X117312248Y-88009293D01*
X117293780Y-87978065D01*
X117293778Y-87978062D01*
X117289742Y-87971238D01*
X117275421Y-87956917D01*
X117262580Y-87941883D01*
X117255331Y-87931906D01*
X117250672Y-87925493D01*
X117216595Y-87897302D01*
X117207816Y-87889312D01*
X116116700Y-86798195D01*
X116082674Y-86735883D01*
X116087739Y-86665067D01*
X116130286Y-86608232D01*
X116196806Y-86583421D01*
X116205795Y-86583100D01*
X117107652Y-86583100D01*
X117175773Y-86603102D01*
X117196747Y-86620005D01*
X120968795Y-90392053D01*
X121002821Y-90454365D01*
X121005700Y-90481148D01*
X121005700Y-108302412D01*
X120985698Y-108370533D01*
X120968795Y-108391507D01*
X120883002Y-108477300D01*
X120751677Y-108664851D01*
X120749354Y-108669833D01*
X120749351Y-108669838D01*
X120749234Y-108670089D01*
X120654916Y-108872357D01*
X120595657Y-109093513D01*
X120575702Y-109321600D01*
X120595657Y-109549687D01*
X120654916Y-109770843D01*
X120657239Y-109775824D01*
X120657239Y-109775825D01*
X120749351Y-109973362D01*
X120749354Y-109973367D01*
X120751677Y-109978349D01*
X120883002Y-110165900D01*
X120968795Y-110251693D01*
X121002821Y-110314005D01*
X121005700Y-110340788D01*
X121005700Y-114069612D01*
X120985698Y-114137733D01*
X120968795Y-114158707D01*
X120859002Y-114268500D01*
X120727677Y-114456051D01*
X120725354Y-114461033D01*
X120725351Y-114461038D01*
X120709119Y-114495849D01*
X120662202Y-114549134D01*
X120593925Y-114568595D01*
X120525965Y-114548053D01*
X120480729Y-114495849D01*
X120464614Y-114461289D01*
X120459131Y-114451793D01*
X120334172Y-114273333D01*
X120327116Y-114264925D01*
X120173075Y-114110884D01*
X120164667Y-114103828D01*
X119986207Y-113978869D01*
X119976711Y-113973386D01*
X119779253Y-113881310D01*
X119768961Y-113877564D01*
X119596697Y-113831406D01*
X119582601Y-113831742D01*
X119579200Y-113839684D01*
X119579200Y-116380767D01*
X119583173Y-116394298D01*
X119591722Y-116395527D01*
X119768961Y-116348036D01*
X119779253Y-116344290D01*
X119976711Y-116252214D01*
X119986207Y-116246731D01*
X120164667Y-116121772D01*
X120173075Y-116114716D01*
X120327116Y-115960675D01*
X120334172Y-115952267D01*
X120459131Y-115773807D01*
X120464614Y-115764311D01*
X120480729Y-115729751D01*
X120527646Y-115676466D01*
X120595923Y-115657005D01*
X120663883Y-115677547D01*
X120709119Y-115729751D01*
X120725351Y-115764562D01*
X120725354Y-115764567D01*
X120727677Y-115769549D01*
X120859002Y-115957100D01*
X121020900Y-116118998D01*
X121025408Y-116122155D01*
X121025411Y-116122157D01*
X121058333Y-116145209D01*
X121208451Y-116250323D01*
X121213433Y-116252646D01*
X121213438Y-116252649D01*
X121362824Y-116322308D01*
X121415957Y-116347084D01*
X121421265Y-116348506D01*
X121421267Y-116348507D01*
X121631798Y-116404919D01*
X121631800Y-116404919D01*
X121637113Y-116406343D01*
X121865200Y-116426298D01*
X122093287Y-116406343D01*
X122098600Y-116404919D01*
X122098602Y-116404919D01*
X122309133Y-116348507D01*
X122309135Y-116348506D01*
X122314443Y-116347084D01*
X122367576Y-116322308D01*
X122516962Y-116252649D01*
X122516967Y-116252646D01*
X122521949Y-116250323D01*
X122672067Y-116145209D01*
X122704989Y-116122157D01*
X122704992Y-116122155D01*
X122709500Y-116118998D01*
X122871398Y-115957100D01*
X123002723Y-115769549D01*
X123005046Y-115764567D01*
X123005049Y-115764562D01*
X123021005Y-115730343D01*
X123067922Y-115677058D01*
X123136199Y-115657597D01*
X123204159Y-115678139D01*
X123249395Y-115730343D01*
X123265351Y-115764562D01*
X123265354Y-115764567D01*
X123267677Y-115769549D01*
X123399002Y-115957100D01*
X123560900Y-116118998D01*
X123565408Y-116122155D01*
X123565411Y-116122157D01*
X123598333Y-116145209D01*
X123748451Y-116250323D01*
X123753433Y-116252646D01*
X123753438Y-116252649D01*
X123902824Y-116322308D01*
X123955957Y-116347084D01*
X123961265Y-116348506D01*
X123961267Y-116348507D01*
X124171798Y-116404919D01*
X124171800Y-116404919D01*
X124177113Y-116406343D01*
X124405200Y-116426298D01*
X124633287Y-116406343D01*
X124638600Y-116404919D01*
X124638602Y-116404919D01*
X124849133Y-116348507D01*
X124849135Y-116348506D01*
X124854443Y-116347084D01*
X124907576Y-116322308D01*
X125056962Y-116252649D01*
X125056967Y-116252646D01*
X125061949Y-116250323D01*
X125212067Y-116145209D01*
X125244989Y-116122157D01*
X125244992Y-116122155D01*
X125249500Y-116118998D01*
X125411398Y-115957100D01*
X125542723Y-115769549D01*
X125545046Y-115764567D01*
X125545049Y-115764562D01*
X125561005Y-115730343D01*
X125607922Y-115677058D01*
X125676199Y-115657597D01*
X125744159Y-115678139D01*
X125789395Y-115730343D01*
X125805351Y-115764562D01*
X125805354Y-115764567D01*
X125807677Y-115769549D01*
X125939002Y-115957100D01*
X126100900Y-116118998D01*
X126105408Y-116122155D01*
X126105411Y-116122157D01*
X126138333Y-116145209D01*
X126288451Y-116250323D01*
X126293433Y-116252646D01*
X126293438Y-116252649D01*
X126442824Y-116322308D01*
X126495957Y-116347084D01*
X126501265Y-116348506D01*
X126501267Y-116348507D01*
X126711798Y-116404919D01*
X126711800Y-116404919D01*
X126717113Y-116406343D01*
X126945200Y-116426298D01*
X127173287Y-116406343D01*
X127178600Y-116404919D01*
X127178602Y-116404919D01*
X127389133Y-116348507D01*
X127389135Y-116348506D01*
X127394443Y-116347084D01*
X127447576Y-116322308D01*
X127596962Y-116252649D01*
X127596967Y-116252646D01*
X127601949Y-116250323D01*
X127752067Y-116145209D01*
X127784989Y-116122157D01*
X127784992Y-116122155D01*
X127789500Y-116118998D01*
X127951398Y-115957100D01*
X128082723Y-115769549D01*
X128085046Y-115764567D01*
X128085049Y-115764562D01*
X128177161Y-115567025D01*
X128177161Y-115567024D01*
X128179484Y-115562043D01*
X128189166Y-115525909D01*
X128226118Y-115465286D01*
X128289978Y-115434265D01*
X128360473Y-115442693D01*
X128415220Y-115487896D01*
X128433134Y-115530625D01*
X128433468Y-115530534D01*
X128509329Y-115807836D01*
X128622123Y-116072276D01*
X128633893Y-116091942D01*
X128726793Y-116247166D01*
X128769761Y-116318961D01*
X128949513Y-116543328D01*
X129158051Y-116741223D01*
X129391517Y-116908986D01*
X129395319Y-116910999D01*
X129395664Y-116911213D01*
X129443019Y-116964109D01*
X129454259Y-117034211D01*
X129425815Y-117099260D01*
X129366718Y-117138606D01*
X129329268Y-117144300D01*
X81466618Y-117144300D01*
X81398497Y-117124298D01*
X81377523Y-117107395D01*
X80225205Y-115955078D01*
X80191180Y-115892766D01*
X80188300Y-115865983D01*
X80188300Y-104796853D01*
X80189578Y-104785673D01*
X80188877Y-104785613D01*
X80189641Y-104776667D01*
X80191665Y-104767922D01*
X80188505Y-104712577D01*
X80188300Y-104705395D01*
X80188300Y-104687687D01*
X80187665Y-104683251D01*
X80187038Y-104678873D01*
X80185971Y-104668197D01*
X80183874Y-104631469D01*
X80183874Y-104631468D01*
X80183362Y-104622502D01*
X80180215Y-104613649D01*
X80174213Y-104589320D01*
X80172880Y-104580013D01*
X80169162Y-104571835D01*
X80153928Y-104538330D01*
X80149905Y-104528378D01*
X80137584Y-104493714D01*
X80134578Y-104485257D01*
X80129075Y-104477646D01*
X80116482Y-104455973D01*
X80116306Y-104455587D01*
X80112592Y-104447418D01*
X80106735Y-104440621D01*
X80106732Y-104440616D01*
X80082716Y-104412744D01*
X80076062Y-104404323D01*
X80071856Y-104398505D01*
X80071852Y-104398501D01*
X80069004Y-104394561D01*
X80057004Y-104382442D01*
X80051085Y-104376035D01*
X80023372Y-104343872D01*
X80023369Y-104343870D01*
X80017513Y-104337073D01*
X80009984Y-104332193D01*
X80003215Y-104326288D01*
X80003329Y-104326157D01*
X79992763Y-104317565D01*
X77659367Y-101961066D01*
X77625649Y-101898587D01*
X77622900Y-101872411D01*
X77622900Y-100955284D01*
X77642902Y-100887163D01*
X77696558Y-100840670D01*
X77766832Y-100830566D01*
X77831412Y-100860060D01*
X77857016Y-100890578D01*
X77962695Y-101067154D01*
X77969761Y-101078961D01*
X78149513Y-101303328D01*
X78204348Y-101355364D01*
X78349501Y-101493109D01*
X78358051Y-101501223D01*
X78476328Y-101586214D01*
X78572349Y-101655212D01*
X78591517Y-101668986D01*
X78595312Y-101670995D01*
X78595313Y-101670996D01*
X78616087Y-101681995D01*
X78845592Y-101803512D01*
X78869899Y-101812407D01*
X79105397Y-101898587D01*
X79115573Y-101902311D01*
X79396464Y-101963555D01*
X79425041Y-101965804D01*
X79619482Y-101981107D01*
X79619491Y-101981107D01*
X79621939Y-101981300D01*
X79777471Y-101981300D01*
X79779607Y-101981154D01*
X79779618Y-101981154D01*
X79987748Y-101966965D01*
X79987754Y-101966964D01*
X79992025Y-101966673D01*
X79996220Y-101965804D01*
X79996222Y-101965804D01*
X80150517Y-101933851D01*
X80273542Y-101908374D01*
X80544543Y-101812407D01*
X80800012Y-101680550D01*
X80803513Y-101678089D01*
X80803517Y-101678087D01*
X81030573Y-101518509D01*
X81035223Y-101515241D01*
X81129652Y-101427492D01*
X81242679Y-101322461D01*
X81242683Y-101322457D01*
X81245822Y-101319540D01*
X81427913Y-101097068D01*
X81578127Y-100851942D01*
X81693683Y-100588698D01*
X81772444Y-100312206D01*
X81812951Y-100027584D01*
X81814457Y-99740097D01*
X81776932Y-99455066D01*
X81701071Y-99177764D01*
X81651336Y-99061162D01*
X81589963Y-98917276D01*
X81589961Y-98917272D01*
X81588277Y-98913324D01*
X81440639Y-98666639D01*
X81260887Y-98442272D01*
X81052349Y-98244377D01*
X80818883Y-98076614D01*
X80797043Y-98065050D01*
X80773854Y-98052772D01*
X80564808Y-97942088D01*
X80294827Y-97843289D01*
X80013936Y-97782045D01*
X79982885Y-97779601D01*
X79790918Y-97764493D01*
X79790909Y-97764493D01*
X79788461Y-97764300D01*
X79632929Y-97764300D01*
X79630793Y-97764446D01*
X79630782Y-97764446D01*
X79422652Y-97778635D01*
X79422646Y-97778636D01*
X79418375Y-97778927D01*
X79414180Y-97779796D01*
X79414178Y-97779796D01*
X79277616Y-97808077D01*
X79136858Y-97837226D01*
X78865857Y-97933193D01*
X78610388Y-98065050D01*
X78606887Y-98067511D01*
X78606883Y-98067513D01*
X78492783Y-98147704D01*
X78375177Y-98230359D01*
X78164578Y-98426060D01*
X77982487Y-98648532D01*
X77980248Y-98652186D01*
X77856333Y-98854396D01*
X77803685Y-98902027D01*
X77733644Y-98913634D01*
X77668446Y-98885531D01*
X77628792Y-98826640D01*
X77622900Y-98788561D01*
X77622900Y-73015284D01*
X77642902Y-72947163D01*
X77696558Y-72900670D01*
X77766832Y-72890566D01*
X77831412Y-72920060D01*
X77857016Y-72950578D01*
X77933846Y-73078951D01*
X77969761Y-73138961D01*
X78149513Y-73363328D01*
X78358051Y-73561223D01*
X78535488Y-73688725D01*
X78548943Y-73698393D01*
X78591517Y-73728986D01*
X78595312Y-73730995D01*
X78595313Y-73730996D01*
X78615008Y-73741424D01*
X78845592Y-73863512D01*
X79115573Y-73962311D01*
X79396464Y-74023555D01*
X79425041Y-74025804D01*
X79619482Y-74041107D01*
X79619491Y-74041107D01*
X79621939Y-74041300D01*
X79777471Y-74041300D01*
X79779607Y-74041154D01*
X79779618Y-74041154D01*
X79987748Y-74026965D01*
X79987754Y-74026964D01*
X79992025Y-74026673D01*
X79996220Y-74025804D01*
X79996222Y-74025804D01*
X80165670Y-73990713D01*
X80273542Y-73968374D01*
X80544543Y-73872407D01*
X80754935Y-73763816D01*
X80796205Y-73742515D01*
X80796206Y-73742515D01*
X80800012Y-73740550D01*
X80803513Y-73738089D01*
X80803517Y-73738087D01*
X80958844Y-73628921D01*
X81035223Y-73575241D01*
X81245822Y-73379540D01*
X81427913Y-73157068D01*
X81578127Y-72911942D01*
X81580832Y-72905781D01*
X81691957Y-72652630D01*
X81693683Y-72648698D01*
X81772444Y-72372206D01*
X81812951Y-72087584D01*
X81814457Y-71800097D01*
X81776932Y-71515066D01*
X81701071Y-71237764D01*
X81588277Y-70973324D01*
X81440639Y-70726639D01*
X81260887Y-70502272D01*
X81052349Y-70304377D01*
X80818883Y-70136614D01*
X80797043Y-70125050D01*
X80773854Y-70112772D01*
X80564808Y-70002088D01*
X80294827Y-69903289D01*
X80013936Y-69842045D01*
X79982885Y-69839601D01*
X79790918Y-69824493D01*
X79790909Y-69824493D01*
X79788461Y-69824300D01*
X79632929Y-69824300D01*
X79630793Y-69824446D01*
X79630782Y-69824446D01*
X79422652Y-69838635D01*
X79422646Y-69838636D01*
X79418375Y-69838927D01*
X79414180Y-69839796D01*
X79414178Y-69839796D01*
X79277616Y-69868077D01*
X79136858Y-69897226D01*
X78865857Y-69993193D01*
X78610388Y-70125050D01*
X78606887Y-70127511D01*
X78606883Y-70127513D01*
X78596794Y-70134604D01*
X78375177Y-70290359D01*
X78164578Y-70486060D01*
X77982487Y-70708532D01*
X77980248Y-70712186D01*
X77856333Y-70914396D01*
X77803685Y-70962027D01*
X77733644Y-70973634D01*
X77668446Y-70945531D01*
X77628792Y-70886640D01*
X77622900Y-70848561D01*
X77622900Y-69651946D01*
X77642902Y-69583825D01*
X77658927Y-69563737D01*
X77771218Y-69449201D01*
X78898337Y-68299540D01*
X79966718Y-67209792D01*
X79975025Y-67202050D01*
X79979768Y-67198013D01*
X79987358Y-67193224D01*
X80025146Y-67150437D01*
X80029590Y-67145662D01*
X80039933Y-67135113D01*
X80039942Y-67135103D01*
X80043068Y-67131914D01*
X80047404Y-67126008D01*
X80054529Y-67117168D01*
X80077838Y-67090775D01*
X80083778Y-67084049D01*
X80088445Y-67074108D01*
X80100933Y-67053089D01*
X80100960Y-67053052D01*
X80107436Y-67044231D01*
X80122546Y-67002677D01*
X80126891Y-66992222D01*
X80145681Y-66952200D01*
X80147372Y-66941342D01*
X80153459Y-66917663D01*
X80154144Y-66915779D01*
X80157212Y-66907343D01*
X80160051Y-66863237D01*
X80161197Y-66852800D01*
X80931702Y-66852800D01*
X80951657Y-67080887D01*
X80953081Y-67086200D01*
X80953081Y-67086202D01*
X80969014Y-67145662D01*
X81010916Y-67302043D01*
X81013239Y-67307024D01*
X81013239Y-67307025D01*
X81105351Y-67504562D01*
X81105354Y-67504567D01*
X81107677Y-67509549D01*
X81239002Y-67697100D01*
X81400900Y-67858998D01*
X81405408Y-67862155D01*
X81405411Y-67862157D01*
X81446742Y-67891097D01*
X81588451Y-67990323D01*
X81593433Y-67992646D01*
X81593438Y-67992649D01*
X81742824Y-68062308D01*
X81795957Y-68087084D01*
X81801265Y-68088506D01*
X81801267Y-68088507D01*
X82011798Y-68144919D01*
X82011800Y-68144919D01*
X82017113Y-68146343D01*
X82245200Y-68166298D01*
X82473287Y-68146343D01*
X82478600Y-68144919D01*
X82478602Y-68144919D01*
X82689133Y-68088507D01*
X82689135Y-68088506D01*
X82694443Y-68087084D01*
X82747576Y-68062308D01*
X82896962Y-67992649D01*
X82896967Y-67992646D01*
X82901949Y-67990323D01*
X83043658Y-67891097D01*
X83084989Y-67862157D01*
X83084992Y-67862155D01*
X83089500Y-67858998D01*
X83251398Y-67697100D01*
X83382723Y-67509549D01*
X83385046Y-67504567D01*
X83385049Y-67504562D01*
X83401005Y-67470343D01*
X83447922Y-67417058D01*
X83516199Y-67397597D01*
X83584159Y-67418139D01*
X83629395Y-67470343D01*
X83645351Y-67504562D01*
X83645354Y-67504567D01*
X83647677Y-67509549D01*
X83779002Y-67697100D01*
X83940900Y-67858998D01*
X83945408Y-67862155D01*
X83945411Y-67862157D01*
X83986742Y-67891097D01*
X84128451Y-67990323D01*
X84133433Y-67992646D01*
X84133438Y-67992649D01*
X84282824Y-68062308D01*
X84335957Y-68087084D01*
X84341265Y-68088506D01*
X84341267Y-68088507D01*
X84551798Y-68144919D01*
X84551800Y-68144919D01*
X84557113Y-68146343D01*
X84785200Y-68166298D01*
X85013287Y-68146343D01*
X85018600Y-68144919D01*
X85018602Y-68144919D01*
X85229133Y-68088507D01*
X85229135Y-68088506D01*
X85234443Y-68087084D01*
X85287576Y-68062308D01*
X85436962Y-67992649D01*
X85436967Y-67992646D01*
X85441949Y-67990323D01*
X85583658Y-67891097D01*
X85624989Y-67862157D01*
X85624992Y-67862155D01*
X85629500Y-67858998D01*
X85791398Y-67697100D01*
X85922723Y-67509549D01*
X85925046Y-67504567D01*
X85925049Y-67504562D01*
X85941005Y-67470343D01*
X85987922Y-67417058D01*
X86056199Y-67397597D01*
X86124159Y-67418139D01*
X86169395Y-67470343D01*
X86185351Y-67504562D01*
X86185354Y-67504567D01*
X86187677Y-67509549D01*
X86319002Y-67697100D01*
X86480900Y-67858998D01*
X86485408Y-67862155D01*
X86485411Y-67862157D01*
X86526742Y-67891097D01*
X86668451Y-67990323D01*
X86673433Y-67992646D01*
X86673438Y-67992649D01*
X86822824Y-68062308D01*
X86875957Y-68087084D01*
X86881265Y-68088506D01*
X86881267Y-68088507D01*
X87091798Y-68144919D01*
X87091800Y-68144919D01*
X87097113Y-68146343D01*
X87325200Y-68166298D01*
X87553287Y-68146343D01*
X87558600Y-68144919D01*
X87558602Y-68144919D01*
X87769133Y-68088507D01*
X87769135Y-68088506D01*
X87774443Y-68087084D01*
X87827576Y-68062308D01*
X87976962Y-67992649D01*
X87976967Y-67992646D01*
X87981949Y-67990323D01*
X88123658Y-67891097D01*
X88164989Y-67862157D01*
X88164992Y-67862155D01*
X88169500Y-67858998D01*
X88331398Y-67697100D01*
X88462723Y-67509549D01*
X88465046Y-67504567D01*
X88465049Y-67504562D01*
X88481005Y-67470343D01*
X88527922Y-67417058D01*
X88596199Y-67397597D01*
X88664159Y-67418139D01*
X88709395Y-67470343D01*
X88725351Y-67504562D01*
X88725354Y-67504567D01*
X88727677Y-67509549D01*
X88859002Y-67697100D01*
X89020900Y-67858998D01*
X89025408Y-67862155D01*
X89025411Y-67862157D01*
X89066742Y-67891097D01*
X89208451Y-67990323D01*
X89213433Y-67992646D01*
X89213438Y-67992649D01*
X89362824Y-68062308D01*
X89415957Y-68087084D01*
X89421265Y-68088506D01*
X89421267Y-68088507D01*
X89631798Y-68144919D01*
X89631800Y-68144919D01*
X89637113Y-68146343D01*
X89865200Y-68166298D01*
X90093287Y-68146343D01*
X90098600Y-68144919D01*
X90098602Y-68144919D01*
X90309133Y-68088507D01*
X90309135Y-68088506D01*
X90314443Y-68087084D01*
X90367576Y-68062308D01*
X90516962Y-67992649D01*
X90516967Y-67992646D01*
X90521949Y-67990323D01*
X90663658Y-67891097D01*
X90704989Y-67862157D01*
X90704992Y-67862155D01*
X90709500Y-67858998D01*
X90871398Y-67697100D01*
X91002723Y-67509549D01*
X91005046Y-67504567D01*
X91005049Y-67504562D01*
X91021005Y-67470343D01*
X91067922Y-67417058D01*
X91136199Y-67397597D01*
X91204159Y-67418139D01*
X91249395Y-67470343D01*
X91265351Y-67504562D01*
X91265354Y-67504567D01*
X91267677Y-67509549D01*
X91399002Y-67697100D01*
X91560900Y-67858998D01*
X91565408Y-67862155D01*
X91565411Y-67862157D01*
X91606742Y-67891097D01*
X91748451Y-67990323D01*
X91753433Y-67992646D01*
X91753438Y-67992649D01*
X91902824Y-68062308D01*
X91955957Y-68087084D01*
X91961265Y-68088506D01*
X91961267Y-68088507D01*
X92171798Y-68144919D01*
X92171800Y-68144919D01*
X92177113Y-68146343D01*
X92405200Y-68166298D01*
X92633287Y-68146343D01*
X92638600Y-68144919D01*
X92638602Y-68144919D01*
X92849133Y-68088507D01*
X92849135Y-68088506D01*
X92854443Y-68087084D01*
X92907576Y-68062308D01*
X93056962Y-67992649D01*
X93056967Y-67992646D01*
X93061949Y-67990323D01*
X93203658Y-67891097D01*
X93244989Y-67862157D01*
X93244992Y-67862155D01*
X93249500Y-67858998D01*
X93411398Y-67697100D01*
X93542723Y-67509549D01*
X93545046Y-67504567D01*
X93545049Y-67504562D01*
X93561005Y-67470343D01*
X93607922Y-67417058D01*
X93676199Y-67397597D01*
X93744159Y-67418139D01*
X93789395Y-67470343D01*
X93805351Y-67504562D01*
X93805354Y-67504567D01*
X93807677Y-67509549D01*
X93939002Y-67697100D01*
X94100900Y-67858998D01*
X94105408Y-67862155D01*
X94105411Y-67862157D01*
X94146742Y-67891097D01*
X94288451Y-67990323D01*
X94293433Y-67992646D01*
X94293438Y-67992649D01*
X94442824Y-68062308D01*
X94495957Y-68087084D01*
X94501265Y-68088506D01*
X94501267Y-68088507D01*
X94711798Y-68144919D01*
X94711800Y-68144919D01*
X94717113Y-68146343D01*
X94945200Y-68166298D01*
X95173287Y-68146343D01*
X95178600Y-68144919D01*
X95178602Y-68144919D01*
X95389133Y-68088507D01*
X95389135Y-68088506D01*
X95394443Y-68087084D01*
X95447576Y-68062308D01*
X95596962Y-67992649D01*
X95596967Y-67992646D01*
X95601949Y-67990323D01*
X95743658Y-67891097D01*
X95784989Y-67862157D01*
X95784992Y-67862155D01*
X95789500Y-67858998D01*
X95951398Y-67697100D01*
X96082723Y-67509549D01*
X96085046Y-67504567D01*
X96085049Y-67504562D01*
X96177161Y-67307025D01*
X96177161Y-67307024D01*
X96179484Y-67302043D01*
X96221387Y-67145662D01*
X96237319Y-67086202D01*
X96237319Y-67086200D01*
X96238743Y-67080887D01*
X96258698Y-66852800D01*
X98711702Y-66852800D01*
X98731657Y-67080887D01*
X98733081Y-67086200D01*
X98733081Y-67086202D01*
X98749014Y-67145662D01*
X98790916Y-67302043D01*
X98793239Y-67307024D01*
X98793239Y-67307025D01*
X98885351Y-67504562D01*
X98885354Y-67504567D01*
X98887677Y-67509549D01*
X99019002Y-67697100D01*
X99180900Y-67858998D01*
X99185408Y-67862155D01*
X99185411Y-67862157D01*
X99226742Y-67891097D01*
X99368451Y-67990323D01*
X99373433Y-67992646D01*
X99373438Y-67992649D01*
X99522824Y-68062308D01*
X99575957Y-68087084D01*
X99581265Y-68088506D01*
X99581267Y-68088507D01*
X99791798Y-68144919D01*
X99791800Y-68144919D01*
X99797113Y-68146343D01*
X100025200Y-68166298D01*
X100253287Y-68146343D01*
X100258600Y-68144919D01*
X100258602Y-68144919D01*
X100469133Y-68088507D01*
X100469135Y-68088506D01*
X100474443Y-68087084D01*
X100527576Y-68062308D01*
X100676962Y-67992649D01*
X100676967Y-67992646D01*
X100681949Y-67990323D01*
X100823658Y-67891097D01*
X100864989Y-67862157D01*
X100864992Y-67862155D01*
X100869500Y-67858998D01*
X101031398Y-67697100D01*
X101162723Y-67509549D01*
X101165046Y-67504567D01*
X101165049Y-67504562D01*
X101181281Y-67469751D01*
X101228198Y-67416466D01*
X101296475Y-67397005D01*
X101364435Y-67417547D01*
X101409671Y-67469751D01*
X101425786Y-67504311D01*
X101431269Y-67513807D01*
X101556228Y-67692267D01*
X101563284Y-67700675D01*
X101717325Y-67854716D01*
X101725733Y-67861772D01*
X101904193Y-67986731D01*
X101913689Y-67992214D01*
X102111147Y-68084290D01*
X102121439Y-68088036D01*
X102293703Y-68134194D01*
X102307799Y-68133858D01*
X102311200Y-68125916D01*
X102311200Y-68120767D01*
X102819200Y-68120767D01*
X102823173Y-68134298D01*
X102831722Y-68135527D01*
X103008961Y-68088036D01*
X103019253Y-68084290D01*
X103216711Y-67992214D01*
X103226207Y-67986731D01*
X103404667Y-67861772D01*
X103413075Y-67854716D01*
X103567116Y-67700675D01*
X103574172Y-67692267D01*
X103699131Y-67513807D01*
X103704614Y-67504311D01*
X103721005Y-67469159D01*
X103767922Y-67415874D01*
X103836199Y-67396413D01*
X103904159Y-67416955D01*
X103949395Y-67469159D01*
X103965786Y-67504311D01*
X103971269Y-67513807D01*
X104096228Y-67692267D01*
X104103284Y-67700675D01*
X104257325Y-67854716D01*
X104265733Y-67861772D01*
X104444193Y-67986731D01*
X104453689Y-67992214D01*
X104651147Y-68084290D01*
X104661439Y-68088036D01*
X104833703Y-68134194D01*
X104847799Y-68133858D01*
X104851200Y-68125916D01*
X104851200Y-67124915D01*
X104846725Y-67109676D01*
X104845335Y-67108471D01*
X104837652Y-67106800D01*
X102837315Y-67106800D01*
X102822076Y-67111275D01*
X102820871Y-67112665D01*
X102819200Y-67120348D01*
X102819200Y-68120767D01*
X102311200Y-68120767D01*
X102311200Y-66580685D01*
X102819200Y-66580685D01*
X102823675Y-66595924D01*
X102825065Y-66597129D01*
X102832748Y-66598800D01*
X104833085Y-66598800D01*
X104848324Y-66594325D01*
X104849529Y-66592935D01*
X104851200Y-66585252D01*
X104851200Y-65584833D01*
X104847227Y-65571302D01*
X104838678Y-65570073D01*
X104661439Y-65617564D01*
X104651147Y-65621310D01*
X104453689Y-65713386D01*
X104444193Y-65718869D01*
X104265733Y-65843828D01*
X104257325Y-65850884D01*
X104103284Y-66004925D01*
X104096228Y-66013333D01*
X103971269Y-66191793D01*
X103965786Y-66201289D01*
X103949395Y-66236441D01*
X103902478Y-66289726D01*
X103834201Y-66309187D01*
X103766241Y-66288645D01*
X103721005Y-66236441D01*
X103704614Y-66201289D01*
X103699131Y-66191793D01*
X103574172Y-66013333D01*
X103567116Y-66004925D01*
X103413075Y-65850884D01*
X103404667Y-65843828D01*
X103226207Y-65718869D01*
X103216711Y-65713386D01*
X103019253Y-65621310D01*
X103008961Y-65617564D01*
X102836697Y-65571406D01*
X102822601Y-65571742D01*
X102819200Y-65579684D01*
X102819200Y-66580685D01*
X102311200Y-66580685D01*
X102311200Y-65584833D01*
X102307227Y-65571302D01*
X102298678Y-65570073D01*
X102121439Y-65617564D01*
X102111147Y-65621310D01*
X101913689Y-65713386D01*
X101904193Y-65718869D01*
X101725733Y-65843828D01*
X101717325Y-65850884D01*
X101563284Y-66004925D01*
X101556228Y-66013333D01*
X101431269Y-66191793D01*
X101425786Y-66201289D01*
X101409671Y-66235849D01*
X101362754Y-66289134D01*
X101294477Y-66308595D01*
X101226517Y-66288053D01*
X101181281Y-66235849D01*
X101165049Y-66201038D01*
X101165046Y-66201033D01*
X101162723Y-66196051D01*
X101031398Y-66008500D01*
X100869500Y-65846602D01*
X100864992Y-65843445D01*
X100864989Y-65843443D01*
X100786811Y-65788702D01*
X100681949Y-65715277D01*
X100676967Y-65712954D01*
X100676962Y-65712951D01*
X100479425Y-65620839D01*
X100479424Y-65620839D01*
X100474443Y-65618516D01*
X100469135Y-65617094D01*
X100469133Y-65617093D01*
X100258602Y-65560681D01*
X100258600Y-65560681D01*
X100253287Y-65559257D01*
X100025200Y-65539302D01*
X99797113Y-65559257D01*
X99791800Y-65560681D01*
X99791798Y-65560681D01*
X99581267Y-65617093D01*
X99581265Y-65617094D01*
X99575957Y-65618516D01*
X99570976Y-65620839D01*
X99570975Y-65620839D01*
X99373438Y-65712951D01*
X99373433Y-65712954D01*
X99368451Y-65715277D01*
X99263589Y-65788702D01*
X99185411Y-65843443D01*
X99185408Y-65843445D01*
X99180900Y-65846602D01*
X99019002Y-66008500D01*
X98887677Y-66196051D01*
X98885354Y-66201033D01*
X98885351Y-66201038D01*
X98845052Y-66287461D01*
X98790916Y-66403557D01*
X98789494Y-66408865D01*
X98789493Y-66408867D01*
X98740172Y-66592935D01*
X98731657Y-66624713D01*
X98711702Y-66852800D01*
X96258698Y-66852800D01*
X96238743Y-66624713D01*
X96230228Y-66592935D01*
X96180907Y-66408867D01*
X96180906Y-66408865D01*
X96179484Y-66403557D01*
X96125348Y-66287461D01*
X96085049Y-66201038D01*
X96085046Y-66201033D01*
X96082723Y-66196051D01*
X95951398Y-66008500D01*
X95789500Y-65846602D01*
X95784992Y-65843445D01*
X95784989Y-65843443D01*
X95706811Y-65788702D01*
X95601949Y-65715277D01*
X95596967Y-65712954D01*
X95596962Y-65712951D01*
X95399425Y-65620839D01*
X95399424Y-65620839D01*
X95394443Y-65618516D01*
X95389135Y-65617094D01*
X95389133Y-65617093D01*
X95178602Y-65560681D01*
X95178600Y-65560681D01*
X95173287Y-65559257D01*
X94945200Y-65539302D01*
X94717113Y-65559257D01*
X94711800Y-65560681D01*
X94711798Y-65560681D01*
X94501267Y-65617093D01*
X94501265Y-65617094D01*
X94495957Y-65618516D01*
X94490976Y-65620839D01*
X94490975Y-65620839D01*
X94293438Y-65712951D01*
X94293433Y-65712954D01*
X94288451Y-65715277D01*
X94183589Y-65788702D01*
X94105411Y-65843443D01*
X94105408Y-65843445D01*
X94100900Y-65846602D01*
X93939002Y-66008500D01*
X93807677Y-66196051D01*
X93805354Y-66201033D01*
X93805351Y-66201038D01*
X93789395Y-66235257D01*
X93742478Y-66288542D01*
X93674201Y-66308003D01*
X93606241Y-66287461D01*
X93561005Y-66235257D01*
X93545049Y-66201038D01*
X93545046Y-66201033D01*
X93542723Y-66196051D01*
X93411398Y-66008500D01*
X93249500Y-65846602D01*
X93244992Y-65843445D01*
X93244989Y-65843443D01*
X93166811Y-65788702D01*
X93061949Y-65715277D01*
X93056967Y-65712954D01*
X93056962Y-65712951D01*
X92859425Y-65620839D01*
X92859424Y-65620839D01*
X92854443Y-65618516D01*
X92849135Y-65617094D01*
X92849133Y-65617093D01*
X92638602Y-65560681D01*
X92638600Y-65560681D01*
X92633287Y-65559257D01*
X92405200Y-65539302D01*
X92177113Y-65559257D01*
X92171800Y-65560681D01*
X92171798Y-65560681D01*
X91961267Y-65617093D01*
X91961265Y-65617094D01*
X91955957Y-65618516D01*
X91950976Y-65620839D01*
X91950975Y-65620839D01*
X91753438Y-65712951D01*
X91753433Y-65712954D01*
X91748451Y-65715277D01*
X91643589Y-65788702D01*
X91565411Y-65843443D01*
X91565408Y-65843445D01*
X91560900Y-65846602D01*
X91399002Y-66008500D01*
X91267677Y-66196051D01*
X91265354Y-66201033D01*
X91265351Y-66201038D01*
X91249395Y-66235257D01*
X91202478Y-66288542D01*
X91134201Y-66308003D01*
X91066241Y-66287461D01*
X91021005Y-66235257D01*
X91005049Y-66201038D01*
X91005046Y-66201033D01*
X91002723Y-66196051D01*
X90871398Y-66008500D01*
X90709500Y-65846602D01*
X90704992Y-65843445D01*
X90704989Y-65843443D01*
X90626811Y-65788702D01*
X90521949Y-65715277D01*
X90516967Y-65712954D01*
X90516962Y-65712951D01*
X90319425Y-65620839D01*
X90319424Y-65620839D01*
X90314443Y-65618516D01*
X90309135Y-65617094D01*
X90309133Y-65617093D01*
X90098602Y-65560681D01*
X90098600Y-65560681D01*
X90093287Y-65559257D01*
X89865200Y-65539302D01*
X89637113Y-65559257D01*
X89631800Y-65560681D01*
X89631798Y-65560681D01*
X89421267Y-65617093D01*
X89421265Y-65617094D01*
X89415957Y-65618516D01*
X89410976Y-65620839D01*
X89410975Y-65620839D01*
X89213438Y-65712951D01*
X89213433Y-65712954D01*
X89208451Y-65715277D01*
X89103589Y-65788702D01*
X89025411Y-65843443D01*
X89025408Y-65843445D01*
X89020900Y-65846602D01*
X88859002Y-66008500D01*
X88727677Y-66196051D01*
X88725354Y-66201033D01*
X88725351Y-66201038D01*
X88709395Y-66235257D01*
X88662478Y-66288542D01*
X88594201Y-66308003D01*
X88526241Y-66287461D01*
X88481005Y-66235257D01*
X88465049Y-66201038D01*
X88465046Y-66201033D01*
X88462723Y-66196051D01*
X88331398Y-66008500D01*
X88169500Y-65846602D01*
X88164992Y-65843445D01*
X88164989Y-65843443D01*
X88086811Y-65788702D01*
X87981949Y-65715277D01*
X87976967Y-65712954D01*
X87976962Y-65712951D01*
X87779425Y-65620839D01*
X87779424Y-65620839D01*
X87774443Y-65618516D01*
X87769135Y-65617094D01*
X87769133Y-65617093D01*
X87558602Y-65560681D01*
X87558600Y-65560681D01*
X87553287Y-65559257D01*
X87325200Y-65539302D01*
X87097113Y-65559257D01*
X87091800Y-65560681D01*
X87091798Y-65560681D01*
X86881267Y-65617093D01*
X86881265Y-65617094D01*
X86875957Y-65618516D01*
X86870976Y-65620839D01*
X86870975Y-65620839D01*
X86673438Y-65712951D01*
X86673433Y-65712954D01*
X86668451Y-65715277D01*
X86563589Y-65788702D01*
X86485411Y-65843443D01*
X86485408Y-65843445D01*
X86480900Y-65846602D01*
X86319002Y-66008500D01*
X86187677Y-66196051D01*
X86185354Y-66201033D01*
X86185351Y-66201038D01*
X86169395Y-66235257D01*
X86122478Y-66288542D01*
X86054201Y-66308003D01*
X85986241Y-66287461D01*
X85941005Y-66235257D01*
X85925049Y-66201038D01*
X85925046Y-66201033D01*
X85922723Y-66196051D01*
X85791398Y-66008500D01*
X85629500Y-65846602D01*
X85624992Y-65843445D01*
X85624989Y-65843443D01*
X85546811Y-65788702D01*
X85441949Y-65715277D01*
X85436967Y-65712954D01*
X85436962Y-65712951D01*
X85239425Y-65620839D01*
X85239424Y-65620839D01*
X85234443Y-65618516D01*
X85229135Y-65617094D01*
X85229133Y-65617093D01*
X85018602Y-65560681D01*
X85018600Y-65560681D01*
X85013287Y-65559257D01*
X84785200Y-65539302D01*
X84557113Y-65559257D01*
X84551800Y-65560681D01*
X84551798Y-65560681D01*
X84341267Y-65617093D01*
X84341265Y-65617094D01*
X84335957Y-65618516D01*
X84330976Y-65620839D01*
X84330975Y-65620839D01*
X84133438Y-65712951D01*
X84133433Y-65712954D01*
X84128451Y-65715277D01*
X84023589Y-65788702D01*
X83945411Y-65843443D01*
X83945408Y-65843445D01*
X83940900Y-65846602D01*
X83779002Y-66008500D01*
X83647677Y-66196051D01*
X83645354Y-66201033D01*
X83645351Y-66201038D01*
X83629395Y-66235257D01*
X83582478Y-66288542D01*
X83514201Y-66308003D01*
X83446241Y-66287461D01*
X83401005Y-66235257D01*
X83385049Y-66201038D01*
X83385046Y-66201033D01*
X83382723Y-66196051D01*
X83251398Y-66008500D01*
X83089500Y-65846602D01*
X83084992Y-65843445D01*
X83084989Y-65843443D01*
X83006811Y-65788702D01*
X82901949Y-65715277D01*
X82896967Y-65712954D01*
X82896962Y-65712951D01*
X82699425Y-65620839D01*
X82699424Y-65620839D01*
X82694443Y-65618516D01*
X82689135Y-65617094D01*
X82689133Y-65617093D01*
X82478602Y-65560681D01*
X82478600Y-65560681D01*
X82473287Y-65559257D01*
X82245200Y-65539302D01*
X82017113Y-65559257D01*
X82011800Y-65560681D01*
X82011798Y-65560681D01*
X81801267Y-65617093D01*
X81801265Y-65617094D01*
X81795957Y-65618516D01*
X81790976Y-65620839D01*
X81790975Y-65620839D01*
X81593438Y-65712951D01*
X81593433Y-65712954D01*
X81588451Y-65715277D01*
X81483589Y-65788702D01*
X81405411Y-65843443D01*
X81405408Y-65843445D01*
X81400900Y-65846602D01*
X81239002Y-66008500D01*
X81107677Y-66196051D01*
X81105354Y-66201033D01*
X81105351Y-66201038D01*
X81065052Y-66287461D01*
X81010916Y-66403557D01*
X81009494Y-66408865D01*
X81009493Y-66408867D01*
X80960172Y-66592935D01*
X80951657Y-66624713D01*
X80931702Y-66852800D01*
X80161197Y-66852800D01*
X80161291Y-66851947D01*
X80162900Y-66841614D01*
X80162900Y-66823028D01*
X80163160Y-66814935D01*
X80165991Y-66770944D01*
X80166568Y-66761987D01*
X80164607Y-66753225D01*
X80163908Y-66744281D01*
X80164291Y-66744251D01*
X80162900Y-66731673D01*
X80162900Y-64845944D01*
X80182902Y-64777823D01*
X80236558Y-64731330D01*
X80288946Y-64719944D01*
X130753900Y-64739339D01*
G37*
%TD.AperFunction*%
%TA.AperFunction,Conductor*%
G36*
X124082812Y-101230170D02*
G01*
X124089395Y-101236299D01*
X126274795Y-103421699D01*
X126308821Y-103484011D01*
X126311700Y-103510794D01*
X126311700Y-113893406D01*
X126291698Y-113961527D01*
X126257971Y-113996619D01*
X126105411Y-114103443D01*
X126105408Y-114103445D01*
X126100900Y-114106602D01*
X125939002Y-114268500D01*
X125807677Y-114456051D01*
X125805354Y-114461033D01*
X125805351Y-114461038D01*
X125789395Y-114495257D01*
X125742478Y-114548542D01*
X125674201Y-114568003D01*
X125606241Y-114547461D01*
X125561005Y-114495257D01*
X125545049Y-114461038D01*
X125545046Y-114461033D01*
X125542723Y-114456051D01*
X125411398Y-114268500D01*
X125249500Y-114106602D01*
X125244992Y-114103445D01*
X125244989Y-114103443D01*
X125092429Y-113996619D01*
X125048101Y-113941162D01*
X125038700Y-113893406D01*
X125038700Y-111402967D01*
X125039227Y-111391784D01*
X125040902Y-111384291D01*
X125040440Y-111369573D01*
X125038762Y-111316214D01*
X125038700Y-111312255D01*
X125038700Y-111284344D01*
X125038195Y-111280344D01*
X125037262Y-111268501D01*
X125037039Y-111261387D01*
X125035873Y-111224310D01*
X125030222Y-111204858D01*
X125026214Y-111185506D01*
X125024667Y-111173263D01*
X125023674Y-111165403D01*
X125020756Y-111158032D01*
X125007400Y-111124297D01*
X125003555Y-111113070D01*
X125000182Y-111101461D01*
X124991218Y-111070607D01*
X124987184Y-111063785D01*
X124987181Y-111063779D01*
X124980906Y-111053168D01*
X124972210Y-111035418D01*
X124967672Y-111023956D01*
X124967669Y-111023951D01*
X124964752Y-111016583D01*
X124952101Y-110999170D01*
X124938773Y-110980825D01*
X124932257Y-110970907D01*
X124913775Y-110939657D01*
X124909742Y-110932837D01*
X124895418Y-110918513D01*
X124882576Y-110903478D01*
X124870672Y-110887093D01*
X124836606Y-110858911D01*
X124827827Y-110850922D01*
X124751291Y-110774386D01*
X124717265Y-110712074D01*
X124722330Y-110641259D01*
X124764877Y-110584423D01*
X124807776Y-110563584D01*
X124832959Y-110556837D01*
X124843253Y-110553090D01*
X125040711Y-110461014D01*
X125050206Y-110455531D01*
X125102248Y-110419091D01*
X125110624Y-110408612D01*
X125103556Y-110395166D01*
X124119085Y-109410695D01*
X124085059Y-109348383D01*
X124086894Y-109322732D01*
X124753608Y-109322732D01*
X124753739Y-109324565D01*
X124757990Y-109331180D01*
X125463487Y-110036677D01*
X125475262Y-110043107D01*
X125487277Y-110033811D01*
X125523131Y-109982606D01*
X125528614Y-109973111D01*
X125620690Y-109775653D01*
X125624436Y-109765361D01*
X125680825Y-109554912D01*
X125682728Y-109544119D01*
X125701717Y-109327075D01*
X125701717Y-109316125D01*
X125682728Y-109099081D01*
X125680825Y-109088288D01*
X125624436Y-108877839D01*
X125620690Y-108867547D01*
X125528614Y-108670089D01*
X125523131Y-108660594D01*
X125486691Y-108608552D01*
X125476212Y-108600176D01*
X125462766Y-108607244D01*
X124761222Y-109308788D01*
X124753608Y-109322732D01*
X124086894Y-109322732D01*
X124090124Y-109277568D01*
X124119085Y-109232505D01*
X125104277Y-108247313D01*
X125110707Y-108235538D01*
X125101411Y-108223523D01*
X125050206Y-108187669D01*
X125040711Y-108182186D01*
X124843253Y-108090110D01*
X124832961Y-108086364D01*
X124622512Y-108029975D01*
X124611719Y-108028072D01*
X124394675Y-108009083D01*
X124383725Y-108009083D01*
X124166681Y-108028072D01*
X124155888Y-108029975D01*
X124032911Y-108062926D01*
X123961935Y-108061236D01*
X123903139Y-108021442D01*
X123875191Y-107956177D01*
X123874300Y-107941219D01*
X123874300Y-101325394D01*
X123894302Y-101257273D01*
X123947958Y-101210780D01*
X124018232Y-101200676D01*
X124082812Y-101230170D01*
G37*
%TD.AperFunction*%
%TA.AperFunction,Conductor*%
G36*
X111472327Y-74872302D02*
G01*
X111507419Y-74906029D01*
X111617402Y-75063100D01*
X111779300Y-75224998D01*
X111783808Y-75228155D01*
X111783811Y-75228157D01*
X111861989Y-75282898D01*
X111966851Y-75356323D01*
X111971833Y-75358646D01*
X111971838Y-75358649D01*
X112169375Y-75450761D01*
X112174357Y-75453084D01*
X112179665Y-75454506D01*
X112179667Y-75454507D01*
X112390198Y-75510919D01*
X112390200Y-75510919D01*
X112395513Y-75512343D01*
X112623600Y-75532298D01*
X112851687Y-75512343D01*
X112857000Y-75510919D01*
X112857002Y-75510919D01*
X113067533Y-75454507D01*
X113067535Y-75454506D01*
X113072843Y-75453084D01*
X113077825Y-75450761D01*
X113275362Y-75358649D01*
X113275367Y-75358646D01*
X113280349Y-75356323D01*
X113385211Y-75282898D01*
X113463389Y-75228157D01*
X113463392Y-75228155D01*
X113467900Y-75224998D01*
X113629798Y-75063100D01*
X113739781Y-74906029D01*
X113795238Y-74861701D01*
X113842994Y-74852300D01*
X115499406Y-74852300D01*
X115567527Y-74872302D01*
X115588501Y-74889205D01*
X125101378Y-84402082D01*
X125135404Y-84464394D01*
X125133700Y-84524848D01*
X125112589Y-84600970D01*
X125112041Y-84606100D01*
X125112040Y-84606104D01*
X125105926Y-84663317D01*
X125088851Y-84823095D01*
X125089148Y-84828248D01*
X125089148Y-84828251D01*
X125100513Y-85025347D01*
X125101710Y-85046115D01*
X125102847Y-85051161D01*
X125102848Y-85051167D01*
X125117464Y-85116021D01*
X125150822Y-85264039D01*
X125234866Y-85471016D01*
X125272285Y-85532078D01*
X125348891Y-85657088D01*
X125351587Y-85661488D01*
X125497850Y-85830338D01*
X125669726Y-85973032D01*
X125695875Y-85988312D01*
X125743555Y-86016174D01*
X125792279Y-86067812D01*
X125805350Y-86137595D01*
X125778619Y-86203367D01*
X125738162Y-86236727D01*
X125730057Y-86240946D01*
X125721338Y-86246436D01*
X125551033Y-86374305D01*
X125543326Y-86381148D01*
X125396190Y-86535117D01*
X125389704Y-86543127D01*
X125269698Y-86719049D01*
X125264600Y-86728023D01*
X125174938Y-86921183D01*
X125171375Y-86930870D01*
X125163117Y-86960646D01*
X125125638Y-87020944D01*
X125061510Y-87051407D01*
X124991091Y-87042364D01*
X124936741Y-86996685D01*
X124915700Y-86926974D01*
X124915700Y-86540368D01*
X124916227Y-86529185D01*
X124917902Y-86521692D01*
X124915762Y-86453601D01*
X124915700Y-86449644D01*
X124915700Y-86421744D01*
X124915196Y-86417753D01*
X124914263Y-86405911D01*
X124913960Y-86396248D01*
X124912874Y-86361711D01*
X124910662Y-86354097D01*
X124910661Y-86354092D01*
X124907223Y-86342259D01*
X124903212Y-86322895D01*
X124901667Y-86310664D01*
X124900674Y-86302803D01*
X124897757Y-86295436D01*
X124897756Y-86295431D01*
X124884398Y-86261692D01*
X124880554Y-86250465D01*
X124876475Y-86236427D01*
X124868218Y-86208007D01*
X124857907Y-86190572D01*
X124849212Y-86172824D01*
X124841752Y-86153983D01*
X124815764Y-86118213D01*
X124809248Y-86108293D01*
X124790780Y-86077065D01*
X124790778Y-86077062D01*
X124786742Y-86070238D01*
X124772421Y-86055917D01*
X124759580Y-86040883D01*
X124752331Y-86030906D01*
X124747672Y-86024493D01*
X124713595Y-85996302D01*
X124704816Y-85988312D01*
X115743452Y-77026947D01*
X115735912Y-77018661D01*
X115731800Y-77012182D01*
X115682148Y-76965556D01*
X115679307Y-76962802D01*
X115659570Y-76943065D01*
X115656373Y-76940585D01*
X115647351Y-76932880D01*
X115633922Y-76920269D01*
X115615121Y-76902614D01*
X115608175Y-76898795D01*
X115608172Y-76898793D01*
X115597366Y-76892852D01*
X115580847Y-76882001D01*
X115580383Y-76881641D01*
X115564841Y-76869586D01*
X115557572Y-76866441D01*
X115557568Y-76866438D01*
X115524263Y-76852026D01*
X115513613Y-76846809D01*
X115474860Y-76825505D01*
X115455237Y-76820467D01*
X115436534Y-76814063D01*
X115425220Y-76809167D01*
X115425219Y-76809167D01*
X115417945Y-76806019D01*
X115410122Y-76804780D01*
X115410112Y-76804777D01*
X115374276Y-76799101D01*
X115362656Y-76796695D01*
X115327511Y-76787672D01*
X115327510Y-76787672D01*
X115319830Y-76785700D01*
X115299576Y-76785700D01*
X115279865Y-76784149D01*
X115267686Y-76782220D01*
X115259857Y-76780980D01*
X115230586Y-76783747D01*
X115215839Y-76785141D01*
X115203981Y-76785700D01*
X88292967Y-76785700D01*
X88281784Y-76785173D01*
X88274291Y-76783498D01*
X88266365Y-76783747D01*
X88266364Y-76783747D01*
X88206214Y-76785638D01*
X88202255Y-76785700D01*
X88174344Y-76785700D01*
X88170410Y-76786197D01*
X88170409Y-76786197D01*
X88170344Y-76786205D01*
X88158507Y-76787138D01*
X88126249Y-76788152D01*
X88122230Y-76788278D01*
X88114311Y-76788527D01*
X88094857Y-76794179D01*
X88075500Y-76798187D01*
X88063270Y-76799732D01*
X88063269Y-76799732D01*
X88055403Y-76800726D01*
X88048032Y-76803645D01*
X88048030Y-76803645D01*
X88014288Y-76817004D01*
X88003058Y-76820849D01*
X87968217Y-76830971D01*
X87968216Y-76830971D01*
X87960607Y-76833182D01*
X87953788Y-76837215D01*
X87953783Y-76837217D01*
X87943172Y-76843493D01*
X87925424Y-76852188D01*
X87906583Y-76859648D01*
X87900167Y-76864310D01*
X87900166Y-76864310D01*
X87870813Y-76885636D01*
X87860893Y-76892152D01*
X87829665Y-76910620D01*
X87829662Y-76910622D01*
X87822838Y-76914658D01*
X87808517Y-76928979D01*
X87793484Y-76941819D01*
X87777093Y-76953728D01*
X87768417Y-76964216D01*
X87748902Y-76987805D01*
X87740912Y-76996584D01*
X82353648Y-82383848D01*
X82291336Y-82417874D01*
X82231941Y-82416459D01*
X82173809Y-82400882D01*
X82173798Y-82400880D01*
X82168487Y-82399457D01*
X81940400Y-82379502D01*
X81712313Y-82399457D01*
X81707000Y-82400881D01*
X81706998Y-82400881D01*
X81496467Y-82457293D01*
X81496465Y-82457294D01*
X81491157Y-82458716D01*
X81486176Y-82461039D01*
X81486175Y-82461039D01*
X81288638Y-82553151D01*
X81288633Y-82553154D01*
X81283651Y-82555477D01*
X81178789Y-82628902D01*
X81100611Y-82683643D01*
X81100608Y-82683645D01*
X81096100Y-82686802D01*
X80934202Y-82848700D01*
X80802877Y-83036251D01*
X80800554Y-83041233D01*
X80800551Y-83041238D01*
X80800434Y-83041489D01*
X80706116Y-83243757D01*
X80646857Y-83464913D01*
X80626902Y-83693000D01*
X80646857Y-83921087D01*
X80706116Y-84142243D01*
X80708439Y-84147224D01*
X80708439Y-84147225D01*
X80800551Y-84344762D01*
X80800554Y-84344767D01*
X80802877Y-84349749D01*
X80806034Y-84354257D01*
X80883153Y-84464394D01*
X80934202Y-84537300D01*
X81096100Y-84699198D01*
X81100608Y-84702355D01*
X81100611Y-84702357D01*
X81145991Y-84734132D01*
X81283651Y-84830523D01*
X81288633Y-84832846D01*
X81288638Y-84832849D01*
X81481755Y-84922900D01*
X81491157Y-84927284D01*
X81496465Y-84928706D01*
X81496467Y-84928707D01*
X81706998Y-84985119D01*
X81707000Y-84985119D01*
X81712313Y-84986543D01*
X81940400Y-85006498D01*
X82168487Y-84986543D01*
X82173800Y-84985119D01*
X82173802Y-84985119D01*
X82384333Y-84928707D01*
X82384335Y-84928706D01*
X82389643Y-84927284D01*
X82399045Y-84922900D01*
X82592162Y-84832849D01*
X82592167Y-84832846D01*
X82597149Y-84830523D01*
X82734809Y-84734132D01*
X82780189Y-84702357D01*
X82780192Y-84702355D01*
X82784700Y-84699198D01*
X82946598Y-84537300D01*
X82997648Y-84464394D01*
X83074766Y-84354257D01*
X83077923Y-84349749D01*
X83080246Y-84344767D01*
X83080249Y-84344762D01*
X83096205Y-84310543D01*
X83143122Y-84257258D01*
X83211399Y-84237797D01*
X83279359Y-84258339D01*
X83324595Y-84310543D01*
X83340551Y-84344762D01*
X83340554Y-84344767D01*
X83342877Y-84349749D01*
X83346034Y-84354257D01*
X83423153Y-84464394D01*
X83474202Y-84537300D01*
X83636100Y-84699198D01*
X83640608Y-84702355D01*
X83640611Y-84702357D01*
X83685991Y-84734132D01*
X83823651Y-84830523D01*
X83828633Y-84832846D01*
X83828638Y-84832849D01*
X84021755Y-84922900D01*
X84031157Y-84927284D01*
X84036465Y-84928706D01*
X84036467Y-84928707D01*
X84246998Y-84985119D01*
X84247000Y-84985119D01*
X84252313Y-84986543D01*
X84480400Y-85006498D01*
X84708487Y-84986543D01*
X84713800Y-84985119D01*
X84713802Y-84985119D01*
X84924333Y-84928707D01*
X84924335Y-84928706D01*
X84929643Y-84927284D01*
X84939045Y-84922900D01*
X85132162Y-84832849D01*
X85132167Y-84832846D01*
X85137149Y-84830523D01*
X85274809Y-84734132D01*
X85320189Y-84702357D01*
X85320192Y-84702355D01*
X85324700Y-84699198D01*
X85486598Y-84537300D01*
X85537648Y-84464394D01*
X85614766Y-84354257D01*
X85617923Y-84349749D01*
X85620246Y-84344767D01*
X85620249Y-84344762D01*
X85636205Y-84310543D01*
X85683122Y-84257258D01*
X85751399Y-84237797D01*
X85819359Y-84258339D01*
X85864595Y-84310543D01*
X85880551Y-84344762D01*
X85880554Y-84344767D01*
X85882877Y-84349749D01*
X85886034Y-84354257D01*
X85963153Y-84464394D01*
X86014202Y-84537300D01*
X86176100Y-84699198D01*
X86180608Y-84702355D01*
X86180611Y-84702357D01*
X86225991Y-84734132D01*
X86363651Y-84830523D01*
X86368633Y-84832846D01*
X86368638Y-84832849D01*
X86561755Y-84922900D01*
X86571157Y-84927284D01*
X86576465Y-84928706D01*
X86576467Y-84928707D01*
X86786998Y-84985119D01*
X86787000Y-84985119D01*
X86792313Y-84986543D01*
X87020400Y-85006498D01*
X87248487Y-84986543D01*
X87253800Y-84985119D01*
X87253802Y-84985119D01*
X87464333Y-84928707D01*
X87464335Y-84928706D01*
X87469643Y-84927284D01*
X87479045Y-84922900D01*
X87672162Y-84832849D01*
X87672167Y-84832846D01*
X87677149Y-84830523D01*
X87814809Y-84734132D01*
X87860189Y-84702357D01*
X87860192Y-84702355D01*
X87864700Y-84699198D01*
X88026598Y-84537300D01*
X88077648Y-84464394D01*
X88154766Y-84354257D01*
X88157923Y-84349749D01*
X88160246Y-84344767D01*
X88160249Y-84344762D01*
X88176205Y-84310543D01*
X88223122Y-84257258D01*
X88291399Y-84237797D01*
X88359359Y-84258339D01*
X88404595Y-84310543D01*
X88420551Y-84344762D01*
X88420554Y-84344767D01*
X88422877Y-84349749D01*
X88426034Y-84354257D01*
X88503153Y-84464394D01*
X88554202Y-84537300D01*
X88716100Y-84699198D01*
X88720608Y-84702355D01*
X88720611Y-84702357D01*
X88765991Y-84734132D01*
X88903651Y-84830523D01*
X88908633Y-84832846D01*
X88908638Y-84832849D01*
X89101755Y-84922900D01*
X89111157Y-84927284D01*
X89116465Y-84928706D01*
X89116467Y-84928707D01*
X89326998Y-84985119D01*
X89327000Y-84985119D01*
X89332313Y-84986543D01*
X89560400Y-85006498D01*
X89788487Y-84986543D01*
X89793800Y-84985119D01*
X89793802Y-84985119D01*
X90004333Y-84928707D01*
X90004335Y-84928706D01*
X90009643Y-84927284D01*
X90019045Y-84922900D01*
X90212162Y-84832849D01*
X90212167Y-84832846D01*
X90217149Y-84830523D01*
X90354809Y-84734132D01*
X90400189Y-84702357D01*
X90400192Y-84702355D01*
X90404700Y-84699198D01*
X90566598Y-84537300D01*
X90617648Y-84464394D01*
X90694766Y-84354257D01*
X90697923Y-84349749D01*
X90700246Y-84344767D01*
X90700249Y-84344762D01*
X90716205Y-84310543D01*
X90763122Y-84257258D01*
X90831399Y-84237797D01*
X90899359Y-84258339D01*
X90944595Y-84310543D01*
X90960551Y-84344762D01*
X90960554Y-84344767D01*
X90962877Y-84349749D01*
X90966034Y-84354257D01*
X91043153Y-84464394D01*
X91094202Y-84537300D01*
X91256100Y-84699198D01*
X91260608Y-84702355D01*
X91260611Y-84702357D01*
X91305991Y-84734132D01*
X91443651Y-84830523D01*
X91448633Y-84832846D01*
X91448638Y-84832849D01*
X91641755Y-84922900D01*
X91651157Y-84927284D01*
X91656465Y-84928706D01*
X91656467Y-84928707D01*
X91866998Y-84985119D01*
X91867000Y-84985119D01*
X91872313Y-84986543D01*
X92100400Y-85006498D01*
X92328487Y-84986543D01*
X92333800Y-84985119D01*
X92333802Y-84985119D01*
X92544333Y-84928707D01*
X92544335Y-84928706D01*
X92549643Y-84927284D01*
X92559045Y-84922900D01*
X92752162Y-84832849D01*
X92752167Y-84832846D01*
X92757149Y-84830523D01*
X92894809Y-84734132D01*
X92940189Y-84702357D01*
X92940192Y-84702355D01*
X92944700Y-84699198D01*
X93106598Y-84537300D01*
X93157648Y-84464394D01*
X93234766Y-84354257D01*
X93237923Y-84349749D01*
X93240246Y-84344767D01*
X93240249Y-84344762D01*
X93256205Y-84310543D01*
X93303122Y-84257258D01*
X93371399Y-84237797D01*
X93439359Y-84258339D01*
X93484595Y-84310543D01*
X93500551Y-84344762D01*
X93500554Y-84344767D01*
X93502877Y-84349749D01*
X93506034Y-84354257D01*
X93583153Y-84464394D01*
X93634202Y-84537300D01*
X93796100Y-84699198D01*
X93800608Y-84702355D01*
X93800611Y-84702357D01*
X93845991Y-84734132D01*
X93983651Y-84830523D01*
X93988633Y-84832846D01*
X93988638Y-84832849D01*
X94181755Y-84922900D01*
X94191157Y-84927284D01*
X94196465Y-84928706D01*
X94196467Y-84928707D01*
X94406998Y-84985119D01*
X94407000Y-84985119D01*
X94412313Y-84986543D01*
X94640400Y-85006498D01*
X94868487Y-84986543D01*
X94873800Y-84985119D01*
X94873802Y-84985119D01*
X95084333Y-84928707D01*
X95084335Y-84928706D01*
X95089643Y-84927284D01*
X95099045Y-84922900D01*
X95292162Y-84832849D01*
X95292167Y-84832846D01*
X95297149Y-84830523D01*
X95434809Y-84734132D01*
X95480189Y-84702357D01*
X95480192Y-84702355D01*
X95484700Y-84699198D01*
X95646598Y-84537300D01*
X95697648Y-84464394D01*
X95774766Y-84354257D01*
X95777923Y-84349749D01*
X95780246Y-84344767D01*
X95780249Y-84344762D01*
X95796481Y-84309951D01*
X95843398Y-84256666D01*
X95911675Y-84237205D01*
X95979635Y-84257747D01*
X96024871Y-84309951D01*
X96040986Y-84344511D01*
X96046469Y-84354007D01*
X96171428Y-84532467D01*
X96178484Y-84540875D01*
X96332525Y-84694916D01*
X96340933Y-84701972D01*
X96519393Y-84826931D01*
X96528889Y-84832414D01*
X96726347Y-84924490D01*
X96736639Y-84928236D01*
X96908903Y-84974394D01*
X96922999Y-84974058D01*
X96926400Y-84966116D01*
X96926400Y-82425033D01*
X96922427Y-82411502D01*
X96913878Y-82410273D01*
X96736639Y-82457764D01*
X96726347Y-82461510D01*
X96528889Y-82553586D01*
X96519393Y-82559069D01*
X96340933Y-82684028D01*
X96332525Y-82691084D01*
X96178484Y-82845125D01*
X96171428Y-82853533D01*
X96046469Y-83031993D01*
X96040986Y-83041489D01*
X96024871Y-83076049D01*
X95977954Y-83129334D01*
X95909677Y-83148795D01*
X95841717Y-83128253D01*
X95796481Y-83076049D01*
X95780249Y-83041238D01*
X95780246Y-83041233D01*
X95777923Y-83036251D01*
X95646598Y-82848700D01*
X95484700Y-82686802D01*
X95480192Y-82683645D01*
X95480189Y-82683643D01*
X95402011Y-82628902D01*
X95297149Y-82555477D01*
X95292167Y-82553154D01*
X95292162Y-82553151D01*
X95094625Y-82461039D01*
X95094624Y-82461039D01*
X95089643Y-82458716D01*
X95084335Y-82457294D01*
X95084333Y-82457293D01*
X94873802Y-82400881D01*
X94873800Y-82400881D01*
X94868487Y-82399457D01*
X94640400Y-82379502D01*
X94412313Y-82399457D01*
X94407000Y-82400881D01*
X94406998Y-82400881D01*
X94196467Y-82457293D01*
X94196465Y-82457294D01*
X94191157Y-82458716D01*
X94186176Y-82461039D01*
X94186175Y-82461039D01*
X93988638Y-82553151D01*
X93988633Y-82553154D01*
X93983651Y-82555477D01*
X93878789Y-82628902D01*
X93800611Y-82683643D01*
X93800608Y-82683645D01*
X93796100Y-82686802D01*
X93634202Y-82848700D01*
X93502877Y-83036251D01*
X93500554Y-83041233D01*
X93500551Y-83041238D01*
X93484595Y-83075457D01*
X93437678Y-83128742D01*
X93369401Y-83148203D01*
X93301441Y-83127661D01*
X93256205Y-83075457D01*
X93240249Y-83041238D01*
X93240246Y-83041233D01*
X93237923Y-83036251D01*
X93106598Y-82848700D01*
X92944700Y-82686802D01*
X92940192Y-82683645D01*
X92940189Y-82683643D01*
X92862011Y-82628902D01*
X92757149Y-82555477D01*
X92752167Y-82553154D01*
X92752162Y-82553151D01*
X92554625Y-82461039D01*
X92554624Y-82461039D01*
X92549643Y-82458716D01*
X92544335Y-82457294D01*
X92544333Y-82457293D01*
X92333802Y-82400881D01*
X92333800Y-82400881D01*
X92328487Y-82399457D01*
X92100400Y-82379502D01*
X91872313Y-82399457D01*
X91867000Y-82400881D01*
X91866998Y-82400881D01*
X91656467Y-82457293D01*
X91656465Y-82457294D01*
X91651157Y-82458716D01*
X91646176Y-82461039D01*
X91646175Y-82461039D01*
X91448638Y-82553151D01*
X91448633Y-82553154D01*
X91443651Y-82555477D01*
X91338789Y-82628902D01*
X91260611Y-82683643D01*
X91260608Y-82683645D01*
X91256100Y-82686802D01*
X91094202Y-82848700D01*
X90962877Y-83036251D01*
X90960554Y-83041233D01*
X90960551Y-83041238D01*
X90944595Y-83075457D01*
X90897678Y-83128742D01*
X90829401Y-83148203D01*
X90761441Y-83127661D01*
X90716205Y-83075457D01*
X90700249Y-83041238D01*
X90700246Y-83041233D01*
X90697923Y-83036251D01*
X90566598Y-82848700D01*
X90404700Y-82686802D01*
X90400192Y-82683645D01*
X90400189Y-82683643D01*
X90322011Y-82628902D01*
X90217149Y-82555477D01*
X90212167Y-82553154D01*
X90212162Y-82553151D01*
X90014625Y-82461039D01*
X90014624Y-82461039D01*
X90009643Y-82458716D01*
X90004335Y-82457294D01*
X90004333Y-82457293D01*
X89793802Y-82400881D01*
X89793800Y-82400881D01*
X89788487Y-82399457D01*
X89560400Y-82379502D01*
X89332313Y-82399457D01*
X89327000Y-82400881D01*
X89326998Y-82400881D01*
X89116467Y-82457293D01*
X89116465Y-82457294D01*
X89111157Y-82458716D01*
X89106176Y-82461039D01*
X89106175Y-82461039D01*
X88908638Y-82553151D01*
X88908633Y-82553154D01*
X88903651Y-82555477D01*
X88798789Y-82628902D01*
X88720611Y-82683643D01*
X88720608Y-82683645D01*
X88716100Y-82686802D01*
X88554202Y-82848700D01*
X88422877Y-83036251D01*
X88420554Y-83041233D01*
X88420551Y-83041238D01*
X88404595Y-83075457D01*
X88357678Y-83128742D01*
X88289401Y-83148203D01*
X88221441Y-83127661D01*
X88176205Y-83075457D01*
X88160249Y-83041238D01*
X88160246Y-83041233D01*
X88157923Y-83036251D01*
X88026598Y-82848700D01*
X87864700Y-82686802D01*
X87860192Y-82683645D01*
X87860189Y-82683643D01*
X87782011Y-82628902D01*
X87677149Y-82555477D01*
X87672167Y-82553154D01*
X87672162Y-82553151D01*
X87474625Y-82461039D01*
X87474624Y-82461039D01*
X87469643Y-82458716D01*
X87464335Y-82457294D01*
X87464333Y-82457293D01*
X87253802Y-82400881D01*
X87253800Y-82400881D01*
X87248487Y-82399457D01*
X87020400Y-82379502D01*
X87014925Y-82379981D01*
X87014914Y-82379981D01*
X87002970Y-82381026D01*
X86933365Y-82367038D01*
X86882373Y-82317639D01*
X86866182Y-82248513D01*
X86889934Y-82181607D01*
X86902893Y-82166411D01*
X87363642Y-81705662D01*
X99044293Y-81705662D01*
X99053589Y-81717677D01*
X99104794Y-81753531D01*
X99114289Y-81759014D01*
X99311747Y-81851090D01*
X99322039Y-81854836D01*
X99532488Y-81911225D01*
X99543281Y-81913128D01*
X99760325Y-81932117D01*
X99771275Y-81932117D01*
X99988319Y-81913128D01*
X99999112Y-81911225D01*
X100209561Y-81854836D01*
X100219853Y-81851090D01*
X100417311Y-81759014D01*
X100426806Y-81753531D01*
X100478848Y-81717091D01*
X100487224Y-81706612D01*
X100480156Y-81693166D01*
X99778612Y-80991622D01*
X99764668Y-80984008D01*
X99762835Y-80984139D01*
X99756220Y-80988390D01*
X99050723Y-81693887D01*
X99044293Y-81705662D01*
X87363642Y-81705662D01*
X88444229Y-80625075D01*
X98453283Y-80625075D01*
X98472272Y-80842119D01*
X98474175Y-80852912D01*
X98530564Y-81063361D01*
X98534310Y-81073653D01*
X98626386Y-81271111D01*
X98631869Y-81280606D01*
X98668309Y-81332648D01*
X98678788Y-81341024D01*
X98692234Y-81333956D01*
X99393778Y-80632412D01*
X99400156Y-80620732D01*
X100130208Y-80620732D01*
X100130339Y-80622565D01*
X100134590Y-80629180D01*
X100840087Y-81334677D01*
X100851862Y-81341107D01*
X100863877Y-81331811D01*
X100899734Y-81280602D01*
X100906391Y-81269072D01*
X100957773Y-81220079D01*
X101027487Y-81206642D01*
X101093398Y-81233029D01*
X101124629Y-81269072D01*
X101125953Y-81271365D01*
X101128277Y-81276349D01*
X101259602Y-81463900D01*
X101421500Y-81625798D01*
X101426008Y-81628955D01*
X101426011Y-81628957D01*
X101504189Y-81683698D01*
X101609051Y-81757123D01*
X101614033Y-81759446D01*
X101614038Y-81759449D01*
X101810565Y-81851090D01*
X101816557Y-81853884D01*
X101821865Y-81855306D01*
X101821867Y-81855307D01*
X102032398Y-81911719D01*
X102032400Y-81911719D01*
X102037713Y-81913143D01*
X102265800Y-81933098D01*
X102493887Y-81913143D01*
X102499200Y-81911719D01*
X102499202Y-81911719D01*
X102709733Y-81855307D01*
X102709735Y-81855306D01*
X102715043Y-81853884D01*
X102721035Y-81851090D01*
X102917562Y-81759449D01*
X102917567Y-81759446D01*
X102922549Y-81757123D01*
X103027411Y-81683698D01*
X103105589Y-81628957D01*
X103105592Y-81628955D01*
X103110100Y-81625798D01*
X103271998Y-81463900D01*
X103403323Y-81276349D01*
X103405646Y-81271367D01*
X103405649Y-81271362D01*
X103497761Y-81073825D01*
X103497761Y-81073824D01*
X103500084Y-81068843D01*
X103520776Y-80991622D01*
X103557919Y-80853002D01*
X103557919Y-80853000D01*
X103559343Y-80847687D01*
X103579298Y-80619600D01*
X103559343Y-80391513D01*
X103557919Y-80386198D01*
X103501507Y-80175667D01*
X103501506Y-80175665D01*
X103500084Y-80170357D01*
X103497761Y-80165375D01*
X103405649Y-79967838D01*
X103405646Y-79967833D01*
X103403323Y-79962851D01*
X103271998Y-79775300D01*
X103110100Y-79613402D01*
X103105592Y-79610245D01*
X103105589Y-79610243D01*
X102979720Y-79522109D01*
X102922549Y-79482077D01*
X102917567Y-79479754D01*
X102917562Y-79479751D01*
X102720025Y-79387639D01*
X102720024Y-79387639D01*
X102715043Y-79385316D01*
X102709735Y-79383894D01*
X102709733Y-79383893D01*
X102499202Y-79327481D01*
X102499200Y-79327481D01*
X102493887Y-79326057D01*
X102265800Y-79306102D01*
X102037713Y-79326057D01*
X102032400Y-79327481D01*
X102032398Y-79327481D01*
X101821867Y-79383893D01*
X101821865Y-79383894D01*
X101816557Y-79385316D01*
X101811576Y-79387639D01*
X101811575Y-79387639D01*
X101614038Y-79479751D01*
X101614033Y-79479754D01*
X101609051Y-79482077D01*
X101551880Y-79522109D01*
X101426011Y-79610243D01*
X101426008Y-79610245D01*
X101421500Y-79613402D01*
X101259602Y-79775300D01*
X101128277Y-79962851D01*
X101125953Y-79967835D01*
X101124629Y-79970128D01*
X101073247Y-80019121D01*
X101003533Y-80032557D01*
X100937622Y-80006171D01*
X100906391Y-79970128D01*
X100899734Y-79958598D01*
X100863291Y-79906552D01*
X100852812Y-79898176D01*
X100839366Y-79905244D01*
X100137822Y-80606788D01*
X100130208Y-80620732D01*
X99400156Y-80620732D01*
X99401392Y-80618468D01*
X99401261Y-80616635D01*
X99397010Y-80610020D01*
X98691513Y-79904523D01*
X98679738Y-79898093D01*
X98667723Y-79907389D01*
X98631869Y-79958594D01*
X98626386Y-79968089D01*
X98534310Y-80165547D01*
X98530564Y-80175839D01*
X98474175Y-80386288D01*
X98472272Y-80397081D01*
X98453283Y-80614125D01*
X98453283Y-80625075D01*
X88444229Y-80625075D01*
X89536716Y-79532588D01*
X99044376Y-79532588D01*
X99051444Y-79546034D01*
X99752988Y-80247578D01*
X99766932Y-80255192D01*
X99768765Y-80255061D01*
X99775380Y-80250810D01*
X100480877Y-79545313D01*
X100487307Y-79533538D01*
X100478011Y-79521523D01*
X100426806Y-79485669D01*
X100417311Y-79480186D01*
X100219853Y-79388110D01*
X100209561Y-79384364D01*
X99999112Y-79327975D01*
X99988319Y-79326072D01*
X99771275Y-79307083D01*
X99760325Y-79307083D01*
X99543281Y-79326072D01*
X99532488Y-79327975D01*
X99322039Y-79384364D01*
X99311747Y-79388110D01*
X99114289Y-79480186D01*
X99104794Y-79485669D01*
X99052752Y-79522109D01*
X99044376Y-79532588D01*
X89536716Y-79532588D01*
X90039899Y-79029405D01*
X90102211Y-78995379D01*
X90128994Y-78992500D01*
X114874406Y-78992500D01*
X114942527Y-79012502D01*
X114963501Y-79029405D01*
X122570395Y-86636300D01*
X122604421Y-86698612D01*
X122607300Y-86725395D01*
X122607300Y-89227452D01*
X122587298Y-89295573D01*
X122533642Y-89342066D01*
X122463368Y-89352170D01*
X122398788Y-89322676D01*
X122392205Y-89316547D01*
X118206712Y-85131054D01*
X118193875Y-85116026D01*
X118185985Y-85105166D01*
X118136616Y-85060714D01*
X118131831Y-85056173D01*
X118117786Y-85042128D01*
X118115209Y-85040041D01*
X118102354Y-85029631D01*
X118097338Y-85025347D01*
X118052880Y-84985317D01*
X118052875Y-84985313D01*
X118047969Y-84980896D01*
X118036352Y-84974189D01*
X118020059Y-84962991D01*
X118009639Y-84954553D01*
X117950437Y-84924387D01*
X117944667Y-84921254D01*
X117892855Y-84891340D01*
X117892850Y-84891338D01*
X117887131Y-84888036D01*
X117880851Y-84885995D01*
X117880843Y-84885992D01*
X117874379Y-84883892D01*
X117856117Y-84876328D01*
X117850051Y-84873237D01*
X117850042Y-84873234D01*
X117844163Y-84870238D01*
X117833472Y-84867373D01*
X117779996Y-84853044D01*
X117773694Y-84851178D01*
X117710502Y-84830646D01*
X117697172Y-84829245D01*
X117677729Y-84825642D01*
X117664771Y-84822170D01*
X117658181Y-84821825D01*
X117658177Y-84821824D01*
X117614227Y-84819521D01*
X117598428Y-84818693D01*
X117591869Y-84818177D01*
X117572106Y-84816100D01*
X117552245Y-84816100D01*
X117545650Y-84815927D01*
X117485898Y-84812795D01*
X117485894Y-84812795D01*
X117479307Y-84812450D01*
X117466053Y-84814549D01*
X117446344Y-84816100D01*
X115991988Y-84816100D01*
X115923867Y-84796098D01*
X115877374Y-84742442D01*
X115867270Y-84672168D01*
X115896764Y-84607588D01*
X115902893Y-84601005D01*
X115966598Y-84537300D01*
X116017648Y-84464394D01*
X116094766Y-84354257D01*
X116097923Y-84349749D01*
X116100246Y-84344767D01*
X116100249Y-84344762D01*
X116192361Y-84147225D01*
X116192361Y-84147224D01*
X116194684Y-84142243D01*
X116253943Y-83921087D01*
X116273898Y-83693000D01*
X116253943Y-83464913D01*
X116194684Y-83243757D01*
X116100366Y-83041489D01*
X116100249Y-83041238D01*
X116100246Y-83041233D01*
X116097923Y-83036251D01*
X115966598Y-82848700D01*
X115804700Y-82686802D01*
X115800192Y-82683645D01*
X115800189Y-82683643D01*
X115722011Y-82628902D01*
X115617149Y-82555477D01*
X115612167Y-82553154D01*
X115612162Y-82553151D01*
X115414625Y-82461039D01*
X115414624Y-82461039D01*
X115409643Y-82458716D01*
X115404335Y-82457294D01*
X115404333Y-82457293D01*
X115193802Y-82400881D01*
X115193800Y-82400881D01*
X115188487Y-82399457D01*
X114960400Y-82379502D01*
X114732313Y-82399457D01*
X114727000Y-82400881D01*
X114726998Y-82400881D01*
X114516467Y-82457293D01*
X114516465Y-82457294D01*
X114511157Y-82458716D01*
X114506176Y-82461039D01*
X114506175Y-82461039D01*
X114308638Y-82553151D01*
X114308633Y-82553154D01*
X114303651Y-82555477D01*
X114198789Y-82628902D01*
X114120611Y-82683643D01*
X114120608Y-82683645D01*
X114116100Y-82686802D01*
X113954202Y-82848700D01*
X113822877Y-83036251D01*
X113820554Y-83041233D01*
X113820551Y-83041238D01*
X113804595Y-83075457D01*
X113757678Y-83128742D01*
X113689401Y-83148203D01*
X113621441Y-83127661D01*
X113576205Y-83075457D01*
X113560249Y-83041238D01*
X113560246Y-83041233D01*
X113557923Y-83036251D01*
X113426598Y-82848700D01*
X113264700Y-82686802D01*
X113260192Y-82683645D01*
X113260189Y-82683643D01*
X113182011Y-82628902D01*
X113077149Y-82555477D01*
X113072167Y-82553154D01*
X113072162Y-82553151D01*
X112874625Y-82461039D01*
X112874624Y-82461039D01*
X112869643Y-82458716D01*
X112864335Y-82457294D01*
X112864333Y-82457293D01*
X112653802Y-82400881D01*
X112653800Y-82400881D01*
X112648487Y-82399457D01*
X112420400Y-82379502D01*
X112192313Y-82399457D01*
X112187000Y-82400881D01*
X112186998Y-82400881D01*
X111976467Y-82457293D01*
X111976465Y-82457294D01*
X111971157Y-82458716D01*
X111966176Y-82461039D01*
X111966175Y-82461039D01*
X111768638Y-82553151D01*
X111768633Y-82553154D01*
X111763651Y-82555477D01*
X111658789Y-82628902D01*
X111580611Y-82683643D01*
X111580608Y-82683645D01*
X111576100Y-82686802D01*
X111414202Y-82848700D01*
X111282877Y-83036251D01*
X111280554Y-83041233D01*
X111280551Y-83041238D01*
X111264595Y-83075457D01*
X111217678Y-83128742D01*
X111149401Y-83148203D01*
X111081441Y-83127661D01*
X111036205Y-83075457D01*
X111020249Y-83041238D01*
X111020246Y-83041233D01*
X111017923Y-83036251D01*
X110886598Y-82848700D01*
X110724700Y-82686802D01*
X110720192Y-82683645D01*
X110720189Y-82683643D01*
X110642011Y-82628902D01*
X110537149Y-82555477D01*
X110532167Y-82553154D01*
X110532162Y-82553151D01*
X110334625Y-82461039D01*
X110334624Y-82461039D01*
X110329643Y-82458716D01*
X110324335Y-82457294D01*
X110324333Y-82457293D01*
X110113802Y-82400881D01*
X110113800Y-82400881D01*
X110108487Y-82399457D01*
X109880400Y-82379502D01*
X109652313Y-82399457D01*
X109647000Y-82400881D01*
X109646998Y-82400881D01*
X109436467Y-82457293D01*
X109436465Y-82457294D01*
X109431157Y-82458716D01*
X109426176Y-82461039D01*
X109426175Y-82461039D01*
X109228638Y-82553151D01*
X109228633Y-82553154D01*
X109223651Y-82555477D01*
X109118789Y-82628902D01*
X109040611Y-82683643D01*
X109040608Y-82683645D01*
X109036100Y-82686802D01*
X108874202Y-82848700D01*
X108742877Y-83036251D01*
X108740554Y-83041233D01*
X108740551Y-83041238D01*
X108724595Y-83075457D01*
X108677678Y-83128742D01*
X108609401Y-83148203D01*
X108541441Y-83127661D01*
X108496205Y-83075457D01*
X108480249Y-83041238D01*
X108480246Y-83041233D01*
X108477923Y-83036251D01*
X108346598Y-82848700D01*
X108184700Y-82686802D01*
X108180192Y-82683645D01*
X108180189Y-82683643D01*
X108102011Y-82628902D01*
X107997149Y-82555477D01*
X107992167Y-82553154D01*
X107992162Y-82553151D01*
X107794625Y-82461039D01*
X107794624Y-82461039D01*
X107789643Y-82458716D01*
X107784335Y-82457294D01*
X107784333Y-82457293D01*
X107573802Y-82400881D01*
X107573800Y-82400881D01*
X107568487Y-82399457D01*
X107340400Y-82379502D01*
X107112313Y-82399457D01*
X107107000Y-82400881D01*
X107106998Y-82400881D01*
X106896467Y-82457293D01*
X106896465Y-82457294D01*
X106891157Y-82458716D01*
X106886176Y-82461039D01*
X106886175Y-82461039D01*
X106688638Y-82553151D01*
X106688633Y-82553154D01*
X106683651Y-82555477D01*
X106578789Y-82628902D01*
X106500611Y-82683643D01*
X106500608Y-82683645D01*
X106496100Y-82686802D01*
X106334202Y-82848700D01*
X106202877Y-83036251D01*
X106200554Y-83041233D01*
X106200551Y-83041238D01*
X106184595Y-83075457D01*
X106137678Y-83128742D01*
X106069401Y-83148203D01*
X106001441Y-83127661D01*
X105956205Y-83075457D01*
X105940249Y-83041238D01*
X105940246Y-83041233D01*
X105937923Y-83036251D01*
X105806598Y-82848700D01*
X105644700Y-82686802D01*
X105640192Y-82683645D01*
X105640189Y-82683643D01*
X105562011Y-82628902D01*
X105457149Y-82555477D01*
X105452167Y-82553154D01*
X105452162Y-82553151D01*
X105254625Y-82461039D01*
X105254624Y-82461039D01*
X105249643Y-82458716D01*
X105244335Y-82457294D01*
X105244333Y-82457293D01*
X105033802Y-82400881D01*
X105033800Y-82400881D01*
X105028487Y-82399457D01*
X104800400Y-82379502D01*
X104572313Y-82399457D01*
X104567000Y-82400881D01*
X104566998Y-82400881D01*
X104356467Y-82457293D01*
X104356465Y-82457294D01*
X104351157Y-82458716D01*
X104346176Y-82461039D01*
X104346175Y-82461039D01*
X104148638Y-82553151D01*
X104148633Y-82553154D01*
X104143651Y-82555477D01*
X104038789Y-82628902D01*
X103960611Y-82683643D01*
X103960608Y-82683645D01*
X103956100Y-82686802D01*
X103794202Y-82848700D01*
X103662877Y-83036251D01*
X103660554Y-83041233D01*
X103660551Y-83041238D01*
X103644595Y-83075457D01*
X103597678Y-83128742D01*
X103529401Y-83148203D01*
X103461441Y-83127661D01*
X103416205Y-83075457D01*
X103400249Y-83041238D01*
X103400246Y-83041233D01*
X103397923Y-83036251D01*
X103266598Y-82848700D01*
X103104700Y-82686802D01*
X103100192Y-82683645D01*
X103100189Y-82683643D01*
X103022011Y-82628902D01*
X102917149Y-82555477D01*
X102912167Y-82553154D01*
X102912162Y-82553151D01*
X102714625Y-82461039D01*
X102714624Y-82461039D01*
X102709643Y-82458716D01*
X102704335Y-82457294D01*
X102704333Y-82457293D01*
X102493802Y-82400881D01*
X102493800Y-82400881D01*
X102488487Y-82399457D01*
X102260400Y-82379502D01*
X102032313Y-82399457D01*
X102027000Y-82400881D01*
X102026998Y-82400881D01*
X101816467Y-82457293D01*
X101816465Y-82457294D01*
X101811157Y-82458716D01*
X101806176Y-82461039D01*
X101806175Y-82461039D01*
X101608638Y-82553151D01*
X101608633Y-82553154D01*
X101603651Y-82555477D01*
X101498789Y-82628902D01*
X101420611Y-82683643D01*
X101420608Y-82683645D01*
X101416100Y-82686802D01*
X101254202Y-82848700D01*
X101122877Y-83036251D01*
X101120554Y-83041233D01*
X101120551Y-83041238D01*
X101104595Y-83075457D01*
X101057678Y-83128742D01*
X100989401Y-83148203D01*
X100921441Y-83127661D01*
X100876205Y-83075457D01*
X100860249Y-83041238D01*
X100860246Y-83041233D01*
X100857923Y-83036251D01*
X100726598Y-82848700D01*
X100564700Y-82686802D01*
X100560192Y-82683645D01*
X100560189Y-82683643D01*
X100482011Y-82628902D01*
X100377149Y-82555477D01*
X100372167Y-82553154D01*
X100372162Y-82553151D01*
X100174625Y-82461039D01*
X100174624Y-82461039D01*
X100169643Y-82458716D01*
X100164335Y-82457294D01*
X100164333Y-82457293D01*
X99953802Y-82400881D01*
X99953800Y-82400881D01*
X99948487Y-82399457D01*
X99720400Y-82379502D01*
X99492313Y-82399457D01*
X99487000Y-82400881D01*
X99486998Y-82400881D01*
X99276467Y-82457293D01*
X99276465Y-82457294D01*
X99271157Y-82458716D01*
X99266176Y-82461039D01*
X99266175Y-82461039D01*
X99068638Y-82553151D01*
X99068633Y-82553154D01*
X99063651Y-82555477D01*
X98958789Y-82628902D01*
X98880611Y-82683643D01*
X98880608Y-82683645D01*
X98876100Y-82686802D01*
X98714202Y-82848700D01*
X98582877Y-83036251D01*
X98580554Y-83041233D01*
X98580551Y-83041238D01*
X98564319Y-83076049D01*
X98517402Y-83129334D01*
X98449125Y-83148795D01*
X98381165Y-83128253D01*
X98335929Y-83076049D01*
X98319814Y-83041489D01*
X98314331Y-83031993D01*
X98189372Y-82853533D01*
X98182316Y-82845125D01*
X98028275Y-82691084D01*
X98019867Y-82684028D01*
X97841407Y-82559069D01*
X97831911Y-82553586D01*
X97634453Y-82461510D01*
X97624161Y-82457764D01*
X97451897Y-82411606D01*
X97437801Y-82411942D01*
X97434400Y-82419884D01*
X97434400Y-84960967D01*
X97438373Y-84974498D01*
X97446922Y-84975727D01*
X97624161Y-84928236D01*
X97634453Y-84924490D01*
X97831911Y-84832414D01*
X97841407Y-84826931D01*
X98019867Y-84701972D01*
X98028275Y-84694916D01*
X98182316Y-84540875D01*
X98189372Y-84532467D01*
X98314331Y-84354007D01*
X98319814Y-84344511D01*
X98335929Y-84309951D01*
X98382846Y-84256666D01*
X98451123Y-84237205D01*
X98519083Y-84257747D01*
X98564319Y-84309951D01*
X98580551Y-84344762D01*
X98580554Y-84344767D01*
X98582877Y-84349749D01*
X98586034Y-84354257D01*
X98663153Y-84464394D01*
X98714202Y-84537300D01*
X98876100Y-84699198D01*
X98880608Y-84702355D01*
X98880611Y-84702357D01*
X98925991Y-84734132D01*
X99063651Y-84830523D01*
X99068633Y-84832846D01*
X99068638Y-84832849D01*
X99261755Y-84922900D01*
X99271157Y-84927284D01*
X99276465Y-84928706D01*
X99276467Y-84928707D01*
X99486998Y-84985119D01*
X99487000Y-84985119D01*
X99492313Y-84986543D01*
X99714925Y-85006019D01*
X99720400Y-85006498D01*
X99725875Y-85006019D01*
X99731382Y-85006019D01*
X99731382Y-85008580D01*
X99790462Y-85020508D01*
X99820835Y-85042893D01*
X101046088Y-86268146D01*
X101058925Y-86283174D01*
X101066815Y-86294034D01*
X101071725Y-86298455D01*
X101071726Y-86298456D01*
X101116184Y-86338486D01*
X101120969Y-86343027D01*
X101135014Y-86357072D01*
X101137588Y-86359156D01*
X101137591Y-86359159D01*
X101150446Y-86369569D01*
X101155462Y-86373853D01*
X101199920Y-86413883D01*
X101199925Y-86413887D01*
X101204831Y-86418304D01*
X101216097Y-86424809D01*
X101216448Y-86425011D01*
X101232741Y-86436209D01*
X101243161Y-86444647D01*
X101302363Y-86474813D01*
X101308133Y-86477946D01*
X101359945Y-86507860D01*
X101359950Y-86507862D01*
X101365669Y-86511164D01*
X101371949Y-86513205D01*
X101371957Y-86513208D01*
X101378421Y-86515308D01*
X101396683Y-86522872D01*
X101402749Y-86525963D01*
X101402758Y-86525966D01*
X101408637Y-86528962D01*
X101415015Y-86530671D01*
X101472804Y-86546156D01*
X101479106Y-86548022D01*
X101542298Y-86568554D01*
X101555205Y-86569911D01*
X101555628Y-86569955D01*
X101575071Y-86573558D01*
X101588029Y-86577030D01*
X101594619Y-86577375D01*
X101594623Y-86577376D01*
X101638573Y-86579679D01*
X101654372Y-86580507D01*
X101660931Y-86581023D01*
X101680694Y-86583100D01*
X101700555Y-86583100D01*
X101707150Y-86583273D01*
X101766902Y-86586405D01*
X101766906Y-86586405D01*
X101773493Y-86586750D01*
X101786747Y-86584651D01*
X101806456Y-86583100D01*
X103763880Y-86583100D01*
X103832001Y-86603102D01*
X103878494Y-86656758D01*
X103889190Y-86695928D01*
X103889247Y-86696466D01*
X103892564Y-86728023D01*
X103892806Y-86730328D01*
X103880035Y-86800166D01*
X103831533Y-86852014D01*
X103767496Y-86869500D01*
X96007593Y-86869500D01*
X95983984Y-86867268D01*
X95983681Y-86867210D01*
X95983677Y-86867210D01*
X95975894Y-86865725D01*
X95919849Y-86869251D01*
X95911938Y-86869500D01*
X95895944Y-86869500D01*
X95880070Y-86871506D01*
X95872210Y-86872248D01*
X95844751Y-86873976D01*
X95824063Y-86875277D01*
X95824062Y-86875277D01*
X95816150Y-86875775D01*
X95808609Y-86878225D01*
X95808313Y-86878321D01*
X95785169Y-86883494D01*
X95784865Y-86883532D01*
X95784860Y-86883533D01*
X95777003Y-86884526D01*
X95769638Y-86887442D01*
X95769634Y-86887443D01*
X95724789Y-86905199D01*
X95717370Y-86907871D01*
X95663925Y-86925236D01*
X95657229Y-86929486D01*
X95657228Y-86929486D01*
X95656969Y-86929650D01*
X95635842Y-86940415D01*
X95635554Y-86940529D01*
X95635549Y-86940532D01*
X95628183Y-86943448D01*
X95621775Y-86948104D01*
X95621769Y-86948107D01*
X95582748Y-86976458D01*
X95576211Y-86980901D01*
X95528782Y-87011000D01*
X95523356Y-87016778D01*
X95523355Y-87016779D01*
X95523141Y-87017007D01*
X95505354Y-87032688D01*
X95505109Y-87032866D01*
X95505107Y-87032868D01*
X95498693Y-87037528D01*
X95493639Y-87043637D01*
X95493638Y-87043638D01*
X95462897Y-87080796D01*
X95457666Y-87086730D01*
X95424642Y-87121898D01*
X95424640Y-87121901D01*
X95419214Y-87127679D01*
X95415245Y-87134899D01*
X95401919Y-87154506D01*
X95401720Y-87154746D01*
X95401716Y-87154753D01*
X95396667Y-87160856D01*
X95388166Y-87178922D01*
X95372753Y-87211676D01*
X95369171Y-87218708D01*
X95342105Y-87267940D01*
X95340135Y-87275615D01*
X95340132Y-87275621D01*
X95340056Y-87275919D01*
X95332024Y-87298228D01*
X95331894Y-87298503D01*
X95331891Y-87298511D01*
X95328517Y-87305682D01*
X95327031Y-87313474D01*
X95317995Y-87360843D01*
X95316271Y-87368558D01*
X95302300Y-87422970D01*
X95302300Y-87431207D01*
X95300068Y-87454816D01*
X95298525Y-87462906D01*
X95299023Y-87470817D01*
X95302051Y-87518951D01*
X95302300Y-87526862D01*
X95302300Y-89980099D01*
X95282298Y-90048220D01*
X95228642Y-90094713D01*
X95158368Y-90104817D01*
X95123050Y-90094294D01*
X95119463Y-90092621D01*
X95089643Y-90078716D01*
X95084335Y-90077294D01*
X95084333Y-90077293D01*
X94873802Y-90020881D01*
X94873800Y-90020881D01*
X94868487Y-90019457D01*
X94640400Y-89999502D01*
X94412313Y-90019457D01*
X94407000Y-90020881D01*
X94406998Y-90020881D01*
X94196467Y-90077293D01*
X94196465Y-90077294D01*
X94191157Y-90078716D01*
X94161338Y-90092621D01*
X94157750Y-90094294D01*
X94087558Y-90104955D01*
X94022746Y-90075975D01*
X93983889Y-90016555D01*
X93978500Y-89980099D01*
X93978500Y-89221524D01*
X93998502Y-89153403D01*
X94010858Y-89137221D01*
X94084040Y-89055944D01*
X94179527Y-88890556D01*
X94238542Y-88708928D01*
X94239860Y-88696393D01*
X94257814Y-88525565D01*
X94258504Y-88519000D01*
X94245013Y-88390636D01*
X94239232Y-88335635D01*
X94239232Y-88335633D01*
X94238542Y-88329072D01*
X94179527Y-88147444D01*
X94173209Y-88136500D01*
X94126594Y-88055762D01*
X94084040Y-87982056D01*
X94074300Y-87971238D01*
X93960675Y-87845045D01*
X93960674Y-87845044D01*
X93956253Y-87840134D01*
X93801752Y-87727882D01*
X93795724Y-87725198D01*
X93795722Y-87725197D01*
X93633319Y-87652891D01*
X93633318Y-87652891D01*
X93627288Y-87650206D01*
X93533887Y-87630353D01*
X93446944Y-87611872D01*
X93446939Y-87611872D01*
X93440487Y-87610500D01*
X93249513Y-87610500D01*
X93243061Y-87611872D01*
X93243056Y-87611872D01*
X93156113Y-87630353D01*
X93062712Y-87650206D01*
X93056682Y-87652891D01*
X93056681Y-87652891D01*
X92894278Y-87725197D01*
X92894276Y-87725198D01*
X92888248Y-87727882D01*
X92733747Y-87840134D01*
X92729326Y-87845044D01*
X92729325Y-87845045D01*
X92615701Y-87971238D01*
X92605960Y-87982056D01*
X92563406Y-88055762D01*
X92516792Y-88136500D01*
X92510473Y-88147444D01*
X92451458Y-88329072D01*
X92450768Y-88335633D01*
X92450768Y-88335635D01*
X92444987Y-88390636D01*
X92431496Y-88519000D01*
X92432186Y-88525565D01*
X92450141Y-88696393D01*
X92451458Y-88708928D01*
X92510473Y-88890556D01*
X92605960Y-89055944D01*
X92679137Y-89137215D01*
X92709853Y-89201221D01*
X92711500Y-89221524D01*
X92711500Y-89958190D01*
X92691498Y-90026311D01*
X92637842Y-90072804D01*
X92567568Y-90082908D01*
X92549720Y-90078429D01*
X92549643Y-90078716D01*
X92333802Y-90020881D01*
X92333800Y-90020881D01*
X92328487Y-90019457D01*
X92100400Y-89999502D01*
X91872313Y-90019457D01*
X91867000Y-90020881D01*
X91866998Y-90020881D01*
X91701494Y-90065228D01*
X91630518Y-90063538D01*
X91571722Y-90023744D01*
X91543774Y-89958480D01*
X91555547Y-89888466D01*
X91559764Y-89880521D01*
X91585423Y-89836079D01*
X91585424Y-89836078D01*
X91588727Y-89830356D01*
X91647742Y-89648728D01*
X91667704Y-89458800D01*
X91651569Y-89305283D01*
X91648432Y-89275435D01*
X91648432Y-89275433D01*
X91647742Y-89268872D01*
X91588727Y-89087244D01*
X91493240Y-88921856D01*
X91488047Y-88916088D01*
X91369875Y-88784845D01*
X91369874Y-88784844D01*
X91365453Y-88779934D01*
X91239995Y-88688783D01*
X91216294Y-88671563D01*
X91216293Y-88671562D01*
X91210952Y-88667682D01*
X91204924Y-88664998D01*
X91204922Y-88664997D01*
X91042519Y-88592691D01*
X91042518Y-88592691D01*
X91036488Y-88590006D01*
X90938317Y-88569139D01*
X90856144Y-88551672D01*
X90856139Y-88551672D01*
X90849687Y-88550300D01*
X90658713Y-88550300D01*
X90652261Y-88551672D01*
X90652256Y-88551672D01*
X90570083Y-88569139D01*
X90471912Y-88590006D01*
X90465882Y-88592691D01*
X90465881Y-88592691D01*
X90303478Y-88664997D01*
X90303476Y-88664998D01*
X90297448Y-88667682D01*
X90292107Y-88671562D01*
X90292106Y-88671563D01*
X90268405Y-88688783D01*
X90142947Y-88779934D01*
X90138526Y-88784844D01*
X90138525Y-88784845D01*
X90020354Y-88916088D01*
X90015160Y-88921856D01*
X89919673Y-89087244D01*
X89860658Y-89268872D01*
X89859968Y-89275433D01*
X89859968Y-89275435D01*
X89856831Y-89305283D01*
X89840696Y-89458800D01*
X89860658Y-89648728D01*
X89919673Y-89830356D01*
X89922977Y-89836079D01*
X89925661Y-89842107D01*
X89923684Y-89842987D01*
X89938040Y-89902183D01*
X89914814Y-89969273D01*
X89859004Y-90013156D01*
X89791163Y-90020174D01*
X89788487Y-90019457D01*
X89560400Y-89999502D01*
X89332313Y-90019457D01*
X89327000Y-90020881D01*
X89326998Y-90020881D01*
X89116467Y-90077293D01*
X89116465Y-90077294D01*
X89111157Y-90078716D01*
X89106176Y-90081039D01*
X89106175Y-90081039D01*
X88908638Y-90173151D01*
X88908633Y-90173154D01*
X88903651Y-90175477D01*
X88898500Y-90179084D01*
X88720611Y-90303643D01*
X88720608Y-90303645D01*
X88716100Y-90306802D01*
X88554202Y-90468700D01*
X88551045Y-90473208D01*
X88551043Y-90473211D01*
X88538068Y-90491742D01*
X88422877Y-90656251D01*
X88420554Y-90661233D01*
X88420551Y-90661238D01*
X88404595Y-90695457D01*
X88357678Y-90748742D01*
X88289401Y-90768203D01*
X88221441Y-90747661D01*
X88176205Y-90695457D01*
X88160249Y-90661238D01*
X88160246Y-90661233D01*
X88157923Y-90656251D01*
X88042732Y-90491742D01*
X88029757Y-90473211D01*
X88029755Y-90473208D01*
X88026598Y-90468700D01*
X87864700Y-90306802D01*
X87860192Y-90303645D01*
X87860189Y-90303643D01*
X87682300Y-90179084D01*
X87677149Y-90175477D01*
X87672167Y-90173154D01*
X87672162Y-90173151D01*
X87474625Y-90081039D01*
X87474624Y-90081039D01*
X87469643Y-90078716D01*
X87464335Y-90077294D01*
X87464333Y-90077293D01*
X87253802Y-90020881D01*
X87253800Y-90020881D01*
X87248487Y-90019457D01*
X87020400Y-89999502D01*
X86792313Y-90019457D01*
X86787000Y-90020881D01*
X86786998Y-90020881D01*
X86576467Y-90077293D01*
X86576465Y-90077294D01*
X86571157Y-90078716D01*
X86566176Y-90081039D01*
X86566175Y-90081039D01*
X86368638Y-90173151D01*
X86368633Y-90173154D01*
X86363651Y-90175477D01*
X86358500Y-90179084D01*
X86180611Y-90303643D01*
X86180608Y-90303645D01*
X86176100Y-90306802D01*
X86014202Y-90468700D01*
X86011045Y-90473208D01*
X86011043Y-90473211D01*
X85998068Y-90491742D01*
X85882877Y-90656251D01*
X85880554Y-90661233D01*
X85880551Y-90661238D01*
X85864595Y-90695457D01*
X85817678Y-90748742D01*
X85749401Y-90768203D01*
X85681441Y-90747661D01*
X85636205Y-90695457D01*
X85620249Y-90661238D01*
X85620246Y-90661233D01*
X85617923Y-90656251D01*
X85502732Y-90491742D01*
X85489757Y-90473211D01*
X85489755Y-90473208D01*
X85486598Y-90468700D01*
X85324700Y-90306802D01*
X85320192Y-90303645D01*
X85320189Y-90303643D01*
X85142300Y-90179084D01*
X85137149Y-90175477D01*
X85132167Y-90173154D01*
X85132162Y-90173151D01*
X84934625Y-90081039D01*
X84934624Y-90081039D01*
X84929643Y-90078716D01*
X84924335Y-90077294D01*
X84924333Y-90077293D01*
X84713802Y-90020881D01*
X84713800Y-90020881D01*
X84708487Y-90019457D01*
X84480400Y-89999502D01*
X84252313Y-90019457D01*
X84247000Y-90020881D01*
X84246998Y-90020881D01*
X84036467Y-90077293D01*
X84036465Y-90077294D01*
X84031157Y-90078716D01*
X84026176Y-90081039D01*
X84026175Y-90081039D01*
X83828638Y-90173151D01*
X83828633Y-90173154D01*
X83823651Y-90175477D01*
X83818500Y-90179084D01*
X83640611Y-90303643D01*
X83640608Y-90303645D01*
X83636100Y-90306802D01*
X83474202Y-90468700D01*
X83471043Y-90473211D01*
X83467508Y-90477424D01*
X83466374Y-90476473D01*
X83416329Y-90516471D01*
X83345710Y-90523776D01*
X83282351Y-90491742D01*
X83246370Y-90430538D01*
X83243318Y-90413483D01*
X83242145Y-90402684D01*
X83191015Y-90266295D01*
X83103661Y-90149739D01*
X82987105Y-90062385D01*
X82850716Y-90011255D01*
X82788534Y-90004500D01*
X81579994Y-90004500D01*
X81511873Y-89984498D01*
X81490899Y-89967595D01*
X79740605Y-88217300D01*
X79706579Y-88154988D01*
X79703700Y-88128205D01*
X79703700Y-81137394D01*
X79723702Y-81069273D01*
X79740605Y-81048299D01*
X85899699Y-74889205D01*
X85962011Y-74855179D01*
X85988794Y-74852300D01*
X111404206Y-74852300D01*
X111472327Y-74872302D01*
G37*
%TD.AperFunction*%
%TD*%
M02*
