%TF.GenerationSoftware,KiCad,Pcbnew,(6.0.6)*%
%TF.CreationDate,2022-12-23T09:56:40-08:00*%
%TF.ProjectId,AS-MULTI-UNO-01,41532d4d-554c-4544-992d-554e4f2d3031,rev?*%
%TF.SameCoordinates,Original*%
%TF.FileFunction,Legend,Top*%
%TF.FilePolarity,Positive*%
%FSLAX46Y46*%
G04 Gerber Fmt 4.6, Leading zero omitted, Abs format (unit mm)*
G04 Created by KiCad (PCBNEW (6.0.6)) date 2022-12-23 09:56:40*
%MOMM*%
%LPD*%
G01*
G04 APERTURE LIST*
%ADD10C,0.150000*%
%ADD11C,0.300000*%
%ADD12C,0.120000*%
G04 APERTURE END LIST*
D10*
X131491219Y-112034580D02*
X131157885Y-111558390D01*
X130919790Y-112034580D02*
X130919790Y-111034580D01*
X131300742Y-111034580D01*
X131395980Y-111082200D01*
X131443600Y-111129819D01*
X131491219Y-111225057D01*
X131491219Y-111367914D01*
X131443600Y-111463152D01*
X131395980Y-111510771D01*
X131300742Y-111558390D01*
X130919790Y-111558390D01*
X131919790Y-111510771D02*
X132253123Y-111510771D01*
X132395980Y-112034580D02*
X131919790Y-112034580D01*
X131919790Y-111034580D01*
X132395980Y-111034580D01*
X132776933Y-111986961D02*
X132919790Y-112034580D01*
X133157885Y-112034580D01*
X133253123Y-111986961D01*
X133300742Y-111939342D01*
X133348361Y-111844104D01*
X133348361Y-111748866D01*
X133300742Y-111653628D01*
X133253123Y-111606009D01*
X133157885Y-111558390D01*
X132967409Y-111510771D01*
X132872171Y-111463152D01*
X132824552Y-111415533D01*
X132776933Y-111320295D01*
X132776933Y-111225057D01*
X132824552Y-111129819D01*
X132872171Y-111082200D01*
X132967409Y-111034580D01*
X133205504Y-111034580D01*
X133348361Y-111082200D01*
X133776933Y-111510771D02*
X134110266Y-111510771D01*
X134253123Y-112034580D02*
X133776933Y-112034580D01*
X133776933Y-111034580D01*
X134253123Y-111034580D01*
X134538838Y-111034580D02*
X135110266Y-111034580D01*
X134824552Y-112034580D02*
X134824552Y-111034580D01*
X139498676Y-90582561D02*
X139641533Y-90630180D01*
X139879628Y-90630180D01*
X139974866Y-90582561D01*
X140022485Y-90534942D01*
X140070104Y-90439704D01*
X140070104Y-90344466D01*
X140022485Y-90249228D01*
X139974866Y-90201609D01*
X139879628Y-90153990D01*
X139689152Y-90106371D01*
X139593914Y-90058752D01*
X139546295Y-90011133D01*
X139498676Y-89915895D01*
X139498676Y-89820657D01*
X139546295Y-89725419D01*
X139593914Y-89677800D01*
X139689152Y-89630180D01*
X139927247Y-89630180D01*
X140070104Y-89677800D01*
X140498676Y-90106371D02*
X140832009Y-90106371D01*
X140974866Y-90630180D02*
X140498676Y-90630180D01*
X140498676Y-89630180D01*
X140974866Y-89630180D01*
X141974866Y-90630180D02*
X141641533Y-90153990D01*
X141403438Y-90630180D02*
X141403438Y-89630180D01*
X141784390Y-89630180D01*
X141879628Y-89677800D01*
X141927247Y-89725419D01*
X141974866Y-89820657D01*
X141974866Y-89963514D01*
X141927247Y-90058752D01*
X141879628Y-90106371D01*
X141784390Y-90153990D01*
X141403438Y-90153990D01*
X142403438Y-90630180D02*
X142403438Y-89630180D01*
X142832009Y-90344466D02*
X143308200Y-90344466D01*
X142736771Y-90630180D02*
X143070104Y-89630180D01*
X143403438Y-90630180D01*
X144212961Y-90630180D02*
X143736771Y-90630180D01*
X143736771Y-89630180D01*
X140212961Y-91240180D02*
X140212961Y-92049704D01*
X140260580Y-92144942D01*
X140308200Y-92192561D01*
X140403438Y-92240180D01*
X140593914Y-92240180D01*
X140689152Y-92192561D01*
X140736771Y-92144942D01*
X140784390Y-92049704D01*
X140784390Y-91240180D01*
X141212961Y-91954466D02*
X141689152Y-91954466D01*
X141117723Y-92240180D02*
X141451057Y-91240180D01*
X141784390Y-92240180D01*
X142689152Y-92240180D02*
X142355819Y-91763990D01*
X142117723Y-92240180D02*
X142117723Y-91240180D01*
X142498676Y-91240180D01*
X142593914Y-91287800D01*
X142641533Y-91335419D01*
X142689152Y-91430657D01*
X142689152Y-91573514D01*
X142641533Y-91668752D01*
X142593914Y-91716371D01*
X142498676Y-91763990D01*
X142117723Y-91763990D01*
X142974866Y-91240180D02*
X143546295Y-91240180D01*
X143260580Y-92240180D02*
X143260580Y-91240180D01*
X130708495Y-106840400D02*
X130613257Y-106792780D01*
X130470400Y-106792780D01*
X130327542Y-106840400D01*
X130232304Y-106935638D01*
X130184685Y-107030876D01*
X130137066Y-107221352D01*
X130137066Y-107364209D01*
X130184685Y-107554685D01*
X130232304Y-107649923D01*
X130327542Y-107745161D01*
X130470400Y-107792780D01*
X130565638Y-107792780D01*
X130708495Y-107745161D01*
X130756114Y-107697542D01*
X130756114Y-107364209D01*
X130565638Y-107364209D01*
X131184685Y-107792780D02*
X131184685Y-106792780D01*
X131756114Y-107792780D01*
X131756114Y-106792780D01*
X132232304Y-107792780D02*
X132232304Y-106792780D01*
X132470400Y-106792780D01*
X132613257Y-106840400D01*
X132708495Y-106935638D01*
X132756114Y-107030876D01*
X132803733Y-107221352D01*
X132803733Y-107364209D01*
X132756114Y-107554685D01*
X132708495Y-107649923D01*
X132613257Y-107745161D01*
X132470400Y-107792780D01*
X132232304Y-107792780D01*
X131116485Y-105151180D02*
X131116485Y-104151180D01*
X131687914Y-105151180D01*
X131687914Y-104151180D01*
X132735533Y-105055942D02*
X132687914Y-105103561D01*
X132545057Y-105151180D01*
X132449819Y-105151180D01*
X132306961Y-105103561D01*
X132211723Y-105008323D01*
X132164104Y-104913085D01*
X132116485Y-104722609D01*
X132116485Y-104579752D01*
X132164104Y-104389276D01*
X132211723Y-104294038D01*
X132306961Y-104198800D01*
X132449819Y-104151180D01*
X132545057Y-104151180D01*
X132687914Y-104198800D01*
X132735533Y-104246419D01*
X130162466Y-101687380D02*
X130495800Y-102687380D01*
X130829133Y-101687380D01*
X131733895Y-102592142D02*
X131686276Y-102639761D01*
X131543419Y-102687380D01*
X131448180Y-102687380D01*
X131305323Y-102639761D01*
X131210085Y-102544523D01*
X131162466Y-102449285D01*
X131114847Y-102258809D01*
X131114847Y-102115952D01*
X131162466Y-101925476D01*
X131210085Y-101830238D01*
X131305323Y-101735000D01*
X131448180Y-101687380D01*
X131543419Y-101687380D01*
X131686276Y-101735000D01*
X131733895Y-101782619D01*
X132733895Y-102592142D02*
X132686276Y-102639761D01*
X132543419Y-102687380D01*
X132448180Y-102687380D01*
X132305323Y-102639761D01*
X132210085Y-102544523D01*
X132162466Y-102449285D01*
X132114847Y-102258809D01*
X132114847Y-102115952D01*
X132162466Y-101925476D01*
X132210085Y-101830238D01*
X132305323Y-101735000D01*
X132448180Y-101687380D01*
X132543419Y-101687380D01*
X132686276Y-101735000D01*
X132733895Y-101782619D01*
X131165695Y-99147380D02*
X131737123Y-99147380D01*
X131451409Y-100147380D02*
X131451409Y-99147380D01*
X131975219Y-99147380D02*
X132641885Y-100147380D01*
X132641885Y-99147380D02*
X131975219Y-100147380D01*
X131659333Y-97658180D02*
X131326000Y-97181990D01*
X131087904Y-97658180D02*
X131087904Y-96658180D01*
X131468857Y-96658180D01*
X131564095Y-96705800D01*
X131611714Y-96753419D01*
X131659333Y-96848657D01*
X131659333Y-96991514D01*
X131611714Y-97086752D01*
X131564095Y-97134371D01*
X131468857Y-97181990D01*
X131087904Y-97181990D01*
X131992666Y-96658180D02*
X132659333Y-97658180D01*
X132659333Y-96658180D02*
X131992666Y-97658180D01*
X131483266Y-72756780D02*
X131816600Y-73756780D01*
X132149933Y-72756780D01*
X133054695Y-73661542D02*
X133007076Y-73709161D01*
X132864219Y-73756780D01*
X132768980Y-73756780D01*
X132626123Y-73709161D01*
X132530885Y-73613923D01*
X132483266Y-73518685D01*
X132435647Y-73328209D01*
X132435647Y-73185352D01*
X132483266Y-72994876D01*
X132530885Y-72899638D01*
X132626123Y-72804400D01*
X132768980Y-72756780D01*
X132864219Y-72756780D01*
X133007076Y-72804400D01*
X133054695Y-72852019D01*
X134054695Y-73661542D02*
X134007076Y-73709161D01*
X133864219Y-73756780D01*
X133768980Y-73756780D01*
X133626123Y-73709161D01*
X133530885Y-73613923D01*
X133483266Y-73518685D01*
X133435647Y-73328209D01*
X133435647Y-73185352D01*
X133483266Y-72994876D01*
X133530885Y-72899638D01*
X133626123Y-72804400D01*
X133768980Y-72756780D01*
X133864219Y-72756780D01*
X134007076Y-72804400D01*
X134054695Y-72852019D01*
X132003895Y-70315200D02*
X131908657Y-70267580D01*
X131765800Y-70267580D01*
X131622942Y-70315200D01*
X131527704Y-70410438D01*
X131480085Y-70505676D01*
X131432466Y-70696152D01*
X131432466Y-70839009D01*
X131480085Y-71029485D01*
X131527704Y-71124723D01*
X131622942Y-71219961D01*
X131765800Y-71267580D01*
X131861038Y-71267580D01*
X132003895Y-71219961D01*
X132051514Y-71172342D01*
X132051514Y-70839009D01*
X131861038Y-70839009D01*
X132480085Y-71267580D02*
X132480085Y-70267580D01*
X133051514Y-71267580D01*
X133051514Y-70267580D01*
X133527704Y-71267580D02*
X133527704Y-70267580D01*
X133765800Y-70267580D01*
X133908657Y-70315200D01*
X134003895Y-70410438D01*
X134051514Y-70505676D01*
X134099133Y-70696152D01*
X134099133Y-70839009D01*
X134051514Y-71029485D01*
X134003895Y-71124723D01*
X133908657Y-71219961D01*
X133765800Y-71267580D01*
X133527704Y-71267580D01*
X130276742Y-95016580D02*
X130276742Y-94016580D01*
X130514838Y-94016580D01*
X130657695Y-94064200D01*
X130752933Y-94159438D01*
X130800552Y-94254676D01*
X130848171Y-94445152D01*
X130848171Y-94588009D01*
X130800552Y-94778485D01*
X130752933Y-94873723D01*
X130657695Y-94968961D01*
X130514838Y-95016580D01*
X130276742Y-95016580D01*
X131133885Y-94016580D02*
X131705314Y-94016580D01*
X131419600Y-95016580D02*
X131419600Y-94016580D01*
X132610076Y-95016580D02*
X132276742Y-94540390D01*
X132038647Y-95016580D02*
X132038647Y-94016580D01*
X132419600Y-94016580D01*
X132514838Y-94064200D01*
X132562457Y-94111819D01*
X132610076Y-94207057D01*
X132610076Y-94349914D01*
X132562457Y-94445152D01*
X132514838Y-94492771D01*
X132419600Y-94540390D01*
X132038647Y-94540390D01*
X84926466Y-69980085D02*
X84926466Y-69503895D01*
X85212180Y-70075323D02*
X84212180Y-69741990D01*
X85212180Y-69408657D01*
X84545514Y-68646752D02*
X85212180Y-68646752D01*
X84164561Y-68884847D02*
X84878847Y-69122942D01*
X84878847Y-68503895D01*
X104656000Y-70230904D02*
X104608380Y-70326142D01*
X104608380Y-70469000D01*
X104656000Y-70611857D01*
X104751238Y-70707095D01*
X104846476Y-70754714D01*
X105036952Y-70802333D01*
X105179809Y-70802333D01*
X105370285Y-70754714D01*
X105465523Y-70707095D01*
X105560761Y-70611857D01*
X105608380Y-70469000D01*
X105608380Y-70373761D01*
X105560761Y-70230904D01*
X105513142Y-70183285D01*
X105179809Y-70183285D01*
X105179809Y-70373761D01*
X105608380Y-69754714D02*
X104608380Y-69754714D01*
X105608380Y-69183285D01*
X104608380Y-69183285D01*
X105608380Y-68707095D02*
X104608380Y-68707095D01*
X104608380Y-68469000D01*
X104656000Y-68326142D01*
X104751238Y-68230904D01*
X104846476Y-68183285D01*
X105036952Y-68135666D01*
X105179809Y-68135666D01*
X105370285Y-68183285D01*
X105465523Y-68230904D01*
X105560761Y-68326142D01*
X105608380Y-68469000D01*
X105608380Y-68707095D01*
X117292380Y-113533085D02*
X116292380Y-113533085D01*
X116292380Y-113294990D01*
X116340000Y-113152133D01*
X116435238Y-113056895D01*
X116530476Y-113009276D01*
X116720952Y-112961657D01*
X116863809Y-112961657D01*
X117054285Y-113009276D01*
X117149523Y-113056895D01*
X117244761Y-113152133D01*
X117292380Y-113294990D01*
X117292380Y-113533085D01*
X117292380Y-112009276D02*
X117292380Y-112580704D01*
X117292380Y-112294990D02*
X116292380Y-112294990D01*
X116435238Y-112390228D01*
X116530476Y-112485466D01*
X116578095Y-112580704D01*
X116292380Y-111675942D02*
X116292380Y-111056895D01*
X116673333Y-111390228D01*
X116673333Y-111247371D01*
X116720952Y-111152133D01*
X116768571Y-111104514D01*
X116863809Y-111056895D01*
X117101904Y-111056895D01*
X117197142Y-111104514D01*
X117244761Y-111152133D01*
X117292380Y-111247371D01*
X117292380Y-111533085D01*
X117244761Y-111628323D01*
X117197142Y-111675942D01*
X124839361Y-113787085D02*
X124886980Y-113644228D01*
X124886980Y-113406133D01*
X124839361Y-113310895D01*
X124791742Y-113263276D01*
X124696504Y-113215657D01*
X124601266Y-113215657D01*
X124506028Y-113263276D01*
X124458409Y-113310895D01*
X124410790Y-113406133D01*
X124363171Y-113596609D01*
X124315552Y-113691847D01*
X124267933Y-113739466D01*
X124172695Y-113787085D01*
X124077457Y-113787085D01*
X123982219Y-113739466D01*
X123934600Y-113691847D01*
X123886980Y-113596609D01*
X123886980Y-113358514D01*
X123934600Y-113215657D01*
X124886980Y-112787085D02*
X123886980Y-112787085D01*
X123886980Y-112548990D01*
X123934600Y-112406133D01*
X124029838Y-112310895D01*
X124125076Y-112263276D01*
X124315552Y-112215657D01*
X124458409Y-112215657D01*
X124648885Y-112263276D01*
X124744123Y-112310895D01*
X124839361Y-112406133D01*
X124886980Y-112548990D01*
X124886980Y-112787085D01*
X124601266Y-111834704D02*
X124601266Y-111358514D01*
X124886980Y-111929942D02*
X123886980Y-111596609D01*
X124886980Y-111263276D01*
X126969780Y-82148180D02*
X126493590Y-82481514D01*
X126969780Y-82719609D02*
X125969780Y-82719609D01*
X125969780Y-82338657D01*
X126017400Y-82243419D01*
X126065019Y-82195800D01*
X126160257Y-82148180D01*
X126303114Y-82148180D01*
X126398352Y-82195800D01*
X126445971Y-82243419D01*
X126493590Y-82338657D01*
X126493590Y-82719609D01*
X126445971Y-81719609D02*
X126445971Y-81386276D01*
X126969780Y-81243419D02*
X126969780Y-81719609D01*
X125969780Y-81719609D01*
X125969780Y-81243419D01*
X126922161Y-80862466D02*
X126969780Y-80719609D01*
X126969780Y-80481514D01*
X126922161Y-80386276D01*
X126874542Y-80338657D01*
X126779304Y-80291038D01*
X126684066Y-80291038D01*
X126588828Y-80338657D01*
X126541209Y-80386276D01*
X126493590Y-80481514D01*
X126445971Y-80671990D01*
X126398352Y-80767228D01*
X126350733Y-80814847D01*
X126255495Y-80862466D01*
X126160257Y-80862466D01*
X126065019Y-80814847D01*
X126017400Y-80767228D01*
X125969780Y-80671990D01*
X125969780Y-80433895D01*
X126017400Y-80291038D01*
X126445971Y-79862466D02*
X126445971Y-79529133D01*
X126969780Y-79386276D02*
X126969780Y-79862466D01*
X125969780Y-79862466D01*
X125969780Y-79386276D01*
X125969780Y-79100561D02*
X125969780Y-78529133D01*
X126969780Y-78814847D02*
X125969780Y-78814847D01*
X122035866Y-113963247D02*
X122035866Y-113487057D01*
X122321580Y-114058485D02*
X121321580Y-113725152D01*
X122321580Y-113391819D01*
X122321580Y-112487057D02*
X121845390Y-112820390D01*
X122321580Y-113058485D02*
X121321580Y-113058485D01*
X121321580Y-112677533D01*
X121369200Y-112582295D01*
X121416819Y-112534676D01*
X121512057Y-112487057D01*
X121654914Y-112487057D01*
X121750152Y-112534676D01*
X121797771Y-112582295D01*
X121845390Y-112677533D01*
X121845390Y-113058485D01*
X121797771Y-112058485D02*
X121797771Y-111725152D01*
X122321580Y-111582295D02*
X122321580Y-112058485D01*
X121321580Y-112058485D01*
X121321580Y-111582295D01*
X121797771Y-110820390D02*
X121797771Y-111153723D01*
X122321580Y-111153723D02*
X121321580Y-111153723D01*
X121321580Y-110677533D01*
X90292180Y-113742695D02*
X89292180Y-113742695D01*
X89292180Y-113504600D01*
X89339800Y-113361742D01*
X89435038Y-113266504D01*
X89530276Y-113218885D01*
X89720752Y-113171266D01*
X89863609Y-113171266D01*
X90054085Y-113218885D01*
X90149323Y-113266504D01*
X90244561Y-113361742D01*
X90292180Y-113504600D01*
X90292180Y-113742695D01*
X89292180Y-112837933D02*
X89292180Y-112218885D01*
X89673133Y-112552219D01*
X89673133Y-112409361D01*
X89720752Y-112314123D01*
X89768371Y-112266504D01*
X89863609Y-112218885D01*
X90101704Y-112218885D01*
X90196942Y-112266504D01*
X90244561Y-112314123D01*
X90292180Y-112409361D01*
X90292180Y-112695076D01*
X90244561Y-112790314D01*
X90196942Y-112837933D01*
X114676180Y-113634685D02*
X113676180Y-113634685D01*
X113676180Y-113396590D01*
X113723800Y-113253733D01*
X113819038Y-113158495D01*
X113914276Y-113110876D01*
X114104752Y-113063257D01*
X114247609Y-113063257D01*
X114438085Y-113110876D01*
X114533323Y-113158495D01*
X114628561Y-113253733D01*
X114676180Y-113396590D01*
X114676180Y-113634685D01*
X114676180Y-112110876D02*
X114676180Y-112682304D01*
X114676180Y-112396590D02*
X113676180Y-112396590D01*
X113819038Y-112491828D01*
X113914276Y-112587066D01*
X113961895Y-112682304D01*
X113771419Y-111729923D02*
X113723800Y-111682304D01*
X113676180Y-111587066D01*
X113676180Y-111348971D01*
X113723800Y-111253733D01*
X113771419Y-111206114D01*
X113866657Y-111158495D01*
X113961895Y-111158495D01*
X114104752Y-111206114D01*
X114676180Y-111777542D01*
X114676180Y-111158495D01*
X104566980Y-113641095D02*
X103566980Y-113641095D01*
X103566980Y-113403000D01*
X103614600Y-113260142D01*
X103709838Y-113164904D01*
X103805076Y-113117285D01*
X103995552Y-113069666D01*
X104138409Y-113069666D01*
X104328885Y-113117285D01*
X104424123Y-113164904D01*
X104519361Y-113260142D01*
X104566980Y-113403000D01*
X104566980Y-113641095D01*
X103995552Y-112498238D02*
X103947933Y-112593476D01*
X103900314Y-112641095D01*
X103805076Y-112688714D01*
X103757457Y-112688714D01*
X103662219Y-112641095D01*
X103614600Y-112593476D01*
X103566980Y-112498238D01*
X103566980Y-112307761D01*
X103614600Y-112212523D01*
X103662219Y-112164904D01*
X103757457Y-112117285D01*
X103805076Y-112117285D01*
X103900314Y-112164904D01*
X103947933Y-112212523D01*
X103995552Y-112307761D01*
X103995552Y-112498238D01*
X104043171Y-112593476D01*
X104090790Y-112641095D01*
X104186028Y-112688714D01*
X104376504Y-112688714D01*
X104471742Y-112641095D01*
X104519361Y-112593476D01*
X104566980Y-112498238D01*
X104566980Y-112307761D01*
X104519361Y-112212523D01*
X104471742Y-112164904D01*
X104376504Y-112117285D01*
X104186028Y-112117285D01*
X104090790Y-112164904D01*
X104043171Y-112212523D01*
X103995552Y-112307761D01*
X109672380Y-113634685D02*
X108672380Y-113634685D01*
X108672380Y-113396590D01*
X108720000Y-113253733D01*
X108815238Y-113158495D01*
X108910476Y-113110876D01*
X109100952Y-113063257D01*
X109243809Y-113063257D01*
X109434285Y-113110876D01*
X109529523Y-113158495D01*
X109624761Y-113253733D01*
X109672380Y-113396590D01*
X109672380Y-113634685D01*
X109672380Y-112110876D02*
X109672380Y-112682304D01*
X109672380Y-112396590D02*
X108672380Y-112396590D01*
X108815238Y-112491828D01*
X108910476Y-112587066D01*
X108958095Y-112682304D01*
X108672380Y-111491828D02*
X108672380Y-111396590D01*
X108720000Y-111301352D01*
X108767619Y-111253733D01*
X108862857Y-111206114D01*
X109053333Y-111158495D01*
X109291428Y-111158495D01*
X109481904Y-111206114D01*
X109577142Y-111253733D01*
X109624761Y-111301352D01*
X109672380Y-111396590D01*
X109672380Y-111491828D01*
X109624761Y-111587066D01*
X109577142Y-111634685D01*
X109481904Y-111682304D01*
X109291428Y-111729923D01*
X109053333Y-111729923D01*
X108862857Y-111682304D01*
X108767619Y-111634685D01*
X108720000Y-111587066D01*
X108672380Y-111491828D01*
X92648066Y-69929285D02*
X92648066Y-69453095D01*
X92933780Y-70024523D02*
X91933780Y-69691190D01*
X92933780Y-69357857D01*
X92933780Y-68500714D02*
X92933780Y-69072142D01*
X92933780Y-68786428D02*
X91933780Y-68786428D01*
X92076638Y-68881666D01*
X92171876Y-68976904D01*
X92219495Y-69072142D01*
X107030780Y-113641095D02*
X106030780Y-113641095D01*
X106030780Y-113403000D01*
X106078400Y-113260142D01*
X106173638Y-113164904D01*
X106268876Y-113117285D01*
X106459352Y-113069666D01*
X106602209Y-113069666D01*
X106792685Y-113117285D01*
X106887923Y-113164904D01*
X106983161Y-113260142D01*
X107030780Y-113403000D01*
X107030780Y-113641095D01*
X107030780Y-112593476D02*
X107030780Y-112403000D01*
X106983161Y-112307761D01*
X106935542Y-112260142D01*
X106792685Y-112164904D01*
X106602209Y-112117285D01*
X106221257Y-112117285D01*
X106126019Y-112164904D01*
X106078400Y-112212523D01*
X106030780Y-112307761D01*
X106030780Y-112498238D01*
X106078400Y-112593476D01*
X106126019Y-112641095D01*
X106221257Y-112688714D01*
X106459352Y-112688714D01*
X106554590Y-112641095D01*
X106602209Y-112593476D01*
X106649828Y-112498238D01*
X106649828Y-112307761D01*
X106602209Y-112212523D01*
X106554590Y-112164904D01*
X106459352Y-112117285D01*
X114717580Y-70751533D02*
X115717580Y-70418200D01*
X114717580Y-70084866D01*
X115622342Y-69180104D02*
X115669961Y-69227723D01*
X115717580Y-69370580D01*
X115717580Y-69465819D01*
X115669961Y-69608676D01*
X115574723Y-69703914D01*
X115479485Y-69751533D01*
X115289009Y-69799152D01*
X115146152Y-69799152D01*
X114955676Y-69751533D01*
X114860438Y-69703914D01*
X114765200Y-69608676D01*
X114717580Y-69465819D01*
X114717580Y-69370580D01*
X114765200Y-69227723D01*
X114812819Y-69180104D01*
X115622342Y-68180104D02*
X115669961Y-68227723D01*
X115717580Y-68370580D01*
X115717580Y-68465819D01*
X115669961Y-68608676D01*
X115574723Y-68703914D01*
X115479485Y-68751533D01*
X115289009Y-68799152D01*
X115146152Y-68799152D01*
X114955676Y-68751533D01*
X114860438Y-68703914D01*
X114765200Y-68608676D01*
X114717580Y-68465819D01*
X114717580Y-68370580D01*
X114765200Y-68227723D01*
X114812819Y-68180104D01*
X107148380Y-70929333D02*
X108148380Y-70596000D01*
X107148380Y-70262666D01*
X108053142Y-69357904D02*
X108100761Y-69405523D01*
X108148380Y-69548380D01*
X108148380Y-69643619D01*
X108100761Y-69786476D01*
X108005523Y-69881714D01*
X107910285Y-69929333D01*
X107719809Y-69976952D01*
X107576952Y-69976952D01*
X107386476Y-69929333D01*
X107291238Y-69881714D01*
X107196000Y-69786476D01*
X107148380Y-69643619D01*
X107148380Y-69548380D01*
X107196000Y-69405523D01*
X107243619Y-69357904D01*
X108053142Y-68357904D02*
X108100761Y-68405523D01*
X108148380Y-68548380D01*
X108148380Y-68643619D01*
X108100761Y-68786476D01*
X108005523Y-68881714D01*
X107910285Y-68929333D01*
X107719809Y-68976952D01*
X107576952Y-68976952D01*
X107386476Y-68929333D01*
X107291238Y-68881714D01*
X107196000Y-68786476D01*
X107148380Y-68643619D01*
X107148380Y-68548380D01*
X107196000Y-68405523D01*
X107243619Y-68357904D01*
X127404761Y-113763276D02*
X127452380Y-113620419D01*
X127452380Y-113382323D01*
X127404761Y-113287085D01*
X127357142Y-113239466D01*
X127261904Y-113191847D01*
X127166666Y-113191847D01*
X127071428Y-113239466D01*
X127023809Y-113287085D01*
X126976190Y-113382323D01*
X126928571Y-113572800D01*
X126880952Y-113668038D01*
X126833333Y-113715657D01*
X126738095Y-113763276D01*
X126642857Y-113763276D01*
X126547619Y-113715657D01*
X126500000Y-113668038D01*
X126452380Y-113572800D01*
X126452380Y-113334704D01*
X126500000Y-113191847D01*
X127357142Y-112191847D02*
X127404761Y-112239466D01*
X127452380Y-112382323D01*
X127452380Y-112477561D01*
X127404761Y-112620419D01*
X127309523Y-112715657D01*
X127214285Y-112763276D01*
X127023809Y-112810895D01*
X126880952Y-112810895D01*
X126690476Y-112763276D01*
X126595238Y-112715657D01*
X126500000Y-112620419D01*
X126452380Y-112477561D01*
X126452380Y-112382323D01*
X126500000Y-112239466D01*
X126547619Y-112191847D01*
X127452380Y-111287085D02*
X127452380Y-111763276D01*
X126452380Y-111763276D01*
X92882980Y-113666495D02*
X91882980Y-113666495D01*
X91882980Y-113428400D01*
X91930600Y-113285542D01*
X92025838Y-113190304D01*
X92121076Y-113142685D01*
X92311552Y-113095066D01*
X92454409Y-113095066D01*
X92644885Y-113142685D01*
X92740123Y-113190304D01*
X92835361Y-113285542D01*
X92882980Y-113428400D01*
X92882980Y-113666495D01*
X92216314Y-112237923D02*
X92882980Y-112237923D01*
X91835361Y-112476019D02*
X92549647Y-112714114D01*
X92549647Y-112095066D01*
X129385961Y-82616514D02*
X129433580Y-82473657D01*
X129433580Y-82235561D01*
X129385961Y-82140323D01*
X129338342Y-82092704D01*
X129243104Y-82045085D01*
X129147866Y-82045085D01*
X129052628Y-82092704D01*
X129005009Y-82140323D01*
X128957390Y-82235561D01*
X128909771Y-82426038D01*
X128862152Y-82521276D01*
X128814533Y-82568895D01*
X128719295Y-82616514D01*
X128624057Y-82616514D01*
X128528819Y-82568895D01*
X128481200Y-82521276D01*
X128433580Y-82426038D01*
X128433580Y-82187942D01*
X128481200Y-82045085D01*
X129338342Y-81045085D02*
X129385961Y-81092704D01*
X129433580Y-81235561D01*
X129433580Y-81330800D01*
X129385961Y-81473657D01*
X129290723Y-81568895D01*
X129195485Y-81616514D01*
X129005009Y-81664133D01*
X128862152Y-81664133D01*
X128671676Y-81616514D01*
X128576438Y-81568895D01*
X128481200Y-81473657D01*
X128433580Y-81330800D01*
X128433580Y-81235561D01*
X128481200Y-81092704D01*
X128528819Y-81045085D01*
X129433580Y-80616514D02*
X128433580Y-80616514D01*
X129433580Y-80045085D02*
X128862152Y-80473657D01*
X128433580Y-80045085D02*
X129005009Y-80616514D01*
X113222780Y-100196276D02*
X113127542Y-100148657D01*
X112937066Y-100148657D01*
X112841828Y-100196276D01*
X112746590Y-100291514D01*
X112698971Y-100386752D01*
X112698971Y-100577228D01*
X112746590Y-100672466D01*
X112841828Y-100767704D01*
X112937066Y-100815323D01*
X113127542Y-100815323D01*
X113222780Y-100767704D01*
X113032304Y-99815323D02*
X112794209Y-99862942D01*
X112556114Y-100005800D01*
X112413257Y-100243895D01*
X112365638Y-100481990D01*
X112413257Y-100720085D01*
X112556114Y-100958180D01*
X112794209Y-101101038D01*
X113032304Y-101148657D01*
X113270400Y-101101038D01*
X113508495Y-100958180D01*
X113651352Y-100720085D01*
X113698971Y-100481990D01*
X113651352Y-100243895D01*
X113508495Y-100005800D01*
X113270400Y-99862942D01*
X113032304Y-99815323D01*
X114079923Y-100672466D02*
X114556114Y-100672466D01*
X113984685Y-100958180D02*
X114318019Y-99958180D01*
X114651352Y-100958180D01*
X114984685Y-100958180D02*
X114984685Y-99958180D01*
X115079923Y-100577228D02*
X115365638Y-100958180D01*
X115365638Y-100291514D02*
X114984685Y-100672466D01*
X116175161Y-100910561D02*
X116079923Y-100958180D01*
X115889447Y-100958180D01*
X115794209Y-100910561D01*
X115746590Y-100815323D01*
X115746590Y-100434371D01*
X115794209Y-100339133D01*
X115889447Y-100291514D01*
X116079923Y-100291514D01*
X116175161Y-100339133D01*
X116222780Y-100434371D01*
X116222780Y-100529609D01*
X115746590Y-100624847D01*
X116651352Y-100958180D02*
X116651352Y-100291514D01*
X116651352Y-100481990D02*
X116698971Y-100386752D01*
X116746590Y-100339133D01*
X116841828Y-100291514D01*
X116937066Y-100291514D01*
X117698971Y-100958180D02*
X117698971Y-100434371D01*
X117651352Y-100339133D01*
X117556114Y-100291514D01*
X117365638Y-100291514D01*
X117270400Y-100339133D01*
X117698971Y-100910561D02*
X117603733Y-100958180D01*
X117365638Y-100958180D01*
X117270400Y-100910561D01*
X117222780Y-100815323D01*
X117222780Y-100720085D01*
X117270400Y-100624847D01*
X117365638Y-100577228D01*
X117603733Y-100577228D01*
X117698971Y-100529609D01*
X118127542Y-100910561D02*
X118222780Y-100958180D01*
X118413257Y-100958180D01*
X118508495Y-100910561D01*
X118556114Y-100815323D01*
X118556114Y-100767704D01*
X118508495Y-100672466D01*
X118413257Y-100624847D01*
X118270400Y-100624847D01*
X118175161Y-100577228D01*
X118127542Y-100481990D01*
X118127542Y-100434371D01*
X118175161Y-100339133D01*
X118270400Y-100291514D01*
X118413257Y-100291514D01*
X118508495Y-100339133D01*
X119127542Y-100958180D02*
X119032304Y-100910561D01*
X118984685Y-100862942D01*
X118937066Y-100767704D01*
X118937066Y-100481990D01*
X118984685Y-100386752D01*
X119032304Y-100339133D01*
X119127542Y-100291514D01*
X119270400Y-100291514D01*
X119365638Y-100339133D01*
X119413257Y-100386752D01*
X119460876Y-100481990D01*
X119460876Y-100767704D01*
X119413257Y-100862942D01*
X119365638Y-100910561D01*
X119270400Y-100958180D01*
X119127542Y-100958180D01*
X119746590Y-100291514D02*
X120127542Y-100291514D01*
X119889447Y-100958180D02*
X119889447Y-100101038D01*
X119937066Y-100005800D01*
X120032304Y-99958180D01*
X120127542Y-99958180D01*
X120318019Y-100291514D02*
X120698971Y-100291514D01*
X120460876Y-99958180D02*
X120460876Y-100815323D01*
X120508495Y-100910561D01*
X120603733Y-100958180D01*
X120698971Y-100958180D01*
X121746590Y-100053419D02*
X121794209Y-100005800D01*
X121889447Y-99958180D01*
X122127542Y-99958180D01*
X122222780Y-100005800D01*
X122270400Y-100053419D01*
X122318019Y-100148657D01*
X122318019Y-100243895D01*
X122270400Y-100386752D01*
X121698971Y-100958180D01*
X122318019Y-100958180D01*
X122937066Y-99958180D02*
X123032304Y-99958180D01*
X123127542Y-100005800D01*
X123175161Y-100053419D01*
X123222780Y-100148657D01*
X123270400Y-100339133D01*
X123270400Y-100577228D01*
X123222780Y-100767704D01*
X123175161Y-100862942D01*
X123127542Y-100910561D01*
X123032304Y-100958180D01*
X122937066Y-100958180D01*
X122841828Y-100910561D01*
X122794209Y-100862942D01*
X122746590Y-100767704D01*
X122698971Y-100577228D01*
X122698971Y-100339133D01*
X122746590Y-100148657D01*
X122794209Y-100053419D01*
X122841828Y-100005800D01*
X122937066Y-99958180D01*
X123651352Y-100053419D02*
X123698971Y-100005800D01*
X123794209Y-99958180D01*
X124032304Y-99958180D01*
X124127542Y-100005800D01*
X124175161Y-100053419D01*
X124222780Y-100148657D01*
X124222780Y-100243895D01*
X124175161Y-100386752D01*
X123603733Y-100958180D01*
X124222780Y-100958180D01*
X124603733Y-100053419D02*
X124651352Y-100005800D01*
X124746590Y-99958180D01*
X124984685Y-99958180D01*
X125079923Y-100005800D01*
X125127542Y-100053419D01*
X125175161Y-100148657D01*
X125175161Y-100243895D01*
X125127542Y-100386752D01*
X124556114Y-100958180D01*
X125175161Y-100958180D01*
X109556114Y-102282466D02*
X110032304Y-102282466D01*
X109460876Y-102568180D02*
X109794209Y-101568180D01*
X110127542Y-102568180D01*
X110413257Y-102520561D02*
X110556114Y-102568180D01*
X110794209Y-102568180D01*
X110889447Y-102520561D01*
X110937066Y-102472942D01*
X110984685Y-102377704D01*
X110984685Y-102282466D01*
X110937066Y-102187228D01*
X110889447Y-102139609D01*
X110794209Y-102091990D01*
X110603733Y-102044371D01*
X110508495Y-101996752D01*
X110460876Y-101949133D01*
X110413257Y-101853895D01*
X110413257Y-101758657D01*
X110460876Y-101663419D01*
X110508495Y-101615800D01*
X110603733Y-101568180D01*
X110841828Y-101568180D01*
X110984685Y-101615800D01*
X111413257Y-102187228D02*
X112175161Y-102187228D01*
X112651352Y-102568180D02*
X112651352Y-101568180D01*
X112984685Y-102282466D01*
X113318019Y-101568180D01*
X113318019Y-102568180D01*
X113794209Y-101568180D02*
X113794209Y-102377704D01*
X113841828Y-102472942D01*
X113889447Y-102520561D01*
X113984685Y-102568180D01*
X114175161Y-102568180D01*
X114270400Y-102520561D01*
X114318019Y-102472942D01*
X114365638Y-102377704D01*
X114365638Y-101568180D01*
X115318019Y-102568180D02*
X114841828Y-102568180D01*
X114841828Y-101568180D01*
X115508495Y-101568180D02*
X116079923Y-101568180D01*
X115794209Y-102568180D02*
X115794209Y-101568180D01*
X116413257Y-102568180D02*
X116413257Y-101568180D01*
X116889447Y-102187228D02*
X117651352Y-102187228D01*
X118127542Y-101568180D02*
X118127542Y-102377704D01*
X118175161Y-102472942D01*
X118222780Y-102520561D01*
X118318019Y-102568180D01*
X118508495Y-102568180D01*
X118603733Y-102520561D01*
X118651352Y-102472942D01*
X118698971Y-102377704D01*
X118698971Y-101568180D01*
X119175161Y-102568180D02*
X119175161Y-101568180D01*
X119746590Y-102568180D01*
X119746590Y-101568180D01*
X120413257Y-101568180D02*
X120603733Y-101568180D01*
X120698971Y-101615800D01*
X120794209Y-101711038D01*
X120841828Y-101901514D01*
X120841828Y-102234847D01*
X120794209Y-102425323D01*
X120698971Y-102520561D01*
X120603733Y-102568180D01*
X120413257Y-102568180D01*
X120318019Y-102520561D01*
X120222780Y-102425323D01*
X120175161Y-102234847D01*
X120175161Y-101901514D01*
X120222780Y-101711038D01*
X120318019Y-101615800D01*
X120413257Y-101568180D01*
X121270400Y-102187228D02*
X122032304Y-102187228D01*
X122698971Y-101568180D02*
X122794209Y-101568180D01*
X122889447Y-101615800D01*
X122937066Y-101663419D01*
X122984685Y-101758657D01*
X123032304Y-101949133D01*
X123032304Y-102187228D01*
X122984685Y-102377704D01*
X122937066Y-102472942D01*
X122889447Y-102520561D01*
X122794209Y-102568180D01*
X122698971Y-102568180D01*
X122603733Y-102520561D01*
X122556114Y-102472942D01*
X122508495Y-102377704D01*
X122460876Y-102187228D01*
X122460876Y-101949133D01*
X122508495Y-101758657D01*
X122556114Y-101663419D01*
X122603733Y-101615800D01*
X122698971Y-101568180D01*
X123984685Y-102568180D02*
X123413257Y-102568180D01*
X123698971Y-102568180D02*
X123698971Y-101568180D01*
X123603733Y-101711038D01*
X123508495Y-101806276D01*
X123413257Y-101853895D01*
X125032304Y-101568180D02*
X125365638Y-102568180D01*
X125698971Y-101568180D01*
X126556114Y-102568180D02*
X125984685Y-102568180D01*
X126270399Y-102568180D02*
X126270399Y-101568180D01*
X126175161Y-101711038D01*
X126079923Y-101806276D01*
X125984685Y-101853895D01*
X126984685Y-102472942D02*
X127032304Y-102520561D01*
X126984685Y-102568180D01*
X126937066Y-102520561D01*
X126984685Y-102472942D01*
X126984685Y-102568180D01*
X127413257Y-101663419D02*
X127460876Y-101615800D01*
X127556114Y-101568180D01*
X127794209Y-101568180D01*
X127889447Y-101615800D01*
X127937066Y-101663419D01*
X127984685Y-101758657D01*
X127984685Y-101853895D01*
X127937066Y-101996752D01*
X127365638Y-102568180D01*
X127984685Y-102568180D01*
X113841828Y-103178180D02*
X114032304Y-103178180D01*
X114127542Y-103225800D01*
X114222780Y-103321038D01*
X114270400Y-103511514D01*
X114270400Y-103844847D01*
X114222780Y-104035323D01*
X114127542Y-104130561D01*
X114032304Y-104178180D01*
X113841828Y-104178180D01*
X113746590Y-104130561D01*
X113651352Y-104035323D01*
X113603733Y-103844847D01*
X113603733Y-103511514D01*
X113651352Y-103321038D01*
X113746590Y-103225800D01*
X113841828Y-103178180D01*
X114698971Y-104178180D02*
X114698971Y-103178180D01*
X115079923Y-103178180D01*
X115175161Y-103225800D01*
X115222780Y-103273419D01*
X115270400Y-103368657D01*
X115270400Y-103511514D01*
X115222780Y-103606752D01*
X115175161Y-103654371D01*
X115079923Y-103701990D01*
X114698971Y-103701990D01*
X115698971Y-103654371D02*
X116032304Y-103654371D01*
X116175161Y-104178180D02*
X115698971Y-104178180D01*
X115698971Y-103178180D01*
X116175161Y-103178180D01*
X116603733Y-104178180D02*
X116603733Y-103178180D01*
X117175161Y-104178180D01*
X117175161Y-103178180D01*
X118365638Y-104130561D02*
X118508495Y-104178180D01*
X118746590Y-104178180D01*
X118841828Y-104130561D01*
X118889447Y-104082942D01*
X118937066Y-103987704D01*
X118937066Y-103892466D01*
X118889447Y-103797228D01*
X118841828Y-103749609D01*
X118746590Y-103701990D01*
X118556114Y-103654371D01*
X118460876Y-103606752D01*
X118413257Y-103559133D01*
X118365638Y-103463895D01*
X118365638Y-103368657D01*
X118413257Y-103273419D01*
X118460876Y-103225800D01*
X118556114Y-103178180D01*
X118794209Y-103178180D01*
X118937066Y-103225800D01*
X119556114Y-103178180D02*
X119746590Y-103178180D01*
X119841828Y-103225800D01*
X119937066Y-103321038D01*
X119984685Y-103511514D01*
X119984685Y-103844847D01*
X119937066Y-104035323D01*
X119841828Y-104130561D01*
X119746590Y-104178180D01*
X119556114Y-104178180D01*
X119460876Y-104130561D01*
X119365638Y-104035323D01*
X119318019Y-103844847D01*
X119318019Y-103511514D01*
X119365638Y-103321038D01*
X119460876Y-103225800D01*
X119556114Y-103178180D01*
X120413257Y-103178180D02*
X120413257Y-103987704D01*
X120460876Y-104082942D01*
X120508495Y-104130561D01*
X120603733Y-104178180D01*
X120794209Y-104178180D01*
X120889447Y-104130561D01*
X120937066Y-104082942D01*
X120984685Y-103987704D01*
X120984685Y-103178180D01*
X122032304Y-104178180D02*
X121698971Y-103701990D01*
X121460876Y-104178180D02*
X121460876Y-103178180D01*
X121841828Y-103178180D01*
X121937066Y-103225800D01*
X121984685Y-103273419D01*
X122032304Y-103368657D01*
X122032304Y-103511514D01*
X121984685Y-103606752D01*
X121937066Y-103654371D01*
X121841828Y-103701990D01*
X121460876Y-103701990D01*
X123032304Y-104082942D02*
X122984685Y-104130561D01*
X122841828Y-104178180D01*
X122746590Y-104178180D01*
X122603733Y-104130561D01*
X122508495Y-104035323D01*
X122460876Y-103940085D01*
X122413257Y-103749609D01*
X122413257Y-103606752D01*
X122460876Y-103416276D01*
X122508495Y-103321038D01*
X122603733Y-103225800D01*
X122746590Y-103178180D01*
X122841828Y-103178180D01*
X122984685Y-103225800D01*
X123032304Y-103273419D01*
X123460876Y-103654371D02*
X123794209Y-103654371D01*
X123937066Y-104178180D02*
X123460876Y-104178180D01*
X123460876Y-103178180D01*
X123937066Y-103178180D01*
X109603733Y-105788180D02*
X109603733Y-104788180D01*
X110175161Y-105788180D01*
X110175161Y-104788180D01*
X110841828Y-104788180D02*
X111032304Y-104788180D01*
X111127542Y-104835800D01*
X111222780Y-104931038D01*
X111270400Y-105121514D01*
X111270400Y-105454847D01*
X111222780Y-105645323D01*
X111127542Y-105740561D01*
X111032304Y-105788180D01*
X110841828Y-105788180D01*
X110746590Y-105740561D01*
X110651352Y-105645323D01*
X110603733Y-105454847D01*
X110603733Y-105121514D01*
X110651352Y-104931038D01*
X110746590Y-104835800D01*
X110841828Y-104788180D01*
X112318019Y-104788180D02*
X112651352Y-105788180D01*
X112984685Y-104788180D01*
X113508495Y-104788180D02*
X113698971Y-104788180D01*
X113794209Y-104835800D01*
X113889447Y-104931038D01*
X113937066Y-105121514D01*
X113937066Y-105454847D01*
X113889447Y-105645323D01*
X113794209Y-105740561D01*
X113698971Y-105788180D01*
X113508495Y-105788180D01*
X113413257Y-105740561D01*
X113318019Y-105645323D01*
X113270400Y-105454847D01*
X113270400Y-105121514D01*
X113318019Y-104931038D01*
X113413257Y-104835800D01*
X113508495Y-104788180D01*
X114841828Y-105788180D02*
X114365638Y-105788180D01*
X114365638Y-104788180D01*
X115032304Y-104788180D02*
X115603733Y-104788180D01*
X115318019Y-105788180D02*
X115318019Y-104788180D01*
X115889447Y-105502466D02*
X116365638Y-105502466D01*
X115794209Y-105788180D02*
X116127542Y-104788180D01*
X116460876Y-105788180D01*
X117318019Y-104835800D02*
X117222780Y-104788180D01*
X117079923Y-104788180D01*
X116937066Y-104835800D01*
X116841828Y-104931038D01*
X116794209Y-105026276D01*
X116746590Y-105216752D01*
X116746590Y-105359609D01*
X116794209Y-105550085D01*
X116841828Y-105645323D01*
X116937066Y-105740561D01*
X117079923Y-105788180D01*
X117175161Y-105788180D01*
X117318019Y-105740561D01*
X117365638Y-105692942D01*
X117365638Y-105359609D01*
X117175161Y-105359609D01*
X117794209Y-105264371D02*
X118127542Y-105264371D01*
X118270400Y-105788180D02*
X117794209Y-105788180D01*
X117794209Y-104788180D01*
X118270400Y-104788180D01*
X120032304Y-105788180D02*
X119698971Y-105311990D01*
X119460876Y-105788180D02*
X119460876Y-104788180D01*
X119841828Y-104788180D01*
X119937066Y-104835800D01*
X119984685Y-104883419D01*
X120032304Y-104978657D01*
X120032304Y-105121514D01*
X119984685Y-105216752D01*
X119937066Y-105264371D01*
X119841828Y-105311990D01*
X119460876Y-105311990D01*
X120460876Y-105264371D02*
X120794209Y-105264371D01*
X120937066Y-105788180D02*
X120460876Y-105788180D01*
X120460876Y-104788180D01*
X120937066Y-104788180D01*
X121889447Y-104835800D02*
X121794209Y-104788180D01*
X121651352Y-104788180D01*
X121508495Y-104835800D01*
X121413257Y-104931038D01*
X121365638Y-105026276D01*
X121318019Y-105216752D01*
X121318019Y-105359609D01*
X121365638Y-105550085D01*
X121413257Y-105645323D01*
X121508495Y-105740561D01*
X121651352Y-105788180D01*
X121746590Y-105788180D01*
X121889447Y-105740561D01*
X121937066Y-105692942D01*
X121937066Y-105359609D01*
X121746590Y-105359609D01*
X122365638Y-104788180D02*
X122365638Y-105597704D01*
X122413257Y-105692942D01*
X122460876Y-105740561D01*
X122556114Y-105788180D01*
X122746590Y-105788180D01*
X122841828Y-105740561D01*
X122889447Y-105692942D01*
X122937066Y-105597704D01*
X122937066Y-104788180D01*
X123889447Y-105788180D02*
X123413257Y-105788180D01*
X123413257Y-104788180D01*
X124175161Y-105502466D02*
X124651352Y-105502466D01*
X124079923Y-105788180D02*
X124413257Y-104788180D01*
X124746590Y-105788180D01*
X124937066Y-104788180D02*
X125508495Y-104788180D01*
X125222780Y-105788180D02*
X125222780Y-104788180D01*
X125841828Y-105788180D02*
X125841828Y-104788180D01*
X126508495Y-104788180D02*
X126698971Y-104788180D01*
X126794209Y-104835800D01*
X126889447Y-104931038D01*
X126937066Y-105121514D01*
X126937066Y-105454847D01*
X126889447Y-105645323D01*
X126794209Y-105740561D01*
X126698971Y-105788180D01*
X126508495Y-105788180D01*
X126413257Y-105740561D01*
X126318019Y-105645323D01*
X126270400Y-105454847D01*
X126270400Y-105121514D01*
X126318019Y-104931038D01*
X126413257Y-104835800D01*
X126508495Y-104788180D01*
X127365638Y-105788180D02*
X127365638Y-104788180D01*
X127937066Y-105788180D01*
X127937066Y-104788180D01*
X100452180Y-113717295D02*
X99452180Y-113717295D01*
X99452180Y-113479200D01*
X99499800Y-113336342D01*
X99595038Y-113241104D01*
X99690276Y-113193485D01*
X99880752Y-113145866D01*
X100023609Y-113145866D01*
X100214085Y-113193485D01*
X100309323Y-113241104D01*
X100404561Y-113336342D01*
X100452180Y-113479200D01*
X100452180Y-113717295D01*
X99452180Y-112812533D02*
X99452180Y-112145866D01*
X100452180Y-112574438D01*
X109662980Y-70776933D02*
X110662980Y-70443600D01*
X109662980Y-70110266D01*
X110567742Y-69205504D02*
X110615361Y-69253123D01*
X110662980Y-69395980D01*
X110662980Y-69491219D01*
X110615361Y-69634076D01*
X110520123Y-69729314D01*
X110424885Y-69776933D01*
X110234409Y-69824552D01*
X110091552Y-69824552D01*
X109901076Y-69776933D01*
X109805838Y-69729314D01*
X109710600Y-69634076D01*
X109662980Y-69491219D01*
X109662980Y-69395980D01*
X109710600Y-69253123D01*
X109758219Y-69205504D01*
X110567742Y-68205504D02*
X110615361Y-68253123D01*
X110662980Y-68395980D01*
X110662980Y-68491219D01*
X110615361Y-68634076D01*
X110520123Y-68729314D01*
X110424885Y-68776933D01*
X110234409Y-68824552D01*
X110091552Y-68824552D01*
X109901076Y-68776933D01*
X109805838Y-68729314D01*
X109710600Y-68634076D01*
X109662980Y-68491219D01*
X109662980Y-68395980D01*
X109710600Y-68253123D01*
X109758219Y-68205504D01*
X90082666Y-69980085D02*
X90082666Y-69503895D01*
X90368380Y-70075323D02*
X89368380Y-69741990D01*
X90368380Y-69408657D01*
X89463619Y-69122942D02*
X89416000Y-69075323D01*
X89368380Y-68980085D01*
X89368380Y-68741990D01*
X89416000Y-68646752D01*
X89463619Y-68599133D01*
X89558857Y-68551514D01*
X89654095Y-68551514D01*
X89796952Y-68599133D01*
X90368380Y-69170561D01*
X90368380Y-68551514D01*
X112212380Y-113634685D02*
X111212380Y-113634685D01*
X111212380Y-113396590D01*
X111260000Y-113253733D01*
X111355238Y-113158495D01*
X111450476Y-113110876D01*
X111640952Y-113063257D01*
X111783809Y-113063257D01*
X111974285Y-113110876D01*
X112069523Y-113158495D01*
X112164761Y-113253733D01*
X112212380Y-113396590D01*
X112212380Y-113634685D01*
X112212380Y-112110876D02*
X112212380Y-112682304D01*
X112212380Y-112396590D02*
X111212380Y-112396590D01*
X111355238Y-112491828D01*
X111450476Y-112587066D01*
X111498095Y-112682304D01*
X112212380Y-111158495D02*
X112212380Y-111729923D01*
X112212380Y-111444209D02*
X111212380Y-111444209D01*
X111355238Y-111539447D01*
X111450476Y-111634685D01*
X111498095Y-111729923D01*
X132024380Y-82622828D02*
X131024380Y-82622828D01*
X131738666Y-82289495D01*
X131024380Y-81956161D01*
X132024380Y-81956161D01*
X132024380Y-81479971D02*
X131024380Y-81479971D01*
X131976761Y-81051400D02*
X132024380Y-80908542D01*
X132024380Y-80670447D01*
X131976761Y-80575209D01*
X131929142Y-80527590D01*
X131833904Y-80479971D01*
X131738666Y-80479971D01*
X131643428Y-80527590D01*
X131595809Y-80575209D01*
X131548190Y-80670447D01*
X131500571Y-80860923D01*
X131452952Y-80956161D01*
X131405333Y-81003780D01*
X131310095Y-81051400D01*
X131214857Y-81051400D01*
X131119619Y-81003780D01*
X131072000Y-80956161D01*
X131024380Y-80860923D01*
X131024380Y-80622828D01*
X131072000Y-80479971D01*
X131024380Y-79860923D02*
X131024380Y-79670447D01*
X131072000Y-79575209D01*
X131167238Y-79479971D01*
X131357714Y-79432352D01*
X131691047Y-79432352D01*
X131881523Y-79479971D01*
X131976761Y-79575209D01*
X132024380Y-79670447D01*
X132024380Y-79860923D01*
X131976761Y-79956161D01*
X131881523Y-80051400D01*
X131691047Y-80099019D01*
X131357714Y-80099019D01*
X131167238Y-80051400D01*
X131072000Y-79956161D01*
X131024380Y-79860923D01*
X102116000Y-70332504D02*
X102068380Y-70427742D01*
X102068380Y-70570600D01*
X102116000Y-70713457D01*
X102211238Y-70808695D01*
X102306476Y-70856314D01*
X102496952Y-70903933D01*
X102639809Y-70903933D01*
X102830285Y-70856314D01*
X102925523Y-70808695D01*
X103020761Y-70713457D01*
X103068380Y-70570600D01*
X103068380Y-70475361D01*
X103020761Y-70332504D01*
X102973142Y-70284885D01*
X102639809Y-70284885D01*
X102639809Y-70475361D01*
X103068380Y-69856314D02*
X102068380Y-69856314D01*
X103068380Y-69284885D01*
X102068380Y-69284885D01*
X103068380Y-68808695D02*
X102068380Y-68808695D01*
X102068380Y-68570600D01*
X102116000Y-68427742D01*
X102211238Y-68332504D01*
X102306476Y-68284885D01*
X102496952Y-68237266D01*
X102639809Y-68237266D01*
X102830285Y-68284885D01*
X102925523Y-68332504D01*
X103020761Y-68427742D01*
X103068380Y-68570600D01*
X103068380Y-68808695D01*
X99502980Y-70878533D02*
X100502980Y-70545200D01*
X99502980Y-70211866D01*
X100407742Y-69307104D02*
X100455361Y-69354723D01*
X100502980Y-69497580D01*
X100502980Y-69592819D01*
X100455361Y-69735676D01*
X100360123Y-69830914D01*
X100264885Y-69878533D01*
X100074409Y-69926152D01*
X99931552Y-69926152D01*
X99741076Y-69878533D01*
X99645838Y-69830914D01*
X99550600Y-69735676D01*
X99502980Y-69592819D01*
X99502980Y-69497580D01*
X99550600Y-69354723D01*
X99598219Y-69307104D01*
X100407742Y-68307104D02*
X100455361Y-68354723D01*
X100502980Y-68497580D01*
X100502980Y-68592819D01*
X100455361Y-68735676D01*
X100360123Y-68830914D01*
X100264885Y-68878533D01*
X100074409Y-68926152D01*
X99931552Y-68926152D01*
X99741076Y-68878533D01*
X99645838Y-68830914D01*
X99550600Y-68735676D01*
X99502980Y-68592819D01*
X99502980Y-68497580D01*
X99550600Y-68354723D01*
X99598219Y-68307104D01*
X97912180Y-113691895D02*
X96912180Y-113691895D01*
X96912180Y-113453800D01*
X96959800Y-113310942D01*
X97055038Y-113215704D01*
X97150276Y-113168085D01*
X97340752Y-113120466D01*
X97483609Y-113120466D01*
X97674085Y-113168085D01*
X97769323Y-113215704D01*
X97864561Y-113310942D01*
X97912180Y-113453800D01*
X97912180Y-113691895D01*
X96912180Y-112263323D02*
X96912180Y-112453800D01*
X96959800Y-112549038D01*
X97007419Y-112596657D01*
X97150276Y-112691895D01*
X97340752Y-112739514D01*
X97721704Y-112739514D01*
X97816942Y-112691895D01*
X97864561Y-112644276D01*
X97912180Y-112549038D01*
X97912180Y-112358561D01*
X97864561Y-112263323D01*
X97816942Y-112215704D01*
X97721704Y-112168085D01*
X97483609Y-112168085D01*
X97388371Y-112215704D01*
X97340752Y-112263323D01*
X97293133Y-112358561D01*
X97293133Y-112549038D01*
X97340752Y-112644276D01*
X97388371Y-112691895D01*
X97483609Y-112739514D01*
X87879180Y-113590295D02*
X86879180Y-113590295D01*
X86879180Y-113352200D01*
X86926800Y-113209342D01*
X87022038Y-113114104D01*
X87117276Y-113066485D01*
X87307752Y-113018866D01*
X87450609Y-113018866D01*
X87641085Y-113066485D01*
X87736323Y-113114104D01*
X87831561Y-113209342D01*
X87879180Y-113352200D01*
X87879180Y-113590295D01*
X86974419Y-112637914D02*
X86926800Y-112590295D01*
X86879180Y-112495057D01*
X86879180Y-112256961D01*
X86926800Y-112161723D01*
X86974419Y-112114104D01*
X87069657Y-112066485D01*
X87164895Y-112066485D01*
X87307752Y-112114104D01*
X87879180Y-112685533D01*
X87879180Y-112066485D01*
X113228380Y-71708780D02*
X112752190Y-72042114D01*
X113228380Y-72280209D02*
X112228380Y-72280209D01*
X112228380Y-71899257D01*
X112276000Y-71804019D01*
X112323619Y-71756400D01*
X112418857Y-71708780D01*
X112561714Y-71708780D01*
X112656952Y-71756400D01*
X112704571Y-71804019D01*
X112752190Y-71899257D01*
X112752190Y-72280209D01*
X112704571Y-71280209D02*
X112704571Y-70946876D01*
X113228380Y-70804019D02*
X113228380Y-71280209D01*
X112228380Y-71280209D01*
X112228380Y-70804019D01*
X113180761Y-70423066D02*
X113228380Y-70280209D01*
X113228380Y-70042114D01*
X113180761Y-69946876D01*
X113133142Y-69899257D01*
X113037904Y-69851638D01*
X112942666Y-69851638D01*
X112847428Y-69899257D01*
X112799809Y-69946876D01*
X112752190Y-70042114D01*
X112704571Y-70232590D01*
X112656952Y-70327828D01*
X112609333Y-70375447D01*
X112514095Y-70423066D01*
X112418857Y-70423066D01*
X112323619Y-70375447D01*
X112276000Y-70327828D01*
X112228380Y-70232590D01*
X112228380Y-69994495D01*
X112276000Y-69851638D01*
X112704571Y-69423066D02*
X112704571Y-69089733D01*
X113228380Y-68946876D02*
X113228380Y-69423066D01*
X112228380Y-69423066D01*
X112228380Y-68946876D01*
X112228380Y-68661161D02*
X112228380Y-68089733D01*
X113228380Y-68375447D02*
X112228380Y-68375447D01*
X82411866Y-69980085D02*
X82411866Y-69503895D01*
X82697580Y-70075323D02*
X81697580Y-69741990D01*
X82697580Y-69408657D01*
X81697580Y-68599133D02*
X81697580Y-69075323D01*
X82173771Y-69122942D01*
X82126152Y-69075323D01*
X82078533Y-68980085D01*
X82078533Y-68741990D01*
X82126152Y-68646752D01*
X82173771Y-68599133D01*
X82269009Y-68551514D01*
X82507104Y-68551514D01*
X82602342Y-68599133D01*
X82649961Y-68646752D01*
X82697580Y-68741990D01*
X82697580Y-68980085D01*
X82649961Y-69075323D01*
X82602342Y-69122942D01*
X85288380Y-113523447D02*
X84288380Y-113523447D01*
X84288380Y-113285352D01*
X84336000Y-113142495D01*
X84431238Y-113047257D01*
X84526476Y-112999638D01*
X84716952Y-112952019D01*
X84859809Y-112952019D01*
X85050285Y-112999638D01*
X85145523Y-113047257D01*
X85240761Y-113142495D01*
X85288380Y-113285352D01*
X85288380Y-113523447D01*
X85288380Y-111999638D02*
X85288380Y-112571066D01*
X85288380Y-112285352D02*
X84288380Y-112285352D01*
X84431238Y-112380590D01*
X84526476Y-112475828D01*
X84574095Y-112571066D01*
X84240761Y-110856780D02*
X85526476Y-111713923D01*
X84288380Y-110666304D02*
X84288380Y-110094876D01*
X85288380Y-110380590D02*
X84288380Y-110380590D01*
X84288380Y-109856780D02*
X85288380Y-109190114D01*
X84288380Y-109190114D02*
X85288380Y-109856780D01*
X118308380Y-69848314D02*
X117308380Y-69848314D01*
X118308380Y-69276885D01*
X117308380Y-69276885D01*
X118213142Y-68229266D02*
X118260761Y-68276885D01*
X118308380Y-68419742D01*
X118308380Y-68514980D01*
X118260761Y-68657838D01*
X118165523Y-68753076D01*
X118070285Y-68800695D01*
X117879809Y-68848314D01*
X117736952Y-68848314D01*
X117546476Y-68800695D01*
X117451238Y-68753076D01*
X117356000Y-68657838D01*
X117308380Y-68514980D01*
X117308380Y-68419742D01*
X117356000Y-68276885D01*
X117403619Y-68229266D01*
X87517266Y-70005485D02*
X87517266Y-69529295D01*
X87802980Y-70100723D02*
X86802980Y-69767390D01*
X87802980Y-69434057D01*
X86802980Y-69195961D02*
X86802980Y-68576914D01*
X87183933Y-68910247D01*
X87183933Y-68767390D01*
X87231552Y-68672152D01*
X87279171Y-68624533D01*
X87374409Y-68576914D01*
X87612504Y-68576914D01*
X87707742Y-68624533D01*
X87755361Y-68672152D01*
X87802980Y-68767390D01*
X87802980Y-69053104D01*
X87755361Y-69148342D01*
X87707742Y-69195961D01*
X118854600Y-113131504D02*
X118806980Y-113226742D01*
X118806980Y-113369600D01*
X118854600Y-113512457D01*
X118949838Y-113607695D01*
X119045076Y-113655314D01*
X119235552Y-113702933D01*
X119378409Y-113702933D01*
X119568885Y-113655314D01*
X119664123Y-113607695D01*
X119759361Y-113512457D01*
X119806980Y-113369600D01*
X119806980Y-113274361D01*
X119759361Y-113131504D01*
X119711742Y-113083885D01*
X119378409Y-113083885D01*
X119378409Y-113274361D01*
X119806980Y-112655314D02*
X118806980Y-112655314D01*
X119806980Y-112083885D01*
X118806980Y-112083885D01*
X119806980Y-111607695D02*
X118806980Y-111607695D01*
X118806980Y-111369600D01*
X118854600Y-111226742D01*
X118949838Y-111131504D01*
X119045076Y-111083885D01*
X119235552Y-111036266D01*
X119378409Y-111036266D01*
X119568885Y-111083885D01*
X119664123Y-111131504D01*
X119759361Y-111226742D01*
X119806980Y-111369600D01*
X119806980Y-111607695D01*
D11*
X124351171Y-88066285D02*
X122851171Y-88066285D01*
X124208314Y-86494857D02*
X124279742Y-86566285D01*
X124351171Y-86780571D01*
X124351171Y-86923428D01*
X124279742Y-87137714D01*
X124136885Y-87280571D01*
X123994028Y-87352000D01*
X123708314Y-87423428D01*
X123494028Y-87423428D01*
X123208314Y-87352000D01*
X123065457Y-87280571D01*
X122922600Y-87137714D01*
X122851171Y-86923428D01*
X122851171Y-86780571D01*
X122922600Y-86566285D01*
X122994028Y-86494857D01*
X124279742Y-85923428D02*
X124351171Y-85709142D01*
X124351171Y-85352000D01*
X124279742Y-85209142D01*
X124208314Y-85137714D01*
X124065457Y-85066285D01*
X123922600Y-85066285D01*
X123779742Y-85137714D01*
X123708314Y-85209142D01*
X123636885Y-85352000D01*
X123565457Y-85637714D01*
X123494028Y-85780571D01*
X123422600Y-85852000D01*
X123279742Y-85923428D01*
X123136885Y-85923428D01*
X122994028Y-85852000D01*
X122922600Y-85780571D01*
X122851171Y-85637714D01*
X122851171Y-85280571D01*
X122922600Y-85066285D01*
X124351171Y-84423428D02*
X122851171Y-84423428D01*
X122851171Y-83852000D01*
X122922600Y-83709142D01*
X122994028Y-83637714D01*
X123136885Y-83566285D01*
X123351171Y-83566285D01*
X123494028Y-83637714D01*
X123565457Y-83709142D01*
X123636885Y-83852000D01*
X123636885Y-84423428D01*
D10*
X126017400Y-91516104D02*
X125969780Y-91611342D01*
X125969780Y-91754200D01*
X126017400Y-91897057D01*
X126112638Y-91992295D01*
X126207876Y-92039914D01*
X126398352Y-92087533D01*
X126541209Y-92087533D01*
X126731685Y-92039914D01*
X126826923Y-91992295D01*
X126922161Y-91897057D01*
X126969780Y-91754200D01*
X126969780Y-91658961D01*
X126922161Y-91516104D01*
X126874542Y-91468485D01*
X126541209Y-91468485D01*
X126541209Y-91658961D01*
X126969780Y-91039914D02*
X125969780Y-91039914D01*
X126969780Y-90468485D01*
X125969780Y-90468485D01*
X126969780Y-89992295D02*
X125969780Y-89992295D01*
X125969780Y-89754200D01*
X126017400Y-89611342D01*
X126112638Y-89516104D01*
X126207876Y-89468485D01*
X126398352Y-89420866D01*
X126541209Y-89420866D01*
X126731685Y-89468485D01*
X126826923Y-89516104D01*
X126922161Y-89611342D01*
X126969780Y-89754200D01*
X126969780Y-89992295D01*
X129509780Y-92554228D02*
X128509780Y-92554228D01*
X129224066Y-92220895D01*
X128509780Y-91887561D01*
X129509780Y-91887561D01*
X128509780Y-91220895D02*
X128509780Y-91030419D01*
X128557400Y-90935180D01*
X128652638Y-90839942D01*
X128843114Y-90792323D01*
X129176447Y-90792323D01*
X129366923Y-90839942D01*
X129462161Y-90935180D01*
X129509780Y-91030419D01*
X129509780Y-91220895D01*
X129462161Y-91316133D01*
X129366923Y-91411371D01*
X129176447Y-91458990D01*
X128843114Y-91458990D01*
X128652638Y-91411371D01*
X128557400Y-91316133D01*
X128509780Y-91220895D01*
X129462161Y-90411371D02*
X129509780Y-90268514D01*
X129509780Y-90030419D01*
X129462161Y-89935180D01*
X129414542Y-89887561D01*
X129319304Y-89839942D01*
X129224066Y-89839942D01*
X129128828Y-89887561D01*
X129081209Y-89935180D01*
X129033590Y-90030419D01*
X128985971Y-90220895D01*
X128938352Y-90316133D01*
X128890733Y-90363752D01*
X128795495Y-90411371D01*
X128700257Y-90411371D01*
X128605019Y-90363752D01*
X128557400Y-90316133D01*
X128509780Y-90220895D01*
X128509780Y-89982800D01*
X128557400Y-89839942D01*
X129509780Y-89411371D02*
X128509780Y-89411371D01*
X82672180Y-113540895D02*
X81672180Y-113540895D01*
X81672180Y-113302800D01*
X81719800Y-113159942D01*
X81815038Y-113064704D01*
X81910276Y-113017085D01*
X82100752Y-112969466D01*
X82243609Y-112969466D01*
X82434085Y-113017085D01*
X82529323Y-113064704D01*
X82624561Y-113159942D01*
X82672180Y-113302800D01*
X82672180Y-113540895D01*
X81672180Y-112350419D02*
X81672180Y-112255180D01*
X81719800Y-112159942D01*
X81767419Y-112112323D01*
X81862657Y-112064704D01*
X82053133Y-112017085D01*
X82291228Y-112017085D01*
X82481704Y-112064704D01*
X82576942Y-112112323D01*
X82624561Y-112159942D01*
X82672180Y-112255180D01*
X82672180Y-112350419D01*
X82624561Y-112445657D01*
X82576942Y-112493276D01*
X82481704Y-112540895D01*
X82291228Y-112588514D01*
X82053133Y-112588514D01*
X81862657Y-112540895D01*
X81767419Y-112493276D01*
X81719800Y-112445657D01*
X81672180Y-112350419D01*
X81624561Y-110874228D02*
X82910276Y-111731371D01*
X82672180Y-109969466D02*
X82195990Y-110302800D01*
X82672180Y-110540895D02*
X81672180Y-110540895D01*
X81672180Y-110159942D01*
X81719800Y-110064704D01*
X81767419Y-110017085D01*
X81862657Y-109969466D01*
X82005514Y-109969466D01*
X82100752Y-110017085D01*
X82148371Y-110064704D01*
X82195990Y-110159942D01*
X82195990Y-110540895D01*
X81672180Y-109636133D02*
X82672180Y-108969466D01*
X81672180Y-108969466D02*
X82672180Y-109636133D01*
X131024380Y-92087533D02*
X132024380Y-91754200D01*
X131024380Y-91420866D01*
X131929142Y-90516104D02*
X131976761Y-90563723D01*
X132024380Y-90706580D01*
X132024380Y-90801819D01*
X131976761Y-90944676D01*
X131881523Y-91039914D01*
X131786285Y-91087533D01*
X131595809Y-91135152D01*
X131452952Y-91135152D01*
X131262476Y-91087533D01*
X131167238Y-91039914D01*
X131072000Y-90944676D01*
X131024380Y-90801819D01*
X131024380Y-90706580D01*
X131072000Y-90563723D01*
X131119619Y-90516104D01*
X131929142Y-89516104D02*
X131976761Y-89563723D01*
X132024380Y-89706580D01*
X132024380Y-89801819D01*
X131976761Y-89944676D01*
X131881523Y-90039914D01*
X131786285Y-90087533D01*
X131595809Y-90135152D01*
X131452952Y-90135152D01*
X131262476Y-90087533D01*
X131167238Y-90039914D01*
X131072000Y-89944676D01*
X131024380Y-89801819D01*
X131024380Y-89706580D01*
X131072000Y-89563723D01*
X131119619Y-89516104D01*
X95162666Y-69980085D02*
X95162666Y-69503895D01*
X95448380Y-70075323D02*
X94448380Y-69741990D01*
X95448380Y-69408657D01*
X94448380Y-68884847D02*
X94448380Y-68789609D01*
X94496000Y-68694371D01*
X94543619Y-68646752D01*
X94638857Y-68599133D01*
X94829333Y-68551514D01*
X95067428Y-68551514D01*
X95257904Y-68599133D01*
X95353142Y-68646752D01*
X95400761Y-68694371D01*
X95448380Y-68789609D01*
X95448380Y-68884847D01*
X95400761Y-68980085D01*
X95353142Y-69027704D01*
X95257904Y-69075323D01*
X95067428Y-69122942D01*
X94829333Y-69122942D01*
X94638857Y-69075323D01*
X94543619Y-69027704D01*
X94496000Y-68980085D01*
X94448380Y-68884847D01*
X95397580Y-113666495D02*
X94397580Y-113666495D01*
X94397580Y-113428400D01*
X94445200Y-113285542D01*
X94540438Y-113190304D01*
X94635676Y-113142685D01*
X94826152Y-113095066D01*
X94969009Y-113095066D01*
X95159485Y-113142685D01*
X95254723Y-113190304D01*
X95349961Y-113285542D01*
X95397580Y-113428400D01*
X95397580Y-113666495D01*
X94397580Y-112190304D02*
X94397580Y-112666495D01*
X94873771Y-112714114D01*
X94826152Y-112666495D01*
X94778533Y-112571257D01*
X94778533Y-112333161D01*
X94826152Y-112237923D01*
X94873771Y-112190304D01*
X94969009Y-112142685D01*
X95207104Y-112142685D01*
X95302342Y-112190304D01*
X95349961Y-112237923D01*
X95397580Y-112333161D01*
X95397580Y-112571257D01*
X95349961Y-112666495D01*
X95302342Y-112714114D01*
%TO.C,SW1*%
X132499266Y-113841161D02*
X132642123Y-113888780D01*
X132880219Y-113888780D01*
X132975457Y-113841161D01*
X133023076Y-113793542D01*
X133070695Y-113698304D01*
X133070695Y-113603066D01*
X133023076Y-113507828D01*
X132975457Y-113460209D01*
X132880219Y-113412590D01*
X132689742Y-113364971D01*
X132594504Y-113317352D01*
X132546885Y-113269733D01*
X132499266Y-113174495D01*
X132499266Y-113079257D01*
X132546885Y-112984019D01*
X132594504Y-112936400D01*
X132689742Y-112888780D01*
X132927838Y-112888780D01*
X133070695Y-112936400D01*
X133404028Y-112888780D02*
X133642123Y-113888780D01*
X133832600Y-113174495D01*
X134023076Y-113888780D01*
X134261171Y-112888780D01*
X135165933Y-113888780D02*
X134594504Y-113888780D01*
X134880219Y-113888780D02*
X134880219Y-112888780D01*
X134784980Y-113031638D01*
X134689742Y-113126876D01*
X134594504Y-113174495D01*
%TO.C,J3*%
X137360066Y-91222580D02*
X137360066Y-91936866D01*
X137312447Y-92079723D01*
X137217209Y-92174961D01*
X137074352Y-92222580D01*
X136979114Y-92222580D01*
X137741019Y-91222580D02*
X138360066Y-91222580D01*
X138026733Y-91603533D01*
X138169590Y-91603533D01*
X138264828Y-91651152D01*
X138312447Y-91698771D01*
X138360066Y-91794009D01*
X138360066Y-92032104D01*
X138312447Y-92127342D01*
X138264828Y-92174961D01*
X138169590Y-92222580D01*
X137883876Y-92222580D01*
X137788638Y-92174961D01*
X137741019Y-92127342D01*
%TO.C,J2*%
X138198266Y-65974980D02*
X138198266Y-66689266D01*
X138150647Y-66832123D01*
X138055409Y-66927361D01*
X137912552Y-66974980D01*
X137817314Y-66974980D01*
X138626838Y-66070219D02*
X138674457Y-66022600D01*
X138769695Y-65974980D01*
X139007790Y-65974980D01*
X139103028Y-66022600D01*
X139150647Y-66070219D01*
X139198266Y-66165457D01*
X139198266Y-66260695D01*
X139150647Y-66403552D01*
X138579219Y-66974980D01*
X139198266Y-66974980D01*
%TO.C,C4*%
X94702333Y-94743542D02*
X94654714Y-94791161D01*
X94511857Y-94838780D01*
X94416619Y-94838780D01*
X94273761Y-94791161D01*
X94178523Y-94695923D01*
X94130904Y-94600685D01*
X94083285Y-94410209D01*
X94083285Y-94267352D01*
X94130904Y-94076876D01*
X94178523Y-93981638D01*
X94273761Y-93886400D01*
X94416619Y-93838780D01*
X94511857Y-93838780D01*
X94654714Y-93886400D01*
X94702333Y-93934019D01*
X95559476Y-94172114D02*
X95559476Y-94838780D01*
X95321380Y-93791161D02*
X95083285Y-94505447D01*
X95702333Y-94505447D01*
%TO.C,C2*%
X106030733Y-105233742D02*
X105983114Y-105281361D01*
X105840257Y-105328980D01*
X105745019Y-105328980D01*
X105602161Y-105281361D01*
X105506923Y-105186123D01*
X105459304Y-105090885D01*
X105411685Y-104900409D01*
X105411685Y-104757552D01*
X105459304Y-104567076D01*
X105506923Y-104471838D01*
X105602161Y-104376600D01*
X105745019Y-104328980D01*
X105840257Y-104328980D01*
X105983114Y-104376600D01*
X106030733Y-104424219D01*
X106411685Y-104424219D02*
X106459304Y-104376600D01*
X106554542Y-104328980D01*
X106792638Y-104328980D01*
X106887876Y-104376600D01*
X106935495Y-104424219D01*
X106983114Y-104519457D01*
X106983114Y-104614695D01*
X106935495Y-104757552D01*
X106364066Y-105328980D01*
X106983114Y-105328980D01*
%TO.C,C3*%
X100722133Y-78995542D02*
X100674514Y-79043161D01*
X100531657Y-79090780D01*
X100436419Y-79090780D01*
X100293561Y-79043161D01*
X100198323Y-78947923D01*
X100150704Y-78852685D01*
X100103085Y-78662209D01*
X100103085Y-78519352D01*
X100150704Y-78328876D01*
X100198323Y-78233638D01*
X100293561Y-78138400D01*
X100436419Y-78090780D01*
X100531657Y-78090780D01*
X100674514Y-78138400D01*
X100722133Y-78186019D01*
X101055466Y-78090780D02*
X101674514Y-78090780D01*
X101341180Y-78471733D01*
X101484038Y-78471733D01*
X101579276Y-78519352D01*
X101626895Y-78566971D01*
X101674514Y-78662209D01*
X101674514Y-78900304D01*
X101626895Y-78995542D01*
X101579276Y-79043161D01*
X101484038Y-79090780D01*
X101198323Y-79090780D01*
X101103085Y-79043161D01*
X101055466Y-78995542D01*
%TO.C,C5*%
X122972533Y-107428742D02*
X122924914Y-107476361D01*
X122782057Y-107523980D01*
X122686819Y-107523980D01*
X122543961Y-107476361D01*
X122448723Y-107381123D01*
X122401104Y-107285885D01*
X122353485Y-107095409D01*
X122353485Y-106952552D01*
X122401104Y-106762076D01*
X122448723Y-106666838D01*
X122543961Y-106571600D01*
X122686819Y-106523980D01*
X122782057Y-106523980D01*
X122924914Y-106571600D01*
X122972533Y-106619219D01*
X123877295Y-106523980D02*
X123401104Y-106523980D01*
X123353485Y-107000171D01*
X123401104Y-106952552D01*
X123496342Y-106904933D01*
X123734438Y-106904933D01*
X123829676Y-106952552D01*
X123877295Y-107000171D01*
X123924914Y-107095409D01*
X123924914Y-107333504D01*
X123877295Y-107428742D01*
X123829676Y-107476361D01*
X123734438Y-107523980D01*
X123496342Y-107523980D01*
X123401104Y-107476361D01*
X123353485Y-107428742D01*
%TO.C,U1*%
X79062780Y-88264904D02*
X79872304Y-88264904D01*
X79967542Y-88217285D01*
X80015161Y-88169666D01*
X80062780Y-88074428D01*
X80062780Y-87883952D01*
X80015161Y-87788714D01*
X79967542Y-87741095D01*
X79872304Y-87693476D01*
X79062780Y-87693476D01*
X80062780Y-86693476D02*
X80062780Y-87264904D01*
X80062780Y-86979190D02*
X79062780Y-86979190D01*
X79205638Y-87074428D01*
X79300876Y-87169666D01*
X79348495Y-87264904D01*
%TO.C,J1*%
X133313980Y-86459733D02*
X134028266Y-86459733D01*
X134171123Y-86507352D01*
X134266361Y-86602590D01*
X134313980Y-86745447D01*
X134313980Y-86840685D01*
X134313980Y-85459733D02*
X134313980Y-86031161D01*
X134313980Y-85745447D02*
X133313980Y-85745447D01*
X133456838Y-85840685D01*
X133552076Y-85935923D01*
X133599695Y-86031161D01*
%TO.C,R1*%
X116266933Y-77041180D02*
X115933600Y-76564990D01*
X115695504Y-77041180D02*
X115695504Y-76041180D01*
X116076457Y-76041180D01*
X116171695Y-76088800D01*
X116219314Y-76136419D01*
X116266933Y-76231657D01*
X116266933Y-76374514D01*
X116219314Y-76469752D01*
X116171695Y-76517371D01*
X116076457Y-76564990D01*
X115695504Y-76564990D01*
X117219314Y-77041180D02*
X116647885Y-77041180D01*
X116933600Y-77041180D02*
X116933600Y-76041180D01*
X116838361Y-76184038D01*
X116743123Y-76279276D01*
X116647885Y-76326895D01*
%TO.C,Y1*%
X103208209Y-94876190D02*
X103208209Y-95352380D01*
X102874876Y-94352380D02*
X103208209Y-94876190D01*
X103541542Y-94352380D01*
X104398685Y-95352380D02*
X103827257Y-95352380D01*
X104112971Y-95352380D02*
X104112971Y-94352380D01*
X104017733Y-94495238D01*
X103922495Y-94590476D01*
X103827257Y-94638095D01*
%TO.C,C1*%
X100010933Y-105182942D02*
X99963314Y-105230561D01*
X99820457Y-105278180D01*
X99725219Y-105278180D01*
X99582361Y-105230561D01*
X99487123Y-105135323D01*
X99439504Y-105040085D01*
X99391885Y-104849609D01*
X99391885Y-104706752D01*
X99439504Y-104516276D01*
X99487123Y-104421038D01*
X99582361Y-104325800D01*
X99725219Y-104278180D01*
X99820457Y-104278180D01*
X99963314Y-104325800D01*
X100010933Y-104373419D01*
X100963314Y-105278180D02*
X100391885Y-105278180D01*
X100677600Y-105278180D02*
X100677600Y-104278180D01*
X100582361Y-104421038D01*
X100487123Y-104516276D01*
X100391885Y-104563895D01*
D12*
%TO.C,SW1*%
X136581000Y-112686400D02*
X136581000Y-114186400D01*
X143581000Y-114186400D02*
X143581000Y-112686400D01*
X137831000Y-116686400D02*
X142331000Y-116686400D01*
X142331000Y-110186400D02*
X137831000Y-110186400D01*
%TO.C,J3*%
X135809129Y-97433400D02*
X136206200Y-97433400D01*
X138866200Y-101753400D02*
X144866200Y-101753400D01*
X144866200Y-99973400D02*
X138866200Y-99973400D01*
X136206200Y-93183400D02*
X136206200Y-108543400D01*
X135876200Y-94133400D02*
X136206200Y-94133400D01*
X144866200Y-94133400D02*
X144866200Y-94893400D01*
X135809129Y-99973400D02*
X136206200Y-99973400D01*
X138866200Y-94553400D02*
X144866200Y-94553400D01*
X135876200Y-94893400D02*
X136206200Y-94893400D01*
X144866200Y-101753400D02*
X144866200Y-102513400D01*
X135809129Y-106833400D02*
X136206200Y-106833400D01*
X135809129Y-102513400D02*
X136206200Y-102513400D01*
X135809129Y-104293400D02*
X136206200Y-104293400D01*
X138866200Y-94313400D02*
X144866200Y-94313400D01*
X144866200Y-94893400D02*
X138866200Y-94893400D01*
X144866200Y-97433400D02*
X138866200Y-97433400D01*
X144866200Y-96673400D02*
X144866200Y-97433400D01*
X133496200Y-93243400D02*
X134766200Y-93243400D01*
X144866200Y-102513400D02*
X138866200Y-102513400D01*
X136206200Y-95783400D02*
X138866200Y-95783400D01*
X136206200Y-108543400D02*
X138866200Y-108543400D01*
X138866200Y-94433400D02*
X144866200Y-94433400D01*
X138866200Y-99213400D02*
X144866200Y-99213400D01*
X136206200Y-105943400D02*
X138866200Y-105943400D01*
X136206200Y-98323400D02*
X138866200Y-98323400D01*
X138866200Y-94193400D02*
X144866200Y-94193400D01*
X135809129Y-99213400D02*
X136206200Y-99213400D01*
X144866200Y-106833400D02*
X144866200Y-107593400D01*
X138866200Y-93183400D02*
X136206200Y-93183400D01*
X136206200Y-100863400D02*
X138866200Y-100863400D01*
X144866200Y-105053400D02*
X138866200Y-105053400D01*
X138866200Y-94133400D02*
X144866200Y-94133400D01*
X133496200Y-94513400D02*
X133496200Y-93243400D01*
X138866200Y-94673400D02*
X144866200Y-94673400D01*
X144866200Y-104293400D02*
X144866200Y-105053400D01*
X136206200Y-103403400D02*
X138866200Y-103403400D01*
X135809129Y-101753400D02*
X136206200Y-101753400D01*
X138866200Y-108543400D02*
X138866200Y-93183400D01*
X138866200Y-94793400D02*
X144866200Y-94793400D01*
X138866200Y-106833400D02*
X144866200Y-106833400D01*
X138866200Y-96673400D02*
X144866200Y-96673400D01*
X144866200Y-107593400D02*
X138866200Y-107593400D01*
X135809129Y-107593400D02*
X136206200Y-107593400D01*
X135809129Y-96673400D02*
X136206200Y-96673400D01*
X138866200Y-104293400D02*
X144866200Y-104293400D01*
X135809129Y-105053400D02*
X136206200Y-105053400D01*
X144866200Y-99213400D02*
X144866200Y-99973400D01*
%TO.C,J2*%
X146647800Y-75737400D02*
X134927800Y-75737400D01*
X140537800Y-70927400D02*
X146037800Y-70927400D01*
X146037800Y-73427400D02*
X146037800Y-72927400D01*
X134927800Y-75737400D02*
X134927800Y-74317400D01*
X135237800Y-72877400D02*
X135837800Y-73177400D01*
X139427800Y-69537400D02*
X139427800Y-71927400D01*
X146647800Y-71927400D02*
X146647800Y-68117400D01*
X140537800Y-73427400D02*
X146037800Y-73427400D01*
X135837800Y-73177400D02*
X135237800Y-73477400D01*
X134927800Y-74317400D02*
X139427800Y-74317400D01*
X146037800Y-70427400D02*
X140537800Y-70427400D01*
X139427800Y-74317400D02*
X139427800Y-71927400D01*
X146647800Y-71927400D02*
X146647800Y-75737400D01*
X140537800Y-72927400D02*
X140537800Y-73427400D01*
X146037800Y-72927400D02*
X140537800Y-72927400D01*
X134927800Y-68117400D02*
X134927800Y-69537400D01*
X146037800Y-70927400D02*
X146037800Y-70427400D01*
X140537800Y-70427400D02*
X140537800Y-70927400D01*
X135237800Y-73477400D02*
X135237800Y-72877400D01*
X134927800Y-69537400D02*
X139427800Y-69537400D01*
X146647800Y-68117400D02*
X134927800Y-68117400D01*
%TO.C,C4*%
X96779600Y-95379400D02*
X100019600Y-95379400D01*
X96779600Y-93139400D02*
X100019600Y-93139400D01*
X100019600Y-95314400D02*
X100019600Y-95379400D01*
X96779600Y-95314400D02*
X96779600Y-95379400D01*
X96779600Y-93139400D02*
X96779600Y-93204400D01*
X100019600Y-93139400D02*
X100019600Y-93204400D01*
%TO.C,C2*%
X107924400Y-103671000D02*
X107924400Y-103736000D01*
X104684400Y-101496000D02*
X104684400Y-101561000D01*
X104684400Y-101496000D02*
X107924400Y-101496000D01*
X104684400Y-103671000D02*
X104684400Y-103736000D01*
X107924400Y-101496000D02*
X107924400Y-101561000D01*
X104684400Y-103736000D02*
X107924400Y-103736000D01*
%TO.C,C3*%
X102635800Y-79499600D02*
X99395800Y-79499600D01*
X102635800Y-81739600D02*
X102635800Y-81674600D01*
X99395800Y-79564600D02*
X99395800Y-79499600D01*
X102635800Y-81739600D02*
X99395800Y-81739600D01*
X102635800Y-79564600D02*
X102635800Y-79499600D01*
X99395800Y-81739600D02*
X99395800Y-81674600D01*
%TO.C,C5*%
X121519200Y-108201600D02*
X121519200Y-108266600D01*
X124759200Y-110376600D02*
X124759200Y-110441600D01*
X121519200Y-110376600D02*
X121519200Y-110441600D01*
X124759200Y-108201600D02*
X124759200Y-108266600D01*
X121519200Y-108201600D02*
X124759200Y-108201600D01*
X121519200Y-110441600D02*
X124759200Y-110441600D01*
%TO.C,U1*%
X116290400Y-84853000D02*
X80610400Y-84853000D01*
X80610400Y-88503000D02*
X80610400Y-90153000D01*
X116350400Y-92643000D02*
X116350400Y-82363000D01*
X80550400Y-82363000D02*
X80550400Y-92643000D01*
X80550400Y-92643000D02*
X116350400Y-92643000D01*
X116290400Y-90153000D02*
X116290400Y-84853000D01*
X80610400Y-84853000D02*
X80610400Y-86503000D01*
X116350400Y-82363000D02*
X80550400Y-82363000D01*
X80610400Y-90153000D02*
X116290400Y-90153000D01*
X80610400Y-88503000D02*
G75*
G03*
X80610400Y-86503000I0J1000000D01*
G01*
%TO.C,J1*%
X125121600Y-83526400D02*
X125121600Y-88726400D01*
X132861600Y-88726400D02*
X125121600Y-88726400D01*
X130261600Y-83526400D02*
X125121600Y-83526400D01*
X131531600Y-83526400D02*
X132861600Y-83526400D01*
X130261600Y-83526400D02*
X130261600Y-86126400D01*
X132861600Y-86126400D02*
X132861600Y-88726400D01*
X132861600Y-83526400D02*
X132861600Y-84856400D01*
X130261600Y-86126400D02*
X132861600Y-86126400D01*
%TO.C,R1*%
X119703600Y-72848800D02*
X113163600Y-72848800D01*
X119703600Y-73178800D02*
X119703600Y-72848800D01*
X119703600Y-75258800D02*
X119703600Y-75588800D01*
X113163600Y-75588800D02*
X113163600Y-75258800D01*
X113163600Y-72848800D02*
X113163600Y-73178800D01*
X119703600Y-75588800D02*
X113163600Y-75588800D01*
%TO.C,Y1*%
X100484400Y-100950000D02*
X106884400Y-100950000D01*
X100484400Y-95900000D02*
X106884400Y-95900000D01*
X106884400Y-100950000D02*
G75*
G03*
X106884400Y-95900000I0J2525000D01*
G01*
X100484400Y-95900000D02*
G75*
G03*
X100484400Y-100950000I0J-2525000D01*
G01*
%TO.C,C1*%
X101746800Y-101470600D02*
X98506800Y-101470600D01*
X101746800Y-103710600D02*
X98506800Y-103710600D01*
X101746800Y-101535600D02*
X101746800Y-101470600D01*
X101746800Y-103710600D02*
X101746800Y-103645600D01*
X98506800Y-101535600D02*
X98506800Y-101470600D01*
X98506800Y-103710600D02*
X98506800Y-103645600D01*
%TD*%
M02*
