%TF.GenerationSoftware,KiCad,Pcbnew,(6.0.6)*%
%TF.CreationDate,2022-12-23T09:56:40-08:00*%
%TF.ProjectId,AS-MULTI-UNO-01,41532d4d-554c-4544-992d-554e4f2d3031,rev?*%
%TF.SameCoordinates,Original*%
%TF.FileFunction,Legend,Bot*%
%TF.FilePolarity,Positive*%
%FSLAX46Y46*%
G04 Gerber Fmt 4.6, Leading zero omitted, Abs format (unit mm)*
G04 Created by KiCad (PCBNEW (6.0.6)) date 2022-12-23 09:56:40*
%MOMM*%
%LPD*%
G01*
G04 APERTURE LIST*
%ADD10C,0.150000*%
%ADD11C,0.120000*%
G04 APERTURE END LIST*
D10*
%TO.C,A1*%
X117249485Y-63209466D02*
X116773295Y-63209466D01*
X117344723Y-63495180D02*
X117011390Y-62495180D01*
X116678057Y-63495180D01*
X115820914Y-63495180D02*
X116392342Y-63495180D01*
X116106628Y-63495180D02*
X116106628Y-62495180D01*
X116201866Y-62638038D01*
X116297104Y-62733276D01*
X116392342Y-62780895D01*
D11*
X145875200Y-108252800D02*
X145875200Y-117782800D01*
X147775200Y-67362800D02*
X147775200Y-76502800D01*
X145875200Y-76502800D02*
X145875200Y-96572800D01*
X145875200Y-67362800D02*
X147775200Y-67362800D01*
X77035200Y-102162800D02*
X77035200Y-69392800D01*
X79575200Y-116132800D02*
X79575200Y-104702800D01*
X79575200Y-64182800D02*
X145875200Y-64182800D01*
X77035200Y-69392800D02*
X79575200Y-66852800D01*
X79575200Y-104702800D02*
X77035200Y-102162800D01*
X79575200Y-66852800D02*
X79575200Y-64182800D01*
X152225200Y-108252800D02*
X145875200Y-108252800D01*
X145875200Y-96572800D02*
X152225200Y-96572800D01*
X145875200Y-64182800D02*
X145875200Y-67362800D01*
X81225200Y-117782800D02*
X79575200Y-116132800D01*
X145875200Y-117782800D02*
X81225200Y-117782800D01*
X147775200Y-76502800D02*
X145875200Y-76502800D01*
X152225200Y-96572800D02*
X152225200Y-108252800D01*
%TD*%
M02*
