%TF.GenerationSoftware,KiCad,Pcbnew,(6.0.6)*%
%TF.CreationDate,2022-12-20T11:11:53-08:00*%
%TF.ProjectId,AS-MULTI-UNO-01,41532d4d-554c-4544-992d-554e4f2d3031,rev?*%
%TF.SameCoordinates,Original*%
%TF.FileFunction,Soldermask,Bot*%
%TF.FilePolarity,Negative*%
%FSLAX46Y46*%
G04 Gerber Fmt 4.6, Leading zero omitted, Abs format (unit mm)*
G04 Created by KiCad (PCBNEW (6.0.6)) date 2022-12-20 11:11:53*
%MOMM*%
%LPD*%
G01*
G04 APERTURE LIST*
%ADD10C,1.500000*%
%ADD11C,1.600000*%
%ADD12R,1.600000X1.600000*%
%ADD13O,1.600000X1.600000*%
%ADD14R,1.700000X1.700000*%
%ADD15O,1.700000X1.700000*%
%ADD16C,3.200000*%
G04 APERTURE END LIST*
D10*
%TO.C,Y1*%
X101244400Y-98425000D03*
X106124400Y-98425000D03*
%TD*%
D11*
%TO.C,C4*%
X97149600Y-94259400D03*
X99649600Y-94259400D03*
%TD*%
%TO.C,C2*%
X105054400Y-102616000D03*
X107554400Y-102616000D03*
%TD*%
%TO.C,C3*%
X102265800Y-80619600D03*
X99765800Y-80619600D03*
%TD*%
%TO.C,C5*%
X121889200Y-109321600D03*
X124389200Y-109321600D03*
%TD*%
D12*
%TO.C,U1*%
X81940400Y-91313000D03*
D13*
X84480400Y-91313000D03*
X87020400Y-91313000D03*
X89560400Y-91313000D03*
X92100400Y-91313000D03*
X94640400Y-91313000D03*
X97180400Y-91313000D03*
X99720400Y-91313000D03*
X102260400Y-91313000D03*
X104800400Y-91313000D03*
X107340400Y-91313000D03*
X109880400Y-91313000D03*
X112420400Y-91313000D03*
X114960400Y-91313000D03*
X114960400Y-83693000D03*
X112420400Y-83693000D03*
X109880400Y-83693000D03*
X107340400Y-83693000D03*
X104800400Y-83693000D03*
X102260400Y-83693000D03*
X99720400Y-83693000D03*
X97180400Y-83693000D03*
X94640400Y-83693000D03*
X92100400Y-83693000D03*
X89560400Y-83693000D03*
X87020400Y-83693000D03*
X84480400Y-83693000D03*
X81940400Y-83693000D03*
%TD*%
D14*
%TO.C,J1*%
X131531600Y-84856400D03*
D15*
X131531600Y-87396400D03*
X128991600Y-84856400D03*
X128991600Y-87396400D03*
X126451600Y-84856400D03*
X126451600Y-87396400D03*
%TD*%
D11*
%TO.C,R1*%
X120243600Y-74218800D03*
D13*
X112623600Y-74218800D03*
%TD*%
D11*
%TO.C,C1*%
X101376800Y-102590600D03*
X98876800Y-102590600D03*
%TD*%
D16*
%TO.C,A1*%
X131775200Y-66852800D03*
X79705200Y-99872800D03*
X79705200Y-71932800D03*
X130505200Y-115112800D03*
D12*
X117805200Y-66852800D03*
D13*
X115265200Y-66852800D03*
X112725200Y-66852800D03*
X110185200Y-66852800D03*
X107645200Y-66852800D03*
X105105200Y-66852800D03*
X102565200Y-66852800D03*
X100025200Y-66852800D03*
X94945200Y-66852800D03*
X92405200Y-66852800D03*
X89865200Y-66852800D03*
X87325200Y-66852800D03*
X84785200Y-66852800D03*
X82245200Y-66852800D03*
X82245200Y-115112800D03*
X84785200Y-115112800D03*
X87325200Y-115112800D03*
X89865200Y-115112800D03*
X92405200Y-115112800D03*
X94945200Y-115112800D03*
X97485200Y-115112800D03*
X100025200Y-115112800D03*
X104085200Y-115112800D03*
X106625200Y-115112800D03*
X109165200Y-115112800D03*
X111705200Y-115112800D03*
X114245200Y-115112800D03*
X116785200Y-115112800D03*
X119325200Y-115112800D03*
X121865200Y-115112800D03*
X124405200Y-115112800D03*
X126945200Y-115112800D03*
%TD*%
M02*
