M48
; DRILL file {KiCad (6.0.6)} date Fri Dec 23 09:56:44 2022
; FORMAT={-:-/ absolute / inch / decimal}
; #@! TF.CreationDate,2022-12-23T09:56:44-08:00
; #@! TF.GenerationSoftware,Kicad,Pcbnew,(6.0.6)
; #@! TF.FileFunction,Plated,1,2,PTH
FMAT,2
INCH
; #@! TA.AperFunction,Plated,PTH,ViaDrill
T1C0.0157
; #@! TA.AperFunction,Plated,PTH,ComponentDrill
T2C0.0315
; #@! TA.AperFunction,Plated,PTH,ComponentDrill
T3C0.0394
; #@! TA.AperFunction,Plated,PTH,ComponentDrill
T4C0.0433
%
G90
G05
T1
X3.526Y-4.246
X3.526Y-4.297
X3.573Y-3.522
X3.593Y-4.246
X3.594Y-4.297
X3.654Y-4.246
X3.654Y-4.297
X3.675Y-3.485
X3.725Y-4.246
X3.725Y-4.297
X3.823Y-3.522
X3.873Y-3.485
X3.882Y-4.411
X3.886Y-4.371
X4.019Y-4.411
X4.021Y-4.371
X4.126Y-3.4124
X4.145Y-4.371
X4.146Y-4.411
X4.204Y-4.169
X4.361Y-3.782
X4.375Y-3.716
X4.392Y-3.885
X4.878Y-3.194
T2
X3.226Y-3.295
X3.226Y-3.595
X3.326Y-3.295
X3.326Y-3.595
X3.426Y-3.295
X3.426Y-3.595
X3.526Y-3.295
X3.526Y-3.595
X3.626Y-3.295
X3.626Y-3.595
X3.726Y-3.295
X3.726Y-3.595
X3.8248Y-3.711
X3.826Y-3.295
X3.826Y-3.595
X3.8928Y-4.039
X3.9232Y-3.711
X3.926Y-3.295
X3.926Y-3.595
X3.9278Y-3.174
X3.986Y-3.875
X3.9912Y-4.039
X4.026Y-3.295
X4.026Y-3.595
X4.0262Y-3.174
X4.126Y-3.295
X4.126Y-3.595
X4.136Y-4.04
X4.1781Y-3.875
X4.226Y-3.295
X4.226Y-3.595
X4.2344Y-4.04
X4.326Y-3.295
X4.326Y-3.595
X4.426Y-3.295
X4.426Y-3.595
X4.434Y-2.922
X4.526Y-3.295
X4.526Y-3.595
X4.734Y-2.922
X4.7988Y-4.304
X4.8972Y-4.304
T3
X3.238Y-2.632
X3.238Y-4.532
X3.338Y-2.632
X3.338Y-4.532
X3.438Y-2.632
X3.438Y-4.532
X3.538Y-2.632
X3.538Y-4.532
X3.638Y-2.632
X3.638Y-4.532
X3.738Y-2.632
X3.738Y-4.532
X3.838Y-4.532
X3.938Y-2.632
X3.938Y-4.532
X4.038Y-2.632
X4.0978Y-4.532
X4.138Y-2.632
X4.1978Y-4.532
X4.238Y-2.632
X4.2978Y-4.532
X4.338Y-2.632
X4.3978Y-4.532
X4.438Y-2.632
X4.4978Y-4.532
X4.538Y-2.632
X4.5978Y-4.532
X4.638Y-2.632
X4.6978Y-4.532
X4.7978Y-4.532
X4.8978Y-4.532
X4.9784Y-3.3408
X4.9784Y-3.4408
X4.9978Y-4.532
X5.0784Y-3.3408
X5.0784Y-3.4408
X5.1784Y-3.3408
X5.1784Y-3.4408
X5.3058Y-3.721
X5.3058Y-3.821
X5.3058Y-3.921
X5.3058Y-4.021
X5.3058Y-4.121
X5.3058Y-4.221
X5.407Y-2.7826
X5.407Y-2.881
T4
X5.387Y-4.3774
X5.387Y-4.5546
X5.643Y-4.3774
X5.643Y-4.5546
T0
M30
