%FSLAX45Y45*%
G04 Gerber Fmt 4.5, Leading zero omitted, Abs format (unit mm)*
G04 Created by KiCad (PCBNEW (6.0.6)) date 2022-12-20 11:12:05*
%MOMM*%
%LPD*%
G01*
G04 APERTURE LIST*
%TA.AperFunction,Profile*%
%ADD10C,0.100000*%
%TD*%
%ADD11C,0.200000*%
%ADD12C,0.040000*%
%ADD13C,0.080000*%
%ADD14C,0.100000*%
G04 APERTURE END LIST*
D10*
X7967980Y-11612880D02*
X7967980Y-10472420D01*
X14574520Y-11765280D02*
X8120380Y-11765280D01*
X7711440Y-6939280D02*
X7965440Y-6680200D01*
X7967980Y-10472420D02*
X7711440Y-10213340D01*
X7965440Y-6421120D02*
X14574520Y-6423660D01*
X7965440Y-6680200D02*
X7965440Y-6421120D01*
X7711440Y-10213340D02*
X7711440Y-6939280D01*
X8120380Y-11765280D02*
X7967980Y-11612880D01*
X14574520Y-6423660D02*
X14574520Y-11765280D01*
D11*
D12*
X9055420Y-8925880D02*
X9095420Y-8965880D01*
X9095420Y-8925880D02*
X9055420Y-8965880D01*
X9314500Y-8831900D02*
X9354500Y-8871900D01*
X9354500Y-8831900D02*
X9314500Y-8871900D01*
X9690420Y-8925880D02*
X9730420Y-8965880D01*
X9730420Y-8925880D02*
X9690420Y-8965880D01*
X9817420Y-8831900D02*
X9857420Y-8871900D01*
X9857420Y-8831900D02*
X9817420Y-8871900D01*
X10460040Y-8647410D02*
X10500040Y-8687410D01*
X10500040Y-8647410D02*
X10460040Y-8687410D01*
X10658160Y-10569260D02*
X10698160Y-10609260D01*
X10698160Y-10569260D02*
X10658160Y-10609260D01*
X11056940Y-9586280D02*
X11096940Y-9626280D01*
X11096940Y-9586280D02*
X11056940Y-9626280D01*
X11092500Y-9418640D02*
X11132500Y-9458640D01*
X11132500Y-9418640D02*
X11092500Y-9458640D01*
X11135680Y-9847900D02*
X11175680Y-9887900D01*
X11175680Y-9847900D02*
X11135680Y-9887900D01*
X12370120Y-8092760D02*
X12410120Y-8132760D01*
X12410120Y-8092760D02*
X12370120Y-8132760D01*
D13*
X8234040Y-8369300D02*
G75*
G03*
X8234040Y-8369300I-40000J0D01*
G01*
X8234040Y-9131300D02*
G75*
G03*
X8234040Y-9131300I-40000J0D01*
G01*
X8488040Y-8369300D02*
G75*
G03*
X8488040Y-8369300I-40000J0D01*
G01*
X8488040Y-9131300D02*
G75*
G03*
X8488040Y-9131300I-40000J0D01*
G01*
X8742040Y-8369300D02*
G75*
G03*
X8742040Y-8369300I-40000J0D01*
G01*
X8742040Y-9131300D02*
G75*
G03*
X8742040Y-9131300I-40000J0D01*
G01*
X8996040Y-8369300D02*
G75*
G03*
X8996040Y-8369300I-40000J0D01*
G01*
X8996040Y-9131300D02*
G75*
G03*
X8996040Y-9131300I-40000J0D01*
G01*
X9250040Y-8369300D02*
G75*
G03*
X9250040Y-8369300I-40000J0D01*
G01*
X9250040Y-9131300D02*
G75*
G03*
X9250040Y-9131300I-40000J0D01*
G01*
X9504040Y-8369300D02*
G75*
G03*
X9504040Y-8369300I-40000J0D01*
G01*
X9504040Y-9131300D02*
G75*
G03*
X9504040Y-9131300I-40000J0D01*
G01*
X9754960Y-9425940D02*
G75*
G03*
X9754960Y-9425940I-40000J0D01*
G01*
X9758040Y-8369300D02*
G75*
G03*
X9758040Y-8369300I-40000J0D01*
G01*
X9758040Y-9131300D02*
G75*
G03*
X9758040Y-9131300I-40000J0D01*
G01*
X9927680Y-10259060D02*
G75*
G03*
X9927680Y-10259060I-40000J0D01*
G01*
X10004960Y-9425940D02*
G75*
G03*
X10004960Y-9425940I-40000J0D01*
G01*
X10012040Y-8369300D02*
G75*
G03*
X10012040Y-8369300I-40000J0D01*
G01*
X10012040Y-9131300D02*
G75*
G03*
X10012040Y-9131300I-40000J0D01*
G01*
X10016580Y-8061960D02*
G75*
G03*
X10016580Y-8061960I-40000J0D01*
G01*
X10164440Y-9842500D02*
G75*
G03*
X10164440Y-9842500I-40000J0D01*
G01*
X10177680Y-10259060D02*
G75*
G03*
X10177680Y-10259060I-40000J0D01*
G01*
X10266040Y-8369300D02*
G75*
G03*
X10266040Y-8369300I-40000J0D01*
G01*
X10266040Y-9131300D02*
G75*
G03*
X10266040Y-9131300I-40000J0D01*
G01*
X10266580Y-8061960D02*
G75*
G03*
X10266580Y-8061960I-40000J0D01*
G01*
X10520040Y-8369300D02*
G75*
G03*
X10520040Y-8369300I-40000J0D01*
G01*
X10520040Y-9131300D02*
G75*
G03*
X10520040Y-9131300I-40000J0D01*
G01*
X10545440Y-10261600D02*
G75*
G03*
X10545440Y-10261600I-40000J0D01*
G01*
X10652440Y-9842500D02*
G75*
G03*
X10652440Y-9842500I-40000J0D01*
G01*
X10774040Y-8369300D02*
G75*
G03*
X10774040Y-8369300I-40000J0D01*
G01*
X10774040Y-9131300D02*
G75*
G03*
X10774040Y-9131300I-40000J0D01*
G01*
X10795440Y-10261600D02*
G75*
G03*
X10795440Y-10261600I-40000J0D01*
G01*
X11028040Y-8369300D02*
G75*
G03*
X11028040Y-8369300I-40000J0D01*
G01*
X11028040Y-9131300D02*
G75*
G03*
X11028040Y-9131300I-40000J0D01*
G01*
X11282040Y-8369300D02*
G75*
G03*
X11282040Y-8369300I-40000J0D01*
G01*
X11282040Y-9131300D02*
G75*
G03*
X11282040Y-9131300I-40000J0D01*
G01*
X11302360Y-7421880D02*
G75*
G03*
X11302360Y-7421880I-40000J0D01*
G01*
X11536040Y-8369300D02*
G75*
G03*
X11536040Y-8369300I-40000J0D01*
G01*
X11536040Y-9131300D02*
G75*
G03*
X11536040Y-9131300I-40000J0D01*
G01*
X12064360Y-7421880D02*
G75*
G03*
X12064360Y-7421880I-40000J0D01*
G01*
X12228920Y-10932160D02*
G75*
G03*
X12228920Y-10932160I-40000J0D01*
G01*
X12478920Y-10932160D02*
G75*
G03*
X12478920Y-10932160I-40000J0D01*
G01*
D14*
X8224520Y-6635280D02*
X8224520Y-6735280D01*
X8174520Y-6685280D02*
X8274520Y-6685280D01*
X8224520Y-11461280D02*
X8224520Y-11561280D01*
X8174520Y-11511280D02*
X8274520Y-11511280D01*
X8478520Y-6635280D02*
X8478520Y-6735280D01*
X8428520Y-6685280D02*
X8528520Y-6685280D01*
X8478520Y-11461280D02*
X8478520Y-11561280D01*
X8428520Y-11511280D02*
X8528520Y-11511280D01*
X8732520Y-6635280D02*
X8732520Y-6735280D01*
X8682520Y-6685280D02*
X8782520Y-6685280D01*
X8732520Y-11461280D02*
X8732520Y-11561280D01*
X8682520Y-11511280D02*
X8782520Y-11511280D01*
X8986520Y-6635280D02*
X8986520Y-6735280D01*
X8936520Y-6685280D02*
X9036520Y-6685280D01*
X8986520Y-11461280D02*
X8986520Y-11561280D01*
X8936520Y-11511280D02*
X9036520Y-11511280D01*
X9240520Y-6635280D02*
X9240520Y-6735280D01*
X9190520Y-6685280D02*
X9290520Y-6685280D01*
X9240520Y-11461280D02*
X9240520Y-11561280D01*
X9190520Y-11511280D02*
X9290520Y-11511280D01*
X9494520Y-6635280D02*
X9494520Y-6735280D01*
X9444520Y-6685280D02*
X9544520Y-6685280D01*
X9494520Y-11461280D02*
X9494520Y-11561280D01*
X9444520Y-11511280D02*
X9544520Y-11511280D01*
X9748520Y-11461280D02*
X9748520Y-11561280D01*
X9698520Y-11511280D02*
X9798520Y-11511280D01*
X10002520Y-6635280D02*
X10002520Y-6735280D01*
X9952520Y-6685280D02*
X10052520Y-6685280D01*
X10002520Y-11461280D02*
X10002520Y-11561280D01*
X9952520Y-11511280D02*
X10052520Y-11511280D01*
X10256520Y-6635280D02*
X10256520Y-6735280D01*
X10206520Y-6685280D02*
X10306520Y-6685280D01*
X10408520Y-11461280D02*
X10408520Y-11561280D01*
X10358520Y-11511280D02*
X10458520Y-11511280D01*
X10510520Y-6635280D02*
X10510520Y-6735280D01*
X10460520Y-6685280D02*
X10560520Y-6685280D01*
X10662520Y-11461280D02*
X10662520Y-11561280D01*
X10612520Y-11511280D02*
X10712520Y-11511280D01*
X10764520Y-6635280D02*
X10764520Y-6735280D01*
X10714520Y-6685280D02*
X10814520Y-6685280D01*
X10916520Y-11461280D02*
X10916520Y-11561280D01*
X10866520Y-11511280D02*
X10966520Y-11511280D01*
X11018520Y-6635280D02*
X11018520Y-6735280D01*
X10968520Y-6685280D02*
X11068520Y-6685280D01*
X11170520Y-11461280D02*
X11170520Y-11561280D01*
X11120520Y-11511280D02*
X11220520Y-11511280D01*
X11272520Y-6635280D02*
X11272520Y-6735280D01*
X11222520Y-6685280D02*
X11322520Y-6685280D01*
X11424520Y-11461280D02*
X11424520Y-11561280D01*
X11374520Y-11511280D02*
X11474520Y-11511280D01*
X11526520Y-6635280D02*
X11526520Y-6735280D01*
X11476520Y-6685280D02*
X11576520Y-6685280D01*
X11678520Y-11461280D02*
X11678520Y-11561280D01*
X11628520Y-11511280D02*
X11728520Y-11511280D01*
X11780520Y-6635280D02*
X11780520Y-6735280D01*
X11730520Y-6685280D02*
X11830520Y-6685280D01*
X11932520Y-11461280D02*
X11932520Y-11561280D01*
X11882520Y-11511280D02*
X11982520Y-11511280D01*
X12186520Y-11461280D02*
X12186520Y-11561280D01*
X12136520Y-11511280D02*
X12236520Y-11511280D01*
X12440520Y-11461280D02*
X12440520Y-11561280D01*
X12390520Y-11511280D02*
X12490520Y-11511280D01*
X12645160Y-8435640D02*
X12645160Y-8535640D01*
X12595160Y-8485640D02*
X12695160Y-8485640D01*
X12645160Y-8689640D02*
X12645160Y-8789640D01*
X12595160Y-8739640D02*
X12695160Y-8739640D01*
X12694520Y-11461280D02*
X12694520Y-11561280D01*
X12644520Y-11511280D02*
X12744520Y-11511280D01*
X12899160Y-8435640D02*
X12899160Y-8535640D01*
X12849160Y-8485640D02*
X12949160Y-8485640D01*
X12899160Y-8689640D02*
X12899160Y-8789640D01*
X12849160Y-8739640D02*
X12949160Y-8739640D01*
X13153160Y-8435640D02*
X13153160Y-8535640D01*
X13103160Y-8485640D02*
X13203160Y-8485640D01*
X13153160Y-8689640D02*
X13153160Y-8789640D01*
X13103160Y-8739640D02*
X13203160Y-8739640D01*
D11*
X7964059Y-12080756D02*
X7964059Y-11880756D01*
X8011678Y-11880756D01*
X8040249Y-11890280D01*
X8059297Y-11909328D01*
X8068821Y-11928375D01*
X8078345Y-11966470D01*
X8078345Y-11995042D01*
X8068821Y-12033137D01*
X8059297Y-12052185D01*
X8040249Y-12071232D01*
X8011678Y-12080756D01*
X7964059Y-12080756D01*
X8164059Y-12080756D02*
X8164059Y-11947423D01*
X8164059Y-11985518D02*
X8173583Y-11966470D01*
X8183107Y-11956947D01*
X8202154Y-11947423D01*
X8221202Y-11947423D01*
X8287868Y-12080756D02*
X8287868Y-11947423D01*
X8287868Y-11880756D02*
X8278345Y-11890280D01*
X8287868Y-11899804D01*
X8297392Y-11890280D01*
X8287868Y-11880756D01*
X8287868Y-11899804D01*
X8411678Y-12080756D02*
X8392630Y-12071232D01*
X8383107Y-12052185D01*
X8383107Y-11880756D01*
X8516440Y-12080756D02*
X8497392Y-12071232D01*
X8487869Y-12052185D01*
X8487869Y-11880756D01*
X8745011Y-12080756D02*
X8745011Y-11880756D01*
X8811678Y-12023613D01*
X8878345Y-11880756D01*
X8878345Y-12080756D01*
X9059297Y-12080756D02*
X9059297Y-11975994D01*
X9049773Y-11956947D01*
X9030726Y-11947423D01*
X8992630Y-11947423D01*
X8973583Y-11956947D01*
X9059297Y-12071232D02*
X9040250Y-12080756D01*
X8992630Y-12080756D01*
X8973583Y-12071232D01*
X8964059Y-12052185D01*
X8964059Y-12033137D01*
X8973583Y-12014089D01*
X8992630Y-12004566D01*
X9040250Y-12004566D01*
X9059297Y-11995042D01*
X9154535Y-11947423D02*
X9154535Y-12147423D01*
X9154535Y-11956947D02*
X9173583Y-11947423D01*
X9211678Y-11947423D01*
X9230726Y-11956947D01*
X9240250Y-11966470D01*
X9249773Y-11985518D01*
X9249773Y-12042661D01*
X9240250Y-12061708D01*
X9230726Y-12071232D01*
X9211678Y-12080756D01*
X9173583Y-12080756D01*
X9154535Y-12071232D01*
X9335488Y-12061708D02*
X9345011Y-12071232D01*
X9335488Y-12080756D01*
X9325964Y-12071232D01*
X9335488Y-12061708D01*
X9335488Y-12080756D01*
X9335488Y-11956947D02*
X9345011Y-11966470D01*
X9335488Y-11975994D01*
X9325964Y-11966470D01*
X9335488Y-11956947D01*
X9335488Y-11975994D01*
D12*
X7666440Y-12390280D02*
X7706440Y-12430280D01*
X7706440Y-12390280D02*
X7666440Y-12430280D01*
D11*
X8002154Y-12300756D02*
X8021202Y-12300756D01*
X8040249Y-12310280D01*
X8049773Y-12319804D01*
X8059297Y-12338851D01*
X8068821Y-12376947D01*
X8068821Y-12424566D01*
X8059297Y-12462661D01*
X8049773Y-12481708D01*
X8040249Y-12491232D01*
X8021202Y-12500756D01*
X8002154Y-12500756D01*
X7983107Y-12491232D01*
X7973583Y-12481708D01*
X7964059Y-12462661D01*
X7954535Y-12424566D01*
X7954535Y-12376947D01*
X7964059Y-12338851D01*
X7973583Y-12319804D01*
X7983107Y-12310280D01*
X8002154Y-12300756D01*
X8154535Y-12481708D02*
X8164059Y-12491232D01*
X8154535Y-12500756D01*
X8145011Y-12491232D01*
X8154535Y-12481708D01*
X8154535Y-12500756D01*
X8335488Y-12367423D02*
X8335488Y-12500756D01*
X8287868Y-12291232D02*
X8240249Y-12434089D01*
X8364059Y-12434089D01*
X8478345Y-12300756D02*
X8497392Y-12300756D01*
X8516440Y-12310280D01*
X8525964Y-12319804D01*
X8535488Y-12338851D01*
X8545011Y-12376947D01*
X8545011Y-12424566D01*
X8535488Y-12462661D01*
X8525964Y-12481708D01*
X8516440Y-12491232D01*
X8497392Y-12500756D01*
X8478345Y-12500756D01*
X8459297Y-12491232D01*
X8449773Y-12481708D01*
X8440250Y-12462661D01*
X8430726Y-12424566D01*
X8430726Y-12376947D01*
X8440250Y-12338851D01*
X8449773Y-12319804D01*
X8459297Y-12310280D01*
X8478345Y-12300756D01*
X8668821Y-12300756D02*
X8687869Y-12300756D01*
X8706916Y-12310280D01*
X8716440Y-12319804D01*
X8725964Y-12338851D01*
X8735488Y-12376947D01*
X8735488Y-12424566D01*
X8725964Y-12462661D01*
X8716440Y-12481708D01*
X8706916Y-12491232D01*
X8687869Y-12500756D01*
X8668821Y-12500756D01*
X8649773Y-12491232D01*
X8640250Y-12481708D01*
X8630726Y-12462661D01*
X8621202Y-12424566D01*
X8621202Y-12376947D01*
X8630726Y-12338851D01*
X8640250Y-12319804D01*
X8649773Y-12310280D01*
X8668821Y-12300756D01*
X8821202Y-12500756D02*
X8821202Y-12367423D01*
X8821202Y-12386470D02*
X8830726Y-12376947D01*
X8849773Y-12367423D01*
X8878345Y-12367423D01*
X8897392Y-12376947D01*
X8906916Y-12395994D01*
X8906916Y-12500756D01*
X8906916Y-12395994D02*
X8916440Y-12376947D01*
X8935488Y-12367423D01*
X8964059Y-12367423D01*
X8983107Y-12376947D01*
X8992630Y-12395994D01*
X8992630Y-12500756D01*
X9087869Y-12500756D02*
X9087869Y-12367423D01*
X9087869Y-12386470D02*
X9097392Y-12376947D01*
X9116440Y-12367423D01*
X9145011Y-12367423D01*
X9164059Y-12376947D01*
X9173583Y-12395994D01*
X9173583Y-12500756D01*
X9173583Y-12395994D02*
X9183107Y-12376947D01*
X9202154Y-12367423D01*
X9230726Y-12367423D01*
X9249773Y-12376947D01*
X9259297Y-12395994D01*
X9259297Y-12500756D01*
X9649773Y-12291232D02*
X9478345Y-12548375D01*
X9906916Y-12300756D02*
X9925964Y-12300756D01*
X9945011Y-12310280D01*
X9954535Y-12319804D01*
X9964059Y-12338851D01*
X9973583Y-12376947D01*
X9973583Y-12424566D01*
X9964059Y-12462661D01*
X9954535Y-12481708D01*
X9945011Y-12491232D01*
X9925964Y-12500756D01*
X9906916Y-12500756D01*
X9887869Y-12491232D01*
X9878345Y-12481708D01*
X9868821Y-12462661D01*
X9859297Y-12424566D01*
X9859297Y-12376947D01*
X9868821Y-12338851D01*
X9878345Y-12319804D01*
X9887869Y-12310280D01*
X9906916Y-12300756D01*
X10059297Y-12481708D02*
X10068821Y-12491232D01*
X10059297Y-12500756D01*
X10049773Y-12491232D01*
X10059297Y-12481708D01*
X10059297Y-12500756D01*
X10192630Y-12300756D02*
X10211678Y-12300756D01*
X10230726Y-12310280D01*
X10240250Y-12319804D01*
X10249773Y-12338851D01*
X10259297Y-12376947D01*
X10259297Y-12424566D01*
X10249773Y-12462661D01*
X10240250Y-12481708D01*
X10230726Y-12491232D01*
X10211678Y-12500756D01*
X10192630Y-12500756D01*
X10173583Y-12491232D01*
X10164059Y-12481708D01*
X10154535Y-12462661D01*
X10145011Y-12424566D01*
X10145011Y-12376947D01*
X10154535Y-12338851D01*
X10164059Y-12319804D01*
X10173583Y-12310280D01*
X10192630Y-12300756D01*
X10449773Y-12500756D02*
X10335488Y-12500756D01*
X10392630Y-12500756D02*
X10392630Y-12300756D01*
X10373583Y-12329328D01*
X10354535Y-12348375D01*
X10335488Y-12357899D01*
X10630726Y-12300756D02*
X10535488Y-12300756D01*
X10525964Y-12395994D01*
X10535488Y-12386470D01*
X10554535Y-12376947D01*
X10602154Y-12376947D01*
X10621202Y-12386470D01*
X10630726Y-12395994D01*
X10640250Y-12415042D01*
X10640250Y-12462661D01*
X10630726Y-12481708D01*
X10621202Y-12491232D01*
X10602154Y-12500756D01*
X10554535Y-12500756D01*
X10535488Y-12491232D01*
X10525964Y-12481708D01*
X10706916Y-12300756D02*
X10840250Y-12300756D01*
X10754535Y-12500756D01*
X10906916Y-12300756D02*
X10906916Y-12338851D01*
X10983107Y-12300756D02*
X10983107Y-12338851D01*
X11278345Y-12576947D02*
X11268821Y-12567423D01*
X11249773Y-12538851D01*
X11240249Y-12519804D01*
X11230726Y-12491232D01*
X11221202Y-12443613D01*
X11221202Y-12405518D01*
X11230726Y-12357899D01*
X11240249Y-12329328D01*
X11249773Y-12310280D01*
X11268821Y-12281708D01*
X11278345Y-12272185D01*
X11459297Y-12500756D02*
X11345011Y-12500756D01*
X11402154Y-12500756D02*
X11402154Y-12300756D01*
X11383107Y-12329328D01*
X11364059Y-12348375D01*
X11345011Y-12357899D01*
X11583107Y-12300756D02*
X11602154Y-12300756D01*
X11621202Y-12310280D01*
X11630726Y-12319804D01*
X11640249Y-12338851D01*
X11649773Y-12376947D01*
X11649773Y-12424566D01*
X11640249Y-12462661D01*
X11630726Y-12481708D01*
X11621202Y-12491232D01*
X11602154Y-12500756D01*
X11583107Y-12500756D01*
X11564059Y-12491232D01*
X11554535Y-12481708D01*
X11545011Y-12462661D01*
X11535488Y-12424566D01*
X11535488Y-12376947D01*
X11545011Y-12338851D01*
X11554535Y-12319804D01*
X11564059Y-12310280D01*
X11583107Y-12300756D01*
X11887868Y-12500756D02*
X11887868Y-12300756D01*
X11973583Y-12500756D02*
X11973583Y-12395994D01*
X11964059Y-12376947D01*
X11945011Y-12367423D01*
X11916440Y-12367423D01*
X11897392Y-12376947D01*
X11887868Y-12386470D01*
X12097392Y-12500756D02*
X12078345Y-12491232D01*
X12068821Y-12481708D01*
X12059297Y-12462661D01*
X12059297Y-12405518D01*
X12068821Y-12386470D01*
X12078345Y-12376947D01*
X12097392Y-12367423D01*
X12125964Y-12367423D01*
X12145011Y-12376947D01*
X12154535Y-12386470D01*
X12164059Y-12405518D01*
X12164059Y-12462661D01*
X12154535Y-12481708D01*
X12145011Y-12491232D01*
X12125964Y-12500756D01*
X12097392Y-12500756D01*
X12278345Y-12500756D02*
X12259297Y-12491232D01*
X12249773Y-12472185D01*
X12249773Y-12300756D01*
X12430726Y-12491232D02*
X12411678Y-12500756D01*
X12373583Y-12500756D01*
X12354535Y-12491232D01*
X12345011Y-12472185D01*
X12345011Y-12395994D01*
X12354535Y-12376947D01*
X12373583Y-12367423D01*
X12411678Y-12367423D01*
X12430726Y-12376947D01*
X12440249Y-12395994D01*
X12440249Y-12415042D01*
X12345011Y-12434089D01*
X12516440Y-12491232D02*
X12535488Y-12500756D01*
X12573583Y-12500756D01*
X12592630Y-12491232D01*
X12602154Y-12472185D01*
X12602154Y-12462661D01*
X12592630Y-12443613D01*
X12573583Y-12434089D01*
X12545011Y-12434089D01*
X12525964Y-12424566D01*
X12516440Y-12405518D01*
X12516440Y-12395994D01*
X12525964Y-12376947D01*
X12545011Y-12367423D01*
X12573583Y-12367423D01*
X12592630Y-12376947D01*
X12668821Y-12576947D02*
X12678345Y-12567423D01*
X12697392Y-12538851D01*
X12706916Y-12519804D01*
X12716440Y-12491232D01*
X12725964Y-12443613D01*
X12725964Y-12405518D01*
X12716440Y-12357899D01*
X12706916Y-12329328D01*
X12697392Y-12310280D01*
X12678345Y-12281708D01*
X12668821Y-12272185D01*
D13*
X7706440Y-12674280D02*
G75*
G03*
X7706440Y-12674280I-40000J0D01*
G01*
D11*
X8002154Y-12564756D02*
X8021202Y-12564756D01*
X8040249Y-12574280D01*
X8049773Y-12583804D01*
X8059297Y-12602851D01*
X8068821Y-12640947D01*
X8068821Y-12688566D01*
X8059297Y-12726661D01*
X8049773Y-12745708D01*
X8040249Y-12755232D01*
X8021202Y-12764756D01*
X8002154Y-12764756D01*
X7983107Y-12755232D01*
X7973583Y-12745708D01*
X7964059Y-12726661D01*
X7954535Y-12688566D01*
X7954535Y-12640947D01*
X7964059Y-12602851D01*
X7973583Y-12583804D01*
X7983107Y-12574280D01*
X8002154Y-12564756D01*
X8154535Y-12745708D02*
X8164059Y-12755232D01*
X8154535Y-12764756D01*
X8145011Y-12755232D01*
X8154535Y-12745708D01*
X8154535Y-12764756D01*
X8278345Y-12650470D02*
X8259297Y-12640947D01*
X8249773Y-12631423D01*
X8240249Y-12612375D01*
X8240249Y-12602851D01*
X8249773Y-12583804D01*
X8259297Y-12574280D01*
X8278345Y-12564756D01*
X8316440Y-12564756D01*
X8335488Y-12574280D01*
X8345011Y-12583804D01*
X8354535Y-12602851D01*
X8354535Y-12612375D01*
X8345011Y-12631423D01*
X8335488Y-12640947D01*
X8316440Y-12650470D01*
X8278345Y-12650470D01*
X8259297Y-12659994D01*
X8249773Y-12669518D01*
X8240249Y-12688566D01*
X8240249Y-12726661D01*
X8249773Y-12745708D01*
X8259297Y-12755232D01*
X8278345Y-12764756D01*
X8316440Y-12764756D01*
X8335488Y-12755232D01*
X8345011Y-12745708D01*
X8354535Y-12726661D01*
X8354535Y-12688566D01*
X8345011Y-12669518D01*
X8335488Y-12659994D01*
X8316440Y-12650470D01*
X8478345Y-12564756D02*
X8497392Y-12564756D01*
X8516440Y-12574280D01*
X8525964Y-12583804D01*
X8535488Y-12602851D01*
X8545011Y-12640947D01*
X8545011Y-12688566D01*
X8535488Y-12726661D01*
X8525964Y-12745708D01*
X8516440Y-12755232D01*
X8497392Y-12764756D01*
X8478345Y-12764756D01*
X8459297Y-12755232D01*
X8449773Y-12745708D01*
X8440250Y-12726661D01*
X8430726Y-12688566D01*
X8430726Y-12640947D01*
X8440250Y-12602851D01*
X8449773Y-12583804D01*
X8459297Y-12574280D01*
X8478345Y-12564756D01*
X8668821Y-12564756D02*
X8687869Y-12564756D01*
X8706916Y-12574280D01*
X8716440Y-12583804D01*
X8725964Y-12602851D01*
X8735488Y-12640947D01*
X8735488Y-12688566D01*
X8725964Y-12726661D01*
X8716440Y-12745708D01*
X8706916Y-12755232D01*
X8687869Y-12764756D01*
X8668821Y-12764756D01*
X8649773Y-12755232D01*
X8640250Y-12745708D01*
X8630726Y-12726661D01*
X8621202Y-12688566D01*
X8621202Y-12640947D01*
X8630726Y-12602851D01*
X8640250Y-12583804D01*
X8649773Y-12574280D01*
X8668821Y-12564756D01*
X8821202Y-12764756D02*
X8821202Y-12631423D01*
X8821202Y-12650470D02*
X8830726Y-12640947D01*
X8849773Y-12631423D01*
X8878345Y-12631423D01*
X8897392Y-12640947D01*
X8906916Y-12659994D01*
X8906916Y-12764756D01*
X8906916Y-12659994D02*
X8916440Y-12640947D01*
X8935488Y-12631423D01*
X8964059Y-12631423D01*
X8983107Y-12640947D01*
X8992630Y-12659994D01*
X8992630Y-12764756D01*
X9087869Y-12764756D02*
X9087869Y-12631423D01*
X9087869Y-12650470D02*
X9097392Y-12640947D01*
X9116440Y-12631423D01*
X9145011Y-12631423D01*
X9164059Y-12640947D01*
X9173583Y-12659994D01*
X9173583Y-12764756D01*
X9173583Y-12659994D02*
X9183107Y-12640947D01*
X9202154Y-12631423D01*
X9230726Y-12631423D01*
X9249773Y-12640947D01*
X9259297Y-12659994D01*
X9259297Y-12764756D01*
X9649773Y-12555232D02*
X9478345Y-12812375D01*
X9906916Y-12564756D02*
X9925964Y-12564756D01*
X9945011Y-12574280D01*
X9954535Y-12583804D01*
X9964059Y-12602851D01*
X9973583Y-12640947D01*
X9973583Y-12688566D01*
X9964059Y-12726661D01*
X9954535Y-12745708D01*
X9945011Y-12755232D01*
X9925964Y-12764756D01*
X9906916Y-12764756D01*
X9887869Y-12755232D01*
X9878345Y-12745708D01*
X9868821Y-12726661D01*
X9859297Y-12688566D01*
X9859297Y-12640947D01*
X9868821Y-12602851D01*
X9878345Y-12583804D01*
X9887869Y-12574280D01*
X9906916Y-12564756D01*
X10059297Y-12745708D02*
X10068821Y-12755232D01*
X10059297Y-12764756D01*
X10049773Y-12755232D01*
X10059297Y-12745708D01*
X10059297Y-12764756D01*
X10192630Y-12564756D02*
X10211678Y-12564756D01*
X10230726Y-12574280D01*
X10240250Y-12583804D01*
X10249773Y-12602851D01*
X10259297Y-12640947D01*
X10259297Y-12688566D01*
X10249773Y-12726661D01*
X10240250Y-12745708D01*
X10230726Y-12755232D01*
X10211678Y-12764756D01*
X10192630Y-12764756D01*
X10173583Y-12755232D01*
X10164059Y-12745708D01*
X10154535Y-12726661D01*
X10145011Y-12688566D01*
X10145011Y-12640947D01*
X10154535Y-12602851D01*
X10164059Y-12583804D01*
X10173583Y-12574280D01*
X10192630Y-12564756D01*
X10325964Y-12564756D02*
X10449773Y-12564756D01*
X10383107Y-12640947D01*
X10411678Y-12640947D01*
X10430726Y-12650470D01*
X10440250Y-12659994D01*
X10449773Y-12679042D01*
X10449773Y-12726661D01*
X10440250Y-12745708D01*
X10430726Y-12755232D01*
X10411678Y-12764756D01*
X10354535Y-12764756D01*
X10335488Y-12755232D01*
X10325964Y-12745708D01*
X10640250Y-12764756D02*
X10525964Y-12764756D01*
X10583107Y-12764756D02*
X10583107Y-12564756D01*
X10564059Y-12593328D01*
X10545011Y-12612375D01*
X10525964Y-12621899D01*
X10821202Y-12564756D02*
X10725964Y-12564756D01*
X10716440Y-12659994D01*
X10725964Y-12650470D01*
X10745011Y-12640947D01*
X10792630Y-12640947D01*
X10811678Y-12650470D01*
X10821202Y-12659994D01*
X10830726Y-12679042D01*
X10830726Y-12726661D01*
X10821202Y-12745708D01*
X10811678Y-12755232D01*
X10792630Y-12764756D01*
X10745011Y-12764756D01*
X10725964Y-12755232D01*
X10716440Y-12745708D01*
X10906916Y-12564756D02*
X10906916Y-12602851D01*
X10983107Y-12564756D02*
X10983107Y-12602851D01*
X11278345Y-12840947D02*
X11268821Y-12831423D01*
X11249773Y-12802851D01*
X11240249Y-12783804D01*
X11230726Y-12755232D01*
X11221202Y-12707613D01*
X11221202Y-12669518D01*
X11230726Y-12621899D01*
X11240249Y-12593328D01*
X11249773Y-12574280D01*
X11268821Y-12545708D01*
X11278345Y-12536185D01*
X11440249Y-12631423D02*
X11440249Y-12764756D01*
X11392630Y-12555232D02*
X11345011Y-12698089D01*
X11468821Y-12698089D01*
X11535488Y-12583804D02*
X11545011Y-12574280D01*
X11564059Y-12564756D01*
X11611678Y-12564756D01*
X11630726Y-12574280D01*
X11640249Y-12583804D01*
X11649773Y-12602851D01*
X11649773Y-12621899D01*
X11640249Y-12650470D01*
X11525964Y-12764756D01*
X11649773Y-12764756D01*
X11887868Y-12764756D02*
X11887868Y-12564756D01*
X11973583Y-12764756D02*
X11973583Y-12659994D01*
X11964059Y-12640947D01*
X11945011Y-12631423D01*
X11916440Y-12631423D01*
X11897392Y-12640947D01*
X11887868Y-12650470D01*
X12097392Y-12764756D02*
X12078345Y-12755232D01*
X12068821Y-12745708D01*
X12059297Y-12726661D01*
X12059297Y-12669518D01*
X12068821Y-12650470D01*
X12078345Y-12640947D01*
X12097392Y-12631423D01*
X12125964Y-12631423D01*
X12145011Y-12640947D01*
X12154535Y-12650470D01*
X12164059Y-12669518D01*
X12164059Y-12726661D01*
X12154535Y-12745708D01*
X12145011Y-12755232D01*
X12125964Y-12764756D01*
X12097392Y-12764756D01*
X12278345Y-12764756D02*
X12259297Y-12755232D01*
X12249773Y-12736185D01*
X12249773Y-12564756D01*
X12430726Y-12755232D02*
X12411678Y-12764756D01*
X12373583Y-12764756D01*
X12354535Y-12755232D01*
X12345011Y-12736185D01*
X12345011Y-12659994D01*
X12354535Y-12640947D01*
X12373583Y-12631423D01*
X12411678Y-12631423D01*
X12430726Y-12640947D01*
X12440249Y-12659994D01*
X12440249Y-12679042D01*
X12345011Y-12698089D01*
X12516440Y-12755232D02*
X12535488Y-12764756D01*
X12573583Y-12764756D01*
X12592630Y-12755232D01*
X12602154Y-12736185D01*
X12602154Y-12726661D01*
X12592630Y-12707613D01*
X12573583Y-12698089D01*
X12545011Y-12698089D01*
X12525964Y-12688566D01*
X12516440Y-12669518D01*
X12516440Y-12659994D01*
X12525964Y-12640947D01*
X12545011Y-12631423D01*
X12573583Y-12631423D01*
X12592630Y-12640947D01*
X12668821Y-12840947D02*
X12678345Y-12831423D01*
X12697392Y-12802851D01*
X12706916Y-12783804D01*
X12716440Y-12755232D01*
X12725964Y-12707613D01*
X12725964Y-12669518D01*
X12716440Y-12621899D01*
X12706916Y-12593328D01*
X12697392Y-12574280D01*
X12678345Y-12545708D01*
X12668821Y-12536185D01*
D14*
X7656440Y-12888280D02*
X7656440Y-12988280D01*
X7606440Y-12938280D02*
X7706440Y-12938280D01*
D11*
X8068821Y-13028756D02*
X7954535Y-13028756D01*
X8011678Y-13028756D02*
X8011678Y-12828756D01*
X7992630Y-12857328D01*
X7973583Y-12876375D01*
X7954535Y-12885899D01*
X8154535Y-13009708D02*
X8164059Y-13019232D01*
X8154535Y-13028756D01*
X8145011Y-13019232D01*
X8154535Y-13009708D01*
X8154535Y-13028756D01*
X8287868Y-12828756D02*
X8306916Y-12828756D01*
X8325964Y-12838280D01*
X8335488Y-12847804D01*
X8345011Y-12866851D01*
X8354535Y-12904947D01*
X8354535Y-12952566D01*
X8345011Y-12990661D01*
X8335488Y-13009708D01*
X8325964Y-13019232D01*
X8306916Y-13028756D01*
X8287868Y-13028756D01*
X8268821Y-13019232D01*
X8259297Y-13009708D01*
X8249773Y-12990661D01*
X8240249Y-12952566D01*
X8240249Y-12904947D01*
X8249773Y-12866851D01*
X8259297Y-12847804D01*
X8268821Y-12838280D01*
X8287868Y-12828756D01*
X8478345Y-12828756D02*
X8497392Y-12828756D01*
X8516440Y-12838280D01*
X8525964Y-12847804D01*
X8535488Y-12866851D01*
X8545011Y-12904947D01*
X8545011Y-12952566D01*
X8535488Y-12990661D01*
X8525964Y-13009708D01*
X8516440Y-13019232D01*
X8497392Y-13028756D01*
X8478345Y-13028756D01*
X8459297Y-13019232D01*
X8449773Y-13009708D01*
X8440250Y-12990661D01*
X8430726Y-12952566D01*
X8430726Y-12904947D01*
X8440250Y-12866851D01*
X8449773Y-12847804D01*
X8459297Y-12838280D01*
X8478345Y-12828756D01*
X8668821Y-12828756D02*
X8687869Y-12828756D01*
X8706916Y-12838280D01*
X8716440Y-12847804D01*
X8725964Y-12866851D01*
X8735488Y-12904947D01*
X8735488Y-12952566D01*
X8725964Y-12990661D01*
X8716440Y-13009708D01*
X8706916Y-13019232D01*
X8687869Y-13028756D01*
X8668821Y-13028756D01*
X8649773Y-13019232D01*
X8640250Y-13009708D01*
X8630726Y-12990661D01*
X8621202Y-12952566D01*
X8621202Y-12904947D01*
X8630726Y-12866851D01*
X8640250Y-12847804D01*
X8649773Y-12838280D01*
X8668821Y-12828756D01*
X8821202Y-13028756D02*
X8821202Y-12895423D01*
X8821202Y-12914470D02*
X8830726Y-12904947D01*
X8849773Y-12895423D01*
X8878345Y-12895423D01*
X8897392Y-12904947D01*
X8906916Y-12923994D01*
X8906916Y-13028756D01*
X8906916Y-12923994D02*
X8916440Y-12904947D01*
X8935488Y-12895423D01*
X8964059Y-12895423D01*
X8983107Y-12904947D01*
X8992630Y-12923994D01*
X8992630Y-13028756D01*
X9087869Y-13028756D02*
X9087869Y-12895423D01*
X9087869Y-12914470D02*
X9097392Y-12904947D01*
X9116440Y-12895423D01*
X9145011Y-12895423D01*
X9164059Y-12904947D01*
X9173583Y-12923994D01*
X9173583Y-13028756D01*
X9173583Y-12923994D02*
X9183107Y-12904947D01*
X9202154Y-12895423D01*
X9230726Y-12895423D01*
X9249773Y-12904947D01*
X9259297Y-12923994D01*
X9259297Y-13028756D01*
X9649773Y-12819232D02*
X9478345Y-13076375D01*
X9906916Y-12828756D02*
X9925964Y-12828756D01*
X9945011Y-12838280D01*
X9954535Y-12847804D01*
X9964059Y-12866851D01*
X9973583Y-12904947D01*
X9973583Y-12952566D01*
X9964059Y-12990661D01*
X9954535Y-13009708D01*
X9945011Y-13019232D01*
X9925964Y-13028756D01*
X9906916Y-13028756D01*
X9887869Y-13019232D01*
X9878345Y-13009708D01*
X9868821Y-12990661D01*
X9859297Y-12952566D01*
X9859297Y-12904947D01*
X9868821Y-12866851D01*
X9878345Y-12847804D01*
X9887869Y-12838280D01*
X9906916Y-12828756D01*
X10059297Y-13009708D02*
X10068821Y-13019232D01*
X10059297Y-13028756D01*
X10049773Y-13019232D01*
X10059297Y-13009708D01*
X10059297Y-13028756D01*
X10192630Y-12828756D02*
X10211678Y-12828756D01*
X10230726Y-12838280D01*
X10240250Y-12847804D01*
X10249773Y-12866851D01*
X10259297Y-12904947D01*
X10259297Y-12952566D01*
X10249773Y-12990661D01*
X10240250Y-13009708D01*
X10230726Y-13019232D01*
X10211678Y-13028756D01*
X10192630Y-13028756D01*
X10173583Y-13019232D01*
X10164059Y-13009708D01*
X10154535Y-12990661D01*
X10145011Y-12952566D01*
X10145011Y-12904947D01*
X10154535Y-12866851D01*
X10164059Y-12847804D01*
X10173583Y-12838280D01*
X10192630Y-12828756D01*
X10325964Y-12828756D02*
X10449773Y-12828756D01*
X10383107Y-12904947D01*
X10411678Y-12904947D01*
X10430726Y-12914470D01*
X10440250Y-12923994D01*
X10449773Y-12943042D01*
X10449773Y-12990661D01*
X10440250Y-13009708D01*
X10430726Y-13019232D01*
X10411678Y-13028756D01*
X10354535Y-13028756D01*
X10335488Y-13019232D01*
X10325964Y-13009708D01*
X10545011Y-13028756D02*
X10583107Y-13028756D01*
X10602154Y-13019232D01*
X10611678Y-13009708D01*
X10630726Y-12981137D01*
X10640250Y-12943042D01*
X10640250Y-12866851D01*
X10630726Y-12847804D01*
X10621202Y-12838280D01*
X10602154Y-12828756D01*
X10564059Y-12828756D01*
X10545011Y-12838280D01*
X10535488Y-12847804D01*
X10525964Y-12866851D01*
X10525964Y-12914470D01*
X10535488Y-12933518D01*
X10545011Y-12943042D01*
X10564059Y-12952566D01*
X10602154Y-12952566D01*
X10621202Y-12943042D01*
X10630726Y-12933518D01*
X10640250Y-12914470D01*
X10811678Y-12895423D02*
X10811678Y-13028756D01*
X10764059Y-12819232D02*
X10716440Y-12962089D01*
X10840250Y-12962089D01*
X10906916Y-12828756D02*
X10906916Y-12866851D01*
X10983107Y-12828756D02*
X10983107Y-12866851D01*
X11278345Y-13104947D02*
X11268821Y-13095423D01*
X11249773Y-13066851D01*
X11240249Y-13047804D01*
X11230726Y-13019232D01*
X11221202Y-12971613D01*
X11221202Y-12933518D01*
X11230726Y-12885899D01*
X11240249Y-12857328D01*
X11249773Y-12838280D01*
X11268821Y-12809708D01*
X11278345Y-12800185D01*
X11335488Y-12828756D02*
X11459297Y-12828756D01*
X11392630Y-12904947D01*
X11421202Y-12904947D01*
X11440249Y-12914470D01*
X11449773Y-12923994D01*
X11459297Y-12943042D01*
X11459297Y-12990661D01*
X11449773Y-13009708D01*
X11440249Y-13019232D01*
X11421202Y-13028756D01*
X11364059Y-13028756D01*
X11345011Y-13019232D01*
X11335488Y-13009708D01*
X11573583Y-12914470D02*
X11554535Y-12904947D01*
X11545011Y-12895423D01*
X11535488Y-12876375D01*
X11535488Y-12866851D01*
X11545011Y-12847804D01*
X11554535Y-12838280D01*
X11573583Y-12828756D01*
X11611678Y-12828756D01*
X11630726Y-12838280D01*
X11640249Y-12847804D01*
X11649773Y-12866851D01*
X11649773Y-12876375D01*
X11640249Y-12895423D01*
X11630726Y-12904947D01*
X11611678Y-12914470D01*
X11573583Y-12914470D01*
X11554535Y-12923994D01*
X11545011Y-12933518D01*
X11535488Y-12952566D01*
X11535488Y-12990661D01*
X11545011Y-13009708D01*
X11554535Y-13019232D01*
X11573583Y-13028756D01*
X11611678Y-13028756D01*
X11630726Y-13019232D01*
X11640249Y-13009708D01*
X11649773Y-12990661D01*
X11649773Y-12952566D01*
X11640249Y-12933518D01*
X11630726Y-12923994D01*
X11611678Y-12914470D01*
X11887868Y-13028756D02*
X11887868Y-12828756D01*
X11973583Y-13028756D02*
X11973583Y-12923994D01*
X11964059Y-12904947D01*
X11945011Y-12895423D01*
X11916440Y-12895423D01*
X11897392Y-12904947D01*
X11887868Y-12914470D01*
X12097392Y-13028756D02*
X12078345Y-13019232D01*
X12068821Y-13009708D01*
X12059297Y-12990661D01*
X12059297Y-12933518D01*
X12068821Y-12914470D01*
X12078345Y-12904947D01*
X12097392Y-12895423D01*
X12125964Y-12895423D01*
X12145011Y-12904947D01*
X12154535Y-12914470D01*
X12164059Y-12933518D01*
X12164059Y-12990661D01*
X12154535Y-13009708D01*
X12145011Y-13019232D01*
X12125964Y-13028756D01*
X12097392Y-13028756D01*
X12278345Y-13028756D02*
X12259297Y-13019232D01*
X12249773Y-13000185D01*
X12249773Y-12828756D01*
X12430726Y-13019232D02*
X12411678Y-13028756D01*
X12373583Y-13028756D01*
X12354535Y-13019232D01*
X12345011Y-13000185D01*
X12345011Y-12923994D01*
X12354535Y-12904947D01*
X12373583Y-12895423D01*
X12411678Y-12895423D01*
X12430726Y-12904947D01*
X12440249Y-12923994D01*
X12440249Y-12943042D01*
X12345011Y-12962089D01*
X12516440Y-13019232D02*
X12535488Y-13028756D01*
X12573583Y-13028756D01*
X12592630Y-13019232D01*
X12602154Y-13000185D01*
X12602154Y-12990661D01*
X12592630Y-12971613D01*
X12573583Y-12962089D01*
X12545011Y-12962089D01*
X12525964Y-12952566D01*
X12516440Y-12933518D01*
X12516440Y-12923994D01*
X12525964Y-12904947D01*
X12545011Y-12895423D01*
X12573583Y-12895423D01*
X12592630Y-12904947D01*
X12668821Y-13104947D02*
X12678345Y-13095423D01*
X12697392Y-13066851D01*
X12706916Y-13047804D01*
X12716440Y-13019232D01*
X12725964Y-12971613D01*
X12725964Y-12933518D01*
X12716440Y-12885899D01*
X12706916Y-12857328D01*
X12697392Y-12838280D01*
X12678345Y-12809708D01*
X12668821Y-12800185D01*
M02*
