%TF.GenerationSoftware,KiCad,Pcbnew,(6.0.6)*%
%TF.CreationDate,2022-12-23T09:56:40-08:00*%
%TF.ProjectId,AS-MULTI-UNO-01,41532d4d-554c-4544-992d-554e4f2d3031,rev?*%
%TF.SameCoordinates,Original*%
%TF.FileFunction,Copper,L2,Bot*%
%TF.FilePolarity,Positive*%
%FSLAX46Y46*%
G04 Gerber Fmt 4.6, Leading zero omitted, Abs format (unit mm)*
G04 Created by KiCad (PCBNEW (6.0.6)) date 2022-12-23 09:56:40*
%MOMM*%
%LPD*%
G01*
G04 APERTURE LIST*
G04 Aperture macros list*
%AMRoundRect*
0 Rectangle with rounded corners*
0 $1 Rounding radius*
0 $2 $3 $4 $5 $6 $7 $8 $9 X,Y pos of 4 corners*
0 Add a 4 corners polygon primitive as box body*
4,1,4,$2,$3,$4,$5,$6,$7,$8,$9,$2,$3,0*
0 Add four circle primitives for the rounded corners*
1,1,$1+$1,$2,$3*
1,1,$1+$1,$4,$5*
1,1,$1+$1,$6,$7*
1,1,$1+$1,$8,$9*
0 Add four rect primitives between the rounded corners*
20,1,$1+$1,$2,$3,$4,$5,0*
20,1,$1+$1,$4,$5,$6,$7,0*
20,1,$1+$1,$6,$7,$8,$9,0*
20,1,$1+$1,$8,$9,$2,$3,0*%
G04 Aperture macros list end*
%TA.AperFunction,ComponentPad*%
%ADD10C,2.000000*%
%TD*%
%TA.AperFunction,ComponentPad*%
%ADD11R,1.700000X1.700000*%
%TD*%
%TA.AperFunction,ComponentPad*%
%ADD12O,1.700000X1.700000*%
%TD*%
%TA.AperFunction,ComponentPad*%
%ADD13RoundRect,0.250000X0.750000X-0.600000X0.750000X0.600000X-0.750000X0.600000X-0.750000X-0.600000X0*%
%TD*%
%TA.AperFunction,ComponentPad*%
%ADD14O,2.000000X1.700000*%
%TD*%
%TA.AperFunction,ComponentPad*%
%ADD15C,1.600000*%
%TD*%
%TA.AperFunction,ComponentPad*%
%ADD16R,1.600000X1.600000*%
%TD*%
%TA.AperFunction,ComponentPad*%
%ADD17O,1.600000X1.600000*%
%TD*%
%TA.AperFunction,ComponentPad*%
%ADD18C,1.500000*%
%TD*%
%TA.AperFunction,ViaPad*%
%ADD19C,0.800000*%
%TD*%
%TA.AperFunction,Conductor*%
%ADD20C,0.250000*%
%TD*%
%TA.AperFunction,Conductor*%
%ADD21C,0.750000*%
%TD*%
G04 APERTURE END LIST*
D10*
%TO.P,SW1,1,1*%
%TO.N,/DTR*%
X143331000Y-111186400D03*
X136831000Y-111186400D03*
%TO.P,SW1,2,2*%
%TO.N,GND*%
X136831000Y-115686400D03*
X143331000Y-115686400D03*
%TD*%
D11*
%TO.P,J3,1,Pin_1*%
%TO.N,/DTR*%
X134766200Y-94513400D03*
D12*
%TO.P,J3,2,Pin_2*%
%TO.N,/D1{slash}TX*%
X134766200Y-97053400D03*
%TO.P,J3,3,Pin_3*%
%TO.N,/D0{slash}RX*%
X134766200Y-99593400D03*
%TO.P,J3,4,Pin_4*%
%TO.N,VCC*%
X134766200Y-102133400D03*
%TO.P,J3,5,Pin_5*%
%TO.N,/CTS*%
X134766200Y-104673400D03*
%TO.P,J3,6,Pin_6*%
%TO.N,GND*%
X134766200Y-107213400D03*
%TD*%
D13*
%TO.P,J2,1,Pin_1*%
%TO.N,VCC*%
X137337800Y-73177400D03*
D14*
%TO.P,J2,2,Pin_2*%
%TO.N,GND*%
X137337800Y-70677400D03*
%TD*%
D15*
%TO.P,C4,1*%
%TO.N,VCC*%
X97149600Y-94259400D03*
%TO.P,C4,2*%
%TO.N,GND*%
X99649600Y-94259400D03*
%TD*%
%TO.P,C2,1*%
%TO.N,/XTAL2*%
X105054400Y-102616000D03*
%TO.P,C2,2*%
%TO.N,GND*%
X107554400Y-102616000D03*
%TD*%
%TO.P,C3,1*%
%TO.N,VCC*%
X102265800Y-80619600D03*
%TO.P,C3,2*%
%TO.N,GND*%
X99765800Y-80619600D03*
%TD*%
%TO.P,C5,1*%
%TO.N,/AREF*%
X121889200Y-109321600D03*
%TO.P,C5,2*%
%TO.N,GND*%
X124389200Y-109321600D03*
%TD*%
D16*
%TO.P,U1,1,~{RESET}/PC6*%
%TO.N,/DTR*%
X81940400Y-91313000D03*
D17*
%TO.P,U1,2,PD0*%
%TO.N,/D0{slash}RX*%
X84480400Y-91313000D03*
%TO.P,U1,3,PD1*%
%TO.N,/D1{slash}TX*%
X87020400Y-91313000D03*
%TO.P,U1,4,PD2*%
%TO.N,/D2*%
X89560400Y-91313000D03*
%TO.P,U1,5,PD3*%
%TO.N,/D3*%
X92100400Y-91313000D03*
%TO.P,U1,6,PD4*%
%TO.N,/D4*%
X94640400Y-91313000D03*
%TO.P,U1,7,VCC*%
%TO.N,VCC*%
X97180400Y-91313000D03*
%TO.P,U1,8,GND*%
%TO.N,GND*%
X99720400Y-91313000D03*
%TO.P,U1,9,XTAL1/PB6*%
%TO.N,/XTAL1*%
X102260400Y-91313000D03*
%TO.P,U1,10,XTAL2/PB7*%
%TO.N,/XTAL2*%
X104800400Y-91313000D03*
%TO.P,U1,11,PD5*%
%TO.N,/D5*%
X107340400Y-91313000D03*
%TO.P,U1,12,PD6*%
%TO.N,/D6*%
X109880400Y-91313000D03*
%TO.P,U1,13,PD7*%
%TO.N,/D7*%
X112420400Y-91313000D03*
%TO.P,U1,14,PB0*%
%TO.N,/D8*%
X114960400Y-91313000D03*
%TO.P,U1,15,PB1*%
%TO.N,/D9*%
X114960400Y-83693000D03*
%TO.P,U1,16,PB2*%
%TO.N,/D10*%
X112420400Y-83693000D03*
%TO.P,U1,17,PB3*%
%TO.N,/D11*%
X109880400Y-83693000D03*
%TO.P,U1,18,PB4*%
%TO.N,/D12*%
X107340400Y-83693000D03*
%TO.P,U1,19,PB5*%
%TO.N,/D13*%
X104800400Y-83693000D03*
%TO.P,U1,20,AVCC*%
%TO.N,VCC*%
X102260400Y-83693000D03*
%TO.P,U1,21,AREF*%
%TO.N,/AREF*%
X99720400Y-83693000D03*
%TO.P,U1,22,GND*%
%TO.N,GND*%
X97180400Y-83693000D03*
%TO.P,U1,23,PC0*%
%TO.N,/A0*%
X94640400Y-83693000D03*
%TO.P,U1,24,PC1*%
%TO.N,/A1*%
X92100400Y-83693000D03*
%TO.P,U1,25,PC2*%
%TO.N,/A2*%
X89560400Y-83693000D03*
%TO.P,U1,26,PC3*%
%TO.N,/A3*%
X87020400Y-83693000D03*
%TO.P,U1,27,PC4*%
%TO.N,/A4*%
X84480400Y-83693000D03*
%TO.P,U1,28,PC5*%
%TO.N,/A5*%
X81940400Y-83693000D03*
%TD*%
D11*
%TO.P,J1,1,Pin_1*%
%TO.N,/D12*%
X131531600Y-84856400D03*
D12*
%TO.P,J1,2,Pin_2*%
%TO.N,VCC*%
X131531600Y-87396400D03*
%TO.P,J1,3,Pin_3*%
%TO.N,/D13*%
X128991600Y-84856400D03*
%TO.P,J1,4,Pin_4*%
%TO.N,/D11*%
X128991600Y-87396400D03*
%TO.P,J1,5,Pin_5*%
%TO.N,/DTR*%
X126451600Y-84856400D03*
%TO.P,J1,6,Pin_6*%
%TO.N,GND*%
X126451600Y-87396400D03*
%TD*%
D15*
%TO.P,R1,1*%
%TO.N,VCC*%
X120243600Y-74218800D03*
D17*
%TO.P,R1,2*%
%TO.N,/DTR*%
X112623600Y-74218800D03*
%TD*%
D18*
%TO.P,Y1,1,1*%
%TO.N,/XTAL1*%
X101244400Y-98425000D03*
%TO.P,Y1,2,2*%
%TO.N,/XTAL2*%
X106124400Y-98425000D03*
%TD*%
D15*
%TO.P,C1,1*%
%TO.N,/XTAL1*%
X101376800Y-102590600D03*
%TO.P,C1,2*%
%TO.N,GND*%
X98876800Y-102590600D03*
%TD*%
D16*
%TO.P,A1,1,NC*%
%TO.N,unconnected-(A1-Pad1)*%
X117805200Y-66852800D03*
D17*
%TO.P,A1,2,IOREF*%
%TO.N,VCC*%
X115265200Y-66852800D03*
%TO.P,A1,3,~{RESET}*%
%TO.N,/DTR*%
X112725200Y-66852800D03*
%TO.P,A1,4,3V3*%
%TO.N,VCC*%
X110185200Y-66852800D03*
%TO.P,A1,5,+5V*%
X107645200Y-66852800D03*
%TO.P,A1,6,GND*%
%TO.N,GND*%
X105105200Y-66852800D03*
%TO.P,A1,7,GND*%
X102565200Y-66852800D03*
%TO.P,A1,8,VIN*%
%TO.N,VCC*%
X100025200Y-66852800D03*
%TO.P,A1,9,A0*%
%TO.N,/A0*%
X94945200Y-66852800D03*
%TO.P,A1,10,A1*%
%TO.N,/A1*%
X92405200Y-66852800D03*
%TO.P,A1,11,A2*%
%TO.N,/A2*%
X89865200Y-66852800D03*
%TO.P,A1,12,A3*%
%TO.N,/A3*%
X87325200Y-66852800D03*
%TO.P,A1,13,SDA/A4*%
%TO.N,/A4*%
X84785200Y-66852800D03*
%TO.P,A1,14,SCL/A5*%
%TO.N,/A5*%
X82245200Y-66852800D03*
%TO.P,A1,15,D0/RX*%
%TO.N,/D0{slash}RX*%
X82245200Y-115112800D03*
%TO.P,A1,16,D1/TX*%
%TO.N,/D1{slash}TX*%
X84785200Y-115112800D03*
%TO.P,A1,17,D2*%
%TO.N,/D2*%
X87325200Y-115112800D03*
%TO.P,A1,18,D3*%
%TO.N,/D3*%
X89865200Y-115112800D03*
%TO.P,A1,19,D4*%
%TO.N,/D4*%
X92405200Y-115112800D03*
%TO.P,A1,20,D5*%
%TO.N,/D5*%
X94945200Y-115112800D03*
%TO.P,A1,21,D6*%
%TO.N,/D6*%
X97485200Y-115112800D03*
%TO.P,A1,22,D7*%
%TO.N,/D7*%
X100025200Y-115112800D03*
%TO.P,A1,23,D8*%
%TO.N,/D8*%
X104085200Y-115112800D03*
%TO.P,A1,24,D9*%
%TO.N,/D9*%
X106625200Y-115112800D03*
%TO.P,A1,25,D10*%
%TO.N,/D10*%
X109165200Y-115112800D03*
%TO.P,A1,26,D11*%
%TO.N,/D11*%
X111705200Y-115112800D03*
%TO.P,A1,27,D12*%
%TO.N,/D12*%
X114245200Y-115112800D03*
%TO.P,A1,28,D13*%
%TO.N,/D13*%
X116785200Y-115112800D03*
%TO.P,A1,29,GND*%
%TO.N,GND*%
X119325200Y-115112800D03*
%TO.P,A1,30,AREF*%
%TO.N,/AREF*%
X121865200Y-115112800D03*
%TO.P,A1,31,SDA/A4*%
%TO.N,/A4*%
X124405200Y-115112800D03*
%TO.P,A1,32,SCL/A5*%
%TO.N,/A5*%
X126945200Y-115112800D03*
%TD*%
D19*
%TO.N,/D0{slash}RX*%
X105308400Y-112039400D03*
%TO.N,/D1{slash}TX*%
X105283000Y-111023400D03*
%TO.N,/D0{slash}RX*%
X102082600Y-112039400D03*
%TO.N,/D1{slash}TX*%
X102133400Y-111023400D03*
%TO.N,/D0{slash}RX*%
X98602800Y-112039400D03*
%TO.N,/D1{slash}TX*%
X98704400Y-111023400D03*
%TO.N,/D0{slash}RX*%
X94615000Y-109143800D03*
%TO.N,/D1{slash}TX*%
X94615000Y-107848400D03*
%TO.N,/D0{slash}RX*%
X92811600Y-109143800D03*
%TO.N,/D1{slash}TX*%
X92811600Y-107848400D03*
%TO.N,/D0{slash}RX*%
X91287600Y-109143800D03*
%TO.N,/D1{slash}TX*%
X91262200Y-107848400D03*
X89560400Y-107848400D03*
%TO.N,/D0{slash}RX*%
X89560400Y-109143800D03*
%TO.N,/D5*%
X90754200Y-89458800D03*
X97104200Y-89458800D03*
%TO.N,/D6*%
X93345000Y-88519000D03*
X98374200Y-88519000D03*
%TO.N,/D9*%
X106781600Y-105892600D03*
%TO.N,/D10*%
X111125000Y-94386400D03*
%TO.N,/D11*%
X110769400Y-96062800D03*
%TO.N,/D12*%
X123901200Y-81127600D03*
X111556800Y-98679000D03*
%TO.N,/D13*%
X104800400Y-86674100D03*
%TD*%
D20*
%TO.N,/D0{slash}RX*%
X117754400Y-99593400D02*
X134766200Y-99593400D01*
X105308400Y-112039400D02*
X117754400Y-99593400D01*
%TO.N,/D1{slash}TX*%
X119253000Y-97053400D02*
X134766200Y-97053400D01*
X105283000Y-111023400D02*
X119253000Y-97053400D01*
%TO.N,/D0{slash}RX*%
X98602800Y-112039400D02*
X102082600Y-112039400D01*
%TO.N,/D1{slash}TX*%
X98704400Y-111023400D02*
X102133400Y-111023400D01*
%TO.N,/D0{slash}RX*%
X92811600Y-109143800D02*
X94615000Y-109143800D01*
%TO.N,/D1{slash}TX*%
X92811600Y-107848400D02*
X94615000Y-107848400D01*
%TO.N,/D4*%
X95554800Y-104902000D02*
X95554800Y-111963200D01*
X95554800Y-111963200D02*
X92405200Y-115112800D01*
X94640400Y-103987600D02*
X95554800Y-104902000D01*
X94640400Y-91313000D02*
X94640400Y-103987600D01*
%TO.N,/D3*%
X92024200Y-112953800D02*
X89865200Y-115112800D01*
X92024200Y-91389200D02*
X92024200Y-112953800D01*
X92100400Y-91313000D02*
X92024200Y-91389200D01*
%TO.N,/D1{slash}TX*%
X89560400Y-107848400D02*
X91262200Y-107848400D01*
%TO.N,/D0{slash}RX*%
X89560400Y-109143800D02*
X91287600Y-109143800D01*
%TO.N,/D2*%
X88823800Y-113614200D02*
X87325200Y-115112800D01*
X89560400Y-91313000D02*
X88823800Y-92049600D01*
X88823800Y-92049600D02*
X88823800Y-113614200D01*
D21*
%TO.N,VCC*%
X139573000Y-97326600D02*
X134766200Y-102133400D01*
X136291400Y-87396400D02*
X139573000Y-90678000D01*
X131531600Y-87396400D02*
X136291400Y-87396400D01*
X139573000Y-90678000D02*
X139573000Y-97326600D01*
D20*
X100025200Y-66852800D02*
X100025200Y-68300600D01*
D21*
X135204200Y-81330800D02*
X135204200Y-83723800D01*
X110185200Y-68961000D02*
X110921800Y-69697600D01*
X104317800Y-70180200D02*
X107645200Y-66852800D01*
X100025200Y-68300600D02*
X101904800Y-70180200D01*
X112420400Y-69697600D02*
X115265200Y-66852800D01*
X100025200Y-78379000D02*
X102265800Y-80619600D01*
X97180400Y-91313000D02*
X97180400Y-94228600D01*
X107645200Y-66852800D02*
X110185200Y-66852800D01*
X102260400Y-86233000D02*
X97180400Y-91313000D01*
X135204200Y-83723800D02*
X131531600Y-87396400D01*
D20*
X97180400Y-94228600D02*
X97149600Y-94259400D01*
D21*
X100025200Y-66852800D02*
X100025200Y-78379000D01*
X115265200Y-69240400D02*
X120243600Y-74218800D01*
X128092200Y-74218800D02*
X135204200Y-81330800D01*
X110185200Y-66852800D02*
X110185200Y-68961000D01*
X101904800Y-70180200D02*
X104317800Y-70180200D01*
D20*
X102260400Y-80625000D02*
X102265800Y-80619600D01*
D21*
X136296400Y-74218800D02*
X137337800Y-73177400D01*
X102260400Y-83693000D02*
X102260400Y-86233000D01*
X120243600Y-74218800D02*
X128092200Y-74218800D01*
X128092200Y-74218800D02*
X136296400Y-74218800D01*
X102260400Y-83693000D02*
X102260400Y-80625000D01*
X110921800Y-69697600D02*
X112420400Y-69697600D01*
X115265200Y-66852800D02*
X115265200Y-69240400D01*
D20*
%TO.N,/A0*%
X94945200Y-66852800D02*
X94945200Y-83388200D01*
X94945200Y-83388200D02*
X94640400Y-83693000D01*
%TO.N,/A1*%
X92405200Y-83388200D02*
X92100400Y-83693000D01*
X92405200Y-66852800D02*
X92405200Y-83388200D01*
%TO.N,/A2*%
X89865200Y-83388200D02*
X89560400Y-83693000D01*
X89865200Y-66852800D02*
X89865200Y-83388200D01*
%TO.N,/A3*%
X87325200Y-66852800D02*
X87325200Y-83388200D01*
X87325200Y-83388200D02*
X87020400Y-83693000D01*
%TO.N,/A4*%
X84785200Y-83388200D02*
X84480400Y-83693000D01*
X84785200Y-66852800D02*
X84785200Y-83388200D01*
%TO.N,/A5*%
X82245200Y-83388200D02*
X81940400Y-83693000D01*
X82245200Y-66852800D02*
X82245200Y-83388200D01*
%TO.N,/D0{slash}RX*%
X84480400Y-91313000D02*
X84480400Y-112877600D01*
X84480400Y-112877600D02*
X82245200Y-115112800D01*
%TO.N,/D1{slash}TX*%
X87020400Y-91313000D02*
X87020400Y-112877600D01*
X87020400Y-112877600D02*
X84785200Y-115112800D01*
%TO.N,/D5*%
X97104200Y-89458800D02*
X90754200Y-89458800D01*
%TO.N,/D6*%
X98374200Y-88519000D02*
X93345000Y-88519000D01*
%TO.N,/D8*%
X104085200Y-110417800D02*
X114960400Y-99542600D01*
X104085200Y-115112800D02*
X104085200Y-110417800D01*
X114960400Y-99542600D02*
X114960400Y-91313000D01*
%TO.N,/D9*%
X114960400Y-83693000D02*
X113766600Y-84886800D01*
X113766600Y-84886800D02*
X113766600Y-98907600D01*
X113766600Y-98907600D02*
X106781600Y-105892600D01*
%TO.N,/D10*%
X111125000Y-84988400D02*
X111125000Y-94386400D01*
X112420400Y-83693000D02*
X111125000Y-84988400D01*
%TO.N,/D11*%
X109880400Y-83693000D02*
X111633000Y-81940400D01*
X111633000Y-81940400D02*
X117119400Y-81940400D01*
X126649800Y-89738200D02*
X128991600Y-87396400D01*
X108585000Y-93878400D02*
X110769400Y-96062800D01*
X117119400Y-81940400D02*
X124917200Y-89738200D01*
X108585000Y-84988400D02*
X108585000Y-93878400D01*
X124917200Y-89738200D02*
X126649800Y-89738200D01*
X109880400Y-83693000D02*
X108585000Y-84988400D01*
%TO.N,/D12*%
X109905800Y-81127600D02*
X123901200Y-81127600D01*
X106215400Y-84818000D02*
X106215400Y-93337600D01*
X106215400Y-93337600D02*
X111556800Y-98679000D01*
X107340400Y-83693000D02*
X106215400Y-84818000D01*
X107340400Y-83693000D02*
X109905800Y-81127600D01*
%TO.N,/D13*%
X104800400Y-83693000D02*
X108610400Y-79883000D01*
X124018200Y-79883000D02*
X128991600Y-84856400D01*
X108610400Y-79883000D02*
X124018200Y-79883000D01*
X104800400Y-86674100D02*
X104800400Y-83693000D01*
%TO.N,/XTAL1*%
X102260400Y-91313000D02*
X102260400Y-97409000D01*
X102260400Y-97409000D02*
X101305600Y-98363800D01*
X101305600Y-98363800D02*
X101305600Y-102519400D01*
X101305600Y-102519400D02*
X101376800Y-102590600D01*
%TO.N,/XTAL2*%
X104800400Y-97101000D02*
X106124400Y-98425000D01*
X106124400Y-98425000D02*
X105054400Y-99495000D01*
X104800400Y-91313000D02*
X104800400Y-97101000D01*
X105054400Y-99495000D02*
X105054400Y-102616000D01*
%TD*%
%TA.AperFunction,Conductor*%
%TO.N,GND*%
G36*
X145509021Y-64511102D02*
G01*
X145555514Y-64564758D01*
X145566900Y-64617100D01*
X145566900Y-67123577D01*
X145566898Y-67124347D01*
X145566424Y-67201921D01*
X145568891Y-67210552D01*
X145574550Y-67230353D01*
X145578128Y-67247115D01*
X145582320Y-67276387D01*
X145586034Y-67284555D01*
X145586034Y-67284556D01*
X145592948Y-67299762D01*
X145599396Y-67317286D01*
X145606451Y-67341971D01*
X145611243Y-67349565D01*
X145611244Y-67349568D01*
X145622230Y-67366980D01*
X145630369Y-67382063D01*
X145642608Y-67408982D01*
X145648469Y-67415784D01*
X145659370Y-67428435D01*
X145670473Y-67443439D01*
X145684176Y-67465158D01*
X145690901Y-67471097D01*
X145690904Y-67471101D01*
X145706338Y-67484732D01*
X145718382Y-67496924D01*
X145731827Y-67512527D01*
X145731830Y-67512529D01*
X145737687Y-67519327D01*
X145745216Y-67524207D01*
X145745217Y-67524208D01*
X145759235Y-67533294D01*
X145774109Y-67544585D01*
X145782261Y-67551784D01*
X145793351Y-67561578D01*
X145820111Y-67574142D01*
X145835091Y-67582463D01*
X145852383Y-67593671D01*
X145852388Y-67593673D01*
X145859915Y-67598552D01*
X145868508Y-67601122D01*
X145868513Y-67601124D01*
X145884520Y-67605911D01*
X145901964Y-67612572D01*
X145917076Y-67619667D01*
X145917078Y-67619668D01*
X145925200Y-67623481D01*
X145934067Y-67624862D01*
X145934068Y-67624862D01*
X145943710Y-67626363D01*
X145954417Y-67628030D01*
X145971132Y-67631813D01*
X145990866Y-67637715D01*
X145990872Y-67637716D01*
X145999466Y-67640286D01*
X146008437Y-67640341D01*
X146008438Y-67640341D01*
X146018497Y-67640402D01*
X146033906Y-67640496D01*
X146034689Y-67640529D01*
X146035786Y-67640700D01*
X146066777Y-67640700D01*
X146067547Y-67640702D01*
X146141185Y-67641152D01*
X146141186Y-67641152D01*
X146145121Y-67641176D01*
X146146465Y-67640792D01*
X146147810Y-67640700D01*
X147347575Y-67640700D01*
X147415696Y-67660702D01*
X147462189Y-67714358D01*
X147473575Y-67766367D01*
X147487630Y-73078951D01*
X147494120Y-75531819D01*
X147495619Y-76098567D01*
X147475797Y-76166740D01*
X147422264Y-76213375D01*
X147369619Y-76224900D01*
X146085415Y-76224900D01*
X146084809Y-76224899D01*
X146013996Y-76224558D01*
X146013995Y-76224558D01*
X146005020Y-76224515D01*
X145996389Y-76226994D01*
X145977001Y-76232562D01*
X145960081Y-76236185D01*
X145940103Y-76239046D01*
X145940097Y-76239048D01*
X145931213Y-76240320D01*
X145923044Y-76244035D01*
X145923042Y-76244035D01*
X145907462Y-76251119D01*
X145890093Y-76257522D01*
X145873652Y-76262244D01*
X145873649Y-76262245D01*
X145865022Y-76264723D01*
X145840380Y-76280316D01*
X145825168Y-76288536D01*
X145798618Y-76300608D01*
X145791815Y-76306470D01*
X145778854Y-76317638D01*
X145763977Y-76328661D01*
X145749526Y-76337805D01*
X145749524Y-76337806D01*
X145741936Y-76342608D01*
X145722664Y-76364487D01*
X145710366Y-76376650D01*
X145695075Y-76389825D01*
X145695071Y-76389830D01*
X145688273Y-76395687D01*
X145683391Y-76403219D01*
X145674085Y-76417576D01*
X145662901Y-76432330D01*
X145645657Y-76451907D01*
X145641854Y-76460034D01*
X145641853Y-76460036D01*
X145633299Y-76478317D01*
X145624907Y-76493447D01*
X145613933Y-76510377D01*
X145613930Y-76510383D01*
X145609048Y-76517915D01*
X145606476Y-76526517D01*
X145601573Y-76542911D01*
X145594980Y-76560210D01*
X145583925Y-76583836D01*
X145582556Y-76592702D01*
X145582555Y-76592706D01*
X145579476Y-76612653D01*
X145575668Y-76629531D01*
X145569885Y-76648866D01*
X145569884Y-76648871D01*
X145567314Y-76657466D01*
X145567259Y-76666438D01*
X145567259Y-76666439D01*
X145567103Y-76692016D01*
X145567059Y-76693085D01*
X145566849Y-76694445D01*
X145566854Y-76698075D01*
X145566890Y-76726225D01*
X145566888Y-76727158D01*
X145566817Y-76738907D01*
X145566424Y-76803121D01*
X145566883Y-76804730D01*
X145566994Y-76806329D01*
X145580022Y-86864028D01*
X145592290Y-96334971D01*
X145592288Y-96335903D01*
X145592010Y-96381529D01*
X145591824Y-96411921D01*
X145597318Y-96431144D01*
X145600064Y-96440752D01*
X145603618Y-96457350D01*
X145607907Y-96487025D01*
X145611633Y-96495192D01*
X145611634Y-96495195D01*
X145618393Y-96510010D01*
X145624909Y-96527681D01*
X145631851Y-96551971D01*
X145647849Y-96577326D01*
X145655919Y-96592260D01*
X145664640Y-96611374D01*
X145668367Y-96619542D01*
X145674233Y-96626332D01*
X145684880Y-96638656D01*
X145696096Y-96653794D01*
X145709576Y-96675158D01*
X145716304Y-96681100D01*
X145732049Y-96695005D01*
X145743987Y-96707074D01*
X145763589Y-96729764D01*
X145784808Y-96743479D01*
X145799806Y-96754847D01*
X145818751Y-96771578D01*
X145845897Y-96784323D01*
X145860737Y-96792554D01*
X145885919Y-96808830D01*
X145910138Y-96816038D01*
X145927731Y-96822744D01*
X145950600Y-96833481D01*
X145980233Y-96838096D01*
X145996789Y-96841831D01*
X146016921Y-96847823D01*
X146016924Y-96847824D01*
X146025524Y-96850383D01*
X146059819Y-96850548D01*
X146060352Y-96850570D01*
X146061186Y-96850700D01*
X146090897Y-96850700D01*
X146091504Y-96850701D01*
X146167980Y-96851070D01*
X146167986Y-96851070D01*
X146171180Y-96851085D01*
X146172259Y-96850775D01*
X146173348Y-96850700D01*
X151790900Y-96850700D01*
X151859021Y-96870702D01*
X151905514Y-96924358D01*
X151916900Y-96976700D01*
X151916900Y-107823500D01*
X151896898Y-107891621D01*
X151843242Y-107938114D01*
X151790900Y-107949500D01*
X146084023Y-107949500D01*
X146083253Y-107949498D01*
X146082437Y-107949493D01*
X146005679Y-107949024D01*
X145983318Y-107955415D01*
X145977247Y-107957150D01*
X145960485Y-107960728D01*
X145931213Y-107964920D01*
X145923045Y-107968634D01*
X145923044Y-107968634D01*
X145907838Y-107975548D01*
X145890314Y-107981996D01*
X145865629Y-107989051D01*
X145858035Y-107993843D01*
X145858032Y-107993844D01*
X145840620Y-108004830D01*
X145825537Y-108012969D01*
X145798618Y-108025208D01*
X145791816Y-108031069D01*
X145779165Y-108041970D01*
X145764161Y-108053073D01*
X145742442Y-108066776D01*
X145736503Y-108073501D01*
X145736499Y-108073504D01*
X145722868Y-108088938D01*
X145710676Y-108100982D01*
X145695073Y-108114427D01*
X145695071Y-108114430D01*
X145688273Y-108120287D01*
X145683393Y-108127816D01*
X145683392Y-108127817D01*
X145674306Y-108141835D01*
X145663015Y-108156709D01*
X145651969Y-108169217D01*
X145646022Y-108175951D01*
X145640520Y-108187669D01*
X145633458Y-108202711D01*
X145625137Y-108217691D01*
X145613929Y-108234983D01*
X145613927Y-108234988D01*
X145609048Y-108242515D01*
X145606478Y-108251108D01*
X145606476Y-108251113D01*
X145601689Y-108267120D01*
X145595028Y-108284564D01*
X145584119Y-108307800D01*
X145582738Y-108316667D01*
X145582738Y-108316668D01*
X145579570Y-108337015D01*
X145575787Y-108353732D01*
X145569885Y-108373466D01*
X145569884Y-108373472D01*
X145567314Y-108382066D01*
X145567259Y-108391037D01*
X145567259Y-108391038D01*
X145567104Y-108416497D01*
X145567071Y-108417289D01*
X145566900Y-108418386D01*
X145566900Y-108449377D01*
X145566898Y-108450147D01*
X145566424Y-108527721D01*
X145566808Y-108529065D01*
X145566900Y-108530410D01*
X145566900Y-117348500D01*
X145546898Y-117416621D01*
X145493242Y-117463114D01*
X145440900Y-117474500D01*
X81441217Y-117474500D01*
X81373096Y-117454498D01*
X81352122Y-117437595D01*
X79920405Y-116005878D01*
X79886379Y-115943566D01*
X79883500Y-115916783D01*
X79883500Y-104820673D01*
X79884855Y-104808544D01*
X79884373Y-104808505D01*
X79885093Y-104799554D01*
X79887074Y-104790800D01*
X79883742Y-104737091D01*
X79883500Y-104729289D01*
X79883500Y-104713087D01*
X79882016Y-104702722D01*
X79880987Y-104692672D01*
X79878611Y-104654381D01*
X79878611Y-104654380D01*
X79878055Y-104645422D01*
X79875007Y-104636981D01*
X79874404Y-104634067D01*
X79870185Y-104617148D01*
X79869353Y-104614302D01*
X79868080Y-104605413D01*
X79848474Y-104562291D01*
X79844666Y-104552935D01*
X79843135Y-104548693D01*
X79828595Y-104508419D01*
X79823300Y-104501171D01*
X79821914Y-104498564D01*
X79813099Y-104483477D01*
X79811506Y-104480986D01*
X79807792Y-104472818D01*
X79776882Y-104436945D01*
X79770604Y-104429038D01*
X79765447Y-104421978D01*
X79765446Y-104421976D01*
X79762575Y-104418047D01*
X79751600Y-104407072D01*
X79745242Y-104400224D01*
X79718576Y-104369276D01*
X79718571Y-104369272D01*
X79712713Y-104362473D01*
X79705181Y-104357591D01*
X79698930Y-104352138D01*
X79687074Y-104342546D01*
X78535607Y-103191079D01*
X77380202Y-102035675D01*
X77346177Y-101973363D01*
X77343297Y-101946677D01*
X77341796Y-100005503D01*
X77595943Y-100005503D01*
X77596502Y-100009747D01*
X77596502Y-100009751D01*
X77600486Y-100040009D01*
X77633468Y-100290534D01*
X77709329Y-100567836D01*
X77711013Y-100571784D01*
X77818055Y-100822738D01*
X77822123Y-100832276D01*
X77969761Y-101078961D01*
X78149513Y-101303328D01*
X78166597Y-101319540D01*
X78349501Y-101493109D01*
X78358051Y-101501223D01*
X78591517Y-101668986D01*
X78595312Y-101670995D01*
X78595313Y-101670996D01*
X78617069Y-101682515D01*
X78845592Y-101803512D01*
X78869899Y-101812407D01*
X79063096Y-101883107D01*
X79115573Y-101902311D01*
X79396464Y-101963555D01*
X79408332Y-101964489D01*
X79619482Y-101981107D01*
X79619491Y-101981107D01*
X79621939Y-101981300D01*
X79777471Y-101981300D01*
X79779607Y-101981154D01*
X79779618Y-101981154D01*
X79987748Y-101966965D01*
X79987754Y-101966964D01*
X79992025Y-101966673D01*
X79996220Y-101965804D01*
X79996222Y-101965804D01*
X80150517Y-101933851D01*
X80273542Y-101908374D01*
X80544543Y-101812407D01*
X80800012Y-101680550D01*
X80803513Y-101678089D01*
X80803517Y-101678087D01*
X81030573Y-101518509D01*
X81035223Y-101515241D01*
X81245822Y-101319540D01*
X81427913Y-101097068D01*
X81578127Y-100851942D01*
X81598947Y-100804514D01*
X81691957Y-100592630D01*
X81693683Y-100588698D01*
X81772444Y-100312206D01*
X81811183Y-100040009D01*
X81812346Y-100031836D01*
X81812346Y-100031834D01*
X81812951Y-100027584D01*
X81813045Y-100009751D01*
X81814435Y-99744383D01*
X81814435Y-99744376D01*
X81814457Y-99740097D01*
X81805389Y-99671214D01*
X81795019Y-99592452D01*
X81776932Y-99455066D01*
X81701071Y-99177764D01*
X81683869Y-99137434D01*
X81589963Y-98917276D01*
X81589961Y-98917272D01*
X81588277Y-98913324D01*
X81488551Y-98746694D01*
X81442843Y-98670321D01*
X81442840Y-98670317D01*
X81440639Y-98666639D01*
X81260887Y-98442272D01*
X81052349Y-98244377D01*
X80848048Y-98097571D01*
X80822372Y-98079121D01*
X80822371Y-98079120D01*
X80818883Y-98076614D01*
X80797043Y-98065050D01*
X80718438Y-98023431D01*
X80564808Y-97942088D01*
X80294827Y-97843289D01*
X80013936Y-97782045D01*
X79982885Y-97779601D01*
X79790918Y-97764493D01*
X79790909Y-97764493D01*
X79788461Y-97764300D01*
X79632929Y-97764300D01*
X79630793Y-97764446D01*
X79630782Y-97764446D01*
X79422652Y-97778635D01*
X79422646Y-97778636D01*
X79418375Y-97778927D01*
X79414180Y-97779796D01*
X79414178Y-97779796D01*
X79294587Y-97804562D01*
X79136858Y-97837226D01*
X78865857Y-97933193D01*
X78610388Y-98065050D01*
X78606887Y-98067511D01*
X78606883Y-98067513D01*
X78492783Y-98147704D01*
X78375177Y-98230359D01*
X78360092Y-98244377D01*
X78192548Y-98400069D01*
X78164578Y-98426060D01*
X77982487Y-98648532D01*
X77832273Y-98893658D01*
X77830547Y-98897591D01*
X77830546Y-98897592D01*
X77763755Y-99049747D01*
X77716717Y-99156902D01*
X77715542Y-99161029D01*
X77715541Y-99161030D01*
X77689343Y-99252999D01*
X77637956Y-99433394D01*
X77611024Y-99622630D01*
X77600963Y-99693328D01*
X77597449Y-99718016D01*
X77597427Y-99722305D01*
X77597426Y-99722312D01*
X77596058Y-99983505D01*
X77595943Y-100005503D01*
X77341796Y-100005503D01*
X77335729Y-92161134D01*
X80631900Y-92161134D01*
X80638655Y-92223316D01*
X80689785Y-92359705D01*
X80777139Y-92476261D01*
X80893695Y-92563615D01*
X81030084Y-92614745D01*
X81092266Y-92621500D01*
X82788534Y-92621500D01*
X82850716Y-92614745D01*
X82987105Y-92563615D01*
X83103661Y-92476261D01*
X83191015Y-92359705D01*
X83242145Y-92223316D01*
X83243317Y-92212526D01*
X83244203Y-92210394D01*
X83244825Y-92207778D01*
X83245248Y-92207879D01*
X83270555Y-92146965D01*
X83328917Y-92106537D01*
X83399871Y-92104078D01*
X83460890Y-92140371D01*
X83467889Y-92149031D01*
X83471043Y-92152789D01*
X83474202Y-92157300D01*
X83636100Y-92319198D01*
X83640608Y-92322355D01*
X83640611Y-92322357D01*
X83793171Y-92429181D01*
X83837499Y-92484638D01*
X83846900Y-92532394D01*
X83846900Y-112563006D01*
X83826898Y-112631127D01*
X83809995Y-112652101D01*
X82658448Y-113803648D01*
X82596136Y-113837674D01*
X82536741Y-113836259D01*
X82478609Y-113820682D01*
X82478598Y-113820680D01*
X82473287Y-113819257D01*
X82245200Y-113799302D01*
X82017113Y-113819257D01*
X82011800Y-113820681D01*
X82011798Y-113820681D01*
X81801267Y-113877093D01*
X81801265Y-113877094D01*
X81795957Y-113878516D01*
X81790976Y-113880839D01*
X81790975Y-113880839D01*
X81593438Y-113972951D01*
X81593433Y-113972954D01*
X81588451Y-113975277D01*
X81557972Y-113996619D01*
X81405411Y-114103443D01*
X81405408Y-114103445D01*
X81400900Y-114106602D01*
X81239002Y-114268500D01*
X81107677Y-114456051D01*
X81105354Y-114461033D01*
X81105351Y-114461038D01*
X81102986Y-114466110D01*
X81010916Y-114663557D01*
X81009494Y-114668865D01*
X81009493Y-114668867D01*
X80977099Y-114789762D01*
X80951657Y-114884713D01*
X80931702Y-115112800D01*
X80951657Y-115340887D01*
X80953081Y-115346200D01*
X80953081Y-115346202D01*
X81003159Y-115533092D01*
X81010916Y-115562043D01*
X81013239Y-115567024D01*
X81013239Y-115567025D01*
X81105351Y-115764562D01*
X81105354Y-115764567D01*
X81107677Y-115769549D01*
X81146203Y-115824570D01*
X81210772Y-115916783D01*
X81239002Y-115957100D01*
X81400900Y-116118998D01*
X81405408Y-116122155D01*
X81405411Y-116122157D01*
X81457189Y-116158412D01*
X81588451Y-116250323D01*
X81593433Y-116252646D01*
X81593438Y-116252649D01*
X81742824Y-116322308D01*
X81795957Y-116347084D01*
X81801265Y-116348506D01*
X81801267Y-116348507D01*
X82011798Y-116404919D01*
X82011800Y-116404919D01*
X82017113Y-116406343D01*
X82245200Y-116426298D01*
X82473287Y-116406343D01*
X82478600Y-116404919D01*
X82478602Y-116404919D01*
X82689133Y-116348507D01*
X82689135Y-116348506D01*
X82694443Y-116347084D01*
X82747576Y-116322308D01*
X82896962Y-116252649D01*
X82896967Y-116252646D01*
X82901949Y-116250323D01*
X83033211Y-116158412D01*
X83084989Y-116122157D01*
X83084992Y-116122155D01*
X83089500Y-116118998D01*
X83251398Y-115957100D01*
X83279629Y-115916783D01*
X83344197Y-115824570D01*
X83382723Y-115769549D01*
X83385046Y-115764567D01*
X83385049Y-115764562D01*
X83401005Y-115730343D01*
X83447922Y-115677058D01*
X83516199Y-115657597D01*
X83584159Y-115678139D01*
X83629395Y-115730343D01*
X83645351Y-115764562D01*
X83645354Y-115764567D01*
X83647677Y-115769549D01*
X83686203Y-115824570D01*
X83750772Y-115916783D01*
X83779002Y-115957100D01*
X83940900Y-116118998D01*
X83945408Y-116122155D01*
X83945411Y-116122157D01*
X83997189Y-116158412D01*
X84128451Y-116250323D01*
X84133433Y-116252646D01*
X84133438Y-116252649D01*
X84282824Y-116322308D01*
X84335957Y-116347084D01*
X84341265Y-116348506D01*
X84341267Y-116348507D01*
X84551798Y-116404919D01*
X84551800Y-116404919D01*
X84557113Y-116406343D01*
X84785200Y-116426298D01*
X85013287Y-116406343D01*
X85018600Y-116404919D01*
X85018602Y-116404919D01*
X85229133Y-116348507D01*
X85229135Y-116348506D01*
X85234443Y-116347084D01*
X85287576Y-116322308D01*
X85436962Y-116252649D01*
X85436967Y-116252646D01*
X85441949Y-116250323D01*
X85573211Y-116158412D01*
X85624989Y-116122157D01*
X85624992Y-116122155D01*
X85629500Y-116118998D01*
X85791398Y-115957100D01*
X85819629Y-115916783D01*
X85884197Y-115824570D01*
X85922723Y-115769549D01*
X85925046Y-115764567D01*
X85925049Y-115764562D01*
X85941005Y-115730343D01*
X85987922Y-115677058D01*
X86056199Y-115657597D01*
X86124159Y-115678139D01*
X86169395Y-115730343D01*
X86185351Y-115764562D01*
X86185354Y-115764567D01*
X86187677Y-115769549D01*
X86226203Y-115824570D01*
X86290772Y-115916783D01*
X86319002Y-115957100D01*
X86480900Y-116118998D01*
X86485408Y-116122155D01*
X86485411Y-116122157D01*
X86537189Y-116158412D01*
X86668451Y-116250323D01*
X86673433Y-116252646D01*
X86673438Y-116252649D01*
X86822824Y-116322308D01*
X86875957Y-116347084D01*
X86881265Y-116348506D01*
X86881267Y-116348507D01*
X87091798Y-116404919D01*
X87091800Y-116404919D01*
X87097113Y-116406343D01*
X87325200Y-116426298D01*
X87553287Y-116406343D01*
X87558600Y-116404919D01*
X87558602Y-116404919D01*
X87769133Y-116348507D01*
X87769135Y-116348506D01*
X87774443Y-116347084D01*
X87827576Y-116322308D01*
X87976962Y-116252649D01*
X87976967Y-116252646D01*
X87981949Y-116250323D01*
X88113211Y-116158412D01*
X88164989Y-116122157D01*
X88164992Y-116122155D01*
X88169500Y-116118998D01*
X88331398Y-115957100D01*
X88359629Y-115916783D01*
X88424197Y-115824570D01*
X88462723Y-115769549D01*
X88465046Y-115764567D01*
X88465049Y-115764562D01*
X88481005Y-115730343D01*
X88527922Y-115677058D01*
X88596199Y-115657597D01*
X88664159Y-115678139D01*
X88709395Y-115730343D01*
X88725351Y-115764562D01*
X88725354Y-115764567D01*
X88727677Y-115769549D01*
X88766203Y-115824570D01*
X88830772Y-115916783D01*
X88859002Y-115957100D01*
X89020900Y-116118998D01*
X89025408Y-116122155D01*
X89025411Y-116122157D01*
X89077189Y-116158412D01*
X89208451Y-116250323D01*
X89213433Y-116252646D01*
X89213438Y-116252649D01*
X89362824Y-116322308D01*
X89415957Y-116347084D01*
X89421265Y-116348506D01*
X89421267Y-116348507D01*
X89631798Y-116404919D01*
X89631800Y-116404919D01*
X89637113Y-116406343D01*
X89865200Y-116426298D01*
X90093287Y-116406343D01*
X90098600Y-116404919D01*
X90098602Y-116404919D01*
X90309133Y-116348507D01*
X90309135Y-116348506D01*
X90314443Y-116347084D01*
X90367576Y-116322308D01*
X90516962Y-116252649D01*
X90516967Y-116252646D01*
X90521949Y-116250323D01*
X90653211Y-116158412D01*
X90704989Y-116122157D01*
X90704992Y-116122155D01*
X90709500Y-116118998D01*
X90871398Y-115957100D01*
X90899629Y-115916783D01*
X90964197Y-115824570D01*
X91002723Y-115769549D01*
X91005046Y-115764567D01*
X91005049Y-115764562D01*
X91021005Y-115730343D01*
X91067922Y-115677058D01*
X91136199Y-115657597D01*
X91204159Y-115678139D01*
X91249395Y-115730343D01*
X91265351Y-115764562D01*
X91265354Y-115764567D01*
X91267677Y-115769549D01*
X91306203Y-115824570D01*
X91370772Y-115916783D01*
X91399002Y-115957100D01*
X91560900Y-116118998D01*
X91565408Y-116122155D01*
X91565411Y-116122157D01*
X91617189Y-116158412D01*
X91748451Y-116250323D01*
X91753433Y-116252646D01*
X91753438Y-116252649D01*
X91902824Y-116322308D01*
X91955957Y-116347084D01*
X91961265Y-116348506D01*
X91961267Y-116348507D01*
X92171798Y-116404919D01*
X92171800Y-116404919D01*
X92177113Y-116406343D01*
X92405200Y-116426298D01*
X92633287Y-116406343D01*
X92638600Y-116404919D01*
X92638602Y-116404919D01*
X92849133Y-116348507D01*
X92849135Y-116348506D01*
X92854443Y-116347084D01*
X92907576Y-116322308D01*
X93056962Y-116252649D01*
X93056967Y-116252646D01*
X93061949Y-116250323D01*
X93193211Y-116158412D01*
X93244989Y-116122157D01*
X93244992Y-116122155D01*
X93249500Y-116118998D01*
X93411398Y-115957100D01*
X93439629Y-115916783D01*
X93504197Y-115824570D01*
X93542723Y-115769549D01*
X93545046Y-115764567D01*
X93545049Y-115764562D01*
X93561005Y-115730343D01*
X93607922Y-115677058D01*
X93676199Y-115657597D01*
X93744159Y-115678139D01*
X93789395Y-115730343D01*
X93805351Y-115764562D01*
X93805354Y-115764567D01*
X93807677Y-115769549D01*
X93846203Y-115824570D01*
X93910772Y-115916783D01*
X93939002Y-115957100D01*
X94100900Y-116118998D01*
X94105408Y-116122155D01*
X94105411Y-116122157D01*
X94157189Y-116158412D01*
X94288451Y-116250323D01*
X94293433Y-116252646D01*
X94293438Y-116252649D01*
X94442824Y-116322308D01*
X94495957Y-116347084D01*
X94501265Y-116348506D01*
X94501267Y-116348507D01*
X94711798Y-116404919D01*
X94711800Y-116404919D01*
X94717113Y-116406343D01*
X94945200Y-116426298D01*
X95173287Y-116406343D01*
X95178600Y-116404919D01*
X95178602Y-116404919D01*
X95389133Y-116348507D01*
X95389135Y-116348506D01*
X95394443Y-116347084D01*
X95447576Y-116322308D01*
X95596962Y-116252649D01*
X95596967Y-116252646D01*
X95601949Y-116250323D01*
X95733211Y-116158412D01*
X95784989Y-116122157D01*
X95784992Y-116122155D01*
X95789500Y-116118998D01*
X95951398Y-115957100D01*
X95979629Y-115916783D01*
X96044197Y-115824570D01*
X96082723Y-115769549D01*
X96085046Y-115764567D01*
X96085049Y-115764562D01*
X96101005Y-115730343D01*
X96147922Y-115677058D01*
X96216199Y-115657597D01*
X96284159Y-115678139D01*
X96329395Y-115730343D01*
X96345351Y-115764562D01*
X96345354Y-115764567D01*
X96347677Y-115769549D01*
X96386203Y-115824570D01*
X96450772Y-115916783D01*
X96479002Y-115957100D01*
X96640900Y-116118998D01*
X96645408Y-116122155D01*
X96645411Y-116122157D01*
X96697189Y-116158412D01*
X96828451Y-116250323D01*
X96833433Y-116252646D01*
X96833438Y-116252649D01*
X96982824Y-116322308D01*
X97035957Y-116347084D01*
X97041265Y-116348506D01*
X97041267Y-116348507D01*
X97251798Y-116404919D01*
X97251800Y-116404919D01*
X97257113Y-116406343D01*
X97485200Y-116426298D01*
X97713287Y-116406343D01*
X97718600Y-116404919D01*
X97718602Y-116404919D01*
X97929133Y-116348507D01*
X97929135Y-116348506D01*
X97934443Y-116347084D01*
X97987576Y-116322308D01*
X98136962Y-116252649D01*
X98136967Y-116252646D01*
X98141949Y-116250323D01*
X98273211Y-116158412D01*
X98324989Y-116122157D01*
X98324992Y-116122155D01*
X98329500Y-116118998D01*
X98491398Y-115957100D01*
X98519629Y-115916783D01*
X98584197Y-115824570D01*
X98622723Y-115769549D01*
X98625046Y-115764567D01*
X98625049Y-115764562D01*
X98641005Y-115730343D01*
X98687922Y-115677058D01*
X98756199Y-115657597D01*
X98824159Y-115678139D01*
X98869395Y-115730343D01*
X98885351Y-115764562D01*
X98885354Y-115764567D01*
X98887677Y-115769549D01*
X98926203Y-115824570D01*
X98990772Y-115916783D01*
X99019002Y-115957100D01*
X99180900Y-116118998D01*
X99185408Y-116122155D01*
X99185411Y-116122157D01*
X99237189Y-116158412D01*
X99368451Y-116250323D01*
X99373433Y-116252646D01*
X99373438Y-116252649D01*
X99522824Y-116322308D01*
X99575957Y-116347084D01*
X99581265Y-116348506D01*
X99581267Y-116348507D01*
X99791798Y-116404919D01*
X99791800Y-116404919D01*
X99797113Y-116406343D01*
X100025200Y-116426298D01*
X100253287Y-116406343D01*
X100258600Y-116404919D01*
X100258602Y-116404919D01*
X100469133Y-116348507D01*
X100469135Y-116348506D01*
X100474443Y-116347084D01*
X100527576Y-116322308D01*
X100676962Y-116252649D01*
X100676967Y-116252646D01*
X100681949Y-116250323D01*
X100813211Y-116158412D01*
X100864989Y-116122157D01*
X100864992Y-116122155D01*
X100869500Y-116118998D01*
X101031398Y-115957100D01*
X101059629Y-115916783D01*
X101124197Y-115824570D01*
X101162723Y-115769549D01*
X101165046Y-115764567D01*
X101165049Y-115764562D01*
X101257161Y-115567025D01*
X101257161Y-115567024D01*
X101259484Y-115562043D01*
X101267242Y-115533092D01*
X101317319Y-115346202D01*
X101317319Y-115346200D01*
X101318743Y-115340887D01*
X101338698Y-115112800D01*
X101318743Y-114884713D01*
X101293301Y-114789762D01*
X101260907Y-114668867D01*
X101260906Y-114668865D01*
X101259484Y-114663557D01*
X101167414Y-114466110D01*
X101165049Y-114461038D01*
X101165046Y-114461033D01*
X101162723Y-114456051D01*
X101031398Y-114268500D01*
X100869500Y-114106602D01*
X100864992Y-114103445D01*
X100864989Y-114103443D01*
X100712428Y-113996619D01*
X100681949Y-113975277D01*
X100676967Y-113972954D01*
X100676962Y-113972951D01*
X100479425Y-113880839D01*
X100479424Y-113880839D01*
X100474443Y-113878516D01*
X100469135Y-113877094D01*
X100469133Y-113877093D01*
X100258602Y-113820681D01*
X100258600Y-113820681D01*
X100253287Y-113819257D01*
X100025200Y-113799302D01*
X99797113Y-113819257D01*
X99791800Y-113820681D01*
X99791798Y-113820681D01*
X99581267Y-113877093D01*
X99581265Y-113877094D01*
X99575957Y-113878516D01*
X99570976Y-113880839D01*
X99570975Y-113880839D01*
X99373438Y-113972951D01*
X99373433Y-113972954D01*
X99368451Y-113975277D01*
X99337972Y-113996619D01*
X99185411Y-114103443D01*
X99185408Y-114103445D01*
X99180900Y-114106602D01*
X99019002Y-114268500D01*
X98887677Y-114456051D01*
X98885354Y-114461033D01*
X98885351Y-114461038D01*
X98869395Y-114495257D01*
X98822478Y-114548542D01*
X98754201Y-114568003D01*
X98686241Y-114547461D01*
X98641005Y-114495257D01*
X98625049Y-114461038D01*
X98625046Y-114461033D01*
X98622723Y-114456051D01*
X98491398Y-114268500D01*
X98329500Y-114106602D01*
X98324992Y-114103445D01*
X98324989Y-114103443D01*
X98172428Y-113996619D01*
X98141949Y-113975277D01*
X98136967Y-113972954D01*
X98136962Y-113972951D01*
X97939425Y-113880839D01*
X97939424Y-113880839D01*
X97934443Y-113878516D01*
X97929135Y-113877094D01*
X97929133Y-113877093D01*
X97718602Y-113820681D01*
X97718600Y-113820681D01*
X97713287Y-113819257D01*
X97485200Y-113799302D01*
X97257113Y-113819257D01*
X97251800Y-113820681D01*
X97251798Y-113820681D01*
X97041267Y-113877093D01*
X97041265Y-113877094D01*
X97035957Y-113878516D01*
X97030976Y-113880839D01*
X97030975Y-113880839D01*
X96833438Y-113972951D01*
X96833433Y-113972954D01*
X96828451Y-113975277D01*
X96797972Y-113996619D01*
X96645411Y-114103443D01*
X96645408Y-114103445D01*
X96640900Y-114106602D01*
X96479002Y-114268500D01*
X96347677Y-114456051D01*
X96345354Y-114461033D01*
X96345351Y-114461038D01*
X96329395Y-114495257D01*
X96282478Y-114548542D01*
X96214201Y-114568003D01*
X96146241Y-114547461D01*
X96101005Y-114495257D01*
X96085049Y-114461038D01*
X96085046Y-114461033D01*
X96082723Y-114456051D01*
X95951398Y-114268500D01*
X95789500Y-114106602D01*
X95784992Y-114103445D01*
X95784989Y-114103443D01*
X95632428Y-113996619D01*
X95601949Y-113975277D01*
X95596967Y-113972954D01*
X95596962Y-113972951D01*
X95399425Y-113880839D01*
X95399424Y-113880839D01*
X95394443Y-113878516D01*
X95389135Y-113877094D01*
X95389133Y-113877093D01*
X95178602Y-113820681D01*
X95178600Y-113820681D01*
X95173287Y-113819257D01*
X94945200Y-113799302D01*
X94939725Y-113799781D01*
X94939715Y-113799781D01*
X94927772Y-113800826D01*
X94858167Y-113786838D01*
X94807174Y-113737439D01*
X94790983Y-113668314D01*
X94814735Y-113601408D01*
X94827694Y-113586211D01*
X95947053Y-112466852D01*
X95955339Y-112459312D01*
X95961818Y-112455200D01*
X96008444Y-112405548D01*
X96011198Y-112402707D01*
X96030935Y-112382970D01*
X96033415Y-112379773D01*
X96041120Y-112370751D01*
X96065959Y-112344300D01*
X96071386Y-112338521D01*
X96075205Y-112331575D01*
X96075207Y-112331572D01*
X96081148Y-112320766D01*
X96091999Y-112304247D01*
X96099558Y-112294501D01*
X96104414Y-112288241D01*
X96107559Y-112280972D01*
X96107562Y-112280968D01*
X96121974Y-112247663D01*
X96127191Y-112237013D01*
X96148495Y-112198260D01*
X96153533Y-112178637D01*
X96159937Y-112159934D01*
X96164833Y-112148620D01*
X96164833Y-112148619D01*
X96167981Y-112141345D01*
X96169220Y-112133522D01*
X96169223Y-112133512D01*
X96174899Y-112097676D01*
X96177305Y-112086056D01*
X96186328Y-112050911D01*
X96186328Y-112050910D01*
X96188300Y-112043230D01*
X96188300Y-112039400D01*
X97689296Y-112039400D01*
X97689986Y-112045965D01*
X97705993Y-112198260D01*
X97709258Y-112229328D01*
X97768273Y-112410956D01*
X97863760Y-112576344D01*
X97868178Y-112581251D01*
X97868179Y-112581252D01*
X97981697Y-112707327D01*
X97991547Y-112718266D01*
X98146048Y-112830518D01*
X98152076Y-112833202D01*
X98152078Y-112833203D01*
X98314481Y-112905509D01*
X98320512Y-112908194D01*
X98413913Y-112928047D01*
X98500856Y-112946528D01*
X98500861Y-112946528D01*
X98507313Y-112947900D01*
X98698287Y-112947900D01*
X98704739Y-112946528D01*
X98704744Y-112946528D01*
X98791687Y-112928047D01*
X98885088Y-112908194D01*
X98891119Y-112905509D01*
X99053522Y-112833203D01*
X99053524Y-112833202D01*
X99059552Y-112830518D01*
X99214053Y-112718266D01*
X99218468Y-112713363D01*
X99223380Y-112708940D01*
X99224505Y-112710189D01*
X99277814Y-112677349D01*
X99311000Y-112672900D01*
X101374400Y-112672900D01*
X101442521Y-112692902D01*
X101461747Y-112709243D01*
X101462020Y-112708940D01*
X101466932Y-112713363D01*
X101471347Y-112718266D01*
X101625848Y-112830518D01*
X101631876Y-112833202D01*
X101631878Y-112833203D01*
X101794281Y-112905509D01*
X101800312Y-112908194D01*
X101893713Y-112928047D01*
X101980656Y-112946528D01*
X101980661Y-112946528D01*
X101987113Y-112947900D01*
X102178087Y-112947900D01*
X102184539Y-112946528D01*
X102184544Y-112946528D01*
X102271487Y-112928047D01*
X102364888Y-112908194D01*
X102370919Y-112905509D01*
X102533322Y-112833203D01*
X102533324Y-112833202D01*
X102539352Y-112830518D01*
X102693853Y-112718266D01*
X102703703Y-112707327D01*
X102817221Y-112581252D01*
X102817222Y-112581251D01*
X102821640Y-112576344D01*
X102917127Y-112410956D01*
X102976142Y-112229328D01*
X102979408Y-112198260D01*
X102995414Y-112045965D01*
X102996104Y-112039400D01*
X102984955Y-111933325D01*
X102976832Y-111856035D01*
X102976832Y-111856033D01*
X102976142Y-111849472D01*
X102917127Y-111667844D01*
X102906353Y-111649182D01*
X102900124Y-111638394D01*
X102883386Y-111569399D01*
X102900124Y-111512394D01*
X102964623Y-111400679D01*
X102964624Y-111400678D01*
X102967927Y-111394956D01*
X103026942Y-111213328D01*
X103030291Y-111181470D01*
X103046214Y-111029965D01*
X103046904Y-111023400D01*
X103026942Y-110833472D01*
X102967927Y-110651844D01*
X102945916Y-110613719D01*
X102882575Y-110504011D01*
X102872440Y-110486456D01*
X102842874Y-110453619D01*
X102749075Y-110349445D01*
X102749074Y-110349444D01*
X102744653Y-110344534D01*
X102590152Y-110232282D01*
X102584124Y-110229598D01*
X102584122Y-110229597D01*
X102421719Y-110157291D01*
X102421718Y-110157291D01*
X102415688Y-110154606D01*
X102315626Y-110133337D01*
X102235344Y-110116272D01*
X102235339Y-110116272D01*
X102228887Y-110114900D01*
X102037913Y-110114900D01*
X102031461Y-110116272D01*
X102031456Y-110116272D01*
X101951174Y-110133337D01*
X101851112Y-110154606D01*
X101845082Y-110157291D01*
X101845081Y-110157291D01*
X101682678Y-110229597D01*
X101682676Y-110229598D01*
X101676648Y-110232282D01*
X101671307Y-110236162D01*
X101671306Y-110236163D01*
X101587594Y-110296984D01*
X101522147Y-110344534D01*
X101517732Y-110349437D01*
X101512820Y-110353860D01*
X101511695Y-110352611D01*
X101458386Y-110385451D01*
X101425200Y-110389900D01*
X99412600Y-110389900D01*
X99344479Y-110369898D01*
X99325253Y-110353557D01*
X99324980Y-110353860D01*
X99320068Y-110349437D01*
X99315653Y-110344534D01*
X99250206Y-110296984D01*
X99166494Y-110236163D01*
X99166493Y-110236162D01*
X99161152Y-110232282D01*
X99155124Y-110229598D01*
X99155122Y-110229597D01*
X98992719Y-110157291D01*
X98992718Y-110157291D01*
X98986688Y-110154606D01*
X98886626Y-110133337D01*
X98806344Y-110116272D01*
X98806339Y-110116272D01*
X98799887Y-110114900D01*
X98608913Y-110114900D01*
X98602461Y-110116272D01*
X98602456Y-110116272D01*
X98522174Y-110133337D01*
X98422112Y-110154606D01*
X98416082Y-110157291D01*
X98416081Y-110157291D01*
X98253678Y-110229597D01*
X98253676Y-110229598D01*
X98247648Y-110232282D01*
X98093147Y-110344534D01*
X98088726Y-110349444D01*
X98088725Y-110349445D01*
X97994927Y-110453619D01*
X97965360Y-110486456D01*
X97955225Y-110504011D01*
X97891885Y-110613719D01*
X97869873Y-110651844D01*
X97810858Y-110833472D01*
X97790896Y-111023400D01*
X97791586Y-111029965D01*
X97807510Y-111181470D01*
X97810858Y-111213328D01*
X97868685Y-111391299D01*
X97868685Y-111391301D01*
X97869873Y-111394956D01*
X97869204Y-111395173D01*
X97877983Y-111460651D01*
X97862561Y-111504533D01*
X97779048Y-111649182D01*
X97768273Y-111667844D01*
X97709258Y-111849472D01*
X97708568Y-111856033D01*
X97708568Y-111856035D01*
X97700445Y-111933325D01*
X97689296Y-112039400D01*
X96188300Y-112039400D01*
X96188300Y-112022976D01*
X96189851Y-112003265D01*
X96191780Y-111991086D01*
X96193020Y-111983257D01*
X96188859Y-111939238D01*
X96188300Y-111927381D01*
X96188300Y-104980767D01*
X96188827Y-104969584D01*
X96190502Y-104962091D01*
X96188362Y-104894000D01*
X96188300Y-104890043D01*
X96188300Y-104862144D01*
X96187796Y-104858153D01*
X96186863Y-104846311D01*
X96185723Y-104810036D01*
X96185474Y-104802111D01*
X96183262Y-104794497D01*
X96183261Y-104794492D01*
X96179823Y-104782659D01*
X96175812Y-104763295D01*
X96174267Y-104751064D01*
X96173274Y-104743203D01*
X96170357Y-104735836D01*
X96170356Y-104735831D01*
X96156998Y-104702092D01*
X96153154Y-104690865D01*
X96149057Y-104676765D01*
X96140818Y-104648407D01*
X96135902Y-104640095D01*
X96130507Y-104630972D01*
X96121812Y-104613224D01*
X96114352Y-104594383D01*
X96088364Y-104558613D01*
X96081848Y-104548693D01*
X96063380Y-104517465D01*
X96063378Y-104517462D01*
X96059342Y-104510638D01*
X96045021Y-104496317D01*
X96032180Y-104481283D01*
X96024931Y-104471306D01*
X96020272Y-104464893D01*
X96014167Y-104459842D01*
X96014162Y-104459837D01*
X95986196Y-104436701D01*
X95977418Y-104428713D01*
X95310805Y-103762100D01*
X95276779Y-103699788D01*
X95274293Y-103676662D01*
X98155293Y-103676662D01*
X98164589Y-103688677D01*
X98215794Y-103724531D01*
X98225289Y-103730014D01*
X98422747Y-103822090D01*
X98433039Y-103825836D01*
X98643488Y-103882225D01*
X98654281Y-103884128D01*
X98871325Y-103903117D01*
X98882275Y-103903117D01*
X99099319Y-103884128D01*
X99110112Y-103882225D01*
X99320561Y-103825836D01*
X99330853Y-103822090D01*
X99528311Y-103730014D01*
X99537806Y-103724531D01*
X99589848Y-103688091D01*
X99598224Y-103677612D01*
X99591156Y-103664166D01*
X98889612Y-102962622D01*
X98875668Y-102955008D01*
X98873835Y-102955139D01*
X98867220Y-102959390D01*
X98161723Y-103664887D01*
X98155293Y-103676662D01*
X95274293Y-103676662D01*
X95273900Y-103673005D01*
X95273900Y-102596075D01*
X97564283Y-102596075D01*
X97583272Y-102813119D01*
X97585175Y-102823912D01*
X97641564Y-103034361D01*
X97645310Y-103044653D01*
X97737386Y-103242111D01*
X97742869Y-103251606D01*
X97779309Y-103303648D01*
X97789788Y-103312024D01*
X97803234Y-103304956D01*
X98504778Y-102603412D01*
X98512392Y-102589468D01*
X98512261Y-102587635D01*
X98508010Y-102581020D01*
X97802513Y-101875523D01*
X97790738Y-101869093D01*
X97778723Y-101878389D01*
X97742869Y-101929594D01*
X97737386Y-101939089D01*
X97645310Y-102136547D01*
X97641564Y-102146839D01*
X97585175Y-102357288D01*
X97583272Y-102368081D01*
X97564283Y-102585125D01*
X97564283Y-102596075D01*
X95273900Y-102596075D01*
X95273900Y-101503588D01*
X98155376Y-101503588D01*
X98162444Y-101517034D01*
X98863988Y-102218578D01*
X98877932Y-102226192D01*
X98879765Y-102226061D01*
X98886380Y-102221810D01*
X99591877Y-101516313D01*
X99598307Y-101504538D01*
X99589011Y-101492523D01*
X99537806Y-101456669D01*
X99528311Y-101451186D01*
X99330853Y-101359110D01*
X99320561Y-101355364D01*
X99110112Y-101298975D01*
X99099319Y-101297072D01*
X98882275Y-101278083D01*
X98871325Y-101278083D01*
X98654281Y-101297072D01*
X98643488Y-101298975D01*
X98433039Y-101355364D01*
X98422747Y-101359110D01*
X98225289Y-101451186D01*
X98215794Y-101456669D01*
X98163752Y-101493109D01*
X98155376Y-101503588D01*
X95273900Y-101503588D01*
X95273900Y-92532394D01*
X95293902Y-92464273D01*
X95327629Y-92429181D01*
X95480189Y-92322357D01*
X95480192Y-92322355D01*
X95484700Y-92319198D01*
X95646598Y-92157300D01*
X95777923Y-91969749D01*
X95780246Y-91964767D01*
X95780249Y-91964762D01*
X95796205Y-91930543D01*
X95843122Y-91877258D01*
X95911399Y-91857797D01*
X95979359Y-91878339D01*
X96024595Y-91930543D01*
X96040551Y-91964762D01*
X96040554Y-91964767D01*
X96042877Y-91969749D01*
X96174202Y-92157300D01*
X96259995Y-92243093D01*
X96294021Y-92305405D01*
X96296900Y-92332188D01*
X96296900Y-93209412D01*
X96276898Y-93277533D01*
X96259995Y-93298507D01*
X96143402Y-93415100D01*
X96140245Y-93419608D01*
X96140243Y-93419611D01*
X96086477Y-93496397D01*
X96012077Y-93602651D01*
X96009754Y-93607633D01*
X96009751Y-93607638D01*
X95943229Y-93750297D01*
X95915316Y-93810157D01*
X95913894Y-93815465D01*
X95913893Y-93815467D01*
X95864908Y-93998281D01*
X95856057Y-94031313D01*
X95836102Y-94259400D01*
X95856057Y-94487487D01*
X95857481Y-94492800D01*
X95857481Y-94492802D01*
X95894625Y-94631422D01*
X95915316Y-94708643D01*
X95917639Y-94713624D01*
X95917639Y-94713625D01*
X96009751Y-94911162D01*
X96009754Y-94911167D01*
X96012077Y-94916149D01*
X96143402Y-95103700D01*
X96305300Y-95265598D01*
X96309808Y-95268755D01*
X96309811Y-95268757D01*
X96347173Y-95294918D01*
X96492851Y-95396923D01*
X96497833Y-95399246D01*
X96497838Y-95399249D01*
X96694365Y-95490890D01*
X96700357Y-95493684D01*
X96705665Y-95495106D01*
X96705667Y-95495107D01*
X96916198Y-95551519D01*
X96916200Y-95551519D01*
X96921513Y-95552943D01*
X97149600Y-95572898D01*
X97377687Y-95552943D01*
X97383000Y-95551519D01*
X97383002Y-95551519D01*
X97593533Y-95495107D01*
X97593535Y-95495106D01*
X97598843Y-95493684D01*
X97604835Y-95490890D01*
X97801362Y-95399249D01*
X97801367Y-95399246D01*
X97806349Y-95396923D01*
X97879843Y-95345462D01*
X98928093Y-95345462D01*
X98937389Y-95357477D01*
X98988594Y-95393331D01*
X98998089Y-95398814D01*
X99195547Y-95490890D01*
X99205839Y-95494636D01*
X99416288Y-95551025D01*
X99427081Y-95552928D01*
X99644125Y-95571917D01*
X99655075Y-95571917D01*
X99872119Y-95552928D01*
X99882912Y-95551025D01*
X100093361Y-95494636D01*
X100103653Y-95490890D01*
X100301111Y-95398814D01*
X100310606Y-95393331D01*
X100362648Y-95356891D01*
X100371024Y-95346412D01*
X100363956Y-95332966D01*
X99662412Y-94631422D01*
X99648468Y-94623808D01*
X99646635Y-94623939D01*
X99640020Y-94628190D01*
X98934523Y-95333687D01*
X98928093Y-95345462D01*
X97879843Y-95345462D01*
X97952027Y-95294918D01*
X97989389Y-95268757D01*
X97989392Y-95268755D01*
X97993900Y-95265598D01*
X98155798Y-95103700D01*
X98287123Y-94916149D01*
X98289447Y-94911165D01*
X98290771Y-94908872D01*
X98342153Y-94859879D01*
X98411867Y-94846443D01*
X98477778Y-94872829D01*
X98509009Y-94908872D01*
X98515666Y-94920402D01*
X98552109Y-94972448D01*
X98562588Y-94980824D01*
X98576034Y-94973756D01*
X99277578Y-94272212D01*
X99283956Y-94260532D01*
X100014008Y-94260532D01*
X100014139Y-94262365D01*
X100018390Y-94268980D01*
X100723887Y-94974477D01*
X100735662Y-94980907D01*
X100747677Y-94971611D01*
X100783531Y-94920406D01*
X100789014Y-94910911D01*
X100881090Y-94713453D01*
X100884836Y-94703161D01*
X100941225Y-94492712D01*
X100943128Y-94481919D01*
X100962117Y-94264875D01*
X100962117Y-94253925D01*
X100943128Y-94036881D01*
X100941225Y-94026088D01*
X100884836Y-93815639D01*
X100881090Y-93805347D01*
X100789014Y-93607889D01*
X100783531Y-93598394D01*
X100747091Y-93546352D01*
X100736612Y-93537976D01*
X100723166Y-93545044D01*
X100021622Y-94246588D01*
X100014008Y-94260532D01*
X99283956Y-94260532D01*
X99285192Y-94258268D01*
X99285061Y-94256435D01*
X99280810Y-94249820D01*
X98575313Y-93544323D01*
X98563538Y-93537893D01*
X98551523Y-93547189D01*
X98515666Y-93598398D01*
X98509009Y-93609928D01*
X98457627Y-93658921D01*
X98387913Y-93672358D01*
X98322002Y-93645971D01*
X98290771Y-93609928D01*
X98289447Y-93607635D01*
X98287123Y-93602651D01*
X98212723Y-93496397D01*
X98158957Y-93419611D01*
X98158955Y-93419608D01*
X98155798Y-93415100D01*
X98100805Y-93360107D01*
X98066779Y-93297795D01*
X98063900Y-93271012D01*
X98063900Y-93172388D01*
X98928176Y-93172388D01*
X98935244Y-93185834D01*
X99636788Y-93887378D01*
X99650732Y-93894992D01*
X99652565Y-93894861D01*
X99659180Y-93890610D01*
X100364677Y-93185113D01*
X100371107Y-93173338D01*
X100361811Y-93161323D01*
X100310606Y-93125469D01*
X100301111Y-93119986D01*
X100103653Y-93027910D01*
X100093361Y-93024164D01*
X99882912Y-92967775D01*
X99872119Y-92965872D01*
X99655075Y-92946883D01*
X99644125Y-92946883D01*
X99427081Y-92965872D01*
X99416288Y-92967775D01*
X99205839Y-93024164D01*
X99195547Y-93027910D01*
X98998089Y-93119986D01*
X98988594Y-93125469D01*
X98936552Y-93161909D01*
X98928176Y-93172388D01*
X98063900Y-93172388D01*
X98063900Y-92332188D01*
X98083902Y-92264067D01*
X98100805Y-92243093D01*
X98186598Y-92157300D01*
X98317923Y-91969749D01*
X98320246Y-91964767D01*
X98320249Y-91964762D01*
X98336481Y-91929951D01*
X98383398Y-91876666D01*
X98451675Y-91857205D01*
X98519635Y-91877747D01*
X98564871Y-91929951D01*
X98580986Y-91964511D01*
X98586469Y-91974007D01*
X98711428Y-92152467D01*
X98718484Y-92160875D01*
X98872525Y-92314916D01*
X98880933Y-92321972D01*
X99059393Y-92446931D01*
X99068889Y-92452414D01*
X99266347Y-92544490D01*
X99276639Y-92548236D01*
X99448903Y-92594394D01*
X99462999Y-92594058D01*
X99466400Y-92586116D01*
X99466400Y-91185000D01*
X99486402Y-91116879D01*
X99540058Y-91070386D01*
X99592400Y-91059000D01*
X99848400Y-91059000D01*
X99916521Y-91079002D01*
X99963014Y-91132658D01*
X99974400Y-91185000D01*
X99974400Y-92580967D01*
X99978373Y-92594498D01*
X99986922Y-92595727D01*
X100164161Y-92548236D01*
X100174453Y-92544490D01*
X100371911Y-92452414D01*
X100381407Y-92446931D01*
X100559867Y-92321972D01*
X100568275Y-92314916D01*
X100722316Y-92160875D01*
X100729372Y-92152467D01*
X100854331Y-91974007D01*
X100859814Y-91964511D01*
X100875929Y-91929951D01*
X100922846Y-91876666D01*
X100991123Y-91857205D01*
X101059083Y-91877747D01*
X101104319Y-91929951D01*
X101120551Y-91964762D01*
X101120554Y-91964767D01*
X101122877Y-91969749D01*
X101254202Y-92157300D01*
X101416100Y-92319198D01*
X101420608Y-92322355D01*
X101420611Y-92322357D01*
X101573171Y-92429181D01*
X101617499Y-92484638D01*
X101626900Y-92532394D01*
X101626900Y-97060389D01*
X101606898Y-97128510D01*
X101553242Y-97175003D01*
X101482968Y-97185107D01*
X101470833Y-97182617D01*
X101469084Y-97182309D01*
X101463771Y-97180885D01*
X101244400Y-97161693D01*
X101025029Y-97180885D01*
X100812324Y-97237880D01*
X100735737Y-97273593D01*
X100617734Y-97328618D01*
X100617729Y-97328621D01*
X100612747Y-97330944D01*
X100608240Y-97334100D01*
X100608238Y-97334101D01*
X100436873Y-97454092D01*
X100436870Y-97454094D01*
X100432362Y-97457251D01*
X100276651Y-97612962D01*
X100273494Y-97617470D01*
X100273492Y-97617473D01*
X100158493Y-97781709D01*
X100150344Y-97793347D01*
X100148021Y-97798329D01*
X100148018Y-97798334D01*
X100124500Y-97848769D01*
X100057280Y-97992924D01*
X100000285Y-98205629D01*
X99981093Y-98425000D01*
X100000285Y-98644371D01*
X100057280Y-98857076D01*
X100081790Y-98909637D01*
X100148018Y-99051666D01*
X100148021Y-99051671D01*
X100150344Y-99056653D01*
X100153500Y-99061160D01*
X100153501Y-99061162D01*
X100265560Y-99221198D01*
X100276651Y-99237038D01*
X100432362Y-99392749D01*
X100436871Y-99395906D01*
X100436873Y-99395908D01*
X100475420Y-99422899D01*
X100609410Y-99516720D01*
X100609411Y-99516721D01*
X100612746Y-99519056D01*
X100612276Y-99519727D01*
X100658096Y-99567787D01*
X100672100Y-99625517D01*
X100672100Y-101421061D01*
X100652098Y-101489182D01*
X100618371Y-101524274D01*
X100537011Y-101581243D01*
X100537008Y-101581245D01*
X100532500Y-101584402D01*
X100370602Y-101746300D01*
X100367445Y-101750808D01*
X100367443Y-101750811D01*
X100329509Y-101804987D01*
X100239277Y-101933851D01*
X100236953Y-101938835D01*
X100235629Y-101941128D01*
X100184247Y-101990121D01*
X100114533Y-102003557D01*
X100048622Y-101977171D01*
X100017391Y-101941128D01*
X100010734Y-101929598D01*
X99974291Y-101877552D01*
X99963812Y-101869176D01*
X99950366Y-101876244D01*
X99248822Y-102577788D01*
X99241208Y-102591732D01*
X99241339Y-102593565D01*
X99245590Y-102600180D01*
X99951087Y-103305677D01*
X99962862Y-103312107D01*
X99974877Y-103302811D01*
X100010734Y-103251602D01*
X100017391Y-103240072D01*
X100068773Y-103191079D01*
X100138487Y-103177642D01*
X100204398Y-103204029D01*
X100235629Y-103240072D01*
X100236953Y-103242365D01*
X100239277Y-103247349D01*
X100277761Y-103302309D01*
X100367198Y-103430038D01*
X100370602Y-103434900D01*
X100532500Y-103596798D01*
X100537008Y-103599955D01*
X100537011Y-103599957D01*
X100563209Y-103618301D01*
X100720051Y-103728123D01*
X100725033Y-103730446D01*
X100725038Y-103730449D01*
X100792915Y-103762100D01*
X100927557Y-103824884D01*
X100932865Y-103826306D01*
X100932867Y-103826307D01*
X101143398Y-103882719D01*
X101143400Y-103882719D01*
X101148713Y-103884143D01*
X101376800Y-103904098D01*
X101604887Y-103884143D01*
X101610200Y-103882719D01*
X101610202Y-103882719D01*
X101820733Y-103826307D01*
X101820735Y-103826306D01*
X101826043Y-103824884D01*
X101960685Y-103762100D01*
X102028562Y-103730449D01*
X102028567Y-103730446D01*
X102033549Y-103728123D01*
X102190391Y-103618301D01*
X102216589Y-103599957D01*
X102216592Y-103599955D01*
X102221100Y-103596798D01*
X102382998Y-103434900D01*
X102386403Y-103430038D01*
X102456201Y-103330356D01*
X102514323Y-103247349D01*
X102516646Y-103242367D01*
X102516649Y-103242362D01*
X102608761Y-103044825D01*
X102608761Y-103044824D01*
X102611084Y-103039843D01*
X102631776Y-102962622D01*
X102668919Y-102824002D01*
X102668919Y-102824000D01*
X102670343Y-102818687D01*
X102690298Y-102590600D01*
X102670343Y-102362513D01*
X102668107Y-102354168D01*
X102612507Y-102146667D01*
X102612506Y-102146665D01*
X102611084Y-102141357D01*
X102594248Y-102105251D01*
X102516649Y-101938838D01*
X102516646Y-101938833D01*
X102514323Y-101933851D01*
X102424091Y-101804987D01*
X102386157Y-101750811D01*
X102386155Y-101750808D01*
X102382998Y-101746300D01*
X102221100Y-101584402D01*
X102216592Y-101581245D01*
X102216589Y-101581243D01*
X102090720Y-101493109D01*
X102033549Y-101453077D01*
X102011851Y-101442959D01*
X101958566Y-101396043D01*
X101939100Y-101328764D01*
X101939100Y-99540502D01*
X101959102Y-99472381D01*
X101992829Y-99437289D01*
X102051927Y-99395908D01*
X102051930Y-99395906D01*
X102056438Y-99392749D01*
X102212149Y-99237038D01*
X102223241Y-99221198D01*
X102335299Y-99061162D01*
X102335300Y-99061160D01*
X102338456Y-99056653D01*
X102340779Y-99051671D01*
X102340782Y-99051666D01*
X102407010Y-98909637D01*
X102431520Y-98857076D01*
X102488515Y-98644371D01*
X102507707Y-98425000D01*
X102488515Y-98205629D01*
X102484446Y-98190444D01*
X102480116Y-98174283D01*
X102481806Y-98103306D01*
X102512728Y-98052577D01*
X102652653Y-97912652D01*
X102660939Y-97905112D01*
X102667418Y-97901000D01*
X102714044Y-97851348D01*
X102716798Y-97848507D01*
X102736535Y-97828770D01*
X102739015Y-97825573D01*
X102746720Y-97816551D01*
X102753967Y-97808834D01*
X102776986Y-97784321D01*
X102780805Y-97777375D01*
X102780807Y-97777372D01*
X102786748Y-97766566D01*
X102797599Y-97750047D01*
X102805158Y-97740301D01*
X102810014Y-97734041D01*
X102813159Y-97726772D01*
X102813162Y-97726768D01*
X102827574Y-97693463D01*
X102832791Y-97682813D01*
X102854095Y-97644060D01*
X102859133Y-97624437D01*
X102865537Y-97605734D01*
X102870433Y-97594420D01*
X102870433Y-97594419D01*
X102873581Y-97587145D01*
X102874820Y-97579322D01*
X102874823Y-97579312D01*
X102880499Y-97543476D01*
X102882905Y-97531856D01*
X102891928Y-97496711D01*
X102891928Y-97496710D01*
X102893900Y-97489030D01*
X102893900Y-97468776D01*
X102895451Y-97449065D01*
X102897380Y-97436886D01*
X102898620Y-97429057D01*
X102894459Y-97385038D01*
X102893900Y-97373181D01*
X102893900Y-92532394D01*
X102913902Y-92464273D01*
X102947629Y-92429181D01*
X103100189Y-92322357D01*
X103100192Y-92322355D01*
X103104700Y-92319198D01*
X103266598Y-92157300D01*
X103397923Y-91969749D01*
X103400246Y-91964767D01*
X103400249Y-91964762D01*
X103416205Y-91930543D01*
X103463122Y-91877258D01*
X103531399Y-91857797D01*
X103599359Y-91878339D01*
X103644595Y-91930543D01*
X103660551Y-91964762D01*
X103660554Y-91964767D01*
X103662877Y-91969749D01*
X103794202Y-92157300D01*
X103956100Y-92319198D01*
X103960608Y-92322355D01*
X103960611Y-92322357D01*
X104113171Y-92429181D01*
X104157499Y-92484638D01*
X104166900Y-92532394D01*
X104166900Y-97022233D01*
X104166373Y-97033416D01*
X104164698Y-97040909D01*
X104164947Y-97048835D01*
X104164947Y-97048836D01*
X104166838Y-97108986D01*
X104166900Y-97112945D01*
X104166900Y-97140856D01*
X104167397Y-97144790D01*
X104167397Y-97144791D01*
X104167405Y-97144856D01*
X104168338Y-97156693D01*
X104169727Y-97200889D01*
X104175378Y-97220339D01*
X104179387Y-97239700D01*
X104181926Y-97259797D01*
X104184845Y-97267168D01*
X104184845Y-97267170D01*
X104198204Y-97300912D01*
X104202049Y-97312142D01*
X104208429Y-97334101D01*
X104214382Y-97354593D01*
X104218415Y-97361412D01*
X104218417Y-97361417D01*
X104224693Y-97372028D01*
X104233388Y-97389776D01*
X104240848Y-97408617D01*
X104245510Y-97415033D01*
X104245510Y-97415034D01*
X104266836Y-97444387D01*
X104273352Y-97454307D01*
X104287674Y-97478523D01*
X104295858Y-97492362D01*
X104310179Y-97506683D01*
X104323019Y-97521716D01*
X104334928Y-97538107D01*
X104341032Y-97543157D01*
X104341037Y-97543162D01*
X104368998Y-97566293D01*
X104377779Y-97574283D01*
X104856073Y-98052578D01*
X104890098Y-98114890D01*
X104888684Y-98174283D01*
X104880285Y-98205629D01*
X104861093Y-98425000D01*
X104880285Y-98644371D01*
X104881708Y-98649681D01*
X104881709Y-98649685D01*
X104888684Y-98675717D01*
X104886994Y-98746694D01*
X104856072Y-98797423D01*
X104662147Y-98991348D01*
X104653861Y-98998888D01*
X104647382Y-99003000D01*
X104641957Y-99008777D01*
X104600757Y-99052651D01*
X104598002Y-99055493D01*
X104578265Y-99075230D01*
X104575785Y-99078427D01*
X104568082Y-99087447D01*
X104537814Y-99119679D01*
X104533995Y-99126625D01*
X104533993Y-99126628D01*
X104528052Y-99137434D01*
X104517201Y-99153953D01*
X104504786Y-99169959D01*
X104501641Y-99177228D01*
X104501638Y-99177232D01*
X104487226Y-99210537D01*
X104482009Y-99221187D01*
X104460705Y-99259940D01*
X104458734Y-99267615D01*
X104458734Y-99267616D01*
X104455667Y-99279562D01*
X104449263Y-99298266D01*
X104441219Y-99316855D01*
X104439980Y-99324678D01*
X104439977Y-99324688D01*
X104434301Y-99360524D01*
X104431895Y-99372144D01*
X104426605Y-99392749D01*
X104420900Y-99414970D01*
X104420900Y-99435224D01*
X104419349Y-99454934D01*
X104416180Y-99474943D01*
X104416926Y-99482835D01*
X104420341Y-99518961D01*
X104420900Y-99530819D01*
X104420900Y-101396606D01*
X104400898Y-101464727D01*
X104367171Y-101499819D01*
X104214611Y-101606643D01*
X104214608Y-101606645D01*
X104210100Y-101609802D01*
X104048202Y-101771700D01*
X104045045Y-101776208D01*
X104045043Y-101776211D01*
X103990302Y-101854389D01*
X103916877Y-101959251D01*
X103914554Y-101964233D01*
X103914551Y-101964238D01*
X103834283Y-102136375D01*
X103820116Y-102166757D01*
X103818694Y-102172065D01*
X103818693Y-102172067D01*
X103766171Y-102368081D01*
X103760857Y-102387913D01*
X103740902Y-102616000D01*
X103760857Y-102844087D01*
X103762281Y-102849400D01*
X103762281Y-102849402D01*
X103792619Y-102962622D01*
X103820116Y-103065243D01*
X103822439Y-103070224D01*
X103822439Y-103070225D01*
X103914551Y-103267762D01*
X103914554Y-103267767D01*
X103916877Y-103272749D01*
X103944378Y-103312024D01*
X104030417Y-103434900D01*
X104048202Y-103460300D01*
X104210100Y-103622198D01*
X104214608Y-103625355D01*
X104214611Y-103625357D01*
X104251133Y-103650930D01*
X104397651Y-103753523D01*
X104402633Y-103755846D01*
X104402638Y-103755849D01*
X104578507Y-103837857D01*
X104605157Y-103850284D01*
X104610465Y-103851706D01*
X104610467Y-103851707D01*
X104820998Y-103908119D01*
X104821000Y-103908119D01*
X104826313Y-103909543D01*
X105054400Y-103929498D01*
X105282487Y-103909543D01*
X105287800Y-103908119D01*
X105287802Y-103908119D01*
X105498333Y-103851707D01*
X105498335Y-103851706D01*
X105503643Y-103850284D01*
X105530293Y-103837857D01*
X105706162Y-103755849D01*
X105706167Y-103755846D01*
X105711149Y-103753523D01*
X105857667Y-103650930D01*
X105894189Y-103625357D01*
X105894192Y-103625355D01*
X105898700Y-103622198D01*
X106060598Y-103460300D01*
X106078384Y-103434900D01*
X106164422Y-103312024D01*
X106191923Y-103272749D01*
X106194247Y-103267765D01*
X106195571Y-103265472D01*
X106246953Y-103216479D01*
X106316667Y-103203043D01*
X106382578Y-103229429D01*
X106413809Y-103265472D01*
X106420466Y-103277002D01*
X106456909Y-103329048D01*
X106467388Y-103337424D01*
X106480834Y-103330356D01*
X107182378Y-102628812D01*
X107189992Y-102614868D01*
X107189861Y-102613035D01*
X107185610Y-102606420D01*
X106480113Y-101900923D01*
X106468338Y-101894493D01*
X106456323Y-101903789D01*
X106420466Y-101954998D01*
X106413809Y-101966528D01*
X106362427Y-102015521D01*
X106292713Y-102028958D01*
X106226802Y-102002571D01*
X106195571Y-101966528D01*
X106194247Y-101964235D01*
X106191923Y-101959251D01*
X106128794Y-101869093D01*
X106063757Y-101776211D01*
X106063755Y-101776208D01*
X106060598Y-101771700D01*
X105898700Y-101609802D01*
X105894192Y-101606645D01*
X105894189Y-101606643D01*
X105783287Y-101528988D01*
X106832976Y-101528988D01*
X106840044Y-101542434D01*
X107541588Y-102243978D01*
X107555532Y-102251592D01*
X107557365Y-102251461D01*
X107563980Y-102247210D01*
X108269477Y-101541713D01*
X108275907Y-101529938D01*
X108266611Y-101517923D01*
X108215406Y-101482069D01*
X108205911Y-101476586D01*
X108008453Y-101384510D01*
X107998161Y-101380764D01*
X107787712Y-101324375D01*
X107776919Y-101322472D01*
X107559875Y-101303483D01*
X107548925Y-101303483D01*
X107331881Y-101322472D01*
X107321088Y-101324375D01*
X107110639Y-101380764D01*
X107100347Y-101384510D01*
X106902889Y-101476586D01*
X106893394Y-101482069D01*
X106841352Y-101518509D01*
X106832976Y-101528988D01*
X105783287Y-101528988D01*
X105741629Y-101499819D01*
X105697301Y-101444362D01*
X105687900Y-101396606D01*
X105687900Y-99809594D01*
X105707902Y-99741473D01*
X105724805Y-99720499D01*
X105751976Y-99693328D01*
X105814288Y-99659302D01*
X105873681Y-99660716D01*
X105899712Y-99667691D01*
X105899719Y-99667692D01*
X105905029Y-99669115D01*
X106124400Y-99688307D01*
X106343771Y-99669115D01*
X106556476Y-99612120D01*
X106756054Y-99519056D01*
X106857159Y-99448261D01*
X106931927Y-99395908D01*
X106931929Y-99395906D01*
X106936438Y-99392749D01*
X107092149Y-99237038D01*
X107103241Y-99221198D01*
X107215299Y-99061162D01*
X107215300Y-99061160D01*
X107218456Y-99056653D01*
X107220779Y-99051671D01*
X107220782Y-99051666D01*
X107287010Y-98909637D01*
X107311520Y-98857076D01*
X107368515Y-98644371D01*
X107387707Y-98425000D01*
X107368515Y-98205629D01*
X107311520Y-97992924D01*
X107244300Y-97848769D01*
X107220782Y-97798334D01*
X107220779Y-97798329D01*
X107218456Y-97793347D01*
X107210307Y-97781709D01*
X107095308Y-97617473D01*
X107095306Y-97617470D01*
X107092149Y-97612962D01*
X106936438Y-97457251D01*
X106924748Y-97449065D01*
X106816374Y-97373181D01*
X106756054Y-97330944D01*
X106556476Y-97237880D01*
X106343771Y-97180885D01*
X106124400Y-97161693D01*
X105905029Y-97180885D01*
X105899714Y-97182309D01*
X105899715Y-97182309D01*
X105873683Y-97189284D01*
X105802706Y-97187594D01*
X105751977Y-97156672D01*
X105470805Y-96875500D01*
X105436779Y-96813188D01*
X105433900Y-96786405D01*
X105433900Y-93727520D01*
X105453902Y-93659399D01*
X105507558Y-93612906D01*
X105577832Y-93602802D01*
X105642412Y-93632296D01*
X105661836Y-93653459D01*
X105666152Y-93659399D01*
X105681836Y-93680987D01*
X105688352Y-93690907D01*
X105710858Y-93728962D01*
X105725179Y-93743283D01*
X105738019Y-93758316D01*
X105749928Y-93774707D01*
X105756034Y-93779758D01*
X105784005Y-93802898D01*
X105792784Y-93810888D01*
X110609678Y-98627782D01*
X110643704Y-98690094D01*
X110645892Y-98703703D01*
X110663258Y-98868928D01*
X110722273Y-99050556D01*
X110725576Y-99056278D01*
X110725577Y-99056279D01*
X110738323Y-99078356D01*
X110817760Y-99215944D01*
X110822178Y-99220851D01*
X110822179Y-99220852D01*
X110936791Y-99348142D01*
X110945547Y-99357866D01*
X110993559Y-99392749D01*
X111085189Y-99459322D01*
X111100048Y-99470118D01*
X111106076Y-99472802D01*
X111106078Y-99472803D01*
X111268479Y-99545108D01*
X111274512Y-99547794D01*
X111344437Y-99562657D01*
X111454856Y-99586128D01*
X111454861Y-99586128D01*
X111461313Y-99587500D01*
X111652287Y-99587500D01*
X111658739Y-99586128D01*
X111658744Y-99586128D01*
X111769163Y-99562657D01*
X111839088Y-99547794D01*
X111845115Y-99545111D01*
X111845123Y-99545108D01*
X111923570Y-99510181D01*
X111993937Y-99500747D01*
X112058234Y-99530854D01*
X112096047Y-99590943D01*
X112095371Y-99661936D01*
X112063913Y-99714383D01*
X109082011Y-102696285D01*
X109019700Y-102730310D01*
X108948885Y-102725245D01*
X108892049Y-102682698D01*
X108867238Y-102616178D01*
X108867118Y-102612826D01*
X108847928Y-102393481D01*
X108846025Y-102382688D01*
X108789636Y-102172239D01*
X108785890Y-102161947D01*
X108693814Y-101964489D01*
X108688331Y-101954994D01*
X108651891Y-101902952D01*
X108641412Y-101894576D01*
X108627966Y-101901644D01*
X106839323Y-103690287D01*
X106832893Y-103702062D01*
X106842189Y-103714077D01*
X106893394Y-103749931D01*
X106902889Y-103755414D01*
X107100347Y-103847490D01*
X107110639Y-103851236D01*
X107321088Y-103907625D01*
X107331881Y-103909528D01*
X107554400Y-103928996D01*
X107554220Y-103931052D01*
X107613709Y-103948519D01*
X107660202Y-104002175D01*
X107670306Y-104072449D01*
X107640812Y-104137029D01*
X107634683Y-104143612D01*
X106831100Y-104947195D01*
X106768788Y-104981221D01*
X106742005Y-104984100D01*
X106686113Y-104984100D01*
X106679661Y-104985472D01*
X106679656Y-104985472D01*
X106592713Y-105003953D01*
X106499312Y-105023806D01*
X106493282Y-105026491D01*
X106493281Y-105026491D01*
X106330878Y-105098797D01*
X106330876Y-105098798D01*
X106324848Y-105101482D01*
X106170347Y-105213734D01*
X106042560Y-105355656D01*
X105984286Y-105456590D01*
X105974183Y-105474089D01*
X105947073Y-105521044D01*
X105888058Y-105702672D01*
X105887368Y-105709233D01*
X105887368Y-105709235D01*
X105878876Y-105790032D01*
X105868096Y-105892600D01*
X105888058Y-106082528D01*
X105947073Y-106264156D01*
X106042560Y-106429544D01*
X106170347Y-106571466D01*
X106324848Y-106683718D01*
X106330876Y-106686402D01*
X106330878Y-106686403D01*
X106447179Y-106738183D01*
X106499312Y-106761394D01*
X106557990Y-106773866D01*
X106620462Y-106807594D01*
X106654784Y-106869744D01*
X106650056Y-106940583D01*
X106620887Y-106986208D01*
X103692947Y-109914148D01*
X103684661Y-109921688D01*
X103678182Y-109925800D01*
X103672757Y-109931577D01*
X103631557Y-109975451D01*
X103628802Y-109978293D01*
X103609065Y-109998030D01*
X103606585Y-110001227D01*
X103598882Y-110010247D01*
X103568614Y-110042479D01*
X103564795Y-110049425D01*
X103564793Y-110049428D01*
X103558852Y-110060234D01*
X103548001Y-110076753D01*
X103535586Y-110092759D01*
X103532441Y-110100028D01*
X103532438Y-110100032D01*
X103518026Y-110133337D01*
X103512809Y-110143987D01*
X103491505Y-110182740D01*
X103489534Y-110190415D01*
X103489534Y-110190416D01*
X103486467Y-110202362D01*
X103480063Y-110221066D01*
X103475210Y-110232282D01*
X103472019Y-110239655D01*
X103470780Y-110247478D01*
X103470777Y-110247488D01*
X103465101Y-110283324D01*
X103462695Y-110294944D01*
X103455261Y-110323901D01*
X103451700Y-110337770D01*
X103451700Y-110358024D01*
X103450149Y-110377734D01*
X103446980Y-110397743D01*
X103447726Y-110405635D01*
X103451141Y-110441761D01*
X103451700Y-110453619D01*
X103451700Y-113893406D01*
X103431698Y-113961527D01*
X103397971Y-113996619D01*
X103245411Y-114103443D01*
X103245408Y-114103445D01*
X103240900Y-114106602D01*
X103079002Y-114268500D01*
X102947677Y-114456051D01*
X102945354Y-114461033D01*
X102945351Y-114461038D01*
X102942986Y-114466110D01*
X102850916Y-114663557D01*
X102849494Y-114668865D01*
X102849493Y-114668867D01*
X102817099Y-114789762D01*
X102791657Y-114884713D01*
X102771702Y-115112800D01*
X102791657Y-115340887D01*
X102793081Y-115346200D01*
X102793081Y-115346202D01*
X102843159Y-115533092D01*
X102850916Y-115562043D01*
X102853239Y-115567024D01*
X102853239Y-115567025D01*
X102945351Y-115764562D01*
X102945354Y-115764567D01*
X102947677Y-115769549D01*
X102986203Y-115824570D01*
X103050772Y-115916783D01*
X103079002Y-115957100D01*
X103240900Y-116118998D01*
X103245408Y-116122155D01*
X103245411Y-116122157D01*
X103297189Y-116158412D01*
X103428451Y-116250323D01*
X103433433Y-116252646D01*
X103433438Y-116252649D01*
X103582824Y-116322308D01*
X103635957Y-116347084D01*
X103641265Y-116348506D01*
X103641267Y-116348507D01*
X103851798Y-116404919D01*
X103851800Y-116404919D01*
X103857113Y-116406343D01*
X104085200Y-116426298D01*
X104313287Y-116406343D01*
X104318600Y-116404919D01*
X104318602Y-116404919D01*
X104529133Y-116348507D01*
X104529135Y-116348506D01*
X104534443Y-116347084D01*
X104587576Y-116322308D01*
X104736962Y-116252649D01*
X104736967Y-116252646D01*
X104741949Y-116250323D01*
X104873211Y-116158412D01*
X104924989Y-116122157D01*
X104924992Y-116122155D01*
X104929500Y-116118998D01*
X105091398Y-115957100D01*
X105119629Y-115916783D01*
X105184197Y-115824570D01*
X105222723Y-115769549D01*
X105225046Y-115764567D01*
X105225049Y-115764562D01*
X105241005Y-115730343D01*
X105287922Y-115677058D01*
X105356199Y-115657597D01*
X105424159Y-115678139D01*
X105469395Y-115730343D01*
X105485351Y-115764562D01*
X105485354Y-115764567D01*
X105487677Y-115769549D01*
X105526203Y-115824570D01*
X105590772Y-115916783D01*
X105619002Y-115957100D01*
X105780900Y-116118998D01*
X105785408Y-116122155D01*
X105785411Y-116122157D01*
X105837189Y-116158412D01*
X105968451Y-116250323D01*
X105973433Y-116252646D01*
X105973438Y-116252649D01*
X106122824Y-116322308D01*
X106175957Y-116347084D01*
X106181265Y-116348506D01*
X106181267Y-116348507D01*
X106391798Y-116404919D01*
X106391800Y-116404919D01*
X106397113Y-116406343D01*
X106625200Y-116426298D01*
X106853287Y-116406343D01*
X106858600Y-116404919D01*
X106858602Y-116404919D01*
X107069133Y-116348507D01*
X107069135Y-116348506D01*
X107074443Y-116347084D01*
X107127576Y-116322308D01*
X107276962Y-116252649D01*
X107276967Y-116252646D01*
X107281949Y-116250323D01*
X107413211Y-116158412D01*
X107464989Y-116122157D01*
X107464992Y-116122155D01*
X107469500Y-116118998D01*
X107631398Y-115957100D01*
X107659629Y-115916783D01*
X107724197Y-115824570D01*
X107762723Y-115769549D01*
X107765046Y-115764567D01*
X107765049Y-115764562D01*
X107781005Y-115730343D01*
X107827922Y-115677058D01*
X107896199Y-115657597D01*
X107964159Y-115678139D01*
X108009395Y-115730343D01*
X108025351Y-115764562D01*
X108025354Y-115764567D01*
X108027677Y-115769549D01*
X108066203Y-115824570D01*
X108130772Y-115916783D01*
X108159002Y-115957100D01*
X108320900Y-116118998D01*
X108325408Y-116122155D01*
X108325411Y-116122157D01*
X108377189Y-116158412D01*
X108508451Y-116250323D01*
X108513433Y-116252646D01*
X108513438Y-116252649D01*
X108662824Y-116322308D01*
X108715957Y-116347084D01*
X108721265Y-116348506D01*
X108721267Y-116348507D01*
X108931798Y-116404919D01*
X108931800Y-116404919D01*
X108937113Y-116406343D01*
X109165200Y-116426298D01*
X109393287Y-116406343D01*
X109398600Y-116404919D01*
X109398602Y-116404919D01*
X109609133Y-116348507D01*
X109609135Y-116348506D01*
X109614443Y-116347084D01*
X109667576Y-116322308D01*
X109816962Y-116252649D01*
X109816967Y-116252646D01*
X109821949Y-116250323D01*
X109953211Y-116158412D01*
X110004989Y-116122157D01*
X110004992Y-116122155D01*
X110009500Y-116118998D01*
X110171398Y-115957100D01*
X110199629Y-115916783D01*
X110264197Y-115824570D01*
X110302723Y-115769549D01*
X110305046Y-115764567D01*
X110305049Y-115764562D01*
X110321005Y-115730343D01*
X110367922Y-115677058D01*
X110436199Y-115657597D01*
X110504159Y-115678139D01*
X110549395Y-115730343D01*
X110565351Y-115764562D01*
X110565354Y-115764567D01*
X110567677Y-115769549D01*
X110606203Y-115824570D01*
X110670772Y-115916783D01*
X110699002Y-115957100D01*
X110860900Y-116118998D01*
X110865408Y-116122155D01*
X110865411Y-116122157D01*
X110917189Y-116158412D01*
X111048451Y-116250323D01*
X111053433Y-116252646D01*
X111053438Y-116252649D01*
X111202824Y-116322308D01*
X111255957Y-116347084D01*
X111261265Y-116348506D01*
X111261267Y-116348507D01*
X111471798Y-116404919D01*
X111471800Y-116404919D01*
X111477113Y-116406343D01*
X111705200Y-116426298D01*
X111933287Y-116406343D01*
X111938600Y-116404919D01*
X111938602Y-116404919D01*
X112149133Y-116348507D01*
X112149135Y-116348506D01*
X112154443Y-116347084D01*
X112207576Y-116322308D01*
X112356962Y-116252649D01*
X112356967Y-116252646D01*
X112361949Y-116250323D01*
X112493211Y-116158412D01*
X112544989Y-116122157D01*
X112544992Y-116122155D01*
X112549500Y-116118998D01*
X112711398Y-115957100D01*
X112739629Y-115916783D01*
X112804197Y-115824570D01*
X112842723Y-115769549D01*
X112845046Y-115764567D01*
X112845049Y-115764562D01*
X112861005Y-115730343D01*
X112907922Y-115677058D01*
X112976199Y-115657597D01*
X113044159Y-115678139D01*
X113089395Y-115730343D01*
X113105351Y-115764562D01*
X113105354Y-115764567D01*
X113107677Y-115769549D01*
X113146203Y-115824570D01*
X113210772Y-115916783D01*
X113239002Y-115957100D01*
X113400900Y-116118998D01*
X113405408Y-116122155D01*
X113405411Y-116122157D01*
X113457189Y-116158412D01*
X113588451Y-116250323D01*
X113593433Y-116252646D01*
X113593438Y-116252649D01*
X113742824Y-116322308D01*
X113795957Y-116347084D01*
X113801265Y-116348506D01*
X113801267Y-116348507D01*
X114011798Y-116404919D01*
X114011800Y-116404919D01*
X114017113Y-116406343D01*
X114245200Y-116426298D01*
X114473287Y-116406343D01*
X114478600Y-116404919D01*
X114478602Y-116404919D01*
X114689133Y-116348507D01*
X114689135Y-116348506D01*
X114694443Y-116347084D01*
X114747576Y-116322308D01*
X114896962Y-116252649D01*
X114896967Y-116252646D01*
X114901949Y-116250323D01*
X115033211Y-116158412D01*
X115084989Y-116122157D01*
X115084992Y-116122155D01*
X115089500Y-116118998D01*
X115251398Y-115957100D01*
X115279629Y-115916783D01*
X115344197Y-115824570D01*
X115382723Y-115769549D01*
X115385046Y-115764567D01*
X115385049Y-115764562D01*
X115401005Y-115730343D01*
X115447922Y-115677058D01*
X115516199Y-115657597D01*
X115584159Y-115678139D01*
X115629395Y-115730343D01*
X115645351Y-115764562D01*
X115645354Y-115764567D01*
X115647677Y-115769549D01*
X115686203Y-115824570D01*
X115750772Y-115916783D01*
X115779002Y-115957100D01*
X115940900Y-116118998D01*
X115945408Y-116122155D01*
X115945411Y-116122157D01*
X115997189Y-116158412D01*
X116128451Y-116250323D01*
X116133433Y-116252646D01*
X116133438Y-116252649D01*
X116282824Y-116322308D01*
X116335957Y-116347084D01*
X116341265Y-116348506D01*
X116341267Y-116348507D01*
X116551798Y-116404919D01*
X116551800Y-116404919D01*
X116557113Y-116406343D01*
X116785200Y-116426298D01*
X117013287Y-116406343D01*
X117018600Y-116404919D01*
X117018602Y-116404919D01*
X117229133Y-116348507D01*
X117229135Y-116348506D01*
X117234443Y-116347084D01*
X117287576Y-116322308D01*
X117436962Y-116252649D01*
X117436967Y-116252646D01*
X117441949Y-116250323D01*
X117573211Y-116158412D01*
X117624989Y-116122157D01*
X117624992Y-116122155D01*
X117629500Y-116118998D01*
X117791398Y-115957100D01*
X117819629Y-115916783D01*
X117884197Y-115824570D01*
X117922723Y-115769549D01*
X117925046Y-115764567D01*
X117925049Y-115764562D01*
X117941281Y-115729751D01*
X117988198Y-115676466D01*
X118056475Y-115657005D01*
X118124435Y-115677547D01*
X118169671Y-115729751D01*
X118185786Y-115764311D01*
X118191269Y-115773807D01*
X118316228Y-115952267D01*
X118323284Y-115960675D01*
X118477325Y-116114716D01*
X118485733Y-116121772D01*
X118664193Y-116246731D01*
X118673689Y-116252214D01*
X118871147Y-116344290D01*
X118881439Y-116348036D01*
X119053703Y-116394194D01*
X119067799Y-116393858D01*
X119071200Y-116385916D01*
X119071200Y-116380767D01*
X119579200Y-116380767D01*
X119583173Y-116394298D01*
X119591722Y-116395527D01*
X119768961Y-116348036D01*
X119779253Y-116344290D01*
X119976711Y-116252214D01*
X119986207Y-116246731D01*
X120164667Y-116121772D01*
X120173075Y-116114716D01*
X120327116Y-115960675D01*
X120334172Y-115952267D01*
X120459131Y-115773807D01*
X120464614Y-115764311D01*
X120480729Y-115729751D01*
X120527646Y-115676466D01*
X120595923Y-115657005D01*
X120663883Y-115677547D01*
X120709119Y-115729751D01*
X120725351Y-115764562D01*
X120725354Y-115764567D01*
X120727677Y-115769549D01*
X120766203Y-115824570D01*
X120830772Y-115916783D01*
X120859002Y-115957100D01*
X121020900Y-116118998D01*
X121025408Y-116122155D01*
X121025411Y-116122157D01*
X121077189Y-116158412D01*
X121208451Y-116250323D01*
X121213433Y-116252646D01*
X121213438Y-116252649D01*
X121362824Y-116322308D01*
X121415957Y-116347084D01*
X121421265Y-116348506D01*
X121421267Y-116348507D01*
X121631798Y-116404919D01*
X121631800Y-116404919D01*
X121637113Y-116406343D01*
X121865200Y-116426298D01*
X122093287Y-116406343D01*
X122098600Y-116404919D01*
X122098602Y-116404919D01*
X122309133Y-116348507D01*
X122309135Y-116348506D01*
X122314443Y-116347084D01*
X122367576Y-116322308D01*
X122516962Y-116252649D01*
X122516967Y-116252646D01*
X122521949Y-116250323D01*
X122653211Y-116158412D01*
X122704989Y-116122157D01*
X122704992Y-116122155D01*
X122709500Y-116118998D01*
X122871398Y-115957100D01*
X122899629Y-115916783D01*
X122964197Y-115824570D01*
X123002723Y-115769549D01*
X123005046Y-115764567D01*
X123005049Y-115764562D01*
X123021005Y-115730343D01*
X123067922Y-115677058D01*
X123136199Y-115657597D01*
X123204159Y-115678139D01*
X123249395Y-115730343D01*
X123265351Y-115764562D01*
X123265354Y-115764567D01*
X123267677Y-115769549D01*
X123306203Y-115824570D01*
X123370772Y-115916783D01*
X123399002Y-115957100D01*
X123560900Y-116118998D01*
X123565408Y-116122155D01*
X123565411Y-116122157D01*
X123617189Y-116158412D01*
X123748451Y-116250323D01*
X123753433Y-116252646D01*
X123753438Y-116252649D01*
X123902824Y-116322308D01*
X123955957Y-116347084D01*
X123961265Y-116348506D01*
X123961267Y-116348507D01*
X124171798Y-116404919D01*
X124171800Y-116404919D01*
X124177113Y-116406343D01*
X124405200Y-116426298D01*
X124633287Y-116406343D01*
X124638600Y-116404919D01*
X124638602Y-116404919D01*
X124849133Y-116348507D01*
X124849135Y-116348506D01*
X124854443Y-116347084D01*
X124907576Y-116322308D01*
X125056962Y-116252649D01*
X125056967Y-116252646D01*
X125061949Y-116250323D01*
X125193211Y-116158412D01*
X125244989Y-116122157D01*
X125244992Y-116122155D01*
X125249500Y-116118998D01*
X125411398Y-115957100D01*
X125439629Y-115916783D01*
X125504197Y-115824570D01*
X125542723Y-115769549D01*
X125545046Y-115764567D01*
X125545049Y-115764562D01*
X125561005Y-115730343D01*
X125607922Y-115677058D01*
X125676199Y-115657597D01*
X125744159Y-115678139D01*
X125789395Y-115730343D01*
X125805351Y-115764562D01*
X125805354Y-115764567D01*
X125807677Y-115769549D01*
X125846203Y-115824570D01*
X125910772Y-115916783D01*
X125939002Y-115957100D01*
X126100900Y-116118998D01*
X126105408Y-116122155D01*
X126105411Y-116122157D01*
X126157189Y-116158412D01*
X126288451Y-116250323D01*
X126293433Y-116252646D01*
X126293438Y-116252649D01*
X126442824Y-116322308D01*
X126495957Y-116347084D01*
X126501265Y-116348506D01*
X126501267Y-116348507D01*
X126711798Y-116404919D01*
X126711800Y-116404919D01*
X126717113Y-116406343D01*
X126945200Y-116426298D01*
X127173287Y-116406343D01*
X127178600Y-116404919D01*
X127178602Y-116404919D01*
X127389133Y-116348507D01*
X127389135Y-116348506D01*
X127394443Y-116347084D01*
X127447576Y-116322308D01*
X127596962Y-116252649D01*
X127596967Y-116252646D01*
X127601949Y-116250323D01*
X127733211Y-116158412D01*
X127784989Y-116122157D01*
X127784992Y-116122155D01*
X127789500Y-116118998D01*
X127951398Y-115957100D01*
X127979629Y-115916783D01*
X128044197Y-115824570D01*
X128082723Y-115769549D01*
X128085046Y-115764567D01*
X128085049Y-115764562D01*
X128177161Y-115567025D01*
X128177161Y-115567024D01*
X128179484Y-115562043D01*
X128189166Y-115525909D01*
X128226118Y-115465286D01*
X128289978Y-115434265D01*
X128360473Y-115442693D01*
X128415220Y-115487896D01*
X128433134Y-115530625D01*
X128433468Y-115530534D01*
X128509329Y-115807836D01*
X128511013Y-115811784D01*
X128616214Y-116058422D01*
X128622123Y-116072276D01*
X128668058Y-116149027D01*
X128760370Y-116303269D01*
X128769761Y-116318961D01*
X128949513Y-116543328D01*
X129158051Y-116741223D01*
X129391517Y-116908986D01*
X129395312Y-116910995D01*
X129395313Y-116910996D01*
X129417069Y-116922515D01*
X129645592Y-117043512D01*
X129915573Y-117142311D01*
X130196464Y-117203555D01*
X130225041Y-117205804D01*
X130419482Y-117221107D01*
X130419491Y-117221107D01*
X130421939Y-117221300D01*
X130577471Y-117221300D01*
X130579607Y-117221154D01*
X130579618Y-117221154D01*
X130787748Y-117206965D01*
X130787754Y-117206964D01*
X130792025Y-117206673D01*
X130796220Y-117205804D01*
X130796222Y-117205804D01*
X130932784Y-117177523D01*
X131073542Y-117148374D01*
X131344543Y-117052407D01*
X131600012Y-116920550D01*
X131602117Y-116919070D01*
X135963160Y-116919070D01*
X135968887Y-116926720D01*
X136140042Y-117031605D01*
X136148837Y-117036087D01*
X136358988Y-117123134D01*
X136368373Y-117126183D01*
X136589554Y-117179285D01*
X136599301Y-117180828D01*
X136826070Y-117198675D01*
X136835930Y-117198675D01*
X137062699Y-117180828D01*
X137072446Y-117179285D01*
X137293627Y-117126183D01*
X137303012Y-117123134D01*
X137513163Y-117036087D01*
X137521958Y-117031605D01*
X137689445Y-116928968D01*
X137698400Y-116919070D01*
X142463160Y-116919070D01*
X142468887Y-116926720D01*
X142640042Y-117031605D01*
X142648837Y-117036087D01*
X142858988Y-117123134D01*
X142868373Y-117126183D01*
X143089554Y-117179285D01*
X143099301Y-117180828D01*
X143326070Y-117198675D01*
X143335930Y-117198675D01*
X143562699Y-117180828D01*
X143572446Y-117179285D01*
X143793627Y-117126183D01*
X143803012Y-117123134D01*
X144013163Y-117036087D01*
X144021958Y-117031605D01*
X144189445Y-116928968D01*
X144198907Y-116918510D01*
X144195124Y-116909734D01*
X143343812Y-116058422D01*
X143329868Y-116050808D01*
X143328035Y-116050939D01*
X143321420Y-116055190D01*
X142469920Y-116906690D01*
X142463160Y-116919070D01*
X137698400Y-116919070D01*
X137698907Y-116918510D01*
X137695124Y-116909734D01*
X136843812Y-116058422D01*
X136829868Y-116050808D01*
X136828035Y-116050939D01*
X136821420Y-116055190D01*
X135969920Y-116906690D01*
X135963160Y-116919070D01*
X131602117Y-116919070D01*
X131603513Y-116918089D01*
X131603517Y-116918087D01*
X131717618Y-116837895D01*
X131835223Y-116755241D01*
X132045822Y-116559540D01*
X132227913Y-116337068D01*
X132378127Y-116091942D01*
X132415907Y-116005878D01*
X132491957Y-115832630D01*
X132493683Y-115828698D01*
X132532813Y-115691330D01*
X135318725Y-115691330D01*
X135336572Y-115918099D01*
X135338115Y-115927846D01*
X135391217Y-116149027D01*
X135394266Y-116158412D01*
X135481313Y-116368563D01*
X135485795Y-116377358D01*
X135588432Y-116544845D01*
X135598890Y-116554307D01*
X135607666Y-116550524D01*
X136458978Y-115699212D01*
X136465356Y-115687532D01*
X137195408Y-115687532D01*
X137195539Y-115689365D01*
X137199790Y-115695980D01*
X138051290Y-116547480D01*
X138063670Y-116554240D01*
X138071320Y-116548513D01*
X138176205Y-116377358D01*
X138180687Y-116368563D01*
X138267734Y-116158412D01*
X138270783Y-116149027D01*
X138323885Y-115927846D01*
X138325428Y-115918099D01*
X138343275Y-115691330D01*
X141818725Y-115691330D01*
X141836572Y-115918099D01*
X141838115Y-115927846D01*
X141891217Y-116149027D01*
X141894266Y-116158412D01*
X141981313Y-116368563D01*
X141985795Y-116377358D01*
X142088432Y-116544845D01*
X142098890Y-116554307D01*
X142107666Y-116550524D01*
X142958978Y-115699212D01*
X142965356Y-115687532D01*
X143695408Y-115687532D01*
X143695539Y-115689365D01*
X143699790Y-115695980D01*
X144551290Y-116547480D01*
X144563670Y-116554240D01*
X144571320Y-116548513D01*
X144676205Y-116377358D01*
X144680687Y-116368563D01*
X144767734Y-116158412D01*
X144770783Y-116149027D01*
X144823885Y-115927846D01*
X144825428Y-115918099D01*
X144843275Y-115691330D01*
X144843275Y-115681470D01*
X144825428Y-115454701D01*
X144823885Y-115444954D01*
X144770783Y-115223773D01*
X144767734Y-115214388D01*
X144680687Y-115004237D01*
X144676205Y-114995442D01*
X144573568Y-114827955D01*
X144563110Y-114818493D01*
X144554334Y-114822276D01*
X143703022Y-115673588D01*
X143695408Y-115687532D01*
X142965356Y-115687532D01*
X142966592Y-115685268D01*
X142966461Y-115683435D01*
X142962210Y-115676820D01*
X142110710Y-114825320D01*
X142098330Y-114818560D01*
X142090680Y-114824287D01*
X141985795Y-114995442D01*
X141981313Y-115004237D01*
X141894266Y-115214388D01*
X141891217Y-115223773D01*
X141838115Y-115444954D01*
X141836572Y-115454701D01*
X141818725Y-115681470D01*
X141818725Y-115691330D01*
X138343275Y-115691330D01*
X138343275Y-115681470D01*
X138325428Y-115454701D01*
X138323885Y-115444954D01*
X138270783Y-115223773D01*
X138267734Y-115214388D01*
X138180687Y-115004237D01*
X138176205Y-114995442D01*
X138073568Y-114827955D01*
X138063110Y-114818493D01*
X138054334Y-114822276D01*
X137203022Y-115673588D01*
X137195408Y-115687532D01*
X136465356Y-115687532D01*
X136466592Y-115685268D01*
X136466461Y-115683435D01*
X136462210Y-115676820D01*
X135610710Y-114825320D01*
X135598330Y-114818560D01*
X135590680Y-114824287D01*
X135485795Y-114995442D01*
X135481313Y-115004237D01*
X135394266Y-115214388D01*
X135391217Y-115223773D01*
X135338115Y-115444954D01*
X135336572Y-115454701D01*
X135318725Y-115681470D01*
X135318725Y-115691330D01*
X132532813Y-115691330D01*
X132572444Y-115552206D01*
X132612951Y-115267584D01*
X132613734Y-115118275D01*
X132614435Y-114984383D01*
X132614435Y-114984376D01*
X132614457Y-114980097D01*
X132601900Y-114884713D01*
X132589399Y-114789762D01*
X132576932Y-114695066D01*
X132574608Y-114686569D01*
X132554785Y-114614111D01*
X132511063Y-114454290D01*
X135963093Y-114454290D01*
X135966876Y-114463066D01*
X136818188Y-115314378D01*
X136832132Y-115321992D01*
X136833965Y-115321861D01*
X136840580Y-115317610D01*
X137692080Y-114466110D01*
X137698534Y-114454290D01*
X142463093Y-114454290D01*
X142466876Y-114463066D01*
X143318188Y-115314378D01*
X143332132Y-115321992D01*
X143333965Y-115321861D01*
X143340580Y-115317610D01*
X144192080Y-114466110D01*
X144198840Y-114453730D01*
X144193113Y-114446080D01*
X144021958Y-114341195D01*
X144013163Y-114336713D01*
X143803012Y-114249666D01*
X143793627Y-114246617D01*
X143572446Y-114193515D01*
X143562699Y-114191972D01*
X143335930Y-114174125D01*
X143326070Y-114174125D01*
X143099301Y-114191972D01*
X143089554Y-114193515D01*
X142868373Y-114246617D01*
X142858988Y-114249666D01*
X142648837Y-114336713D01*
X142640042Y-114341195D01*
X142472555Y-114443832D01*
X142463093Y-114454290D01*
X137698534Y-114454290D01*
X137698840Y-114453730D01*
X137693113Y-114446080D01*
X137521958Y-114341195D01*
X137513163Y-114336713D01*
X137303012Y-114249666D01*
X137293627Y-114246617D01*
X137072446Y-114193515D01*
X137062699Y-114191972D01*
X136835930Y-114174125D01*
X136826070Y-114174125D01*
X136599301Y-114191972D01*
X136589554Y-114193515D01*
X136368373Y-114246617D01*
X136358988Y-114249666D01*
X136148837Y-114336713D01*
X136140042Y-114341195D01*
X135972555Y-114443832D01*
X135963093Y-114454290D01*
X132511063Y-114454290D01*
X132501071Y-114417764D01*
X132404762Y-114191972D01*
X132389963Y-114157276D01*
X132389961Y-114157272D01*
X132388277Y-114153324D01*
X132283868Y-113978869D01*
X132242843Y-113910321D01*
X132242840Y-113910317D01*
X132240639Y-113906639D01*
X132060887Y-113682272D01*
X131852349Y-113484377D01*
X131618883Y-113316614D01*
X131597043Y-113305050D01*
X131533806Y-113271568D01*
X131364808Y-113182088D01*
X131154095Y-113104978D01*
X131098858Y-113084764D01*
X131098856Y-113084763D01*
X131094827Y-113083289D01*
X130813936Y-113022045D01*
X130782885Y-113019601D01*
X130590918Y-113004493D01*
X130590909Y-113004493D01*
X130588461Y-113004300D01*
X130432929Y-113004300D01*
X130430793Y-113004446D01*
X130430782Y-113004446D01*
X130222652Y-113018635D01*
X130222646Y-113018636D01*
X130218375Y-113018927D01*
X130214180Y-113019796D01*
X130214178Y-113019796D01*
X130077617Y-113048076D01*
X129936858Y-113077226D01*
X129665857Y-113173193D01*
X129662048Y-113175159D01*
X129420938Y-113299605D01*
X129410388Y-113305050D01*
X129406887Y-113307511D01*
X129406883Y-113307513D01*
X129312894Y-113373570D01*
X129175177Y-113470359D01*
X129160092Y-113484377D01*
X129050506Y-113586211D01*
X128964578Y-113666060D01*
X128782487Y-113888532D01*
X128632273Y-114133658D01*
X128630547Y-114137591D01*
X128630546Y-114137592D01*
X128571101Y-114273011D01*
X128516717Y-114396902D01*
X128515542Y-114401029D01*
X128515541Y-114401030D01*
X128488700Y-114495257D01*
X128437956Y-114673394D01*
X128437352Y-114677640D01*
X128436081Y-114686569D01*
X128406680Y-114751192D01*
X128347008Y-114789660D01*
X128276012Y-114789762D01*
X128216231Y-114751463D01*
X128189631Y-114701426D01*
X128180907Y-114668867D01*
X128180906Y-114668865D01*
X128179484Y-114663557D01*
X128087414Y-114466110D01*
X128085049Y-114461038D01*
X128085046Y-114461033D01*
X128082723Y-114456051D01*
X127951398Y-114268500D01*
X127789500Y-114106602D01*
X127784992Y-114103445D01*
X127784989Y-114103443D01*
X127632428Y-113996619D01*
X127601949Y-113975277D01*
X127596967Y-113972954D01*
X127596962Y-113972951D01*
X127399425Y-113880839D01*
X127399424Y-113880839D01*
X127394443Y-113878516D01*
X127389135Y-113877094D01*
X127389133Y-113877093D01*
X127178602Y-113820681D01*
X127178600Y-113820681D01*
X127173287Y-113819257D01*
X126945200Y-113799302D01*
X126717113Y-113819257D01*
X126711800Y-113820681D01*
X126711798Y-113820681D01*
X126501267Y-113877093D01*
X126501265Y-113877094D01*
X126495957Y-113878516D01*
X126490976Y-113880839D01*
X126490975Y-113880839D01*
X126293438Y-113972951D01*
X126293433Y-113972954D01*
X126288451Y-113975277D01*
X126257972Y-113996619D01*
X126105411Y-114103443D01*
X126105408Y-114103445D01*
X126100900Y-114106602D01*
X125939002Y-114268500D01*
X125807677Y-114456051D01*
X125805354Y-114461033D01*
X125805351Y-114461038D01*
X125789395Y-114495257D01*
X125742478Y-114548542D01*
X125674201Y-114568003D01*
X125606241Y-114547461D01*
X125561005Y-114495257D01*
X125545049Y-114461038D01*
X125545046Y-114461033D01*
X125542723Y-114456051D01*
X125411398Y-114268500D01*
X125249500Y-114106602D01*
X125244992Y-114103445D01*
X125244989Y-114103443D01*
X125092428Y-113996619D01*
X125061949Y-113975277D01*
X125056967Y-113972954D01*
X125056962Y-113972951D01*
X124859425Y-113880839D01*
X124859424Y-113880839D01*
X124854443Y-113878516D01*
X124849135Y-113877094D01*
X124849133Y-113877093D01*
X124638602Y-113820681D01*
X124638600Y-113820681D01*
X124633287Y-113819257D01*
X124405200Y-113799302D01*
X124177113Y-113819257D01*
X124171800Y-113820681D01*
X124171798Y-113820681D01*
X123961267Y-113877093D01*
X123961265Y-113877094D01*
X123955957Y-113878516D01*
X123950976Y-113880839D01*
X123950975Y-113880839D01*
X123753438Y-113972951D01*
X123753433Y-113972954D01*
X123748451Y-113975277D01*
X123717972Y-113996619D01*
X123565411Y-114103443D01*
X123565408Y-114103445D01*
X123560900Y-114106602D01*
X123399002Y-114268500D01*
X123267677Y-114456051D01*
X123265354Y-114461033D01*
X123265351Y-114461038D01*
X123249395Y-114495257D01*
X123202478Y-114548542D01*
X123134201Y-114568003D01*
X123066241Y-114547461D01*
X123021005Y-114495257D01*
X123005049Y-114461038D01*
X123005046Y-114461033D01*
X123002723Y-114456051D01*
X122871398Y-114268500D01*
X122709500Y-114106602D01*
X122704992Y-114103445D01*
X122704989Y-114103443D01*
X122552428Y-113996619D01*
X122521949Y-113975277D01*
X122516967Y-113972954D01*
X122516962Y-113972951D01*
X122319425Y-113880839D01*
X122319424Y-113880839D01*
X122314443Y-113878516D01*
X122309135Y-113877094D01*
X122309133Y-113877093D01*
X122098602Y-113820681D01*
X122098600Y-113820681D01*
X122093287Y-113819257D01*
X121865200Y-113799302D01*
X121637113Y-113819257D01*
X121631800Y-113820681D01*
X121631798Y-113820681D01*
X121421267Y-113877093D01*
X121421265Y-113877094D01*
X121415957Y-113878516D01*
X121410976Y-113880839D01*
X121410975Y-113880839D01*
X121213438Y-113972951D01*
X121213433Y-113972954D01*
X121208451Y-113975277D01*
X121177972Y-113996619D01*
X121025411Y-114103443D01*
X121025408Y-114103445D01*
X121020900Y-114106602D01*
X120859002Y-114268500D01*
X120727677Y-114456051D01*
X120725354Y-114461033D01*
X120725351Y-114461038D01*
X120709119Y-114495849D01*
X120662202Y-114549134D01*
X120593925Y-114568595D01*
X120525965Y-114548053D01*
X120480729Y-114495849D01*
X120464614Y-114461289D01*
X120459131Y-114451793D01*
X120334172Y-114273333D01*
X120327116Y-114264925D01*
X120173075Y-114110884D01*
X120164667Y-114103828D01*
X119986207Y-113978869D01*
X119976711Y-113973386D01*
X119779253Y-113881310D01*
X119768961Y-113877564D01*
X119596697Y-113831406D01*
X119582601Y-113831742D01*
X119579200Y-113839684D01*
X119579200Y-116380767D01*
X119071200Y-116380767D01*
X119071200Y-113844833D01*
X119067227Y-113831302D01*
X119058678Y-113830073D01*
X118881439Y-113877564D01*
X118871147Y-113881310D01*
X118673689Y-113973386D01*
X118664193Y-113978869D01*
X118485733Y-114103828D01*
X118477325Y-114110884D01*
X118323284Y-114264925D01*
X118316228Y-114273333D01*
X118191269Y-114451793D01*
X118185786Y-114461289D01*
X118169671Y-114495849D01*
X118122754Y-114549134D01*
X118054477Y-114568595D01*
X117986517Y-114548053D01*
X117941281Y-114495849D01*
X117925049Y-114461038D01*
X117925046Y-114461033D01*
X117922723Y-114456051D01*
X117791398Y-114268500D01*
X117629500Y-114106602D01*
X117624992Y-114103445D01*
X117624989Y-114103443D01*
X117472428Y-113996619D01*
X117441949Y-113975277D01*
X117436967Y-113972954D01*
X117436962Y-113972951D01*
X117239425Y-113880839D01*
X117239424Y-113880839D01*
X117234443Y-113878516D01*
X117229135Y-113877094D01*
X117229133Y-113877093D01*
X117018602Y-113820681D01*
X117018600Y-113820681D01*
X117013287Y-113819257D01*
X116785200Y-113799302D01*
X116557113Y-113819257D01*
X116551800Y-113820681D01*
X116551798Y-113820681D01*
X116341267Y-113877093D01*
X116341265Y-113877094D01*
X116335957Y-113878516D01*
X116330976Y-113880839D01*
X116330975Y-113880839D01*
X116133438Y-113972951D01*
X116133433Y-113972954D01*
X116128451Y-113975277D01*
X116097972Y-113996619D01*
X115945411Y-114103443D01*
X115945408Y-114103445D01*
X115940900Y-114106602D01*
X115779002Y-114268500D01*
X115647677Y-114456051D01*
X115645354Y-114461033D01*
X115645351Y-114461038D01*
X115629395Y-114495257D01*
X115582478Y-114548542D01*
X115514201Y-114568003D01*
X115446241Y-114547461D01*
X115401005Y-114495257D01*
X115385049Y-114461038D01*
X115385046Y-114461033D01*
X115382723Y-114456051D01*
X115251398Y-114268500D01*
X115089500Y-114106602D01*
X115084992Y-114103445D01*
X115084989Y-114103443D01*
X114932428Y-113996619D01*
X114901949Y-113975277D01*
X114896967Y-113972954D01*
X114896962Y-113972951D01*
X114699425Y-113880839D01*
X114699424Y-113880839D01*
X114694443Y-113878516D01*
X114689135Y-113877094D01*
X114689133Y-113877093D01*
X114478602Y-113820681D01*
X114478600Y-113820681D01*
X114473287Y-113819257D01*
X114245200Y-113799302D01*
X114017113Y-113819257D01*
X114011800Y-113820681D01*
X114011798Y-113820681D01*
X113801267Y-113877093D01*
X113801265Y-113877094D01*
X113795957Y-113878516D01*
X113790976Y-113880839D01*
X113790975Y-113880839D01*
X113593438Y-113972951D01*
X113593433Y-113972954D01*
X113588451Y-113975277D01*
X113557972Y-113996619D01*
X113405411Y-114103443D01*
X113405408Y-114103445D01*
X113400900Y-114106602D01*
X113239002Y-114268500D01*
X113107677Y-114456051D01*
X113105354Y-114461033D01*
X113105351Y-114461038D01*
X113089395Y-114495257D01*
X113042478Y-114548542D01*
X112974201Y-114568003D01*
X112906241Y-114547461D01*
X112861005Y-114495257D01*
X112845049Y-114461038D01*
X112845046Y-114461033D01*
X112842723Y-114456051D01*
X112711398Y-114268500D01*
X112549500Y-114106602D01*
X112544992Y-114103445D01*
X112544989Y-114103443D01*
X112392428Y-113996619D01*
X112361949Y-113975277D01*
X112356967Y-113972954D01*
X112356962Y-113972951D01*
X112159425Y-113880839D01*
X112159424Y-113880839D01*
X112154443Y-113878516D01*
X112149135Y-113877094D01*
X112149133Y-113877093D01*
X111938602Y-113820681D01*
X111938600Y-113820681D01*
X111933287Y-113819257D01*
X111705200Y-113799302D01*
X111477113Y-113819257D01*
X111471800Y-113820681D01*
X111471798Y-113820681D01*
X111261267Y-113877093D01*
X111261265Y-113877094D01*
X111255957Y-113878516D01*
X111250976Y-113880839D01*
X111250975Y-113880839D01*
X111053438Y-113972951D01*
X111053433Y-113972954D01*
X111048451Y-113975277D01*
X111017972Y-113996619D01*
X110865411Y-114103443D01*
X110865408Y-114103445D01*
X110860900Y-114106602D01*
X110699002Y-114268500D01*
X110567677Y-114456051D01*
X110565354Y-114461033D01*
X110565351Y-114461038D01*
X110549395Y-114495257D01*
X110502478Y-114548542D01*
X110434201Y-114568003D01*
X110366241Y-114547461D01*
X110321005Y-114495257D01*
X110305049Y-114461038D01*
X110305046Y-114461033D01*
X110302723Y-114456051D01*
X110171398Y-114268500D01*
X110009500Y-114106602D01*
X110004992Y-114103445D01*
X110004989Y-114103443D01*
X109852428Y-113996619D01*
X109821949Y-113975277D01*
X109816967Y-113972954D01*
X109816962Y-113972951D01*
X109619425Y-113880839D01*
X109619424Y-113880839D01*
X109614443Y-113878516D01*
X109609135Y-113877094D01*
X109609133Y-113877093D01*
X109398602Y-113820681D01*
X109398600Y-113820681D01*
X109393287Y-113819257D01*
X109165200Y-113799302D01*
X108937113Y-113819257D01*
X108931800Y-113820681D01*
X108931798Y-113820681D01*
X108721267Y-113877093D01*
X108721265Y-113877094D01*
X108715957Y-113878516D01*
X108710976Y-113880839D01*
X108710975Y-113880839D01*
X108513438Y-113972951D01*
X108513433Y-113972954D01*
X108508451Y-113975277D01*
X108477972Y-113996619D01*
X108325411Y-114103443D01*
X108325408Y-114103445D01*
X108320900Y-114106602D01*
X108159002Y-114268500D01*
X108027677Y-114456051D01*
X108025354Y-114461033D01*
X108025351Y-114461038D01*
X108009395Y-114495257D01*
X107962478Y-114548542D01*
X107894201Y-114568003D01*
X107826241Y-114547461D01*
X107781005Y-114495257D01*
X107765049Y-114461038D01*
X107765046Y-114461033D01*
X107762723Y-114456051D01*
X107631398Y-114268500D01*
X107469500Y-114106602D01*
X107464992Y-114103445D01*
X107464989Y-114103443D01*
X107312428Y-113996619D01*
X107281949Y-113975277D01*
X107276967Y-113972954D01*
X107276962Y-113972951D01*
X107079425Y-113880839D01*
X107079424Y-113880839D01*
X107074443Y-113878516D01*
X107069135Y-113877094D01*
X107069133Y-113877093D01*
X106858602Y-113820681D01*
X106858600Y-113820681D01*
X106853287Y-113819257D01*
X106625200Y-113799302D01*
X106397113Y-113819257D01*
X106391800Y-113820681D01*
X106391798Y-113820681D01*
X106181267Y-113877093D01*
X106181265Y-113877094D01*
X106175957Y-113878516D01*
X106170976Y-113880839D01*
X106170975Y-113880839D01*
X105973438Y-113972951D01*
X105973433Y-113972954D01*
X105968451Y-113975277D01*
X105937972Y-113996619D01*
X105785411Y-114103443D01*
X105785408Y-114103445D01*
X105780900Y-114106602D01*
X105619002Y-114268500D01*
X105487677Y-114456051D01*
X105485354Y-114461033D01*
X105485351Y-114461038D01*
X105469395Y-114495257D01*
X105422478Y-114548542D01*
X105354201Y-114568003D01*
X105286241Y-114547461D01*
X105241005Y-114495257D01*
X105225049Y-114461038D01*
X105225046Y-114461033D01*
X105222723Y-114456051D01*
X105091398Y-114268500D01*
X104929500Y-114106602D01*
X104924992Y-114103445D01*
X104924989Y-114103443D01*
X104772429Y-113996619D01*
X104728101Y-113941162D01*
X104718700Y-113893406D01*
X104718700Y-112965349D01*
X104738702Y-112897228D01*
X104792358Y-112850735D01*
X104862632Y-112840631D01*
X104895949Y-112850242D01*
X105020030Y-112905486D01*
X105026112Y-112908194D01*
X105119513Y-112928047D01*
X105206456Y-112946528D01*
X105206461Y-112946528D01*
X105212913Y-112947900D01*
X105403887Y-112947900D01*
X105410339Y-112946528D01*
X105410344Y-112946528D01*
X105497287Y-112928047D01*
X105590688Y-112908194D01*
X105596719Y-112905509D01*
X105759122Y-112833203D01*
X105759124Y-112833202D01*
X105765152Y-112830518D01*
X105919653Y-112718266D01*
X105929503Y-112707327D01*
X106043021Y-112581252D01*
X106043022Y-112581251D01*
X106047440Y-112576344D01*
X106142927Y-112410956D01*
X106201942Y-112229328D01*
X106219307Y-112064106D01*
X106246320Y-111998450D01*
X106255522Y-111988182D01*
X107057304Y-111186400D01*
X135317835Y-111186400D01*
X135336465Y-111423111D01*
X135337619Y-111427918D01*
X135337620Y-111427924D01*
X135357900Y-111512394D01*
X135391895Y-111653994D01*
X135393788Y-111658565D01*
X135393789Y-111658567D01*
X135475583Y-111856035D01*
X135482760Y-111873363D01*
X135485346Y-111877583D01*
X135604241Y-112071602D01*
X135604245Y-112071608D01*
X135606824Y-112075816D01*
X135761031Y-112256369D01*
X135941584Y-112410576D01*
X135945792Y-112413155D01*
X135945798Y-112413159D01*
X136139817Y-112532054D01*
X136144037Y-112534640D01*
X136148607Y-112536533D01*
X136148611Y-112536535D01*
X136358833Y-112623611D01*
X136363406Y-112625505D01*
X136420475Y-112639206D01*
X136589476Y-112679780D01*
X136589482Y-112679781D01*
X136594289Y-112680935D01*
X136831000Y-112699565D01*
X137067711Y-112680935D01*
X137072518Y-112679781D01*
X137072524Y-112679780D01*
X137241525Y-112639206D01*
X137298594Y-112625505D01*
X137303167Y-112623611D01*
X137513389Y-112536535D01*
X137513393Y-112536533D01*
X137517963Y-112534640D01*
X137522183Y-112532054D01*
X137716202Y-112413159D01*
X137716208Y-112413155D01*
X137720416Y-112410576D01*
X137900969Y-112256369D01*
X138055176Y-112075816D01*
X138057755Y-112071608D01*
X138057759Y-112071602D01*
X138176654Y-111877583D01*
X138179240Y-111873363D01*
X138186418Y-111856035D01*
X138268211Y-111658567D01*
X138268212Y-111658565D01*
X138270105Y-111653994D01*
X138304100Y-111512394D01*
X138324380Y-111427924D01*
X138324381Y-111427918D01*
X138325535Y-111423111D01*
X138344165Y-111186400D01*
X141817835Y-111186400D01*
X141836465Y-111423111D01*
X141837619Y-111427918D01*
X141837620Y-111427924D01*
X141857900Y-111512394D01*
X141891895Y-111653994D01*
X141893788Y-111658565D01*
X141893789Y-111658567D01*
X141975583Y-111856035D01*
X141982760Y-111873363D01*
X141985346Y-111877583D01*
X142104241Y-112071602D01*
X142104245Y-112071608D01*
X142106824Y-112075816D01*
X142261031Y-112256369D01*
X142441584Y-112410576D01*
X142445792Y-112413155D01*
X142445798Y-112413159D01*
X142639817Y-112532054D01*
X142644037Y-112534640D01*
X142648607Y-112536533D01*
X142648611Y-112536535D01*
X142858833Y-112623611D01*
X142863406Y-112625505D01*
X142920475Y-112639206D01*
X143089476Y-112679780D01*
X143089482Y-112679781D01*
X143094289Y-112680935D01*
X143331000Y-112699565D01*
X143567711Y-112680935D01*
X143572518Y-112679781D01*
X143572524Y-112679780D01*
X143741525Y-112639206D01*
X143798594Y-112625505D01*
X143803167Y-112623611D01*
X144013389Y-112536535D01*
X144013393Y-112536533D01*
X144017963Y-112534640D01*
X144022183Y-112532054D01*
X144216202Y-112413159D01*
X144216208Y-112413155D01*
X144220416Y-112410576D01*
X144400969Y-112256369D01*
X144555176Y-112075816D01*
X144557755Y-112071608D01*
X144557759Y-112071602D01*
X144676654Y-111877583D01*
X144679240Y-111873363D01*
X144686418Y-111856035D01*
X144768211Y-111658567D01*
X144768212Y-111658565D01*
X144770105Y-111653994D01*
X144804100Y-111512394D01*
X144824380Y-111427924D01*
X144824381Y-111427918D01*
X144825535Y-111423111D01*
X144844165Y-111186400D01*
X144825535Y-110949689D01*
X144799210Y-110840035D01*
X144771260Y-110723618D01*
X144770105Y-110718806D01*
X144739998Y-110646121D01*
X144681135Y-110504011D01*
X144681133Y-110504007D01*
X144679240Y-110499437D01*
X144655694Y-110461014D01*
X144557759Y-110301198D01*
X144557755Y-110301192D01*
X144555176Y-110296984D01*
X144400969Y-110116431D01*
X144220416Y-109962224D01*
X144216208Y-109959645D01*
X144216202Y-109959641D01*
X144022183Y-109840746D01*
X144017963Y-109838160D01*
X144013393Y-109836267D01*
X144013389Y-109836265D01*
X143803167Y-109749189D01*
X143803165Y-109749188D01*
X143798594Y-109747295D01*
X143718391Y-109728040D01*
X143572524Y-109693020D01*
X143572518Y-109693019D01*
X143567711Y-109691865D01*
X143331000Y-109673235D01*
X143094289Y-109691865D01*
X143089482Y-109693019D01*
X143089476Y-109693020D01*
X142943609Y-109728040D01*
X142863406Y-109747295D01*
X142858835Y-109749188D01*
X142858833Y-109749189D01*
X142648611Y-109836265D01*
X142648607Y-109836267D01*
X142644037Y-109838160D01*
X142639817Y-109840746D01*
X142445798Y-109959641D01*
X142445792Y-109959645D01*
X142441584Y-109962224D01*
X142261031Y-110116431D01*
X142106824Y-110296984D01*
X142104245Y-110301192D01*
X142104241Y-110301198D01*
X142006306Y-110461014D01*
X141982760Y-110499437D01*
X141980867Y-110504007D01*
X141980865Y-110504011D01*
X141922002Y-110646121D01*
X141891895Y-110718806D01*
X141890740Y-110723618D01*
X141862791Y-110840035D01*
X141836465Y-110949689D01*
X141817835Y-111186400D01*
X138344165Y-111186400D01*
X138325535Y-110949689D01*
X138299210Y-110840035D01*
X138271260Y-110723618D01*
X138270105Y-110718806D01*
X138239998Y-110646121D01*
X138181135Y-110504011D01*
X138181133Y-110504007D01*
X138179240Y-110499437D01*
X138155694Y-110461014D01*
X138057759Y-110301198D01*
X138057755Y-110301192D01*
X138055176Y-110296984D01*
X137900969Y-110116431D01*
X137720416Y-109962224D01*
X137716208Y-109959645D01*
X137716202Y-109959641D01*
X137522183Y-109840746D01*
X137517963Y-109838160D01*
X137513393Y-109836267D01*
X137513389Y-109836265D01*
X137303167Y-109749189D01*
X137303165Y-109749188D01*
X137298594Y-109747295D01*
X137218391Y-109728040D01*
X137072524Y-109693020D01*
X137072518Y-109693019D01*
X137067711Y-109691865D01*
X136831000Y-109673235D01*
X136594289Y-109691865D01*
X136589482Y-109693019D01*
X136589476Y-109693020D01*
X136443609Y-109728040D01*
X136363406Y-109747295D01*
X136358835Y-109749188D01*
X136358833Y-109749189D01*
X136148611Y-109836265D01*
X136148607Y-109836267D01*
X136144037Y-109838160D01*
X136139817Y-109840746D01*
X135945798Y-109959641D01*
X135945792Y-109959645D01*
X135941584Y-109962224D01*
X135761031Y-110116431D01*
X135606824Y-110296984D01*
X135604245Y-110301192D01*
X135604241Y-110301198D01*
X135506306Y-110461014D01*
X135482760Y-110499437D01*
X135480867Y-110504007D01*
X135480865Y-110504011D01*
X135422002Y-110646121D01*
X135391895Y-110718806D01*
X135390740Y-110723618D01*
X135362791Y-110840035D01*
X135336465Y-110949689D01*
X135317835Y-111186400D01*
X107057304Y-111186400D01*
X108922104Y-109321600D01*
X120575702Y-109321600D01*
X120595657Y-109549687D01*
X120597081Y-109555000D01*
X120597081Y-109555002D01*
X120634225Y-109693622D01*
X120654916Y-109770843D01*
X120657239Y-109775824D01*
X120657239Y-109775825D01*
X120749351Y-109973362D01*
X120749354Y-109973367D01*
X120751677Y-109978349D01*
X120796963Y-110043024D01*
X120864019Y-110138789D01*
X120883002Y-110165900D01*
X121044900Y-110327798D01*
X121049408Y-110330955D01*
X121049411Y-110330957D01*
X121082120Y-110353860D01*
X121232451Y-110459123D01*
X121237433Y-110461446D01*
X121237438Y-110461449D01*
X121328714Y-110504011D01*
X121439957Y-110555884D01*
X121445265Y-110557306D01*
X121445267Y-110557307D01*
X121655798Y-110613719D01*
X121655800Y-110613719D01*
X121661113Y-110615143D01*
X121889200Y-110635098D01*
X122117287Y-110615143D01*
X122122600Y-110613719D01*
X122122602Y-110613719D01*
X122333133Y-110557307D01*
X122333135Y-110557306D01*
X122338443Y-110555884D01*
X122449686Y-110504011D01*
X122540962Y-110461449D01*
X122540967Y-110461446D01*
X122545949Y-110459123D01*
X122619443Y-110407662D01*
X123667693Y-110407662D01*
X123676989Y-110419677D01*
X123728194Y-110455531D01*
X123737689Y-110461014D01*
X123935147Y-110553090D01*
X123945439Y-110556836D01*
X124155888Y-110613225D01*
X124166681Y-110615128D01*
X124383725Y-110634117D01*
X124394675Y-110634117D01*
X124611719Y-110615128D01*
X124622512Y-110613225D01*
X124832961Y-110556836D01*
X124843253Y-110553090D01*
X125040711Y-110461014D01*
X125050206Y-110455531D01*
X125102248Y-110419091D01*
X125110624Y-110408612D01*
X125103556Y-110395166D01*
X124402012Y-109693622D01*
X124388068Y-109686008D01*
X124386235Y-109686139D01*
X124379620Y-109690390D01*
X123674123Y-110395887D01*
X123667693Y-110407662D01*
X122619443Y-110407662D01*
X122696280Y-110353860D01*
X122728989Y-110330957D01*
X122728992Y-110330955D01*
X122733500Y-110327798D01*
X122895398Y-110165900D01*
X122914382Y-110138789D01*
X122987888Y-110033811D01*
X123026723Y-109978349D01*
X123029047Y-109973365D01*
X123030371Y-109971072D01*
X123081753Y-109922079D01*
X123151467Y-109908643D01*
X123217378Y-109935029D01*
X123248609Y-109971072D01*
X123255266Y-109982602D01*
X123291709Y-110034648D01*
X123302188Y-110043024D01*
X123315634Y-110035956D01*
X124017178Y-109334412D01*
X124023556Y-109322732D01*
X124753608Y-109322732D01*
X124753739Y-109324565D01*
X124757990Y-109331180D01*
X125463487Y-110036677D01*
X125475262Y-110043107D01*
X125487277Y-110033811D01*
X125523131Y-109982606D01*
X125528614Y-109973111D01*
X125620690Y-109775653D01*
X125624436Y-109765361D01*
X125680825Y-109554912D01*
X125682728Y-109544119D01*
X125701717Y-109327075D01*
X125701717Y-109316125D01*
X125682728Y-109099081D01*
X125680825Y-109088288D01*
X125624436Y-108877839D01*
X125620690Y-108867547D01*
X125528614Y-108670089D01*
X125523131Y-108660594D01*
X125486691Y-108608552D01*
X125476212Y-108600176D01*
X125462766Y-108607244D01*
X124761222Y-109308788D01*
X124753608Y-109322732D01*
X124023556Y-109322732D01*
X124024792Y-109320468D01*
X124024661Y-109318635D01*
X124020410Y-109312020D01*
X123314913Y-108606523D01*
X123303138Y-108600093D01*
X123291123Y-108609389D01*
X123255266Y-108660598D01*
X123248609Y-108672128D01*
X123197227Y-108721121D01*
X123127513Y-108734558D01*
X123061602Y-108708171D01*
X123030371Y-108672128D01*
X123029047Y-108669835D01*
X123026723Y-108664851D01*
X122944758Y-108547793D01*
X122898557Y-108481811D01*
X122898555Y-108481808D01*
X122895398Y-108477300D01*
X122733500Y-108315402D01*
X122728992Y-108312245D01*
X122728989Y-108312243D01*
X122618086Y-108234588D01*
X123667776Y-108234588D01*
X123674844Y-108248034D01*
X124376388Y-108949578D01*
X124390332Y-108957192D01*
X124392165Y-108957061D01*
X124398780Y-108952810D01*
X125104277Y-108247313D01*
X125110707Y-108235538D01*
X125101411Y-108223523D01*
X125050206Y-108187669D01*
X125040711Y-108182186D01*
X124843253Y-108090110D01*
X124832961Y-108086364D01*
X124622512Y-108029975D01*
X124611719Y-108028072D01*
X124394675Y-108009083D01*
X124383725Y-108009083D01*
X124166681Y-108028072D01*
X124155888Y-108029975D01*
X123945439Y-108086364D01*
X123935147Y-108090110D01*
X123737689Y-108182186D01*
X123728194Y-108187669D01*
X123676152Y-108224109D01*
X123667776Y-108234588D01*
X122618086Y-108234588D01*
X122603120Y-108224109D01*
X122545949Y-108184077D01*
X122540967Y-108181754D01*
X122540962Y-108181751D01*
X122343425Y-108089639D01*
X122343424Y-108089639D01*
X122338443Y-108087316D01*
X122333135Y-108085894D01*
X122333133Y-108085893D01*
X122122602Y-108029481D01*
X122122600Y-108029481D01*
X122117287Y-108028057D01*
X121889200Y-108008102D01*
X121661113Y-108028057D01*
X121655800Y-108029481D01*
X121655798Y-108029481D01*
X121445267Y-108085893D01*
X121445265Y-108085894D01*
X121439957Y-108087316D01*
X121434976Y-108089639D01*
X121434975Y-108089639D01*
X121237438Y-108181751D01*
X121237433Y-108181754D01*
X121232451Y-108184077D01*
X121175280Y-108224109D01*
X121049411Y-108312243D01*
X121049408Y-108312245D01*
X121044900Y-108315402D01*
X120883002Y-108477300D01*
X120879845Y-108481808D01*
X120879843Y-108481811D01*
X120859895Y-108510300D01*
X120751677Y-108664851D01*
X120749354Y-108669833D01*
X120749351Y-108669838D01*
X120690655Y-108795713D01*
X120654916Y-108872357D01*
X120653494Y-108877665D01*
X120653493Y-108877667D01*
X120632372Y-108956490D01*
X120595657Y-109093513D01*
X120575702Y-109321600D01*
X108922104Y-109321600D01*
X110762338Y-107481366D01*
X133434457Y-107481366D01*
X133464765Y-107615846D01*
X133467845Y-107625675D01*
X133547970Y-107823003D01*
X133552613Y-107832194D01*
X133663894Y-108013788D01*
X133669977Y-108022099D01*
X133809413Y-108183067D01*
X133816780Y-108190283D01*
X133980634Y-108326316D01*
X133989081Y-108332231D01*
X134172956Y-108439679D01*
X134182242Y-108444129D01*
X134381201Y-108520103D01*
X134391099Y-108522979D01*
X134494450Y-108544006D01*
X134508499Y-108542810D01*
X134512200Y-108532465D01*
X134512200Y-108531917D01*
X135020200Y-108531917D01*
X135024264Y-108545759D01*
X135037678Y-108547793D01*
X135044384Y-108546934D01*
X135054462Y-108544792D01*
X135258455Y-108483591D01*
X135268042Y-108479833D01*
X135459295Y-108386139D01*
X135468145Y-108380864D01*
X135641528Y-108257192D01*
X135649400Y-108250539D01*
X135800252Y-108100212D01*
X135806930Y-108092365D01*
X135931203Y-107919420D01*
X135936513Y-107910583D01*
X136030870Y-107719667D01*
X136034669Y-107710072D01*
X136096577Y-107506310D01*
X136098755Y-107496237D01*
X136100186Y-107485362D01*
X136097975Y-107471178D01*
X136084817Y-107467400D01*
X135038315Y-107467400D01*
X135023076Y-107471875D01*
X135021871Y-107473265D01*
X135020200Y-107480948D01*
X135020200Y-108531917D01*
X134512200Y-108531917D01*
X134512200Y-107485515D01*
X134507725Y-107470276D01*
X134506335Y-107469071D01*
X134498652Y-107467400D01*
X133449425Y-107467400D01*
X133435894Y-107471373D01*
X133434457Y-107481366D01*
X110762338Y-107481366D01*
X117979900Y-100263805D01*
X118042212Y-100229779D01*
X118068995Y-100226900D01*
X133490474Y-100226900D01*
X133558595Y-100246902D01*
X133597907Y-100287065D01*
X133666187Y-100398488D01*
X133812450Y-100567338D01*
X133984326Y-100710032D01*
X134054795Y-100751211D01*
X134057645Y-100752876D01*
X134106369Y-100804514D01*
X134119440Y-100874297D01*
X134092709Y-100940069D01*
X134052255Y-100973427D01*
X134039807Y-100979907D01*
X134035674Y-100983010D01*
X134035671Y-100983012D01*
X133865300Y-101110930D01*
X133861165Y-101114035D01*
X133706829Y-101275538D01*
X133703915Y-101279810D01*
X133703914Y-101279811D01*
X133690841Y-101298975D01*
X133580943Y-101460080D01*
X133556693Y-101512322D01*
X133511445Y-101609802D01*
X133486888Y-101662705D01*
X133427189Y-101877970D01*
X133403451Y-102100095D01*
X133403748Y-102105248D01*
X133403748Y-102105251D01*
X133412186Y-102251592D01*
X133416310Y-102323115D01*
X133417447Y-102328161D01*
X133417448Y-102328167D01*
X133430913Y-102387913D01*
X133465422Y-102541039D01*
X133549466Y-102748016D01*
X133666187Y-102938488D01*
X133812450Y-103107338D01*
X133984326Y-103250032D01*
X134030916Y-103277257D01*
X134057645Y-103292876D01*
X134106369Y-103344514D01*
X134119440Y-103414297D01*
X134092709Y-103480069D01*
X134052255Y-103513427D01*
X134039807Y-103519907D01*
X134035674Y-103523010D01*
X134035671Y-103523012D01*
X133865300Y-103650930D01*
X133861165Y-103654035D01*
X133706829Y-103815538D01*
X133703915Y-103819810D01*
X133703914Y-103819811D01*
X133643187Y-103908833D01*
X133580943Y-104000080D01*
X133547351Y-104072449D01*
X133491379Y-104193031D01*
X133486888Y-104202705D01*
X133427189Y-104417970D01*
X133403451Y-104640095D01*
X133403748Y-104645248D01*
X133403748Y-104645251D01*
X133413863Y-104820673D01*
X133416310Y-104863115D01*
X133417447Y-104868161D01*
X133417448Y-104868167D01*
X133439592Y-104966423D01*
X133465422Y-105081039D01*
X133549466Y-105288016D01*
X133666187Y-105478488D01*
X133812450Y-105647338D01*
X133984326Y-105790032D01*
X134058155Y-105833174D01*
X134106879Y-105884812D01*
X134119950Y-105954595D01*
X134093219Y-106020367D01*
X134052762Y-106053727D01*
X134044657Y-106057946D01*
X134035938Y-106063436D01*
X133865633Y-106191305D01*
X133857926Y-106198148D01*
X133710790Y-106352117D01*
X133704304Y-106360127D01*
X133584298Y-106536049D01*
X133579200Y-106545023D01*
X133489538Y-106738183D01*
X133485975Y-106747870D01*
X133430589Y-106947583D01*
X133432112Y-106956007D01*
X133444492Y-106959400D01*
X136084544Y-106959400D01*
X136098075Y-106955427D01*
X136099380Y-106946347D01*
X136057414Y-106779275D01*
X136054094Y-106769524D01*
X135969172Y-106574214D01*
X135964305Y-106565139D01*
X135848626Y-106386326D01*
X135842336Y-106378157D01*
X135699006Y-106220640D01*
X135691473Y-106213615D01*
X135524339Y-106081622D01*
X135515756Y-106075920D01*
X135478802Y-106055520D01*
X135428831Y-106005087D01*
X135414059Y-105935645D01*
X135439175Y-105869239D01*
X135466527Y-105842632D01*
X135489997Y-105825891D01*
X135646060Y-105714573D01*
X135804296Y-105556889D01*
X135834166Y-105515321D01*
X135931635Y-105379677D01*
X135934653Y-105375477D01*
X136033630Y-105175211D01*
X136098570Y-104961469D01*
X136127729Y-104739990D01*
X136127895Y-104733190D01*
X136129274Y-104676765D01*
X136129274Y-104676761D01*
X136129356Y-104673400D01*
X136111052Y-104450761D01*
X136056631Y-104234102D01*
X135967554Y-104029240D01*
X135915333Y-103948519D01*
X135849022Y-103846017D01*
X135849020Y-103846014D01*
X135846214Y-103841677D01*
X135695870Y-103676451D01*
X135691819Y-103673252D01*
X135691815Y-103673248D01*
X135524614Y-103541200D01*
X135524610Y-103541198D01*
X135520559Y-103537998D01*
X135479253Y-103515196D01*
X135429284Y-103464764D01*
X135414512Y-103395321D01*
X135439628Y-103328916D01*
X135466980Y-103302309D01*
X135518624Y-103265472D01*
X135646060Y-103174573D01*
X135804296Y-103016889D01*
X135863794Y-102934089D01*
X135931635Y-102839677D01*
X135934653Y-102835477D01*
X135940325Y-102824002D01*
X136031336Y-102639853D01*
X136031337Y-102639851D01*
X136033630Y-102635211D01*
X136098570Y-102421469D01*
X136127729Y-102199990D01*
X136129356Y-102133400D01*
X136125500Y-102086496D01*
X136139853Y-102016965D01*
X136161981Y-101987077D01*
X140141542Y-98007515D01*
X140156577Y-97994674D01*
X140162084Y-97990673D01*
X140162090Y-97990668D01*
X140167434Y-97986785D01*
X140211895Y-97937406D01*
X140216436Y-97932621D01*
X140230472Y-97918585D01*
X140242966Y-97903157D01*
X140247246Y-97898147D01*
X140287284Y-97853679D01*
X140287288Y-97853674D01*
X140291704Y-97848769D01*
X140298410Y-97837154D01*
X140309610Y-97820858D01*
X140310069Y-97820291D01*
X140318047Y-97810439D01*
X140348213Y-97751237D01*
X140351346Y-97745467D01*
X140381260Y-97693655D01*
X140381262Y-97693650D01*
X140384564Y-97687931D01*
X140386605Y-97681651D01*
X140386608Y-97681643D01*
X140388708Y-97675179D01*
X140396272Y-97656917D01*
X140399363Y-97650851D01*
X140399366Y-97650842D01*
X140402362Y-97644963D01*
X140419556Y-97580796D01*
X140421422Y-97574494D01*
X140441954Y-97511302D01*
X140443355Y-97497972D01*
X140446958Y-97478529D01*
X140450430Y-97465571D01*
X140451021Y-97454307D01*
X140453907Y-97399233D01*
X140454424Y-97392659D01*
X140456156Y-97376177D01*
X140456500Y-97372906D01*
X140456500Y-97353045D01*
X140456673Y-97346450D01*
X140459805Y-97286698D01*
X140459805Y-97286694D01*
X140460150Y-97280107D01*
X140458051Y-97266853D01*
X140456500Y-97247144D01*
X140456500Y-90757450D01*
X140458051Y-90737739D01*
X140459117Y-90731009D01*
X140460149Y-90724493D01*
X140458659Y-90696049D01*
X140456673Y-90658162D01*
X140456500Y-90651568D01*
X140456500Y-90631694D01*
X140454423Y-90611929D01*
X140453906Y-90605354D01*
X140450776Y-90545624D01*
X140450775Y-90545620D01*
X140450430Y-90539029D01*
X140446958Y-90526071D01*
X140443355Y-90506628D01*
X140442644Y-90499866D01*
X140441954Y-90493298D01*
X140421422Y-90430106D01*
X140419556Y-90423804D01*
X140404071Y-90366015D01*
X140402362Y-90359637D01*
X140399365Y-90353755D01*
X140399363Y-90353749D01*
X140396272Y-90347683D01*
X140388708Y-90329421D01*
X140386608Y-90322957D01*
X140386605Y-90322949D01*
X140384564Y-90316669D01*
X140381262Y-90310950D01*
X140381260Y-90310945D01*
X140351346Y-90259133D01*
X140348213Y-90253363D01*
X140318047Y-90194161D01*
X140309609Y-90183741D01*
X140298411Y-90167448D01*
X140297013Y-90165027D01*
X140291704Y-90155831D01*
X140287287Y-90150925D01*
X140287283Y-90150920D01*
X140247253Y-90106462D01*
X140242969Y-90101446D01*
X140232559Y-90088591D01*
X140232556Y-90088588D01*
X140230472Y-90086014D01*
X140216427Y-90071969D01*
X140211886Y-90067184D01*
X140171856Y-90022726D01*
X140171855Y-90022725D01*
X140167434Y-90017815D01*
X140156574Y-90009925D01*
X140141546Y-89997088D01*
X136972312Y-86827854D01*
X136959475Y-86812826D01*
X136951585Y-86801966D01*
X136902216Y-86757514D01*
X136897431Y-86752973D01*
X136883386Y-86738928D01*
X136878492Y-86734965D01*
X136867954Y-86726431D01*
X136862938Y-86722147D01*
X136818480Y-86682117D01*
X136818475Y-86682113D01*
X136813569Y-86677696D01*
X136801952Y-86670989D01*
X136785659Y-86659791D01*
X136780371Y-86655509D01*
X136775239Y-86651353D01*
X136716037Y-86621187D01*
X136710267Y-86618054D01*
X136658455Y-86588140D01*
X136658450Y-86588138D01*
X136652731Y-86584836D01*
X136646451Y-86582795D01*
X136646443Y-86582792D01*
X136639979Y-86580692D01*
X136621717Y-86573128D01*
X136615651Y-86570037D01*
X136615642Y-86570034D01*
X136609763Y-86567038D01*
X136573238Y-86557251D01*
X136545596Y-86549844D01*
X136539294Y-86547978D01*
X136476102Y-86527446D01*
X136462772Y-86526045D01*
X136443329Y-86522442D01*
X136430371Y-86518970D01*
X136423781Y-86518625D01*
X136423777Y-86518624D01*
X136379827Y-86516321D01*
X136364028Y-86515493D01*
X136357469Y-86514977D01*
X136337706Y-86512900D01*
X136317845Y-86512900D01*
X136311250Y-86512727D01*
X136251498Y-86509595D01*
X136251494Y-86509595D01*
X136244907Y-86509250D01*
X136231653Y-86511349D01*
X136211944Y-86512900D01*
X133968748Y-86512900D01*
X133900627Y-86492898D01*
X133854134Y-86439242D01*
X133844030Y-86368968D01*
X133873524Y-86304388D01*
X133879653Y-86297805D01*
X135772742Y-84404715D01*
X135787777Y-84391874D01*
X135793284Y-84387873D01*
X135793290Y-84387868D01*
X135798634Y-84383985D01*
X135843095Y-84334606D01*
X135847636Y-84329821D01*
X135861672Y-84315785D01*
X135865917Y-84310543D01*
X135874166Y-84300357D01*
X135878446Y-84295347D01*
X135918484Y-84250879D01*
X135918488Y-84250874D01*
X135922904Y-84245969D01*
X135929610Y-84234354D01*
X135940810Y-84218058D01*
X135945094Y-84212767D01*
X135949247Y-84207639D01*
X135979413Y-84148437D01*
X135982546Y-84142667D01*
X136012460Y-84090855D01*
X136012462Y-84090850D01*
X136015764Y-84085131D01*
X136017805Y-84078851D01*
X136017808Y-84078843D01*
X136019908Y-84072379D01*
X136027472Y-84054117D01*
X136030563Y-84048051D01*
X136030566Y-84048042D01*
X136033562Y-84042163D01*
X136050756Y-83977996D01*
X136052622Y-83971694D01*
X136073154Y-83908502D01*
X136074555Y-83895172D01*
X136078158Y-83875729D01*
X136081630Y-83862771D01*
X136085107Y-83796428D01*
X136085624Y-83789859D01*
X136087356Y-83773377D01*
X136087700Y-83770106D01*
X136087700Y-83750245D01*
X136087873Y-83743650D01*
X136091005Y-83683898D01*
X136091005Y-83683894D01*
X136091350Y-83677307D01*
X136089251Y-83664053D01*
X136087700Y-83644344D01*
X136087700Y-81410257D01*
X136089251Y-81390545D01*
X136090318Y-81383808D01*
X136091350Y-81377293D01*
X136087873Y-81310950D01*
X136087700Y-81304355D01*
X136087700Y-81284494D01*
X136085623Y-81264731D01*
X136085107Y-81258167D01*
X136081976Y-81198423D01*
X136081975Y-81198419D01*
X136081630Y-81191829D01*
X136078158Y-81178871D01*
X136074555Y-81159428D01*
X136073844Y-81152666D01*
X136073154Y-81146098D01*
X136052622Y-81082906D01*
X136050756Y-81076604D01*
X136035271Y-81018815D01*
X136033562Y-81012437D01*
X136030566Y-81006558D01*
X136030563Y-81006549D01*
X136027472Y-81000483D01*
X136019908Y-80982221D01*
X136017808Y-80975757D01*
X136017805Y-80975749D01*
X136015764Y-80969469D01*
X136012462Y-80963750D01*
X136012460Y-80963745D01*
X135982546Y-80911933D01*
X135979413Y-80906163D01*
X135949247Y-80846961D01*
X135940810Y-80836542D01*
X135929610Y-80820246D01*
X135926204Y-80814346D01*
X135926202Y-80814343D01*
X135922904Y-80808631D01*
X135918488Y-80803726D01*
X135918484Y-80803721D01*
X135878446Y-80759253D01*
X135874166Y-80754243D01*
X135863746Y-80741376D01*
X135863745Y-80741375D01*
X135861672Y-80738815D01*
X135847636Y-80724779D01*
X135843095Y-80719994D01*
X135803056Y-80675526D01*
X135803055Y-80675525D01*
X135798634Y-80670615D01*
X135793294Y-80666735D01*
X135793286Y-80666728D01*
X135787778Y-80662727D01*
X135772743Y-80649886D01*
X130440253Y-75317395D01*
X130406227Y-75255083D01*
X130411292Y-75184268D01*
X130453839Y-75127432D01*
X130520359Y-75102621D01*
X130529348Y-75102300D01*
X136216943Y-75102300D01*
X136236655Y-75103851D01*
X136249907Y-75105950D01*
X136256494Y-75105605D01*
X136256498Y-75105605D01*
X136316250Y-75102473D01*
X136322845Y-75102300D01*
X136342706Y-75102300D01*
X136362469Y-75100223D01*
X136369028Y-75099707D01*
X136384827Y-75098879D01*
X136428777Y-75096576D01*
X136428781Y-75096575D01*
X136435371Y-75096230D01*
X136448329Y-75092758D01*
X136467772Y-75089155D01*
X136468195Y-75089111D01*
X136481102Y-75087754D01*
X136544294Y-75067222D01*
X136550596Y-75065356D01*
X136608385Y-75049871D01*
X136614763Y-75048162D01*
X136620642Y-75045166D01*
X136620651Y-75045163D01*
X136626717Y-75042072D01*
X136644979Y-75034508D01*
X136651443Y-75032408D01*
X136651451Y-75032405D01*
X136657731Y-75030364D01*
X136663450Y-75027062D01*
X136663455Y-75027060D01*
X136715267Y-74997146D01*
X136721037Y-74994013D01*
X136780239Y-74963847D01*
X136790659Y-74955409D01*
X136806952Y-74944211D01*
X136807303Y-74944009D01*
X136818569Y-74937504D01*
X136823475Y-74933087D01*
X136823480Y-74933083D01*
X136867938Y-74893053D01*
X136872954Y-74888769D01*
X136885809Y-74878359D01*
X136885812Y-74878356D01*
X136888386Y-74876272D01*
X136902431Y-74862227D01*
X136907216Y-74857686D01*
X136951674Y-74817656D01*
X136951675Y-74817655D01*
X136956585Y-74813234D01*
X136964475Y-74802374D01*
X136977312Y-74787346D01*
X137191853Y-74572805D01*
X137254165Y-74538779D01*
X137280948Y-74535900D01*
X138138200Y-74535900D01*
X138141446Y-74535563D01*
X138141450Y-74535563D01*
X138237108Y-74525638D01*
X138237112Y-74525637D01*
X138243966Y-74524926D01*
X138250502Y-74522745D01*
X138250504Y-74522745D01*
X138404798Y-74471268D01*
X138411746Y-74468950D01*
X138562148Y-74375878D01*
X138687105Y-74250703D01*
X138703396Y-74224275D01*
X138776075Y-74106368D01*
X138776076Y-74106366D01*
X138779915Y-74100138D01*
X138814392Y-73996193D01*
X138833432Y-73938789D01*
X138833432Y-73938787D01*
X138835597Y-73932261D01*
X138846300Y-73827800D01*
X138846300Y-72527000D01*
X138835326Y-72421234D01*
X138813121Y-72354676D01*
X138781668Y-72260402D01*
X138779350Y-72253454D01*
X138686278Y-72103052D01*
X138648664Y-72065503D01*
X138566283Y-71983266D01*
X138561103Y-71978095D01*
X138415020Y-71888047D01*
X138367527Y-71835276D01*
X138356103Y-71765204D01*
X138384377Y-71700080D01*
X138394164Y-71689618D01*
X138504706Y-71584166D01*
X138511741Y-71576214D01*
X138642941Y-71399875D01*
X138648545Y-71390838D01*
X138748157Y-71194916D01*
X138752157Y-71185065D01*
X138817334Y-70975160D01*
X138819617Y-70964776D01*
X138821661Y-70949357D01*
X138819465Y-70935193D01*
X138806278Y-70931400D01*
X135871608Y-70931400D01*
X135858077Y-70935373D01*
X135856552Y-70945980D01*
X135881277Y-71063821D01*
X135884337Y-71074017D01*
X135965063Y-71278429D01*
X135969794Y-71287961D01*
X136083816Y-71475862D01*
X136090080Y-71484452D01*
X136234127Y-71650452D01*
X136241756Y-71657870D01*
X136273369Y-71683791D01*
X136313364Y-71742451D01*
X136315296Y-71813421D01*
X136278552Y-71874170D01*
X136259783Y-71888369D01*
X136113452Y-71978922D01*
X135988495Y-72104097D01*
X135895685Y-72254662D01*
X135893381Y-72261609D01*
X135865298Y-72346278D01*
X135840003Y-72422539D01*
X135829300Y-72527000D01*
X135829300Y-73209300D01*
X135809298Y-73277421D01*
X135755642Y-73323914D01*
X135703300Y-73335300D01*
X128118645Y-73335300D01*
X128112050Y-73335127D01*
X128052298Y-73331995D01*
X128052294Y-73331995D01*
X128045707Y-73331650D01*
X128032453Y-73333749D01*
X128012744Y-73335300D01*
X121262788Y-73335300D01*
X121194667Y-73315298D01*
X121173693Y-73298395D01*
X121087900Y-73212602D01*
X121083392Y-73209445D01*
X121083389Y-73209443D01*
X120982730Y-73138961D01*
X120900349Y-73081277D01*
X120895367Y-73078954D01*
X120895362Y-73078951D01*
X120697825Y-72986839D01*
X120697824Y-72986839D01*
X120692843Y-72984516D01*
X120687535Y-72983094D01*
X120687533Y-72983093D01*
X120477002Y-72926681D01*
X120477000Y-72926681D01*
X120471687Y-72925257D01*
X120243600Y-72905302D01*
X120238125Y-72905781D01*
X120232619Y-72905781D01*
X120232619Y-72903232D01*
X120173483Y-72891263D01*
X120143164Y-72868907D01*
X117679701Y-70405443D01*
X135853939Y-70405443D01*
X135856135Y-70419607D01*
X135869322Y-70423400D01*
X137065685Y-70423400D01*
X137080924Y-70418925D01*
X137082129Y-70417535D01*
X137083800Y-70409852D01*
X137083800Y-70405285D01*
X137591800Y-70405285D01*
X137596275Y-70420524D01*
X137597665Y-70421729D01*
X137605348Y-70423400D01*
X138803992Y-70423400D01*
X138817523Y-70419427D01*
X138819048Y-70408820D01*
X138794323Y-70290979D01*
X138791263Y-70280783D01*
X138710537Y-70076371D01*
X138705806Y-70066839D01*
X138591784Y-69878938D01*
X138585520Y-69870348D01*
X138441473Y-69704348D01*
X138433842Y-69696928D01*
X138263889Y-69557574D01*
X138255122Y-69551550D01*
X138064118Y-69442824D01*
X138054454Y-69438359D01*
X137847859Y-69363369D01*
X137837592Y-69360598D01*
X137620145Y-69321277D01*
X137611916Y-69320344D01*
X137607424Y-69320132D01*
X137594676Y-69323875D01*
X137593471Y-69325265D01*
X137591800Y-69332948D01*
X137591800Y-70405285D01*
X137083800Y-70405285D01*
X137083800Y-69341430D01*
X137079490Y-69326752D01*
X137067607Y-69324689D01*
X136963475Y-69333524D01*
X136953003Y-69335314D01*
X136740265Y-69390530D01*
X136730225Y-69394065D01*
X136529830Y-69484337D01*
X136520544Y-69489506D01*
X136338225Y-69612250D01*
X136329930Y-69618919D01*
X136170900Y-69770628D01*
X136163859Y-69778586D01*
X136032659Y-69954925D01*
X136027055Y-69963962D01*
X135927443Y-70159884D01*
X135923443Y-70169735D01*
X135858266Y-70379640D01*
X135855983Y-70390024D01*
X135853939Y-70405443D01*
X117679701Y-70405443D01*
X116185605Y-68911347D01*
X116151579Y-68849035D01*
X116148700Y-68822252D01*
X116148700Y-67871988D01*
X116168702Y-67803867D01*
X116185605Y-67782893D01*
X116271398Y-67697100D01*
X116274557Y-67692589D01*
X116278092Y-67688376D01*
X116279226Y-67689327D01*
X116329271Y-67649329D01*
X116399890Y-67642024D01*
X116463249Y-67674058D01*
X116499230Y-67735262D01*
X116502282Y-67752317D01*
X116503455Y-67763116D01*
X116554585Y-67899505D01*
X116641939Y-68016061D01*
X116758495Y-68103415D01*
X116894884Y-68154545D01*
X116957066Y-68161300D01*
X118653334Y-68161300D01*
X118715516Y-68154545D01*
X118851905Y-68103415D01*
X118968461Y-68016061D01*
X119055815Y-67899505D01*
X119106945Y-67763116D01*
X119113700Y-67700934D01*
X119113700Y-66985503D01*
X129665943Y-66985503D01*
X129666502Y-66989747D01*
X129666502Y-66989751D01*
X129678917Y-67084049D01*
X129703468Y-67270534D01*
X129779329Y-67547836D01*
X129781013Y-67551784D01*
X129875458Y-67773205D01*
X129892123Y-67812276D01*
X129944329Y-67899505D01*
X130009789Y-68008881D01*
X130039761Y-68058961D01*
X130219513Y-68283328D01*
X130428051Y-68481223D01*
X130661517Y-68648986D01*
X130665312Y-68650995D01*
X130665313Y-68650996D01*
X130687069Y-68662515D01*
X130915592Y-68783512D01*
X131185573Y-68882311D01*
X131466464Y-68943555D01*
X131495041Y-68945804D01*
X131689482Y-68961107D01*
X131689491Y-68961107D01*
X131691939Y-68961300D01*
X131847471Y-68961300D01*
X131849607Y-68961154D01*
X131849618Y-68961154D01*
X132057748Y-68946965D01*
X132057754Y-68946964D01*
X132062025Y-68946673D01*
X132066220Y-68945804D01*
X132066222Y-68945804D01*
X132232609Y-68911347D01*
X132343542Y-68888374D01*
X132614543Y-68792407D01*
X132870012Y-68660550D01*
X132873513Y-68658089D01*
X132873517Y-68658087D01*
X133037481Y-68542851D01*
X133105223Y-68495241D01*
X133289768Y-68323751D01*
X133312679Y-68302461D01*
X133312681Y-68302458D01*
X133315822Y-68299540D01*
X133497913Y-68077068D01*
X133648127Y-67831942D01*
X133678340Y-67763116D01*
X133761957Y-67572630D01*
X133763683Y-67568698D01*
X133792038Y-67469159D01*
X133811508Y-67400809D01*
X133842444Y-67292206D01*
X133882951Y-67007584D01*
X133883045Y-66989751D01*
X133884435Y-66724383D01*
X133884435Y-66724376D01*
X133884457Y-66720097D01*
X133875956Y-66655521D01*
X133847492Y-66439322D01*
X133846932Y-66435066D01*
X133771071Y-66157764D01*
X133730105Y-66061722D01*
X133659963Y-65897276D01*
X133659961Y-65897272D01*
X133658277Y-65893324D01*
X133553868Y-65718869D01*
X133512843Y-65650321D01*
X133512840Y-65650317D01*
X133510639Y-65646639D01*
X133330887Y-65422272D01*
X133122349Y-65224377D01*
X132888883Y-65056614D01*
X132867043Y-65045050D01*
X132843854Y-65032772D01*
X132634808Y-64922088D01*
X132364827Y-64823289D01*
X132083936Y-64762045D01*
X132052885Y-64759601D01*
X131860918Y-64744493D01*
X131860909Y-64744493D01*
X131858461Y-64744300D01*
X131702929Y-64744300D01*
X131700793Y-64744446D01*
X131700782Y-64744446D01*
X131492652Y-64758635D01*
X131492646Y-64758636D01*
X131488375Y-64758927D01*
X131484180Y-64759796D01*
X131484178Y-64759796D01*
X131347616Y-64788077D01*
X131206858Y-64817226D01*
X130935857Y-64913193D01*
X130680388Y-65045050D01*
X130676887Y-65047511D01*
X130676883Y-65047513D01*
X130666794Y-65054604D01*
X130445177Y-65210359D01*
X130234578Y-65406060D01*
X130052487Y-65628532D01*
X129902273Y-65873658D01*
X129900547Y-65877591D01*
X129900546Y-65877592D01*
X129841101Y-66013011D01*
X129786717Y-66136902D01*
X129785542Y-66141029D01*
X129785541Y-66141030D01*
X129747336Y-66275148D01*
X129707956Y-66413394D01*
X129667449Y-66698016D01*
X129667427Y-66702305D01*
X129667426Y-66702312D01*
X129665965Y-66981217D01*
X129665943Y-66985503D01*
X119113700Y-66985503D01*
X119113700Y-66004666D01*
X119106945Y-65942484D01*
X119055815Y-65806095D01*
X118968461Y-65689539D01*
X118851905Y-65602185D01*
X118715516Y-65551055D01*
X118653334Y-65544300D01*
X116957066Y-65544300D01*
X116894884Y-65551055D01*
X116758495Y-65602185D01*
X116641939Y-65689539D01*
X116554585Y-65806095D01*
X116503455Y-65942484D01*
X116502283Y-65953274D01*
X116501397Y-65955406D01*
X116500775Y-65958022D01*
X116500352Y-65957921D01*
X116475045Y-66018835D01*
X116416683Y-66059263D01*
X116345729Y-66061722D01*
X116284710Y-66025429D01*
X116277711Y-66016769D01*
X116274554Y-66013007D01*
X116271398Y-66008500D01*
X116109500Y-65846602D01*
X116104992Y-65843445D01*
X116104989Y-65843443D01*
X116026811Y-65788702D01*
X115921949Y-65715277D01*
X115916967Y-65712954D01*
X115916962Y-65712951D01*
X115719425Y-65620839D01*
X115719424Y-65620839D01*
X115714443Y-65618516D01*
X115709135Y-65617094D01*
X115709133Y-65617093D01*
X115498602Y-65560681D01*
X115498600Y-65560681D01*
X115493287Y-65559257D01*
X115265200Y-65539302D01*
X115037113Y-65559257D01*
X115031800Y-65560681D01*
X115031798Y-65560681D01*
X114821267Y-65617093D01*
X114821265Y-65617094D01*
X114815957Y-65618516D01*
X114810976Y-65620839D01*
X114810975Y-65620839D01*
X114613438Y-65712951D01*
X114613433Y-65712954D01*
X114608451Y-65715277D01*
X114503589Y-65788702D01*
X114425411Y-65843443D01*
X114425408Y-65843445D01*
X114420900Y-65846602D01*
X114259002Y-66008500D01*
X114127677Y-66196051D01*
X114125354Y-66201033D01*
X114125351Y-66201038D01*
X114109395Y-66235257D01*
X114062478Y-66288542D01*
X113994201Y-66308003D01*
X113926241Y-66287461D01*
X113881005Y-66235257D01*
X113865049Y-66201038D01*
X113865046Y-66201033D01*
X113862723Y-66196051D01*
X113731398Y-66008500D01*
X113569500Y-65846602D01*
X113564992Y-65843445D01*
X113564989Y-65843443D01*
X113486811Y-65788702D01*
X113381949Y-65715277D01*
X113376967Y-65712954D01*
X113376962Y-65712951D01*
X113179425Y-65620839D01*
X113179424Y-65620839D01*
X113174443Y-65618516D01*
X113169135Y-65617094D01*
X113169133Y-65617093D01*
X112958602Y-65560681D01*
X112958600Y-65560681D01*
X112953287Y-65559257D01*
X112725200Y-65539302D01*
X112497113Y-65559257D01*
X112491800Y-65560681D01*
X112491798Y-65560681D01*
X112281267Y-65617093D01*
X112281265Y-65617094D01*
X112275957Y-65618516D01*
X112270976Y-65620839D01*
X112270975Y-65620839D01*
X112073438Y-65712951D01*
X112073433Y-65712954D01*
X112068451Y-65715277D01*
X111963589Y-65788702D01*
X111885411Y-65843443D01*
X111885408Y-65843445D01*
X111880900Y-65846602D01*
X111719002Y-66008500D01*
X111587677Y-66196051D01*
X111585354Y-66201033D01*
X111585351Y-66201038D01*
X111569395Y-66235257D01*
X111522478Y-66288542D01*
X111454201Y-66308003D01*
X111386241Y-66287461D01*
X111341005Y-66235257D01*
X111325049Y-66201038D01*
X111325046Y-66201033D01*
X111322723Y-66196051D01*
X111191398Y-66008500D01*
X111029500Y-65846602D01*
X111024992Y-65843445D01*
X111024989Y-65843443D01*
X110946811Y-65788702D01*
X110841949Y-65715277D01*
X110836967Y-65712954D01*
X110836962Y-65712951D01*
X110639425Y-65620839D01*
X110639424Y-65620839D01*
X110634443Y-65618516D01*
X110629135Y-65617094D01*
X110629133Y-65617093D01*
X110418602Y-65560681D01*
X110418600Y-65560681D01*
X110413287Y-65559257D01*
X110185200Y-65539302D01*
X109957113Y-65559257D01*
X109951800Y-65560681D01*
X109951798Y-65560681D01*
X109741267Y-65617093D01*
X109741265Y-65617094D01*
X109735957Y-65618516D01*
X109730976Y-65620839D01*
X109730975Y-65620839D01*
X109533438Y-65712951D01*
X109533433Y-65712954D01*
X109528451Y-65715277D01*
X109423589Y-65788702D01*
X109345411Y-65843443D01*
X109345408Y-65843445D01*
X109340900Y-65846602D01*
X109255107Y-65932395D01*
X109192795Y-65966421D01*
X109166012Y-65969300D01*
X108664388Y-65969300D01*
X108596267Y-65949298D01*
X108575293Y-65932395D01*
X108489500Y-65846602D01*
X108484992Y-65843445D01*
X108484989Y-65843443D01*
X108406811Y-65788702D01*
X108301949Y-65715277D01*
X108296967Y-65712954D01*
X108296962Y-65712951D01*
X108099425Y-65620839D01*
X108099424Y-65620839D01*
X108094443Y-65618516D01*
X108089135Y-65617094D01*
X108089133Y-65617093D01*
X107878602Y-65560681D01*
X107878600Y-65560681D01*
X107873287Y-65559257D01*
X107645200Y-65539302D01*
X107417113Y-65559257D01*
X107411800Y-65560681D01*
X107411798Y-65560681D01*
X107201267Y-65617093D01*
X107201265Y-65617094D01*
X107195957Y-65618516D01*
X107190976Y-65620839D01*
X107190975Y-65620839D01*
X106993438Y-65712951D01*
X106993433Y-65712954D01*
X106988451Y-65715277D01*
X106883589Y-65788702D01*
X106805411Y-65843443D01*
X106805408Y-65843445D01*
X106800900Y-65846602D01*
X106639002Y-66008500D01*
X106507677Y-66196051D01*
X106505354Y-66201033D01*
X106505351Y-66201038D01*
X106489119Y-66235849D01*
X106442202Y-66289134D01*
X106373925Y-66308595D01*
X106305965Y-66288053D01*
X106260729Y-66235849D01*
X106244614Y-66201289D01*
X106239131Y-66191793D01*
X106114172Y-66013333D01*
X106107116Y-66004925D01*
X105953075Y-65850884D01*
X105944667Y-65843828D01*
X105766207Y-65718869D01*
X105756711Y-65713386D01*
X105559253Y-65621310D01*
X105548961Y-65617564D01*
X105376697Y-65571406D01*
X105362601Y-65571742D01*
X105359200Y-65579684D01*
X105359200Y-66980800D01*
X105339198Y-67048921D01*
X105285542Y-67095414D01*
X105233200Y-67106800D01*
X102837315Y-67106800D01*
X102822076Y-67111275D01*
X102820871Y-67112665D01*
X102819200Y-67120348D01*
X102819200Y-68120767D01*
X102823173Y-68134298D01*
X102831722Y-68135527D01*
X103008961Y-68088036D01*
X103019253Y-68084290D01*
X103216711Y-67992214D01*
X103226207Y-67986731D01*
X103404667Y-67861772D01*
X103413075Y-67854716D01*
X103567116Y-67700675D01*
X103574172Y-67692267D01*
X103699131Y-67513807D01*
X103704614Y-67504311D01*
X103721005Y-67469159D01*
X103767922Y-67415874D01*
X103836199Y-67396413D01*
X103904159Y-67416955D01*
X103949395Y-67469159D01*
X103965786Y-67504311D01*
X103971269Y-67513807D01*
X104096228Y-67692267D01*
X104103284Y-67700675D01*
X104257325Y-67854716D01*
X104265733Y-67861772D01*
X104444193Y-67986731D01*
X104453689Y-67992214D01*
X104651147Y-68084290D01*
X104661439Y-68088036D01*
X104844239Y-68137017D01*
X104904862Y-68173969D01*
X104935883Y-68237829D01*
X104927455Y-68308324D01*
X104900723Y-68347819D01*
X103988747Y-69259795D01*
X103926435Y-69293821D01*
X103899652Y-69296700D01*
X102322947Y-69296700D01*
X102254826Y-69276698D01*
X102233852Y-69259795D01*
X100945605Y-67971547D01*
X100911579Y-67909235D01*
X100908700Y-67882452D01*
X100908700Y-67871988D01*
X100928702Y-67803867D01*
X100945605Y-67782893D01*
X101031398Y-67697100D01*
X101070889Y-67640702D01*
X101130456Y-67555631D01*
X101162723Y-67509549D01*
X101165046Y-67504567D01*
X101165049Y-67504562D01*
X101181281Y-67469751D01*
X101228198Y-67416466D01*
X101296475Y-67397005D01*
X101364435Y-67417547D01*
X101409671Y-67469751D01*
X101425786Y-67504311D01*
X101431269Y-67513807D01*
X101556228Y-67692267D01*
X101563284Y-67700675D01*
X101717325Y-67854716D01*
X101725733Y-67861772D01*
X101904193Y-67986731D01*
X101913689Y-67992214D01*
X102111147Y-68084290D01*
X102121439Y-68088036D01*
X102293703Y-68134194D01*
X102307799Y-68133858D01*
X102311200Y-68125916D01*
X102311200Y-66580685D01*
X102819200Y-66580685D01*
X102823675Y-66595924D01*
X102825065Y-66597129D01*
X102832748Y-66598800D01*
X104833085Y-66598800D01*
X104848324Y-66594325D01*
X104849529Y-66592935D01*
X104851200Y-66585252D01*
X104851200Y-65584833D01*
X104847227Y-65571302D01*
X104838678Y-65570073D01*
X104661439Y-65617564D01*
X104651147Y-65621310D01*
X104453689Y-65713386D01*
X104444193Y-65718869D01*
X104265733Y-65843828D01*
X104257325Y-65850884D01*
X104103284Y-66004925D01*
X104096228Y-66013333D01*
X103971269Y-66191793D01*
X103965786Y-66201289D01*
X103949395Y-66236441D01*
X103902478Y-66289726D01*
X103834201Y-66309187D01*
X103766241Y-66288645D01*
X103721005Y-66236441D01*
X103704614Y-66201289D01*
X103699131Y-66191793D01*
X103574172Y-66013333D01*
X103567116Y-66004925D01*
X103413075Y-65850884D01*
X103404667Y-65843828D01*
X103226207Y-65718869D01*
X103216711Y-65713386D01*
X103019253Y-65621310D01*
X103008961Y-65617564D01*
X102836697Y-65571406D01*
X102822601Y-65571742D01*
X102819200Y-65579684D01*
X102819200Y-66580685D01*
X102311200Y-66580685D01*
X102311200Y-65584833D01*
X102307227Y-65571302D01*
X102298678Y-65570073D01*
X102121439Y-65617564D01*
X102111147Y-65621310D01*
X101913689Y-65713386D01*
X101904193Y-65718869D01*
X101725733Y-65843828D01*
X101717325Y-65850884D01*
X101563284Y-66004925D01*
X101556228Y-66013333D01*
X101431269Y-66191793D01*
X101425786Y-66201289D01*
X101409671Y-66235849D01*
X101362754Y-66289134D01*
X101294477Y-66308595D01*
X101226517Y-66288053D01*
X101181281Y-66235849D01*
X101165049Y-66201038D01*
X101165046Y-66201033D01*
X101162723Y-66196051D01*
X101031398Y-66008500D01*
X100869500Y-65846602D01*
X100864992Y-65843445D01*
X100864989Y-65843443D01*
X100786811Y-65788702D01*
X100681949Y-65715277D01*
X100676967Y-65712954D01*
X100676962Y-65712951D01*
X100479425Y-65620839D01*
X100479424Y-65620839D01*
X100474443Y-65618516D01*
X100469135Y-65617094D01*
X100469133Y-65617093D01*
X100258602Y-65560681D01*
X100258600Y-65560681D01*
X100253287Y-65559257D01*
X100025200Y-65539302D01*
X99797113Y-65559257D01*
X99791800Y-65560681D01*
X99791798Y-65560681D01*
X99581267Y-65617093D01*
X99581265Y-65617094D01*
X99575957Y-65618516D01*
X99570976Y-65620839D01*
X99570975Y-65620839D01*
X99373438Y-65712951D01*
X99373433Y-65712954D01*
X99368451Y-65715277D01*
X99263589Y-65788702D01*
X99185411Y-65843443D01*
X99185408Y-65843445D01*
X99180900Y-65846602D01*
X99019002Y-66008500D01*
X98887677Y-66196051D01*
X98885354Y-66201033D01*
X98885351Y-66201038D01*
X98845052Y-66287461D01*
X98790916Y-66403557D01*
X98789494Y-66408865D01*
X98789493Y-66408867D01*
X98740591Y-66591372D01*
X98731657Y-66624713D01*
X98711702Y-66852800D01*
X98731657Y-67080887D01*
X98733081Y-67086200D01*
X98733081Y-67086202D01*
X98771707Y-67230353D01*
X98790916Y-67302043D01*
X98793239Y-67307024D01*
X98793239Y-67307025D01*
X98885351Y-67504562D01*
X98885354Y-67504567D01*
X98887677Y-67509549D01*
X98919944Y-67555631D01*
X98979512Y-67640702D01*
X99019002Y-67697100D01*
X99104795Y-67782893D01*
X99138821Y-67845205D01*
X99141700Y-67871988D01*
X99141700Y-68221143D01*
X99140149Y-68240855D01*
X99138050Y-68254107D01*
X99138395Y-68260694D01*
X99138395Y-68260698D01*
X99141527Y-68320450D01*
X99141700Y-68327045D01*
X99141700Y-78299543D01*
X99140149Y-78319255D01*
X99138050Y-78332507D01*
X99138395Y-78339094D01*
X99138395Y-78339098D01*
X99141527Y-78398850D01*
X99141700Y-78405445D01*
X99141700Y-78425306D01*
X99142044Y-78428577D01*
X99143776Y-78445059D01*
X99144293Y-78451628D01*
X99147770Y-78517971D01*
X99151242Y-78530929D01*
X99154845Y-78550372D01*
X99156246Y-78563702D01*
X99176778Y-78626894D01*
X99178644Y-78633196D01*
X99195838Y-78697363D01*
X99198834Y-78703242D01*
X99198837Y-78703251D01*
X99201928Y-78709317D01*
X99209492Y-78727579D01*
X99211592Y-78734043D01*
X99211595Y-78734051D01*
X99213636Y-78740331D01*
X99216938Y-78746050D01*
X99216940Y-78746055D01*
X99246854Y-78797867D01*
X99249987Y-78803637D01*
X99280153Y-78862839D01*
X99284309Y-78867971D01*
X99288591Y-78873259D01*
X99299789Y-78889552D01*
X99306496Y-78901169D01*
X99310913Y-78906075D01*
X99310917Y-78906080D01*
X99350947Y-78950538D01*
X99355231Y-78955554D01*
X99365641Y-78968409D01*
X99367728Y-78970986D01*
X99381773Y-78985031D01*
X99386314Y-78989816D01*
X99430766Y-79039185D01*
X99436108Y-79043066D01*
X99436110Y-79043068D01*
X99441616Y-79047068D01*
X99456650Y-79059908D01*
X99529777Y-79133035D01*
X99563801Y-79195345D01*
X99558737Y-79266161D01*
X99516191Y-79322997D01*
X99473292Y-79343836D01*
X99322039Y-79384364D01*
X99311747Y-79388110D01*
X99114289Y-79480186D01*
X99104794Y-79485669D01*
X99052752Y-79522109D01*
X99044376Y-79532588D01*
X99051444Y-79546034D01*
X100840087Y-81334677D01*
X100851862Y-81341107D01*
X100863877Y-81331811D01*
X100899734Y-81280602D01*
X100906391Y-81269072D01*
X100957773Y-81220079D01*
X101027487Y-81206642D01*
X101093398Y-81233029D01*
X101124629Y-81269072D01*
X101125953Y-81271365D01*
X101128277Y-81276349D01*
X101131431Y-81280853D01*
X101222041Y-81410257D01*
X101259602Y-81463900D01*
X101339995Y-81544293D01*
X101374021Y-81606605D01*
X101376900Y-81633388D01*
X101376900Y-82673812D01*
X101356898Y-82741933D01*
X101339995Y-82762907D01*
X101254202Y-82848700D01*
X101122877Y-83036251D01*
X101120554Y-83041233D01*
X101120551Y-83041238D01*
X101104595Y-83075457D01*
X101057678Y-83128742D01*
X100989401Y-83148203D01*
X100921441Y-83127661D01*
X100876205Y-83075457D01*
X100860249Y-83041238D01*
X100860246Y-83041233D01*
X100857923Y-83036251D01*
X100726598Y-82848700D01*
X100564700Y-82686802D01*
X100560192Y-82683645D01*
X100560189Y-82683643D01*
X100403918Y-82574221D01*
X100377149Y-82555477D01*
X100372167Y-82553154D01*
X100372162Y-82553151D01*
X100174625Y-82461039D01*
X100174624Y-82461039D01*
X100169643Y-82458716D01*
X100164335Y-82457294D01*
X100164333Y-82457293D01*
X99953802Y-82400881D01*
X99953800Y-82400881D01*
X99948487Y-82399457D01*
X99720400Y-82379502D01*
X99492313Y-82399457D01*
X99487000Y-82400881D01*
X99486998Y-82400881D01*
X99276467Y-82457293D01*
X99276465Y-82457294D01*
X99271157Y-82458716D01*
X99266176Y-82461039D01*
X99266175Y-82461039D01*
X99068638Y-82553151D01*
X99068633Y-82553154D01*
X99063651Y-82555477D01*
X99036882Y-82574221D01*
X98880611Y-82683643D01*
X98880608Y-82683645D01*
X98876100Y-82686802D01*
X98714202Y-82848700D01*
X98582877Y-83036251D01*
X98580554Y-83041233D01*
X98580551Y-83041238D01*
X98564319Y-83076049D01*
X98517402Y-83129334D01*
X98449125Y-83148795D01*
X98381165Y-83128253D01*
X98335929Y-83076049D01*
X98319814Y-83041489D01*
X98314331Y-83031993D01*
X98189372Y-82853533D01*
X98182316Y-82845125D01*
X98028275Y-82691084D01*
X98019867Y-82684028D01*
X97841407Y-82559069D01*
X97831911Y-82553586D01*
X97634453Y-82461510D01*
X97624161Y-82457764D01*
X97451897Y-82411606D01*
X97437801Y-82411942D01*
X97434400Y-82419884D01*
X97434400Y-84960967D01*
X97438373Y-84974498D01*
X97446922Y-84975727D01*
X97624161Y-84928236D01*
X97634453Y-84924490D01*
X97831911Y-84832414D01*
X97841407Y-84826931D01*
X98019867Y-84701972D01*
X98028275Y-84694916D01*
X98182316Y-84540875D01*
X98189372Y-84532467D01*
X98314331Y-84354007D01*
X98319814Y-84344511D01*
X98335929Y-84309951D01*
X98382846Y-84256666D01*
X98451123Y-84237205D01*
X98519083Y-84257747D01*
X98564319Y-84309951D01*
X98580551Y-84344762D01*
X98580554Y-84344767D01*
X98582877Y-84349749D01*
X98714202Y-84537300D01*
X98876100Y-84699198D01*
X98880608Y-84702355D01*
X98880611Y-84702357D01*
X98938900Y-84743171D01*
X99063651Y-84830523D01*
X99068633Y-84832846D01*
X99068638Y-84832849D01*
X99266171Y-84924959D01*
X99271157Y-84927284D01*
X99276465Y-84928706D01*
X99276467Y-84928707D01*
X99486998Y-84985119D01*
X99487000Y-84985119D01*
X99492313Y-84986543D01*
X99720400Y-85006498D01*
X99948487Y-84986543D01*
X99953800Y-84985119D01*
X99953802Y-84985119D01*
X100164333Y-84928707D01*
X100164335Y-84928706D01*
X100169643Y-84927284D01*
X100174629Y-84924959D01*
X100372162Y-84832849D01*
X100372167Y-84832846D01*
X100377149Y-84830523D01*
X100501900Y-84743171D01*
X100560189Y-84702357D01*
X100560192Y-84702355D01*
X100564700Y-84699198D01*
X100726598Y-84537300D01*
X100857923Y-84349749D01*
X100860246Y-84344767D01*
X100860249Y-84344762D01*
X100876205Y-84310543D01*
X100923122Y-84257258D01*
X100991399Y-84237797D01*
X101059359Y-84258339D01*
X101104595Y-84310543D01*
X101120551Y-84344762D01*
X101120554Y-84344767D01*
X101122877Y-84349749D01*
X101254202Y-84537300D01*
X101339995Y-84623093D01*
X101374021Y-84685405D01*
X101376900Y-84712188D01*
X101376900Y-85814853D01*
X101356898Y-85882974D01*
X101339995Y-85903948D01*
X99277555Y-87966387D01*
X99215243Y-88000413D01*
X99144427Y-87995348D01*
X99094824Y-87961603D01*
X98985453Y-87840134D01*
X98830952Y-87727882D01*
X98824924Y-87725198D01*
X98824922Y-87725197D01*
X98662519Y-87652891D01*
X98662518Y-87652891D01*
X98656488Y-87650206D01*
X98563087Y-87630353D01*
X98476144Y-87611872D01*
X98476139Y-87611872D01*
X98469687Y-87610500D01*
X98278713Y-87610500D01*
X98272261Y-87611872D01*
X98272256Y-87611872D01*
X98185313Y-87630353D01*
X98091912Y-87650206D01*
X98085882Y-87652891D01*
X98085881Y-87652891D01*
X97923478Y-87725197D01*
X97923476Y-87725198D01*
X97917448Y-87727882D01*
X97762947Y-87840134D01*
X97758532Y-87845037D01*
X97753620Y-87849460D01*
X97752495Y-87848211D01*
X97699186Y-87881051D01*
X97666000Y-87885500D01*
X94053200Y-87885500D01*
X93985079Y-87865498D01*
X93965853Y-87849157D01*
X93965580Y-87849460D01*
X93960668Y-87845037D01*
X93956253Y-87840134D01*
X93801752Y-87727882D01*
X93795724Y-87725198D01*
X93795722Y-87725197D01*
X93633319Y-87652891D01*
X93633318Y-87652891D01*
X93627288Y-87650206D01*
X93533887Y-87630353D01*
X93446944Y-87611872D01*
X93446939Y-87611872D01*
X93440487Y-87610500D01*
X93249513Y-87610500D01*
X93243061Y-87611872D01*
X93243056Y-87611872D01*
X93156113Y-87630353D01*
X93062712Y-87650206D01*
X93056682Y-87652891D01*
X93056681Y-87652891D01*
X92894278Y-87725197D01*
X92894276Y-87725198D01*
X92888248Y-87727882D01*
X92733747Y-87840134D01*
X92605960Y-87982056D01*
X92510473Y-88147444D01*
X92451458Y-88329072D01*
X92431496Y-88519000D01*
X92446902Y-88665574D01*
X92449062Y-88686129D01*
X92436290Y-88755968D01*
X92387788Y-88807815D01*
X92323752Y-88825300D01*
X91462400Y-88825300D01*
X91394279Y-88805298D01*
X91375053Y-88788957D01*
X91374780Y-88789260D01*
X91369868Y-88784837D01*
X91365453Y-88779934D01*
X91290958Y-88725810D01*
X91216294Y-88671563D01*
X91216293Y-88671562D01*
X91210952Y-88667682D01*
X91204924Y-88664998D01*
X91204922Y-88664997D01*
X91042519Y-88592691D01*
X91042518Y-88592691D01*
X91036488Y-88590006D01*
X90940359Y-88569573D01*
X90856144Y-88551672D01*
X90856139Y-88551672D01*
X90849687Y-88550300D01*
X90658713Y-88550300D01*
X90652261Y-88551672D01*
X90652256Y-88551672D01*
X90568041Y-88569573D01*
X90471912Y-88590006D01*
X90465882Y-88592691D01*
X90465881Y-88592691D01*
X90303478Y-88664997D01*
X90303476Y-88664998D01*
X90297448Y-88667682D01*
X90142947Y-88779934D01*
X90015160Y-88921856D01*
X89919673Y-89087244D01*
X89860658Y-89268872D01*
X89840696Y-89458800D01*
X89860658Y-89648728D01*
X89919673Y-89830356D01*
X89922977Y-89836079D01*
X89925661Y-89842107D01*
X89923684Y-89842987D01*
X89938040Y-89902183D01*
X89914814Y-89969273D01*
X89859004Y-90013156D01*
X89791163Y-90020174D01*
X89788487Y-90019457D01*
X89560400Y-89999502D01*
X89332313Y-90019457D01*
X89327000Y-90020881D01*
X89326998Y-90020881D01*
X89116467Y-90077293D01*
X89116465Y-90077294D01*
X89111157Y-90078716D01*
X89106176Y-90081039D01*
X89106175Y-90081039D01*
X88908638Y-90173151D01*
X88908633Y-90173154D01*
X88903651Y-90175477D01*
X88816884Y-90236232D01*
X88720611Y-90303643D01*
X88720608Y-90303645D01*
X88716100Y-90306802D01*
X88554202Y-90468700D01*
X88551045Y-90473208D01*
X88551043Y-90473211D01*
X88500339Y-90545624D01*
X88422877Y-90656251D01*
X88420554Y-90661233D01*
X88420551Y-90661238D01*
X88404595Y-90695457D01*
X88357678Y-90748742D01*
X88289401Y-90768203D01*
X88221441Y-90747661D01*
X88176205Y-90695457D01*
X88160249Y-90661238D01*
X88160246Y-90661233D01*
X88157923Y-90656251D01*
X88080461Y-90545624D01*
X88029757Y-90473211D01*
X88029755Y-90473208D01*
X88026598Y-90468700D01*
X87864700Y-90306802D01*
X87860192Y-90303645D01*
X87860189Y-90303643D01*
X87763916Y-90236232D01*
X87677149Y-90175477D01*
X87672167Y-90173154D01*
X87672162Y-90173151D01*
X87474625Y-90081039D01*
X87474624Y-90081039D01*
X87469643Y-90078716D01*
X87464335Y-90077294D01*
X87464333Y-90077293D01*
X87253802Y-90020881D01*
X87253800Y-90020881D01*
X87248487Y-90019457D01*
X87020400Y-89999502D01*
X86792313Y-90019457D01*
X86787000Y-90020881D01*
X86786998Y-90020881D01*
X86576467Y-90077293D01*
X86576465Y-90077294D01*
X86571157Y-90078716D01*
X86566176Y-90081039D01*
X86566175Y-90081039D01*
X86368638Y-90173151D01*
X86368633Y-90173154D01*
X86363651Y-90175477D01*
X86276884Y-90236232D01*
X86180611Y-90303643D01*
X86180608Y-90303645D01*
X86176100Y-90306802D01*
X86014202Y-90468700D01*
X86011045Y-90473208D01*
X86011043Y-90473211D01*
X85960339Y-90545624D01*
X85882877Y-90656251D01*
X85880554Y-90661233D01*
X85880551Y-90661238D01*
X85864595Y-90695457D01*
X85817678Y-90748742D01*
X85749401Y-90768203D01*
X85681441Y-90747661D01*
X85636205Y-90695457D01*
X85620249Y-90661238D01*
X85620246Y-90661233D01*
X85617923Y-90656251D01*
X85540461Y-90545624D01*
X85489757Y-90473211D01*
X85489755Y-90473208D01*
X85486598Y-90468700D01*
X85324700Y-90306802D01*
X85320192Y-90303645D01*
X85320189Y-90303643D01*
X85223916Y-90236232D01*
X85137149Y-90175477D01*
X85132167Y-90173154D01*
X85132162Y-90173151D01*
X84934625Y-90081039D01*
X84934624Y-90081039D01*
X84929643Y-90078716D01*
X84924335Y-90077294D01*
X84924333Y-90077293D01*
X84713802Y-90020881D01*
X84713800Y-90020881D01*
X84708487Y-90019457D01*
X84480400Y-89999502D01*
X84252313Y-90019457D01*
X84247000Y-90020881D01*
X84246998Y-90020881D01*
X84036467Y-90077293D01*
X84036465Y-90077294D01*
X84031157Y-90078716D01*
X84026176Y-90081039D01*
X84026175Y-90081039D01*
X83828638Y-90173151D01*
X83828633Y-90173154D01*
X83823651Y-90175477D01*
X83736884Y-90236232D01*
X83640611Y-90303643D01*
X83640608Y-90303645D01*
X83636100Y-90306802D01*
X83474202Y-90468700D01*
X83471043Y-90473211D01*
X83467508Y-90477424D01*
X83466374Y-90476473D01*
X83416329Y-90516471D01*
X83345710Y-90523776D01*
X83282351Y-90491742D01*
X83246370Y-90430538D01*
X83243318Y-90413483D01*
X83242145Y-90402684D01*
X83191015Y-90266295D01*
X83103661Y-90149739D01*
X82987105Y-90062385D01*
X82850716Y-90011255D01*
X82788534Y-90004500D01*
X81092266Y-90004500D01*
X81030084Y-90011255D01*
X80893695Y-90062385D01*
X80777139Y-90149739D01*
X80689785Y-90266295D01*
X80638655Y-90402684D01*
X80631900Y-90464866D01*
X80631900Y-92161134D01*
X77335729Y-92161134D01*
X77331676Y-86921183D01*
X77320187Y-72065503D01*
X77595943Y-72065503D01*
X77633468Y-72350534D01*
X77709329Y-72627836D01*
X77822123Y-72892276D01*
X77969761Y-73138961D01*
X78149513Y-73363328D01*
X78358051Y-73561223D01*
X78591517Y-73728986D01*
X78595312Y-73730995D01*
X78595313Y-73730996D01*
X78617069Y-73742515D01*
X78845592Y-73863512D01*
X78869899Y-73872407D01*
X79033458Y-73932261D01*
X79115573Y-73962311D01*
X79396464Y-74023555D01*
X79425041Y-74025804D01*
X79619482Y-74041107D01*
X79619491Y-74041107D01*
X79621939Y-74041300D01*
X79777471Y-74041300D01*
X79779607Y-74041154D01*
X79779618Y-74041154D01*
X79987748Y-74026965D01*
X79987754Y-74026964D01*
X79992025Y-74026673D01*
X79996220Y-74025804D01*
X79996222Y-74025804D01*
X80165670Y-73990713D01*
X80273542Y-73968374D01*
X80544543Y-73872407D01*
X80800012Y-73740550D01*
X80803513Y-73738089D01*
X80803517Y-73738087D01*
X80917617Y-73657896D01*
X81035223Y-73575241D01*
X81245822Y-73379540D01*
X81351250Y-73250732D01*
X81388196Y-73205593D01*
X81446821Y-73165547D01*
X81517790Y-73163554D01*
X81578570Y-73200245D01*
X81609865Y-73263972D01*
X81611700Y-73285399D01*
X81611700Y-82329733D01*
X81591698Y-82397854D01*
X81538042Y-82444347D01*
X81518311Y-82451440D01*
X81496470Y-82457292D01*
X81496466Y-82457293D01*
X81491157Y-82458716D01*
X81393991Y-82504025D01*
X81288638Y-82553151D01*
X81288633Y-82553154D01*
X81283651Y-82555477D01*
X81256882Y-82574221D01*
X81100611Y-82683643D01*
X81100608Y-82683645D01*
X81096100Y-82686802D01*
X80934202Y-82848700D01*
X80802877Y-83036251D01*
X80800554Y-83041233D01*
X80800551Y-83041238D01*
X80800434Y-83041489D01*
X80706116Y-83243757D01*
X80704694Y-83249065D01*
X80704693Y-83249067D01*
X80671278Y-83373774D01*
X80646857Y-83464913D01*
X80626902Y-83693000D01*
X80646857Y-83921087D01*
X80648281Y-83926400D01*
X80648281Y-83926402D01*
X80692347Y-84090855D01*
X80706116Y-84142243D01*
X80708439Y-84147224D01*
X80708439Y-84147225D01*
X80800551Y-84344762D01*
X80800554Y-84344767D01*
X80802877Y-84349749D01*
X80934202Y-84537300D01*
X81096100Y-84699198D01*
X81100608Y-84702355D01*
X81100611Y-84702357D01*
X81158900Y-84743171D01*
X81283651Y-84830523D01*
X81288633Y-84832846D01*
X81288638Y-84832849D01*
X81486171Y-84924959D01*
X81491157Y-84927284D01*
X81496465Y-84928706D01*
X81496467Y-84928707D01*
X81706998Y-84985119D01*
X81707000Y-84985119D01*
X81712313Y-84986543D01*
X81940400Y-85006498D01*
X82168487Y-84986543D01*
X82173800Y-84985119D01*
X82173802Y-84985119D01*
X82384333Y-84928707D01*
X82384335Y-84928706D01*
X82389643Y-84927284D01*
X82394629Y-84924959D01*
X82592162Y-84832849D01*
X82592167Y-84832846D01*
X82597149Y-84830523D01*
X82721900Y-84743171D01*
X82780189Y-84702357D01*
X82780192Y-84702355D01*
X82784700Y-84699198D01*
X82946598Y-84537300D01*
X83077923Y-84349749D01*
X83080246Y-84344767D01*
X83080249Y-84344762D01*
X83096205Y-84310543D01*
X83143122Y-84257258D01*
X83211399Y-84237797D01*
X83279359Y-84258339D01*
X83324595Y-84310543D01*
X83340551Y-84344762D01*
X83340554Y-84344767D01*
X83342877Y-84349749D01*
X83474202Y-84537300D01*
X83636100Y-84699198D01*
X83640608Y-84702355D01*
X83640611Y-84702357D01*
X83698900Y-84743171D01*
X83823651Y-84830523D01*
X83828633Y-84832846D01*
X83828638Y-84832849D01*
X84026171Y-84924959D01*
X84031157Y-84927284D01*
X84036465Y-84928706D01*
X84036467Y-84928707D01*
X84246998Y-84985119D01*
X84247000Y-84985119D01*
X84252313Y-84986543D01*
X84480400Y-85006498D01*
X84708487Y-84986543D01*
X84713800Y-84985119D01*
X84713802Y-84985119D01*
X84924333Y-84928707D01*
X84924335Y-84928706D01*
X84929643Y-84927284D01*
X84934629Y-84924959D01*
X85132162Y-84832849D01*
X85132167Y-84832846D01*
X85137149Y-84830523D01*
X85261900Y-84743171D01*
X85320189Y-84702357D01*
X85320192Y-84702355D01*
X85324700Y-84699198D01*
X85486598Y-84537300D01*
X85617923Y-84349749D01*
X85620246Y-84344767D01*
X85620249Y-84344762D01*
X85636205Y-84310543D01*
X85683122Y-84257258D01*
X85751399Y-84237797D01*
X85819359Y-84258339D01*
X85864595Y-84310543D01*
X85880551Y-84344762D01*
X85880554Y-84344767D01*
X85882877Y-84349749D01*
X86014202Y-84537300D01*
X86176100Y-84699198D01*
X86180608Y-84702355D01*
X86180611Y-84702357D01*
X86238900Y-84743171D01*
X86363651Y-84830523D01*
X86368633Y-84832846D01*
X86368638Y-84832849D01*
X86566171Y-84924959D01*
X86571157Y-84927284D01*
X86576465Y-84928706D01*
X86576467Y-84928707D01*
X86786998Y-84985119D01*
X86787000Y-84985119D01*
X86792313Y-84986543D01*
X87020400Y-85006498D01*
X87248487Y-84986543D01*
X87253800Y-84985119D01*
X87253802Y-84985119D01*
X87464333Y-84928707D01*
X87464335Y-84928706D01*
X87469643Y-84927284D01*
X87474629Y-84924959D01*
X87672162Y-84832849D01*
X87672167Y-84832846D01*
X87677149Y-84830523D01*
X87801900Y-84743171D01*
X87860189Y-84702357D01*
X87860192Y-84702355D01*
X87864700Y-84699198D01*
X88026598Y-84537300D01*
X88157923Y-84349749D01*
X88160246Y-84344767D01*
X88160249Y-84344762D01*
X88176205Y-84310543D01*
X88223122Y-84257258D01*
X88291399Y-84237797D01*
X88359359Y-84258339D01*
X88404595Y-84310543D01*
X88420551Y-84344762D01*
X88420554Y-84344767D01*
X88422877Y-84349749D01*
X88554202Y-84537300D01*
X88716100Y-84699198D01*
X88720608Y-84702355D01*
X88720611Y-84702357D01*
X88778900Y-84743171D01*
X88903651Y-84830523D01*
X88908633Y-84832846D01*
X88908638Y-84832849D01*
X89106171Y-84924959D01*
X89111157Y-84927284D01*
X89116465Y-84928706D01*
X89116467Y-84928707D01*
X89326998Y-84985119D01*
X89327000Y-84985119D01*
X89332313Y-84986543D01*
X89560400Y-85006498D01*
X89788487Y-84986543D01*
X89793800Y-84985119D01*
X89793802Y-84985119D01*
X90004333Y-84928707D01*
X90004335Y-84928706D01*
X90009643Y-84927284D01*
X90014629Y-84924959D01*
X90212162Y-84832849D01*
X90212167Y-84832846D01*
X90217149Y-84830523D01*
X90341900Y-84743171D01*
X90400189Y-84702357D01*
X90400192Y-84702355D01*
X90404700Y-84699198D01*
X90566598Y-84537300D01*
X90697923Y-84349749D01*
X90700246Y-84344767D01*
X90700249Y-84344762D01*
X90716205Y-84310543D01*
X90763122Y-84257258D01*
X90831399Y-84237797D01*
X90899359Y-84258339D01*
X90944595Y-84310543D01*
X90960551Y-84344762D01*
X90960554Y-84344767D01*
X90962877Y-84349749D01*
X91094202Y-84537300D01*
X91256100Y-84699198D01*
X91260608Y-84702355D01*
X91260611Y-84702357D01*
X91318900Y-84743171D01*
X91443651Y-84830523D01*
X91448633Y-84832846D01*
X91448638Y-84832849D01*
X91646171Y-84924959D01*
X91651157Y-84927284D01*
X91656465Y-84928706D01*
X91656467Y-84928707D01*
X91866998Y-84985119D01*
X91867000Y-84985119D01*
X91872313Y-84986543D01*
X92100400Y-85006498D01*
X92328487Y-84986543D01*
X92333800Y-84985119D01*
X92333802Y-84985119D01*
X92544333Y-84928707D01*
X92544335Y-84928706D01*
X92549643Y-84927284D01*
X92554629Y-84924959D01*
X92752162Y-84832849D01*
X92752167Y-84832846D01*
X92757149Y-84830523D01*
X92881900Y-84743171D01*
X92940189Y-84702357D01*
X92940192Y-84702355D01*
X92944700Y-84699198D01*
X93106598Y-84537300D01*
X93237923Y-84349749D01*
X93240246Y-84344767D01*
X93240249Y-84344762D01*
X93256205Y-84310543D01*
X93303122Y-84257258D01*
X93371399Y-84237797D01*
X93439359Y-84258339D01*
X93484595Y-84310543D01*
X93500551Y-84344762D01*
X93500554Y-84344767D01*
X93502877Y-84349749D01*
X93634202Y-84537300D01*
X93796100Y-84699198D01*
X93800608Y-84702355D01*
X93800611Y-84702357D01*
X93858900Y-84743171D01*
X93983651Y-84830523D01*
X93988633Y-84832846D01*
X93988638Y-84832849D01*
X94186171Y-84924959D01*
X94191157Y-84927284D01*
X94196465Y-84928706D01*
X94196467Y-84928707D01*
X94406998Y-84985119D01*
X94407000Y-84985119D01*
X94412313Y-84986543D01*
X94640400Y-85006498D01*
X94868487Y-84986543D01*
X94873800Y-84985119D01*
X94873802Y-84985119D01*
X95084333Y-84928707D01*
X95084335Y-84928706D01*
X95089643Y-84927284D01*
X95094629Y-84924959D01*
X95292162Y-84832849D01*
X95292167Y-84832846D01*
X95297149Y-84830523D01*
X95421900Y-84743171D01*
X95480189Y-84702357D01*
X95480192Y-84702355D01*
X95484700Y-84699198D01*
X95646598Y-84537300D01*
X95777923Y-84349749D01*
X95780246Y-84344767D01*
X95780249Y-84344762D01*
X95796481Y-84309951D01*
X95843398Y-84256666D01*
X95911675Y-84237205D01*
X95979635Y-84257747D01*
X96024871Y-84309951D01*
X96040986Y-84344511D01*
X96046469Y-84354007D01*
X96171428Y-84532467D01*
X96178484Y-84540875D01*
X96332525Y-84694916D01*
X96340933Y-84701972D01*
X96519393Y-84826931D01*
X96528889Y-84832414D01*
X96726347Y-84924490D01*
X96736639Y-84928236D01*
X96908903Y-84974394D01*
X96922999Y-84974058D01*
X96926400Y-84966116D01*
X96926400Y-82425033D01*
X96922427Y-82411502D01*
X96913878Y-82410273D01*
X96736639Y-82457764D01*
X96726347Y-82461510D01*
X96528889Y-82553586D01*
X96519393Y-82559069D01*
X96340933Y-82684028D01*
X96332525Y-82691084D01*
X96178484Y-82845125D01*
X96171428Y-82853533D01*
X96046469Y-83031993D01*
X96040986Y-83041489D01*
X96024871Y-83076049D01*
X95977954Y-83129334D01*
X95909677Y-83148795D01*
X95841717Y-83128253D01*
X95796481Y-83076049D01*
X95780249Y-83041238D01*
X95780246Y-83041233D01*
X95777923Y-83036251D01*
X95646598Y-82848700D01*
X95615605Y-82817707D01*
X95581579Y-82755395D01*
X95578700Y-82728612D01*
X95578700Y-81705662D01*
X99044293Y-81705662D01*
X99053589Y-81717677D01*
X99104794Y-81753531D01*
X99114289Y-81759014D01*
X99311747Y-81851090D01*
X99322039Y-81854836D01*
X99532488Y-81911225D01*
X99543281Y-81913128D01*
X99760325Y-81932117D01*
X99771275Y-81932117D01*
X99988319Y-81913128D01*
X99999112Y-81911225D01*
X100209561Y-81854836D01*
X100219853Y-81851090D01*
X100417311Y-81759014D01*
X100426806Y-81753531D01*
X100478848Y-81717091D01*
X100487224Y-81706612D01*
X100480156Y-81693166D01*
X99778612Y-80991622D01*
X99764668Y-80984008D01*
X99762835Y-80984139D01*
X99756220Y-80988390D01*
X99050723Y-81693887D01*
X99044293Y-81705662D01*
X95578700Y-81705662D01*
X95578700Y-80625075D01*
X98453283Y-80625075D01*
X98472272Y-80842119D01*
X98474175Y-80852912D01*
X98530564Y-81063361D01*
X98534310Y-81073653D01*
X98626386Y-81271111D01*
X98631869Y-81280606D01*
X98668309Y-81332648D01*
X98678788Y-81341024D01*
X98692234Y-81333956D01*
X99393778Y-80632412D01*
X99401392Y-80618468D01*
X99401261Y-80616635D01*
X99397010Y-80610020D01*
X98691513Y-79904523D01*
X98679738Y-79898093D01*
X98667723Y-79907389D01*
X98631869Y-79958594D01*
X98626386Y-79968089D01*
X98534310Y-80165547D01*
X98530564Y-80175839D01*
X98474175Y-80386288D01*
X98472272Y-80397081D01*
X98453283Y-80614125D01*
X98453283Y-80625075D01*
X95578700Y-80625075D01*
X95578700Y-68072194D01*
X95598702Y-68004073D01*
X95632429Y-67968981D01*
X95784989Y-67862157D01*
X95784992Y-67862155D01*
X95789500Y-67858998D01*
X95951398Y-67697100D01*
X95990889Y-67640702D01*
X96050456Y-67555631D01*
X96082723Y-67509549D01*
X96085046Y-67504567D01*
X96085049Y-67504562D01*
X96177161Y-67307025D01*
X96177161Y-67307024D01*
X96179484Y-67302043D01*
X96198694Y-67230353D01*
X96237319Y-67086202D01*
X96237319Y-67086200D01*
X96238743Y-67080887D01*
X96258698Y-66852800D01*
X96238743Y-66624713D01*
X96229809Y-66591372D01*
X96180907Y-66408867D01*
X96180906Y-66408865D01*
X96179484Y-66403557D01*
X96125348Y-66287461D01*
X96085049Y-66201038D01*
X96085046Y-66201033D01*
X96082723Y-66196051D01*
X95951398Y-66008500D01*
X95789500Y-65846602D01*
X95784992Y-65843445D01*
X95784989Y-65843443D01*
X95706811Y-65788702D01*
X95601949Y-65715277D01*
X95596967Y-65712954D01*
X95596962Y-65712951D01*
X95399425Y-65620839D01*
X95399424Y-65620839D01*
X95394443Y-65618516D01*
X95389135Y-65617094D01*
X95389133Y-65617093D01*
X95178602Y-65560681D01*
X95178600Y-65560681D01*
X95173287Y-65559257D01*
X94945200Y-65539302D01*
X94717113Y-65559257D01*
X94711800Y-65560681D01*
X94711798Y-65560681D01*
X94501267Y-65617093D01*
X94501265Y-65617094D01*
X94495957Y-65618516D01*
X94490976Y-65620839D01*
X94490975Y-65620839D01*
X94293438Y-65712951D01*
X94293433Y-65712954D01*
X94288451Y-65715277D01*
X94183589Y-65788702D01*
X94105411Y-65843443D01*
X94105408Y-65843445D01*
X94100900Y-65846602D01*
X93939002Y-66008500D01*
X93807677Y-66196051D01*
X93805354Y-66201033D01*
X93805351Y-66201038D01*
X93789395Y-66235257D01*
X93742478Y-66288542D01*
X93674201Y-66308003D01*
X93606241Y-66287461D01*
X93561005Y-66235257D01*
X93545049Y-66201038D01*
X93545046Y-66201033D01*
X93542723Y-66196051D01*
X93411398Y-66008500D01*
X93249500Y-65846602D01*
X93244992Y-65843445D01*
X93244989Y-65843443D01*
X93166811Y-65788702D01*
X93061949Y-65715277D01*
X93056967Y-65712954D01*
X93056962Y-65712951D01*
X92859425Y-65620839D01*
X92859424Y-65620839D01*
X92854443Y-65618516D01*
X92849135Y-65617094D01*
X92849133Y-65617093D01*
X92638602Y-65560681D01*
X92638600Y-65560681D01*
X92633287Y-65559257D01*
X92405200Y-65539302D01*
X92177113Y-65559257D01*
X92171800Y-65560681D01*
X92171798Y-65560681D01*
X91961267Y-65617093D01*
X91961265Y-65617094D01*
X91955957Y-65618516D01*
X91950976Y-65620839D01*
X91950975Y-65620839D01*
X91753438Y-65712951D01*
X91753433Y-65712954D01*
X91748451Y-65715277D01*
X91643589Y-65788702D01*
X91565411Y-65843443D01*
X91565408Y-65843445D01*
X91560900Y-65846602D01*
X91399002Y-66008500D01*
X91267677Y-66196051D01*
X91265354Y-66201033D01*
X91265351Y-66201038D01*
X91249395Y-66235257D01*
X91202478Y-66288542D01*
X91134201Y-66308003D01*
X91066241Y-66287461D01*
X91021005Y-66235257D01*
X91005049Y-66201038D01*
X91005046Y-66201033D01*
X91002723Y-66196051D01*
X90871398Y-66008500D01*
X90709500Y-65846602D01*
X90704992Y-65843445D01*
X90704989Y-65843443D01*
X90626811Y-65788702D01*
X90521949Y-65715277D01*
X90516967Y-65712954D01*
X90516962Y-65712951D01*
X90319425Y-65620839D01*
X90319424Y-65620839D01*
X90314443Y-65618516D01*
X90309135Y-65617094D01*
X90309133Y-65617093D01*
X90098602Y-65560681D01*
X90098600Y-65560681D01*
X90093287Y-65559257D01*
X89865200Y-65539302D01*
X89637113Y-65559257D01*
X89631800Y-65560681D01*
X89631798Y-65560681D01*
X89421267Y-65617093D01*
X89421265Y-65617094D01*
X89415957Y-65618516D01*
X89410976Y-65620839D01*
X89410975Y-65620839D01*
X89213438Y-65712951D01*
X89213433Y-65712954D01*
X89208451Y-65715277D01*
X89103589Y-65788702D01*
X89025411Y-65843443D01*
X89025408Y-65843445D01*
X89020900Y-65846602D01*
X88859002Y-66008500D01*
X88727677Y-66196051D01*
X88725354Y-66201033D01*
X88725351Y-66201038D01*
X88709395Y-66235257D01*
X88662478Y-66288542D01*
X88594201Y-66308003D01*
X88526241Y-66287461D01*
X88481005Y-66235257D01*
X88465049Y-66201038D01*
X88465046Y-66201033D01*
X88462723Y-66196051D01*
X88331398Y-66008500D01*
X88169500Y-65846602D01*
X88164992Y-65843445D01*
X88164989Y-65843443D01*
X88086811Y-65788702D01*
X87981949Y-65715277D01*
X87976967Y-65712954D01*
X87976962Y-65712951D01*
X87779425Y-65620839D01*
X87779424Y-65620839D01*
X87774443Y-65618516D01*
X87769135Y-65617094D01*
X87769133Y-65617093D01*
X87558602Y-65560681D01*
X87558600Y-65560681D01*
X87553287Y-65559257D01*
X87325200Y-65539302D01*
X87097113Y-65559257D01*
X87091800Y-65560681D01*
X87091798Y-65560681D01*
X86881267Y-65617093D01*
X86881265Y-65617094D01*
X86875957Y-65618516D01*
X86870976Y-65620839D01*
X86870975Y-65620839D01*
X86673438Y-65712951D01*
X86673433Y-65712954D01*
X86668451Y-65715277D01*
X86563589Y-65788702D01*
X86485411Y-65843443D01*
X86485408Y-65843445D01*
X86480900Y-65846602D01*
X86319002Y-66008500D01*
X86187677Y-66196051D01*
X86185354Y-66201033D01*
X86185351Y-66201038D01*
X86169395Y-66235257D01*
X86122478Y-66288542D01*
X86054201Y-66308003D01*
X85986241Y-66287461D01*
X85941005Y-66235257D01*
X85925049Y-66201038D01*
X85925046Y-66201033D01*
X85922723Y-66196051D01*
X85791398Y-66008500D01*
X85629500Y-65846602D01*
X85624992Y-65843445D01*
X85624989Y-65843443D01*
X85546811Y-65788702D01*
X85441949Y-65715277D01*
X85436967Y-65712954D01*
X85436962Y-65712951D01*
X85239425Y-65620839D01*
X85239424Y-65620839D01*
X85234443Y-65618516D01*
X85229135Y-65617094D01*
X85229133Y-65617093D01*
X85018602Y-65560681D01*
X85018600Y-65560681D01*
X85013287Y-65559257D01*
X84785200Y-65539302D01*
X84557113Y-65559257D01*
X84551800Y-65560681D01*
X84551798Y-65560681D01*
X84341267Y-65617093D01*
X84341265Y-65617094D01*
X84335957Y-65618516D01*
X84330976Y-65620839D01*
X84330975Y-65620839D01*
X84133438Y-65712951D01*
X84133433Y-65712954D01*
X84128451Y-65715277D01*
X84023589Y-65788702D01*
X83945411Y-65843443D01*
X83945408Y-65843445D01*
X83940900Y-65846602D01*
X83779002Y-66008500D01*
X83647677Y-66196051D01*
X83645354Y-66201033D01*
X83645351Y-66201038D01*
X83629395Y-66235257D01*
X83582478Y-66288542D01*
X83514201Y-66308003D01*
X83446241Y-66287461D01*
X83401005Y-66235257D01*
X83385049Y-66201038D01*
X83385046Y-66201033D01*
X83382723Y-66196051D01*
X83251398Y-66008500D01*
X83089500Y-65846602D01*
X83084992Y-65843445D01*
X83084989Y-65843443D01*
X83006811Y-65788702D01*
X82901949Y-65715277D01*
X82896967Y-65712954D01*
X82896962Y-65712951D01*
X82699425Y-65620839D01*
X82699424Y-65620839D01*
X82694443Y-65618516D01*
X82689135Y-65617094D01*
X82689133Y-65617093D01*
X82478602Y-65560681D01*
X82478600Y-65560681D01*
X82473287Y-65559257D01*
X82245200Y-65539302D01*
X82017113Y-65559257D01*
X82011800Y-65560681D01*
X82011798Y-65560681D01*
X81801267Y-65617093D01*
X81801265Y-65617094D01*
X81795957Y-65618516D01*
X81790976Y-65620839D01*
X81790975Y-65620839D01*
X81593438Y-65712951D01*
X81593433Y-65712954D01*
X81588451Y-65715277D01*
X81483589Y-65788702D01*
X81405411Y-65843443D01*
X81405408Y-65843445D01*
X81400900Y-65846602D01*
X81239002Y-66008500D01*
X81107677Y-66196051D01*
X81105354Y-66201033D01*
X81105351Y-66201038D01*
X81065052Y-66287461D01*
X81010916Y-66403557D01*
X81009494Y-66408865D01*
X81009493Y-66408867D01*
X80960591Y-66591372D01*
X80951657Y-66624713D01*
X80931702Y-66852800D01*
X80951657Y-67080887D01*
X80953081Y-67086200D01*
X80953081Y-67086202D01*
X80991707Y-67230353D01*
X81010916Y-67302043D01*
X81013239Y-67307024D01*
X81013239Y-67307025D01*
X81105351Y-67504562D01*
X81105354Y-67504567D01*
X81107677Y-67509549D01*
X81139944Y-67555631D01*
X81199512Y-67640702D01*
X81239002Y-67697100D01*
X81400900Y-67858998D01*
X81405408Y-67862155D01*
X81405411Y-67862157D01*
X81557971Y-67968981D01*
X81602299Y-68024438D01*
X81611700Y-68072194D01*
X81611700Y-70581362D01*
X81591698Y-70649483D01*
X81538042Y-70695976D01*
X81467768Y-70706080D01*
X81403188Y-70676586D01*
X81387366Y-70660143D01*
X81294442Y-70544156D01*
X81260887Y-70502272D01*
X81107958Y-70357148D01*
X81055458Y-70307327D01*
X81055455Y-70307325D01*
X81052349Y-70304377D01*
X80818883Y-70136614D01*
X80797043Y-70125050D01*
X80687101Y-70066839D01*
X80564808Y-70002088D01*
X80324908Y-69914297D01*
X80298858Y-69904764D01*
X80298856Y-69904763D01*
X80294827Y-69903289D01*
X80013936Y-69842045D01*
X79982885Y-69839601D01*
X79790918Y-69824493D01*
X79790909Y-69824493D01*
X79788461Y-69824300D01*
X79632929Y-69824300D01*
X79630793Y-69824446D01*
X79630782Y-69824446D01*
X79422652Y-69838635D01*
X79422646Y-69838636D01*
X79418375Y-69838927D01*
X79414180Y-69839796D01*
X79414178Y-69839796D01*
X79359033Y-69851216D01*
X79136858Y-69897226D01*
X78865857Y-69993193D01*
X78610388Y-70125050D01*
X78606887Y-70127511D01*
X78606883Y-70127513D01*
X78492782Y-70207705D01*
X78375177Y-70290359D01*
X78360092Y-70304377D01*
X78178850Y-70472798D01*
X78164578Y-70486060D01*
X77982487Y-70708532D01*
X77832273Y-70953658D01*
X77830547Y-70957591D01*
X77830546Y-70957592D01*
X77810406Y-71003472D01*
X77716717Y-71216902D01*
X77715542Y-71221029D01*
X77715541Y-71221030D01*
X77696475Y-71287961D01*
X77637956Y-71493394D01*
X77615604Y-71650452D01*
X77602511Y-71742451D01*
X77597449Y-71778016D01*
X77597427Y-71782305D01*
X77597426Y-71782312D01*
X77596369Y-71984104D01*
X77595943Y-72065503D01*
X77320187Y-72065503D01*
X77318303Y-69630110D01*
X77338252Y-69561975D01*
X77355208Y-69540919D01*
X79684308Y-67211820D01*
X79693845Y-67204200D01*
X79693531Y-67203831D01*
X79700364Y-67198016D01*
X79707958Y-67193224D01*
X79743585Y-67152883D01*
X79748931Y-67147197D01*
X79760382Y-67135746D01*
X79766662Y-67127368D01*
X79773041Y-67119532D01*
X79798437Y-67090776D01*
X79804378Y-67084049D01*
X79808192Y-67075926D01*
X79809812Y-67073459D01*
X79818816Y-67058475D01*
X79820234Y-67055884D01*
X79825615Y-67048705D01*
X79842236Y-67004369D01*
X79846155Y-66995068D01*
X79866281Y-66952200D01*
X79867663Y-66943328D01*
X79868524Y-66940510D01*
X79872954Y-66923628D01*
X79873593Y-66920721D01*
X79876744Y-66912316D01*
X79880252Y-66865111D01*
X79881406Y-66855063D01*
X79882750Y-66846429D01*
X79883500Y-66841614D01*
X79883500Y-66826077D01*
X79883847Y-66816739D01*
X79886874Y-66776010D01*
X79886874Y-66776009D01*
X79887539Y-66767059D01*
X79885666Y-66758284D01*
X79885103Y-66750027D01*
X79883500Y-66734838D01*
X79883500Y-64617100D01*
X79903502Y-64548979D01*
X79957158Y-64502486D01*
X80009500Y-64491100D01*
X145440900Y-64491100D01*
X145509021Y-64511102D01*
G37*
%TD.AperFunction*%
%TA.AperFunction,Conductor*%
G36*
X124841631Y-81603594D02*
G01*
X124852836Y-81613540D01*
X126521685Y-83282390D01*
X126555711Y-83344702D01*
X126550646Y-83415518D01*
X126508099Y-83472353D01*
X126441579Y-83497164D01*
X126431058Y-83497476D01*
X126383016Y-83496889D01*
X126361680Y-83496628D01*
X126361678Y-83496628D01*
X126356511Y-83496565D01*
X126135691Y-83530355D01*
X125923356Y-83599757D01*
X125893043Y-83615537D01*
X125754756Y-83687525D01*
X125725207Y-83702907D01*
X125721074Y-83706010D01*
X125721071Y-83706012D01*
X125550700Y-83833930D01*
X125546565Y-83837035D01*
X125515881Y-83869144D01*
X125452880Y-83935071D01*
X125392229Y-83998538D01*
X125389315Y-84002810D01*
X125389314Y-84002811D01*
X125353845Y-84054807D01*
X125266343Y-84183080D01*
X125242543Y-84234354D01*
X125186886Y-84354257D01*
X125172288Y-84385705D01*
X125112589Y-84600970D01*
X125088851Y-84823095D01*
X125089148Y-84828248D01*
X125089148Y-84828251D01*
X125098193Y-84985118D01*
X125101710Y-85046115D01*
X125102847Y-85051161D01*
X125102848Y-85051167D01*
X125105847Y-85064473D01*
X125150822Y-85264039D01*
X125234866Y-85471016D01*
X125272285Y-85532078D01*
X125348891Y-85657088D01*
X125351587Y-85661488D01*
X125497850Y-85830338D01*
X125669726Y-85973032D01*
X125743045Y-86015876D01*
X125743555Y-86016174D01*
X125792279Y-86067812D01*
X125805350Y-86137595D01*
X125778619Y-86203367D01*
X125738162Y-86236727D01*
X125730057Y-86240946D01*
X125721338Y-86246436D01*
X125551033Y-86374305D01*
X125543326Y-86381148D01*
X125396190Y-86535117D01*
X125389704Y-86543127D01*
X125269698Y-86719049D01*
X125264600Y-86728023D01*
X125174938Y-86921183D01*
X125171375Y-86930870D01*
X125115989Y-87130583D01*
X125117512Y-87139007D01*
X125129892Y-87142400D01*
X126579600Y-87142400D01*
X126647721Y-87162402D01*
X126694214Y-87216058D01*
X126705600Y-87268400D01*
X126705600Y-88733032D01*
X126700785Y-88733032D01*
X126700787Y-88769506D01*
X126668984Y-88823111D01*
X126424300Y-89067795D01*
X126361988Y-89101821D01*
X126335205Y-89104700D01*
X125231794Y-89104700D01*
X125163673Y-89084698D01*
X125142699Y-89067795D01*
X123739270Y-87664366D01*
X125119857Y-87664366D01*
X125150165Y-87798846D01*
X125153245Y-87808675D01*
X125233370Y-88006003D01*
X125238013Y-88015194D01*
X125349294Y-88196788D01*
X125355377Y-88205099D01*
X125494813Y-88366067D01*
X125502180Y-88373283D01*
X125666034Y-88509316D01*
X125674481Y-88515231D01*
X125858356Y-88622679D01*
X125867642Y-88627129D01*
X126066601Y-88703103D01*
X126076499Y-88705979D01*
X126179850Y-88727006D01*
X126193899Y-88725810D01*
X126197600Y-88715465D01*
X126197600Y-87668515D01*
X126193125Y-87653276D01*
X126191735Y-87652071D01*
X126184052Y-87650400D01*
X125134825Y-87650400D01*
X125121294Y-87654373D01*
X125119857Y-87664366D01*
X123739270Y-87664366D01*
X118051100Y-81976195D01*
X118017074Y-81913883D01*
X118022139Y-81843068D01*
X118064686Y-81786232D01*
X118131206Y-81761421D01*
X118140195Y-81761100D01*
X123193000Y-81761100D01*
X123261121Y-81781102D01*
X123280347Y-81797443D01*
X123280620Y-81797140D01*
X123285532Y-81801563D01*
X123289947Y-81806466D01*
X123444448Y-81918718D01*
X123450476Y-81921402D01*
X123450478Y-81921403D01*
X123558758Y-81969612D01*
X123618912Y-81996394D01*
X123712312Y-82016247D01*
X123799256Y-82034728D01*
X123799261Y-82034728D01*
X123805713Y-82036100D01*
X123996687Y-82036100D01*
X124003139Y-82034728D01*
X124003144Y-82034728D01*
X124090088Y-82016247D01*
X124183488Y-81996394D01*
X124243642Y-81969612D01*
X124351922Y-81921403D01*
X124351924Y-81921402D01*
X124357952Y-81918718D01*
X124512453Y-81806466D01*
X124535291Y-81781102D01*
X124635821Y-81669452D01*
X124635822Y-81669451D01*
X124640240Y-81664544D01*
X124654623Y-81639632D01*
X124706007Y-81590640D01*
X124775721Y-81577206D01*
X124841631Y-81603594D01*
G37*
%TD.AperFunction*%
%TD*%
M02*
