%FSLAX45Y45*%
G04 Gerber Fmt 4.5, Leading zero omitted, Abs format (unit mm)*
G04 Created by KiCad (PCBNEW (6.0.6)) date 2022-12-20 12:05:48*
%MOMM*%
%LPD*%
G01*
G04 APERTURE LIST*
%TA.AperFunction,Profile*%
%ADD10C,0.100000*%
%TD*%
%ADD11C,0.200000*%
%ADD12C,0.040000*%
%ADD13C,0.080000*%
%ADD14C,0.100000*%
G04 APERTURE END LIST*
D10*
X15242540Y-9634220D02*
X15242540Y-10845800D01*
X7937500Y-6400800D02*
X7937500Y-6398260D01*
X8117840Y-11798300D02*
X7937500Y-11617960D01*
X14800580Y-7673340D02*
X14607540Y-7673340D01*
X14610080Y-9634220D02*
X15242540Y-9634220D01*
X15242540Y-10845800D02*
X14607540Y-10845800D01*
X14607540Y-11795760D02*
X14607540Y-11798300D01*
X14607540Y-7673340D02*
X14610080Y-9634220D01*
X14607540Y-6713220D02*
X14798040Y-6713220D01*
X7937500Y-6680200D02*
X7937500Y-6400800D01*
X14798040Y-6713220D02*
X14800580Y-7673340D01*
X7937500Y-10474960D02*
X7683500Y-10220960D01*
X7937500Y-11617960D02*
X7937500Y-10474960D01*
X7680960Y-6936740D02*
X7937500Y-6680200D01*
X7937500Y-6398260D02*
X14607540Y-6398260D01*
X14607540Y-6713220D02*
X14607540Y-6398260D01*
X14607540Y-11798300D02*
X8117840Y-11798300D01*
X7683500Y-10220960D02*
X7680960Y-6936740D01*
X14607540Y-10845800D02*
X14607540Y-11795760D01*
D11*
D12*
X9055420Y-8925880D02*
X9095420Y-8965880D01*
X9095420Y-8925880D02*
X9055420Y-8965880D01*
X9314500Y-8831900D02*
X9354500Y-8871900D01*
X9354500Y-8831900D02*
X9314500Y-8871900D01*
X9690420Y-8925880D02*
X9730420Y-8965880D01*
X9730420Y-8925880D02*
X9690420Y-8965880D01*
X9817420Y-8831900D02*
X9857420Y-8871900D01*
X9857420Y-8831900D02*
X9817420Y-8871900D01*
X10460040Y-8647410D02*
X10500040Y-8687410D01*
X10500040Y-8647410D02*
X10460040Y-8687410D01*
X10658160Y-10569260D02*
X10698160Y-10609260D01*
X10698160Y-10569260D02*
X10658160Y-10609260D01*
X11056940Y-9586280D02*
X11096940Y-9626280D01*
X11096940Y-9586280D02*
X11056940Y-9626280D01*
X11092500Y-9418640D02*
X11132500Y-9458640D01*
X11132500Y-9418640D02*
X11092500Y-9458640D01*
X11135680Y-9847900D02*
X11175680Y-9887900D01*
X11175680Y-9847900D02*
X11135680Y-9887900D01*
X12370120Y-8092760D02*
X12410120Y-8132760D01*
X12410120Y-8092760D02*
X12370120Y-8132760D01*
D13*
X8234040Y-8369300D02*
G75*
G03*
X8234040Y-8369300I-40000J0D01*
G01*
X8234040Y-9131300D02*
G75*
G03*
X8234040Y-9131300I-40000J0D01*
G01*
X8488040Y-8369300D02*
G75*
G03*
X8488040Y-8369300I-40000J0D01*
G01*
X8488040Y-9131300D02*
G75*
G03*
X8488040Y-9131300I-40000J0D01*
G01*
X8742040Y-8369300D02*
G75*
G03*
X8742040Y-8369300I-40000J0D01*
G01*
X8742040Y-9131300D02*
G75*
G03*
X8742040Y-9131300I-40000J0D01*
G01*
X8996040Y-8369300D02*
G75*
G03*
X8996040Y-8369300I-40000J0D01*
G01*
X8996040Y-9131300D02*
G75*
G03*
X8996040Y-9131300I-40000J0D01*
G01*
X9250040Y-8369300D02*
G75*
G03*
X9250040Y-8369300I-40000J0D01*
G01*
X9250040Y-9131300D02*
G75*
G03*
X9250040Y-9131300I-40000J0D01*
G01*
X9504040Y-8369300D02*
G75*
G03*
X9504040Y-8369300I-40000J0D01*
G01*
X9504040Y-9131300D02*
G75*
G03*
X9504040Y-9131300I-40000J0D01*
G01*
X9754960Y-9425940D02*
G75*
G03*
X9754960Y-9425940I-40000J0D01*
G01*
X9758040Y-8369300D02*
G75*
G03*
X9758040Y-8369300I-40000J0D01*
G01*
X9758040Y-9131300D02*
G75*
G03*
X9758040Y-9131300I-40000J0D01*
G01*
X9927680Y-10259060D02*
G75*
G03*
X9927680Y-10259060I-40000J0D01*
G01*
X10004960Y-9425940D02*
G75*
G03*
X10004960Y-9425940I-40000J0D01*
G01*
X10012040Y-8369300D02*
G75*
G03*
X10012040Y-8369300I-40000J0D01*
G01*
X10012040Y-9131300D02*
G75*
G03*
X10012040Y-9131300I-40000J0D01*
G01*
X10016580Y-8061960D02*
G75*
G03*
X10016580Y-8061960I-40000J0D01*
G01*
X10164440Y-9842500D02*
G75*
G03*
X10164440Y-9842500I-40000J0D01*
G01*
X10177680Y-10259060D02*
G75*
G03*
X10177680Y-10259060I-40000J0D01*
G01*
X10266040Y-8369300D02*
G75*
G03*
X10266040Y-8369300I-40000J0D01*
G01*
X10266040Y-9131300D02*
G75*
G03*
X10266040Y-9131300I-40000J0D01*
G01*
X10266580Y-8061960D02*
G75*
G03*
X10266580Y-8061960I-40000J0D01*
G01*
X10520040Y-8369300D02*
G75*
G03*
X10520040Y-8369300I-40000J0D01*
G01*
X10520040Y-9131300D02*
G75*
G03*
X10520040Y-9131300I-40000J0D01*
G01*
X10545440Y-10261600D02*
G75*
G03*
X10545440Y-10261600I-40000J0D01*
G01*
X10652440Y-9842500D02*
G75*
G03*
X10652440Y-9842500I-40000J0D01*
G01*
X10774040Y-8369300D02*
G75*
G03*
X10774040Y-8369300I-40000J0D01*
G01*
X10774040Y-9131300D02*
G75*
G03*
X10774040Y-9131300I-40000J0D01*
G01*
X10795440Y-10261600D02*
G75*
G03*
X10795440Y-10261600I-40000J0D01*
G01*
X11028040Y-8369300D02*
G75*
G03*
X11028040Y-8369300I-40000J0D01*
G01*
X11028040Y-9131300D02*
G75*
G03*
X11028040Y-9131300I-40000J0D01*
G01*
X11282040Y-8369300D02*
G75*
G03*
X11282040Y-8369300I-40000J0D01*
G01*
X11282040Y-9131300D02*
G75*
G03*
X11282040Y-9131300I-40000J0D01*
G01*
X11302360Y-7421880D02*
G75*
G03*
X11302360Y-7421880I-40000J0D01*
G01*
X11536040Y-8369300D02*
G75*
G03*
X11536040Y-8369300I-40000J0D01*
G01*
X11536040Y-9131300D02*
G75*
G03*
X11536040Y-9131300I-40000J0D01*
G01*
X12064360Y-7421880D02*
G75*
G03*
X12064360Y-7421880I-40000J0D01*
G01*
X12228920Y-10932160D02*
G75*
G03*
X12228920Y-10932160I-40000J0D01*
G01*
X12478920Y-10932160D02*
G75*
G03*
X12478920Y-10932160I-40000J0D01*
G01*
D14*
X8224520Y-6635280D02*
X8224520Y-6735280D01*
X8174520Y-6685280D02*
X8274520Y-6685280D01*
X8224520Y-11461280D02*
X8224520Y-11561280D01*
X8174520Y-11511280D02*
X8274520Y-11511280D01*
X8478520Y-6635280D02*
X8478520Y-6735280D01*
X8428520Y-6685280D02*
X8528520Y-6685280D01*
X8478520Y-11461280D02*
X8478520Y-11561280D01*
X8428520Y-11511280D02*
X8528520Y-11511280D01*
X8732520Y-6635280D02*
X8732520Y-6735280D01*
X8682520Y-6685280D02*
X8782520Y-6685280D01*
X8732520Y-11461280D02*
X8732520Y-11561280D01*
X8682520Y-11511280D02*
X8782520Y-11511280D01*
X8986520Y-6635280D02*
X8986520Y-6735280D01*
X8936520Y-6685280D02*
X9036520Y-6685280D01*
X8986520Y-11461280D02*
X8986520Y-11561280D01*
X8936520Y-11511280D02*
X9036520Y-11511280D01*
X9240520Y-6635280D02*
X9240520Y-6735280D01*
X9190520Y-6685280D02*
X9290520Y-6685280D01*
X9240520Y-11461280D02*
X9240520Y-11561280D01*
X9190520Y-11511280D02*
X9290520Y-11511280D01*
X9494520Y-6635280D02*
X9494520Y-6735280D01*
X9444520Y-6685280D02*
X9544520Y-6685280D01*
X9494520Y-11461280D02*
X9494520Y-11561280D01*
X9444520Y-11511280D02*
X9544520Y-11511280D01*
X9748520Y-11461280D02*
X9748520Y-11561280D01*
X9698520Y-11511280D02*
X9798520Y-11511280D01*
X10002520Y-6635280D02*
X10002520Y-6735280D01*
X9952520Y-6685280D02*
X10052520Y-6685280D01*
X10002520Y-11461280D02*
X10002520Y-11561280D01*
X9952520Y-11511280D02*
X10052520Y-11511280D01*
X10256520Y-6635280D02*
X10256520Y-6735280D01*
X10206520Y-6685280D02*
X10306520Y-6685280D01*
X10408520Y-11461280D02*
X10408520Y-11561280D01*
X10358520Y-11511280D02*
X10458520Y-11511280D01*
X10510520Y-6635280D02*
X10510520Y-6735280D01*
X10460520Y-6685280D02*
X10560520Y-6685280D01*
X10662520Y-11461280D02*
X10662520Y-11561280D01*
X10612520Y-11511280D02*
X10712520Y-11511280D01*
X10764520Y-6635280D02*
X10764520Y-6735280D01*
X10714520Y-6685280D02*
X10814520Y-6685280D01*
X10916520Y-11461280D02*
X10916520Y-11561280D01*
X10866520Y-11511280D02*
X10966520Y-11511280D01*
X11018520Y-6635280D02*
X11018520Y-6735280D01*
X10968520Y-6685280D02*
X11068520Y-6685280D01*
X11170520Y-11461280D02*
X11170520Y-11561280D01*
X11120520Y-11511280D02*
X11220520Y-11511280D01*
X11272520Y-6635280D02*
X11272520Y-6735280D01*
X11222520Y-6685280D02*
X11322520Y-6685280D01*
X11424520Y-11461280D02*
X11424520Y-11561280D01*
X11374520Y-11511280D02*
X11474520Y-11511280D01*
X11526520Y-6635280D02*
X11526520Y-6735280D01*
X11476520Y-6685280D02*
X11576520Y-6685280D01*
X11678520Y-11461280D02*
X11678520Y-11561280D01*
X11628520Y-11511280D02*
X11728520Y-11511280D01*
X11780520Y-6635280D02*
X11780520Y-6735280D01*
X11730520Y-6685280D02*
X11830520Y-6685280D01*
X11932520Y-11461280D02*
X11932520Y-11561280D01*
X11882520Y-11511280D02*
X11982520Y-11511280D01*
X12186520Y-11461280D02*
X12186520Y-11561280D01*
X12136520Y-11511280D02*
X12236520Y-11511280D01*
X12440520Y-11461280D02*
X12440520Y-11561280D01*
X12390520Y-11511280D02*
X12490520Y-11511280D01*
X12645160Y-8435640D02*
X12645160Y-8535640D01*
X12595160Y-8485640D02*
X12695160Y-8485640D01*
X12645160Y-8689640D02*
X12645160Y-8789640D01*
X12595160Y-8739640D02*
X12695160Y-8739640D01*
X12694520Y-11461280D02*
X12694520Y-11561280D01*
X12644520Y-11511280D02*
X12744520Y-11511280D01*
X12899160Y-8435640D02*
X12899160Y-8535640D01*
X12849160Y-8485640D02*
X12949160Y-8485640D01*
X12899160Y-8689640D02*
X12899160Y-8789640D01*
X12849160Y-8739640D02*
X12949160Y-8739640D01*
X13153160Y-8435640D02*
X13153160Y-8535640D01*
X13103160Y-8485640D02*
X13203160Y-8485640D01*
X13153160Y-8689640D02*
X13153160Y-8789640D01*
X13103160Y-8739640D02*
X13203160Y-8739640D01*
X13733780Y-7017740D02*
X13733780Y-7117740D01*
X13683780Y-7067740D02*
X13783780Y-7067740D01*
X13733780Y-7267740D02*
X13733780Y-7367740D01*
X13683780Y-7317740D02*
X13783780Y-7317740D01*
D11*
X7933579Y-12113776D02*
X7933579Y-11913776D01*
X7981198Y-11913776D01*
X8009769Y-11923300D01*
X8028817Y-11942348D01*
X8038341Y-11961395D01*
X8047865Y-11999490D01*
X8047865Y-12028062D01*
X8038341Y-12066157D01*
X8028817Y-12085205D01*
X8009769Y-12104252D01*
X7981198Y-12113776D01*
X7933579Y-12113776D01*
X8133579Y-12113776D02*
X8133579Y-11980443D01*
X8133579Y-12018538D02*
X8143103Y-11999490D01*
X8152627Y-11989967D01*
X8171674Y-11980443D01*
X8190722Y-11980443D01*
X8257388Y-12113776D02*
X8257388Y-11980443D01*
X8257388Y-11913776D02*
X8247865Y-11923300D01*
X8257388Y-11932824D01*
X8266912Y-11923300D01*
X8257388Y-11913776D01*
X8257388Y-11932824D01*
X8381198Y-12113776D02*
X8362150Y-12104252D01*
X8352627Y-12085205D01*
X8352627Y-11913776D01*
X8485960Y-12113776D02*
X8466912Y-12104252D01*
X8457389Y-12085205D01*
X8457389Y-11913776D01*
X8714531Y-12113776D02*
X8714531Y-11913776D01*
X8781198Y-12056633D01*
X8847865Y-11913776D01*
X8847865Y-12113776D01*
X9028817Y-12113776D02*
X9028817Y-12009014D01*
X9019293Y-11989967D01*
X9000246Y-11980443D01*
X8962150Y-11980443D01*
X8943103Y-11989967D01*
X9028817Y-12104252D02*
X9009770Y-12113776D01*
X8962150Y-12113776D01*
X8943103Y-12104252D01*
X8933579Y-12085205D01*
X8933579Y-12066157D01*
X8943103Y-12047109D01*
X8962150Y-12037586D01*
X9009770Y-12037586D01*
X9028817Y-12028062D01*
X9124055Y-11980443D02*
X9124055Y-12180443D01*
X9124055Y-11989967D02*
X9143103Y-11980443D01*
X9181198Y-11980443D01*
X9200246Y-11989967D01*
X9209770Y-11999490D01*
X9219293Y-12018538D01*
X9219293Y-12075681D01*
X9209770Y-12094728D01*
X9200246Y-12104252D01*
X9181198Y-12113776D01*
X9143103Y-12113776D01*
X9124055Y-12104252D01*
X9305008Y-12094728D02*
X9314531Y-12104252D01*
X9305008Y-12113776D01*
X9295484Y-12104252D01*
X9305008Y-12094728D01*
X9305008Y-12113776D01*
X9305008Y-11989967D02*
X9314531Y-11999490D01*
X9305008Y-12009014D01*
X9295484Y-11999490D01*
X9305008Y-11989967D01*
X9305008Y-12009014D01*
D12*
X7635960Y-12423300D02*
X7675960Y-12463300D01*
X7675960Y-12423300D02*
X7635960Y-12463300D01*
D11*
X7971674Y-12333776D02*
X7990722Y-12333776D01*
X8009769Y-12343300D01*
X8019293Y-12352824D01*
X8028817Y-12371871D01*
X8038341Y-12409967D01*
X8038341Y-12457586D01*
X8028817Y-12495681D01*
X8019293Y-12514728D01*
X8009769Y-12524252D01*
X7990722Y-12533776D01*
X7971674Y-12533776D01*
X7952627Y-12524252D01*
X7943103Y-12514728D01*
X7933579Y-12495681D01*
X7924055Y-12457586D01*
X7924055Y-12409967D01*
X7933579Y-12371871D01*
X7943103Y-12352824D01*
X7952627Y-12343300D01*
X7971674Y-12333776D01*
X8124055Y-12514728D02*
X8133579Y-12524252D01*
X8124055Y-12533776D01*
X8114531Y-12524252D01*
X8124055Y-12514728D01*
X8124055Y-12533776D01*
X8305008Y-12400443D02*
X8305008Y-12533776D01*
X8257388Y-12324252D02*
X8209769Y-12467109D01*
X8333579Y-12467109D01*
X8447865Y-12333776D02*
X8466912Y-12333776D01*
X8485960Y-12343300D01*
X8495484Y-12352824D01*
X8505008Y-12371871D01*
X8514531Y-12409967D01*
X8514531Y-12457586D01*
X8505008Y-12495681D01*
X8495484Y-12514728D01*
X8485960Y-12524252D01*
X8466912Y-12533776D01*
X8447865Y-12533776D01*
X8428817Y-12524252D01*
X8419293Y-12514728D01*
X8409770Y-12495681D01*
X8400246Y-12457586D01*
X8400246Y-12409967D01*
X8409770Y-12371871D01*
X8419293Y-12352824D01*
X8428817Y-12343300D01*
X8447865Y-12333776D01*
X8638341Y-12333776D02*
X8657389Y-12333776D01*
X8676436Y-12343300D01*
X8685960Y-12352824D01*
X8695484Y-12371871D01*
X8705008Y-12409967D01*
X8705008Y-12457586D01*
X8695484Y-12495681D01*
X8685960Y-12514728D01*
X8676436Y-12524252D01*
X8657389Y-12533776D01*
X8638341Y-12533776D01*
X8619293Y-12524252D01*
X8609770Y-12514728D01*
X8600246Y-12495681D01*
X8590722Y-12457586D01*
X8590722Y-12409967D01*
X8600246Y-12371871D01*
X8609770Y-12352824D01*
X8619293Y-12343300D01*
X8638341Y-12333776D01*
X8790722Y-12533776D02*
X8790722Y-12400443D01*
X8790722Y-12419490D02*
X8800246Y-12409967D01*
X8819293Y-12400443D01*
X8847865Y-12400443D01*
X8866912Y-12409967D01*
X8876436Y-12429014D01*
X8876436Y-12533776D01*
X8876436Y-12429014D02*
X8885960Y-12409967D01*
X8905008Y-12400443D01*
X8933579Y-12400443D01*
X8952627Y-12409967D01*
X8962150Y-12429014D01*
X8962150Y-12533776D01*
X9057389Y-12533776D02*
X9057389Y-12400443D01*
X9057389Y-12419490D02*
X9066912Y-12409967D01*
X9085960Y-12400443D01*
X9114531Y-12400443D01*
X9133579Y-12409967D01*
X9143103Y-12429014D01*
X9143103Y-12533776D01*
X9143103Y-12429014D02*
X9152627Y-12409967D01*
X9171674Y-12400443D01*
X9200246Y-12400443D01*
X9219293Y-12409967D01*
X9228817Y-12429014D01*
X9228817Y-12533776D01*
X9619293Y-12324252D02*
X9447865Y-12581395D01*
X9876436Y-12333776D02*
X9895484Y-12333776D01*
X9914531Y-12343300D01*
X9924055Y-12352824D01*
X9933579Y-12371871D01*
X9943103Y-12409967D01*
X9943103Y-12457586D01*
X9933579Y-12495681D01*
X9924055Y-12514728D01*
X9914531Y-12524252D01*
X9895484Y-12533776D01*
X9876436Y-12533776D01*
X9857389Y-12524252D01*
X9847865Y-12514728D01*
X9838341Y-12495681D01*
X9828817Y-12457586D01*
X9828817Y-12409967D01*
X9838341Y-12371871D01*
X9847865Y-12352824D01*
X9857389Y-12343300D01*
X9876436Y-12333776D01*
X10028817Y-12514728D02*
X10038341Y-12524252D01*
X10028817Y-12533776D01*
X10019293Y-12524252D01*
X10028817Y-12514728D01*
X10028817Y-12533776D01*
X10162150Y-12333776D02*
X10181198Y-12333776D01*
X10200246Y-12343300D01*
X10209770Y-12352824D01*
X10219293Y-12371871D01*
X10228817Y-12409967D01*
X10228817Y-12457586D01*
X10219293Y-12495681D01*
X10209770Y-12514728D01*
X10200246Y-12524252D01*
X10181198Y-12533776D01*
X10162150Y-12533776D01*
X10143103Y-12524252D01*
X10133579Y-12514728D01*
X10124055Y-12495681D01*
X10114531Y-12457586D01*
X10114531Y-12409967D01*
X10124055Y-12371871D01*
X10133579Y-12352824D01*
X10143103Y-12343300D01*
X10162150Y-12333776D01*
X10419293Y-12533776D02*
X10305008Y-12533776D01*
X10362150Y-12533776D02*
X10362150Y-12333776D01*
X10343103Y-12362348D01*
X10324055Y-12381395D01*
X10305008Y-12390919D01*
X10600246Y-12333776D02*
X10505008Y-12333776D01*
X10495484Y-12429014D01*
X10505008Y-12419490D01*
X10524055Y-12409967D01*
X10571674Y-12409967D01*
X10590722Y-12419490D01*
X10600246Y-12429014D01*
X10609770Y-12448062D01*
X10609770Y-12495681D01*
X10600246Y-12514728D01*
X10590722Y-12524252D01*
X10571674Y-12533776D01*
X10524055Y-12533776D01*
X10505008Y-12524252D01*
X10495484Y-12514728D01*
X10676436Y-12333776D02*
X10809770Y-12333776D01*
X10724055Y-12533776D01*
X10876436Y-12333776D02*
X10876436Y-12371871D01*
X10952627Y-12333776D02*
X10952627Y-12371871D01*
X11247865Y-12609967D02*
X11238341Y-12600443D01*
X11219293Y-12571871D01*
X11209769Y-12552824D01*
X11200246Y-12524252D01*
X11190722Y-12476633D01*
X11190722Y-12438538D01*
X11200246Y-12390919D01*
X11209769Y-12362348D01*
X11219293Y-12343300D01*
X11238341Y-12314728D01*
X11247865Y-12305205D01*
X11428817Y-12533776D02*
X11314531Y-12533776D01*
X11371674Y-12533776D02*
X11371674Y-12333776D01*
X11352627Y-12362348D01*
X11333579Y-12381395D01*
X11314531Y-12390919D01*
X11552627Y-12333776D02*
X11571674Y-12333776D01*
X11590722Y-12343300D01*
X11600246Y-12352824D01*
X11609769Y-12371871D01*
X11619293Y-12409967D01*
X11619293Y-12457586D01*
X11609769Y-12495681D01*
X11600246Y-12514728D01*
X11590722Y-12524252D01*
X11571674Y-12533776D01*
X11552627Y-12533776D01*
X11533579Y-12524252D01*
X11524055Y-12514728D01*
X11514531Y-12495681D01*
X11505008Y-12457586D01*
X11505008Y-12409967D01*
X11514531Y-12371871D01*
X11524055Y-12352824D01*
X11533579Y-12343300D01*
X11552627Y-12333776D01*
X11857388Y-12533776D02*
X11857388Y-12333776D01*
X11943103Y-12533776D02*
X11943103Y-12429014D01*
X11933579Y-12409967D01*
X11914531Y-12400443D01*
X11885960Y-12400443D01*
X11866912Y-12409967D01*
X11857388Y-12419490D01*
X12066912Y-12533776D02*
X12047865Y-12524252D01*
X12038341Y-12514728D01*
X12028817Y-12495681D01*
X12028817Y-12438538D01*
X12038341Y-12419490D01*
X12047865Y-12409967D01*
X12066912Y-12400443D01*
X12095484Y-12400443D01*
X12114531Y-12409967D01*
X12124055Y-12419490D01*
X12133579Y-12438538D01*
X12133579Y-12495681D01*
X12124055Y-12514728D01*
X12114531Y-12524252D01*
X12095484Y-12533776D01*
X12066912Y-12533776D01*
X12247865Y-12533776D02*
X12228817Y-12524252D01*
X12219293Y-12505205D01*
X12219293Y-12333776D01*
X12400246Y-12524252D02*
X12381198Y-12533776D01*
X12343103Y-12533776D01*
X12324055Y-12524252D01*
X12314531Y-12505205D01*
X12314531Y-12429014D01*
X12324055Y-12409967D01*
X12343103Y-12400443D01*
X12381198Y-12400443D01*
X12400246Y-12409967D01*
X12409769Y-12429014D01*
X12409769Y-12448062D01*
X12314531Y-12467109D01*
X12485960Y-12524252D02*
X12505008Y-12533776D01*
X12543103Y-12533776D01*
X12562150Y-12524252D01*
X12571674Y-12505205D01*
X12571674Y-12495681D01*
X12562150Y-12476633D01*
X12543103Y-12467109D01*
X12514531Y-12467109D01*
X12495484Y-12457586D01*
X12485960Y-12438538D01*
X12485960Y-12429014D01*
X12495484Y-12409967D01*
X12514531Y-12400443D01*
X12543103Y-12400443D01*
X12562150Y-12409967D01*
X12638341Y-12609967D02*
X12647865Y-12600443D01*
X12666912Y-12571871D01*
X12676436Y-12552824D01*
X12685960Y-12524252D01*
X12695484Y-12476633D01*
X12695484Y-12438538D01*
X12685960Y-12390919D01*
X12676436Y-12362348D01*
X12666912Y-12343300D01*
X12647865Y-12314728D01*
X12638341Y-12305205D01*
D13*
X7675960Y-12707300D02*
G75*
G03*
X7675960Y-12707300I-40000J0D01*
G01*
D11*
X7971674Y-12597776D02*
X7990722Y-12597776D01*
X8009769Y-12607300D01*
X8019293Y-12616824D01*
X8028817Y-12635871D01*
X8038341Y-12673967D01*
X8038341Y-12721586D01*
X8028817Y-12759681D01*
X8019293Y-12778728D01*
X8009769Y-12788252D01*
X7990722Y-12797776D01*
X7971674Y-12797776D01*
X7952627Y-12788252D01*
X7943103Y-12778728D01*
X7933579Y-12759681D01*
X7924055Y-12721586D01*
X7924055Y-12673967D01*
X7933579Y-12635871D01*
X7943103Y-12616824D01*
X7952627Y-12607300D01*
X7971674Y-12597776D01*
X8124055Y-12778728D02*
X8133579Y-12788252D01*
X8124055Y-12797776D01*
X8114531Y-12788252D01*
X8124055Y-12778728D01*
X8124055Y-12797776D01*
X8247865Y-12683490D02*
X8228817Y-12673967D01*
X8219293Y-12664443D01*
X8209769Y-12645395D01*
X8209769Y-12635871D01*
X8219293Y-12616824D01*
X8228817Y-12607300D01*
X8247865Y-12597776D01*
X8285960Y-12597776D01*
X8305008Y-12607300D01*
X8314531Y-12616824D01*
X8324055Y-12635871D01*
X8324055Y-12645395D01*
X8314531Y-12664443D01*
X8305008Y-12673967D01*
X8285960Y-12683490D01*
X8247865Y-12683490D01*
X8228817Y-12693014D01*
X8219293Y-12702538D01*
X8209769Y-12721586D01*
X8209769Y-12759681D01*
X8219293Y-12778728D01*
X8228817Y-12788252D01*
X8247865Y-12797776D01*
X8285960Y-12797776D01*
X8305008Y-12788252D01*
X8314531Y-12778728D01*
X8324055Y-12759681D01*
X8324055Y-12721586D01*
X8314531Y-12702538D01*
X8305008Y-12693014D01*
X8285960Y-12683490D01*
X8447865Y-12597776D02*
X8466912Y-12597776D01*
X8485960Y-12607300D01*
X8495484Y-12616824D01*
X8505008Y-12635871D01*
X8514531Y-12673967D01*
X8514531Y-12721586D01*
X8505008Y-12759681D01*
X8495484Y-12778728D01*
X8485960Y-12788252D01*
X8466912Y-12797776D01*
X8447865Y-12797776D01*
X8428817Y-12788252D01*
X8419293Y-12778728D01*
X8409770Y-12759681D01*
X8400246Y-12721586D01*
X8400246Y-12673967D01*
X8409770Y-12635871D01*
X8419293Y-12616824D01*
X8428817Y-12607300D01*
X8447865Y-12597776D01*
X8638341Y-12597776D02*
X8657389Y-12597776D01*
X8676436Y-12607300D01*
X8685960Y-12616824D01*
X8695484Y-12635871D01*
X8705008Y-12673967D01*
X8705008Y-12721586D01*
X8695484Y-12759681D01*
X8685960Y-12778728D01*
X8676436Y-12788252D01*
X8657389Y-12797776D01*
X8638341Y-12797776D01*
X8619293Y-12788252D01*
X8609770Y-12778728D01*
X8600246Y-12759681D01*
X8590722Y-12721586D01*
X8590722Y-12673967D01*
X8600246Y-12635871D01*
X8609770Y-12616824D01*
X8619293Y-12607300D01*
X8638341Y-12597776D01*
X8790722Y-12797776D02*
X8790722Y-12664443D01*
X8790722Y-12683490D02*
X8800246Y-12673967D01*
X8819293Y-12664443D01*
X8847865Y-12664443D01*
X8866912Y-12673967D01*
X8876436Y-12693014D01*
X8876436Y-12797776D01*
X8876436Y-12693014D02*
X8885960Y-12673967D01*
X8905008Y-12664443D01*
X8933579Y-12664443D01*
X8952627Y-12673967D01*
X8962150Y-12693014D01*
X8962150Y-12797776D01*
X9057389Y-12797776D02*
X9057389Y-12664443D01*
X9057389Y-12683490D02*
X9066912Y-12673967D01*
X9085960Y-12664443D01*
X9114531Y-12664443D01*
X9133579Y-12673967D01*
X9143103Y-12693014D01*
X9143103Y-12797776D01*
X9143103Y-12693014D02*
X9152627Y-12673967D01*
X9171674Y-12664443D01*
X9200246Y-12664443D01*
X9219293Y-12673967D01*
X9228817Y-12693014D01*
X9228817Y-12797776D01*
X9619293Y-12588252D02*
X9447865Y-12845395D01*
X9876436Y-12597776D02*
X9895484Y-12597776D01*
X9914531Y-12607300D01*
X9924055Y-12616824D01*
X9933579Y-12635871D01*
X9943103Y-12673967D01*
X9943103Y-12721586D01*
X9933579Y-12759681D01*
X9924055Y-12778728D01*
X9914531Y-12788252D01*
X9895484Y-12797776D01*
X9876436Y-12797776D01*
X9857389Y-12788252D01*
X9847865Y-12778728D01*
X9838341Y-12759681D01*
X9828817Y-12721586D01*
X9828817Y-12673967D01*
X9838341Y-12635871D01*
X9847865Y-12616824D01*
X9857389Y-12607300D01*
X9876436Y-12597776D01*
X10028817Y-12778728D02*
X10038341Y-12788252D01*
X10028817Y-12797776D01*
X10019293Y-12788252D01*
X10028817Y-12778728D01*
X10028817Y-12797776D01*
X10162150Y-12597776D02*
X10181198Y-12597776D01*
X10200246Y-12607300D01*
X10209770Y-12616824D01*
X10219293Y-12635871D01*
X10228817Y-12673967D01*
X10228817Y-12721586D01*
X10219293Y-12759681D01*
X10209770Y-12778728D01*
X10200246Y-12788252D01*
X10181198Y-12797776D01*
X10162150Y-12797776D01*
X10143103Y-12788252D01*
X10133579Y-12778728D01*
X10124055Y-12759681D01*
X10114531Y-12721586D01*
X10114531Y-12673967D01*
X10124055Y-12635871D01*
X10133579Y-12616824D01*
X10143103Y-12607300D01*
X10162150Y-12597776D01*
X10295484Y-12597776D02*
X10419293Y-12597776D01*
X10352627Y-12673967D01*
X10381198Y-12673967D01*
X10400246Y-12683490D01*
X10409770Y-12693014D01*
X10419293Y-12712062D01*
X10419293Y-12759681D01*
X10409770Y-12778728D01*
X10400246Y-12788252D01*
X10381198Y-12797776D01*
X10324055Y-12797776D01*
X10305008Y-12788252D01*
X10295484Y-12778728D01*
X10609770Y-12797776D02*
X10495484Y-12797776D01*
X10552627Y-12797776D02*
X10552627Y-12597776D01*
X10533579Y-12626348D01*
X10514531Y-12645395D01*
X10495484Y-12654919D01*
X10790722Y-12597776D02*
X10695484Y-12597776D01*
X10685960Y-12693014D01*
X10695484Y-12683490D01*
X10714531Y-12673967D01*
X10762150Y-12673967D01*
X10781198Y-12683490D01*
X10790722Y-12693014D01*
X10800246Y-12712062D01*
X10800246Y-12759681D01*
X10790722Y-12778728D01*
X10781198Y-12788252D01*
X10762150Y-12797776D01*
X10714531Y-12797776D01*
X10695484Y-12788252D01*
X10685960Y-12778728D01*
X10876436Y-12597776D02*
X10876436Y-12635871D01*
X10952627Y-12597776D02*
X10952627Y-12635871D01*
X11247865Y-12873967D02*
X11238341Y-12864443D01*
X11219293Y-12835871D01*
X11209769Y-12816824D01*
X11200246Y-12788252D01*
X11190722Y-12740633D01*
X11190722Y-12702538D01*
X11200246Y-12654919D01*
X11209769Y-12626348D01*
X11219293Y-12607300D01*
X11238341Y-12578728D01*
X11247865Y-12569205D01*
X11409769Y-12664443D02*
X11409769Y-12797776D01*
X11362150Y-12588252D02*
X11314531Y-12731109D01*
X11438341Y-12731109D01*
X11505008Y-12616824D02*
X11514531Y-12607300D01*
X11533579Y-12597776D01*
X11581198Y-12597776D01*
X11600246Y-12607300D01*
X11609769Y-12616824D01*
X11619293Y-12635871D01*
X11619293Y-12654919D01*
X11609769Y-12683490D01*
X11495484Y-12797776D01*
X11619293Y-12797776D01*
X11857388Y-12797776D02*
X11857388Y-12597776D01*
X11943103Y-12797776D02*
X11943103Y-12693014D01*
X11933579Y-12673967D01*
X11914531Y-12664443D01*
X11885960Y-12664443D01*
X11866912Y-12673967D01*
X11857388Y-12683490D01*
X12066912Y-12797776D02*
X12047865Y-12788252D01*
X12038341Y-12778728D01*
X12028817Y-12759681D01*
X12028817Y-12702538D01*
X12038341Y-12683490D01*
X12047865Y-12673967D01*
X12066912Y-12664443D01*
X12095484Y-12664443D01*
X12114531Y-12673967D01*
X12124055Y-12683490D01*
X12133579Y-12702538D01*
X12133579Y-12759681D01*
X12124055Y-12778728D01*
X12114531Y-12788252D01*
X12095484Y-12797776D01*
X12066912Y-12797776D01*
X12247865Y-12797776D02*
X12228817Y-12788252D01*
X12219293Y-12769205D01*
X12219293Y-12597776D01*
X12400246Y-12788252D02*
X12381198Y-12797776D01*
X12343103Y-12797776D01*
X12324055Y-12788252D01*
X12314531Y-12769205D01*
X12314531Y-12693014D01*
X12324055Y-12673967D01*
X12343103Y-12664443D01*
X12381198Y-12664443D01*
X12400246Y-12673967D01*
X12409769Y-12693014D01*
X12409769Y-12712062D01*
X12314531Y-12731109D01*
X12485960Y-12788252D02*
X12505008Y-12797776D01*
X12543103Y-12797776D01*
X12562150Y-12788252D01*
X12571674Y-12769205D01*
X12571674Y-12759681D01*
X12562150Y-12740633D01*
X12543103Y-12731109D01*
X12514531Y-12731109D01*
X12495484Y-12721586D01*
X12485960Y-12702538D01*
X12485960Y-12693014D01*
X12495484Y-12673967D01*
X12514531Y-12664443D01*
X12543103Y-12664443D01*
X12562150Y-12673967D01*
X12638341Y-12873967D02*
X12647865Y-12864443D01*
X12666912Y-12835871D01*
X12676436Y-12816824D01*
X12685960Y-12788252D01*
X12695484Y-12740633D01*
X12695484Y-12702538D01*
X12685960Y-12654919D01*
X12676436Y-12626348D01*
X12666912Y-12607300D01*
X12647865Y-12578728D01*
X12638341Y-12569205D01*
D14*
X7625960Y-12921300D02*
X7625960Y-13021300D01*
X7575960Y-12971300D02*
X7675960Y-12971300D01*
D11*
X8038341Y-13061776D02*
X7924055Y-13061776D01*
X7981198Y-13061776D02*
X7981198Y-12861776D01*
X7962150Y-12890348D01*
X7943103Y-12909395D01*
X7924055Y-12918919D01*
X8124055Y-13042728D02*
X8133579Y-13052252D01*
X8124055Y-13061776D01*
X8114531Y-13052252D01*
X8124055Y-13042728D01*
X8124055Y-13061776D01*
X8257388Y-12861776D02*
X8276436Y-12861776D01*
X8295484Y-12871300D01*
X8305008Y-12880824D01*
X8314531Y-12899871D01*
X8324055Y-12937967D01*
X8324055Y-12985586D01*
X8314531Y-13023681D01*
X8305008Y-13042728D01*
X8295484Y-13052252D01*
X8276436Y-13061776D01*
X8257388Y-13061776D01*
X8238341Y-13052252D01*
X8228817Y-13042728D01*
X8219293Y-13023681D01*
X8209769Y-12985586D01*
X8209769Y-12937967D01*
X8219293Y-12899871D01*
X8228817Y-12880824D01*
X8238341Y-12871300D01*
X8257388Y-12861776D01*
X8447865Y-12861776D02*
X8466912Y-12861776D01*
X8485960Y-12871300D01*
X8495484Y-12880824D01*
X8505008Y-12899871D01*
X8514531Y-12937967D01*
X8514531Y-12985586D01*
X8505008Y-13023681D01*
X8495484Y-13042728D01*
X8485960Y-13052252D01*
X8466912Y-13061776D01*
X8447865Y-13061776D01*
X8428817Y-13052252D01*
X8419293Y-13042728D01*
X8409770Y-13023681D01*
X8400246Y-12985586D01*
X8400246Y-12937967D01*
X8409770Y-12899871D01*
X8419293Y-12880824D01*
X8428817Y-12871300D01*
X8447865Y-12861776D01*
X8638341Y-12861776D02*
X8657389Y-12861776D01*
X8676436Y-12871300D01*
X8685960Y-12880824D01*
X8695484Y-12899871D01*
X8705008Y-12937967D01*
X8705008Y-12985586D01*
X8695484Y-13023681D01*
X8685960Y-13042728D01*
X8676436Y-13052252D01*
X8657389Y-13061776D01*
X8638341Y-13061776D01*
X8619293Y-13052252D01*
X8609770Y-13042728D01*
X8600246Y-13023681D01*
X8590722Y-12985586D01*
X8590722Y-12937967D01*
X8600246Y-12899871D01*
X8609770Y-12880824D01*
X8619293Y-12871300D01*
X8638341Y-12861776D01*
X8790722Y-13061776D02*
X8790722Y-12928443D01*
X8790722Y-12947490D02*
X8800246Y-12937967D01*
X8819293Y-12928443D01*
X8847865Y-12928443D01*
X8866912Y-12937967D01*
X8876436Y-12957014D01*
X8876436Y-13061776D01*
X8876436Y-12957014D02*
X8885960Y-12937967D01*
X8905008Y-12928443D01*
X8933579Y-12928443D01*
X8952627Y-12937967D01*
X8962150Y-12957014D01*
X8962150Y-13061776D01*
X9057389Y-13061776D02*
X9057389Y-12928443D01*
X9057389Y-12947490D02*
X9066912Y-12937967D01*
X9085960Y-12928443D01*
X9114531Y-12928443D01*
X9133579Y-12937967D01*
X9143103Y-12957014D01*
X9143103Y-13061776D01*
X9143103Y-12957014D02*
X9152627Y-12937967D01*
X9171674Y-12928443D01*
X9200246Y-12928443D01*
X9219293Y-12937967D01*
X9228817Y-12957014D01*
X9228817Y-13061776D01*
X9619293Y-12852252D02*
X9447865Y-13109395D01*
X9876436Y-12861776D02*
X9895484Y-12861776D01*
X9914531Y-12871300D01*
X9924055Y-12880824D01*
X9933579Y-12899871D01*
X9943103Y-12937967D01*
X9943103Y-12985586D01*
X9933579Y-13023681D01*
X9924055Y-13042728D01*
X9914531Y-13052252D01*
X9895484Y-13061776D01*
X9876436Y-13061776D01*
X9857389Y-13052252D01*
X9847865Y-13042728D01*
X9838341Y-13023681D01*
X9828817Y-12985586D01*
X9828817Y-12937967D01*
X9838341Y-12899871D01*
X9847865Y-12880824D01*
X9857389Y-12871300D01*
X9876436Y-12861776D01*
X10028817Y-13042728D02*
X10038341Y-13052252D01*
X10028817Y-13061776D01*
X10019293Y-13052252D01*
X10028817Y-13042728D01*
X10028817Y-13061776D01*
X10162150Y-12861776D02*
X10181198Y-12861776D01*
X10200246Y-12871300D01*
X10209770Y-12880824D01*
X10219293Y-12899871D01*
X10228817Y-12937967D01*
X10228817Y-12985586D01*
X10219293Y-13023681D01*
X10209770Y-13042728D01*
X10200246Y-13052252D01*
X10181198Y-13061776D01*
X10162150Y-13061776D01*
X10143103Y-13052252D01*
X10133579Y-13042728D01*
X10124055Y-13023681D01*
X10114531Y-12985586D01*
X10114531Y-12937967D01*
X10124055Y-12899871D01*
X10133579Y-12880824D01*
X10143103Y-12871300D01*
X10162150Y-12861776D01*
X10295484Y-12861776D02*
X10419293Y-12861776D01*
X10352627Y-12937967D01*
X10381198Y-12937967D01*
X10400246Y-12947490D01*
X10409770Y-12957014D01*
X10419293Y-12976062D01*
X10419293Y-13023681D01*
X10409770Y-13042728D01*
X10400246Y-13052252D01*
X10381198Y-13061776D01*
X10324055Y-13061776D01*
X10305008Y-13052252D01*
X10295484Y-13042728D01*
X10514531Y-13061776D02*
X10552627Y-13061776D01*
X10571674Y-13052252D01*
X10581198Y-13042728D01*
X10600246Y-13014157D01*
X10609770Y-12976062D01*
X10609770Y-12899871D01*
X10600246Y-12880824D01*
X10590722Y-12871300D01*
X10571674Y-12861776D01*
X10533579Y-12861776D01*
X10514531Y-12871300D01*
X10505008Y-12880824D01*
X10495484Y-12899871D01*
X10495484Y-12947490D01*
X10505008Y-12966538D01*
X10514531Y-12976062D01*
X10533579Y-12985586D01*
X10571674Y-12985586D01*
X10590722Y-12976062D01*
X10600246Y-12966538D01*
X10609770Y-12947490D01*
X10781198Y-12928443D02*
X10781198Y-13061776D01*
X10733579Y-12852252D02*
X10685960Y-12995109D01*
X10809770Y-12995109D01*
X10876436Y-12861776D02*
X10876436Y-12899871D01*
X10952627Y-12861776D02*
X10952627Y-12899871D01*
X11247865Y-13137967D02*
X11238341Y-13128443D01*
X11219293Y-13099871D01*
X11209769Y-13080824D01*
X11200246Y-13052252D01*
X11190722Y-13004633D01*
X11190722Y-12966538D01*
X11200246Y-12918919D01*
X11209769Y-12890348D01*
X11219293Y-12871300D01*
X11238341Y-12842728D01*
X11247865Y-12833205D01*
X11409769Y-12928443D02*
X11409769Y-13061776D01*
X11362150Y-12852252D02*
X11314531Y-12995109D01*
X11438341Y-12995109D01*
X11552627Y-12861776D02*
X11571674Y-12861776D01*
X11590722Y-12871300D01*
X11600246Y-12880824D01*
X11609769Y-12899871D01*
X11619293Y-12937967D01*
X11619293Y-12985586D01*
X11609769Y-13023681D01*
X11600246Y-13042728D01*
X11590722Y-13052252D01*
X11571674Y-13061776D01*
X11552627Y-13061776D01*
X11533579Y-13052252D01*
X11524055Y-13042728D01*
X11514531Y-13023681D01*
X11505008Y-12985586D01*
X11505008Y-12937967D01*
X11514531Y-12899871D01*
X11524055Y-12880824D01*
X11533579Y-12871300D01*
X11552627Y-12861776D01*
X11857388Y-13061776D02*
X11857388Y-12861776D01*
X11943103Y-13061776D02*
X11943103Y-12957014D01*
X11933579Y-12937967D01*
X11914531Y-12928443D01*
X11885960Y-12928443D01*
X11866912Y-12937967D01*
X11857388Y-12947490D01*
X12066912Y-13061776D02*
X12047865Y-13052252D01*
X12038341Y-13042728D01*
X12028817Y-13023681D01*
X12028817Y-12966538D01*
X12038341Y-12947490D01*
X12047865Y-12937967D01*
X12066912Y-12928443D01*
X12095484Y-12928443D01*
X12114531Y-12937967D01*
X12124055Y-12947490D01*
X12133579Y-12966538D01*
X12133579Y-13023681D01*
X12124055Y-13042728D01*
X12114531Y-13052252D01*
X12095484Y-13061776D01*
X12066912Y-13061776D01*
X12247865Y-13061776D02*
X12228817Y-13052252D01*
X12219293Y-13033205D01*
X12219293Y-12861776D01*
X12400246Y-13052252D02*
X12381198Y-13061776D01*
X12343103Y-13061776D01*
X12324055Y-13052252D01*
X12314531Y-13033205D01*
X12314531Y-12957014D01*
X12324055Y-12937967D01*
X12343103Y-12928443D01*
X12381198Y-12928443D01*
X12400246Y-12937967D01*
X12409769Y-12957014D01*
X12409769Y-12976062D01*
X12314531Y-12995109D01*
X12485960Y-13052252D02*
X12505008Y-13061776D01*
X12543103Y-13061776D01*
X12562150Y-13052252D01*
X12571674Y-13033205D01*
X12571674Y-13023681D01*
X12562150Y-13004633D01*
X12543103Y-12995109D01*
X12514531Y-12995109D01*
X12495484Y-12985586D01*
X12485960Y-12966538D01*
X12485960Y-12957014D01*
X12495484Y-12937967D01*
X12514531Y-12928443D01*
X12543103Y-12928443D01*
X12562150Y-12937967D01*
X12638341Y-13137967D02*
X12647865Y-13128443D01*
X12666912Y-13099871D01*
X12676436Y-13080824D01*
X12685960Y-13052252D01*
X12695484Y-13004633D01*
X12695484Y-12966538D01*
X12685960Y-12918919D01*
X12676436Y-12890348D01*
X12666912Y-12871300D01*
X12647865Y-12842728D01*
X12638341Y-12833205D01*
M02*
